<?xml version="1.0" encoding="utf-8"?>
<!-- Generator: Adobe Illustrator 21.1.0, SVG Export Plug-In . SVG Version: 6.00 Build 0)  -->
<svg version="1.1" id="Layer_1" xmlns="http://www.w3.org/2000/svg" xmlns:xlink="http://www.w3.org/1999/xlink" x="0px" y="0px"
	 viewBox="0 0 1637.2 676.4" style="enable-background:new 0 0 1637.2 676.4;" xml:space="preserve">
<style type="text/css">
	.st0{fill:url(#SVGID_1_);stroke:#231F20;stroke-width:1.6096;stroke-linecap:round;stroke-linejoin:round;stroke-miterlimit:10;}
	.st1{fill:none;stroke:#231F20;stroke-width:6;stroke-linecap:round;stroke-linejoin:round;stroke-miterlimit:10;}
	.st2{fill:#FFFFFF;stroke:#231F20;stroke-width:6;stroke-linecap:round;stroke-linejoin:round;stroke-miterlimit:10;}
	.st3{fill:#CCCCCC;stroke:#231F20;stroke-width:6;stroke-linecap:round;stroke-linejoin:round;stroke-miterlimit:10;}
	.st4{fill:#231F20;}
	.st5{fill:#E5E5E5;}
	.st6{fill:none;stroke:#231F20;stroke-width:3;stroke-linecap:round;stroke-linejoin:round;stroke-miterlimit:10;}
</style>
<g id="Layer_2">
	
		<linearGradient id="SVGID_1_" gradientUnits="userSpaceOnUse" x1="0" y1="339.8" x2="1637.2" y2="339.8" gradientTransform="matrix(1 0 0 -1 0 678)">
		<stop  offset="0" style="stop-color:#8DC1D7"/>
		<stop  offset="0.4719" style="stop-color:#D6E5E9"/>
		<stop  offset="0.4776" style="stop-color:#D5E5E9"/>
		<stop  offset="0.6009" style="stop-color:#C7DDE2"/>
		<stop  offset="0.7507" style="stop-color:#BFD8DE"/>
		<stop  offset="1" style="stop-color:#BCD7DD"/>
	</linearGradient>
	<rect class="st0" width="1637.2" height="676.4"/>
</g>
<g id="Layer_1_1_">
	<g>
		<path class="st1" d="M653.5,533.1c0,0,34.9-1.7,59.6-0.1c24.7,1.6,51.8-1.4,80.3-2.2s78.8-2.2,103.4,0c24.7,2.2,89.6-2.1,89.6-2.1
			"/>
		<path class="st1" d="M927.9,497.3c0,0,23.4-1.2,34.2-1.1c10.9,0,11.8,6.9,22,6.3c10.3-0.5,33-3.3,33-3.3"/>
		<path class="st1" d="M952.9,469.4c0,0,9-2.2,15.4-0.8c6.4,1.4,14.1,7.9,20.9,6.4"/>
		<path class="st1" d="M672.4,465.3c0,0-10.8,1.7-21.1,1c-10.3-0.6-12.3-5.7-18.5-3.7s-14.7,4.2-14.7,4.2"/>
		<path class="st1" d="M674.7,505.4c0,0-17.6,2.6-24.6-0.5s-21,2.2-21,2.2"/>
		<path class="st2" d="M892.5,358c0,0-3.8-50.4-33.5-96.5s-21.9-104.8,15.3-115.6s80.1,8.1,56.8,65.4c2.7,11,19.5,22.6,19.5,22.6
			s-20.1,9.1-41.9-2c-10.1,39.5,28,88.1,45.3,121S969.4,485,917.2,530c-56.6,0.2-211.7,1.9-211.7,1.9s-22.4-27.6-23-40.4
			c-26-5.2-27.2-48-27.2-48s28.5-21.6,54.9-24.6c20.6-25.9,55-32.3,55-32.3S797.7,340.4,892.5,358z"/>
		<path class="st3" d="M912.2,209.6c-0.9,2-1.6,4.1-2.1,6.1c-2.1,8.3-1.3,16.1-1.3,16.1c21.8,11.1,41.9,2,41.9,2
			s-16.9-11.6-19.5-22.6c0,0-5.7-1.9-10.6,2.7"/>
		<circle class="st4" cx="926.3" cy="184.5" r="3.4"/>
		<path class="st5" d="M666.8,444c0,0,1.9,37,26.6,41.9c0.6,12.2,21.2,42.1,21.2,42.1s147.3-1.6,201.1-1.8c0.7-0.6,1.4-1.3,2.1-1.9
			c-60.9-20-177.8,3.6-204.4-56.1C697.4,432.2,666.8,444,666.8,444z"/>
		<path class="st2" d="M892.5,358c-94.7-17.6-127.2,28.6-127.2,28.6c-16.1,20.5-39,77.8-39,77.8c42.8-1.3,51.5,44.6,99.1,53.8
			c47.6,9.2,129.2-23.1,111.2-91.2"/>
		<path class="st5" d="M773.2,475.1c14.6,12.3,27.5,29,52.9,33.9c37.8,7.3,99.8-14.9,100.8-63.1C892.6,502.4,763.6,467,773.2,475.1z
			"/>
		<line class="st6" x1="749.3" y1="431.7" x2="738.5" y2="454.5"/>
		<line class="st6" x1="751.6" y1="439.7" x2="744.8" y2="454.2"/>
		<line class="st6" x1="755.5" y1="445.6" x2="751.2" y2="455.1"/>
		<path class="st6" d="M873.8,270.1c0,0,18.3,34.7,20.4,52.2"/>
		<path class="st6" d="M889.9,290.2c0,0,7.3,17.1,8.1,24.4"/>
	</g>
</g>
</svg>
