<?xml version="1.0" encoding="utf-8"?>
<!-- Generator: Adobe Illustrator 22.0.1, SVG Export Plug-In . SVG Version: 6.00 Build 0)  -->
<svg version="1.1" id="Layer_1" xmlns="http://www.w3.org/2000/svg" xmlns:xlink="http://www.w3.org/1999/xlink" x="0px" y="0px"
	 viewBox="0 0 1637.2 676.4" enable-background="new 0 0 1637.2 676.4" xml:space="preserve">
<g id="Layer_2_2_">
	
		<linearGradient id="SVGID_1_" gradientUnits="userSpaceOnUse" x1="0" y1="740.2" x2="1637.2" y2="740.2" gradientTransform="matrix(1 0 0 1 0 -402)">
		<stop  offset="0" style="stop-color:#0099B9"/>
		<stop  offset="1" style="stop-color:#3EB0CA;stop-opacity:0.8"/>
	</linearGradient>
	<rect fill="url(#SVGID_1_)" width="1637.2" height="676.4"/>
</g>
<g>
	<path fill="#F4F4F4" d="M994.8,205.8c-5.7,1.1-11.6,2.1-17.9,3.3c-6.1-15.4-18.3-22.9-35.1-22.8c-16.9,0.1-28.4,8.1-33.5,24.5
		c-27-12.7-42.7-9.6-56.7,11.3c-29.5-18.1-60.9-22.1-93.5-9.9c-24.5,9.1-42.8,25.8-55.1,49c-24.9,47.4-9.5,109.9,43.5,139.2
		c-6.6,11.8,1.2,19.1,8.9,26.4c1.9,1.8,3.9,3.6,6.2,5.1c17.1,10.8,27.4,26.8,34.8,45.1c7.6,18.5,15.9,36.6,27.6,53
		c0.4,0.5,0.5,1.1,0.8,1.8c-92,15.5-213.6-38.9-247.6-163.7c-33.1-121.6,38.3-244.2,158.4-276.8C851.2,59.7,956.5,124.1,994.8,205.8
		z"/>
	<path fill="#F4F4F4" d="M974.5,354.4c0-6.7,0-13.1,0-19.6c0.3-31.8,0.5-63.7,0.9-95.5c0.2-13.5,7.2-20.7,19.6-20.6
		c13.2,0,21.7,8.2,22,21.3c0.8,37.8,1.7,75.6,2.5,113.4c0.1,2.4-0.6,5.2,3.4,5.3c4.3,0.1,3.6-2.9,3.7-5.5c0.3-24.7,0.6-49.3,1-74
		c0.1-4.8,0.5-9.7,1-14.5c0.7-6.6,6.3-11.1,15-12.2c12.5-1.7,22,5.7,22.5,18.1c0.7,21.8,1.1,43.6,1.4,65.4c0.3,22.5,0.9,45,0.5,67.5
		c-0.6,40.1-6.5,79.2-22,116.5c-6.6,15.7-9.4,32.2-10.7,49c-0.5,6.6-3.4,10.9-9.1,13.7c-11.1,5.6-23.1,7.3-35.1,8.8
		c-22.4,2.7-44.9,2.4-67.3-0.1c-12.9-1.4-25.7-3.4-37.7-8.8c-6.3-2.8-9.6-7.2-9.5-14.3c0-4.8-0.4-9.7-0.9-14.5
		c-1-8.6-6.2-15-12.5-19.8c-24.7-18.8-39-44.5-49.5-72.9c-5.9-15.9-14.6-29.8-29.1-39.6c-3.8-2.6-7.1-6.1-10-9.7
		c-6.6-8-4.2-17,5.5-20.8c8.8-3.5,18.1-3,27.1-1.6c22.5,3.5,41.8,17.6,55.6,39.1c0-1.6,0-3.3,0-4.9c-0.7-52.2-1.4-104.3-1.9-156.5
		c-0.1-9.5,0.4-19,1-28.5c0.7-12,10.7-20.5,23.5-20.5c13.3,0,23.6,8.9,24.1,21.1c1.4,35.3,2.7,70.6,3.9,105.9
		c0.2,6.5,0.3,6.6,7.4,5.7c0.1-1.2,0.3-2.4,0.3-3.7c0-38.2-0.1-76.3-0.1-114.5c0-4.8,0.5-9.6,0.8-14.5c0.7-11.8,8.9-19.3,21.1-19.4
		c12.2,0,21.1,7.8,21.6,19.5c0.9,20.8,1.6,41.6,2.1,62.4c0.6,22.8,0.9,45.6,1.1,68.5C967.4,354.2,969,356.1,974.5,354.4z"/>
	<path fill="#F4F4F4" d="M822.5,309.2c-0.4,15.9-13,27.7-29,27.2c-14.9-0.5-26.7-13.2-26.4-28.4c0.4-16,12.7-27.5,29-27.1
		C810.9,281.3,822.9,294.1,822.5,309.2z"/>
	<path fill="#F4F4F4" d="M755.8,385.3c-1.2,1.5-2.2,2.8-3.4,4.3c-17.3-8.7-30.3-21.6-39-38.8c-28.4-56.1,5.6-123,67.6-132.7
		c23.1-3.6,44.6,1.4,64.3,14.1c4.3,2.8,4.3,2.9,3,8.9c-24.7-17.9-51.5-23.4-80.7-13.8c-21.5,7.1-37.7,21-48.4,40.9
		C697.8,307.9,710.3,360.5,755.8,385.3z"/>
</g>
</svg>
