<?xml version="1.0" encoding="utf-8"?>
<!-- Generator: Adobe Illustrator 21.1.0, SVG Export Plug-In . SVG Version: 6.00 Build 0)  -->
<svg version="1.1" id="Layer_1" xmlns="http://www.w3.org/2000/svg" xmlns:xlink="http://www.w3.org/1999/xlink" x="0px" y="0px"
	 viewBox="0 0 1637.2 676.4" style="enable-background:new 0 0 1637.2 676.4;" xml:space="preserve">
<style type="text/css">
	.st0{fill:url(#SVGID_1_);}
	.st1{fill:#F4F4F4;}
</style>
<title>thumb</title>
<g id="Layer_2">
	
		<linearGradient id="SVGID_1_" gradientUnits="userSpaceOnUse" x1="0" y1="339.8" x2="1637.2" y2="339.8" gradientTransform="matrix(1 0 0 -1 0 678)">
		<stop  offset="0" style="stop-color:#8CC152"/>
		<stop  offset="1" style="stop-color:#B5DC8C"/>
	</linearGradient>
	<rect class="st0" width="1637.2" height="676.4"/>
</g>
<g id="Layer_1_1_">
	<path class="st1" d="M628.7,535.6v-12.8c10.5-1.6,21-3.3,31.4-4.9c16.6-2.6,33.3-5,49.9-7.7c2.1-0.5,4-1.8,5.3-3.6
		c11.7-17.2,23.2-34.5,34.6-51.9c1.9-2.9,3.8-4.2,7.2-3.8c2.7,0.2,5.5,0.2,8.2,0.1v-32.5c-5-0.5-10.1-1.2-15.2-1.4
		c-1,0-2.2,1.3-3,2.3c-5.8,7.9-11.7,15.7-17,23.9c-13.4,20.6-32.9,35.3-48.8,53l-19.8-20c20.7-18.9,40.4-39.6,53.9-65.8
		c-0.2-0.2-0.7-0.7-1.2-1.1c-9.5-8.2-12.4-18.8-7.9-30.5c6.1-16.1,12.3-32.2,18.6-48.2c1-2.6,1-4.1-1.2-6.2
		c-11.2-10.2-13.7-26.8-6.1-39.9c9-15.6,28.9-21,44.5-12.1c10.8,6.2,17.1,18,16.3,30.4c-0.6,9.4-4.9,17.1-12.5,23.7
		c1.4,0.2,2.4,0.4,3.3,0.4c12.9,0,25.8,0.1,38.7-0.1c2.1-0.1,4-1,5.6-2.4c9.2-8.9,18.1-18,27.2-27c0.9-0.9,1.9-1.8,3.5-3.3
		l16.9,17.5l0.7-0.5l-11.5-23.3c11.8-7.9,23.4-15.8,35.1-23.4c2.7-1.6,4.5-4.2,5.2-7.2c3.1-13.2,6.5-26.3,9.8-39.5
		c0.2-0.8,0.3-1.6,0.4-2.3c-22.7-11.5-30.4-29.4-20.5-47.4c8.5-15.9,28.2-21.8,44.1-13.3c0.4,0.2,0.8,0.4,1.2,0.7
		c15,8.8,22,29.6,9.5,47.6c1.3,1.2,2.7,2.4,4.1,3.6c23.8,21.5,39.1,47.8,44.9,79.4c0.8,4.4-0.9,9.3-1.5,13.9
		c-0.3,2.3-0.8,4.8-0.5,7.1c3.7,26.4,13.7,51,21.7,76.2c0.6,2,1.5,2.9,3.7,2.7c1.9-0.1,3.8-0.1,5.6,0v149.8H628.7z M798.2,451.1
		c5.6,0,10.7-0.1,15.8,0.1c2.4,0.2,4.8-0.9,6.3-2.8c17.8-20,35.8-39.8,53.6-59.7c1.8-2,3.5-3,6.3-2.8c3.5,0.3,7,0.1,10.5,0.1
		c0.2-0.9,0.4-1.4,0.5-1.9c3.5-17.7,7-35.4,10.7-53.1c0.5-2.4,1.5-4.6,3-6.5c7.2-9.2,14.6-18.3,21.8-27.4c0.8-1,1.9-2.4,1.7-3.4
		c-1.8-8-3.9-16-6.2-24.9c-1.3,2.6-2.4,4.1-3,5.8c-1.8,5.1-5.4,8.4-10,11.2c-14.7,8.8-29.1,18-43.5,27.1c-1.6,1-3,2.3-4.2,3.8
		c-11.5,13.4-22.9,26.9-34.6,40.1c-1.8,1.9-4.1,3.3-6.7,3.8c-17.7,3.4-35.5,6.5-53.2,9.9c-1.5,0.3-2.7,1.3-3.4,2.6
		c-1.6,4.1-2.9,8.4-4.3,12.9c9.1,1.5,17.9,2.9,26.8,4.5c8.6,1.5,12.3,6.1,12.3,14.9C798.2,420.3,798.2,435.3,798.2,451.1z
		 M950.5,328.7c-4.7,3.5-9.2,6.8-13.6,10.2c-0.9,0.7-1.6,1.8-1.8,2.9c-1.9,14.5-3.8,29-5.6,43.8h41.6L950.5,328.7z"/>
	<path class="st1" d="M759,202.9H622.4c-4.1-26.4,16-53.4,42.5-57.7c15.9-2.6,30.1,1.3,42.7,11.3c1.6,1.1,3.5,1.7,5.4,1.5
		c24.5-3.7,45.6,14,45.9,38.7C759,198.7,759,200.7,759,202.9z"/>
	<path class="st1" d="M732.7,229h-12.5v-12.6h12.5L732.7,229z"/>
	<path class="st1" d="M746.2,216.3h12.6v12.6h-12.6V216.3z"/>
	<path class="st1" d="M784.8,229h-12.6v-12.6h12.6L784.8,229z"/>
</g>
</svg>
