<?xml version="1.0" encoding="utf-8"?>
<!-- Generator: Adobe Illustrator 21.1.0, SVG Export Plug-In . SVG Version: 6.00 Build 0)  -->
<svg version="1.1" id="Layer_1" xmlns="http://www.w3.org/2000/svg" xmlns:xlink="http://www.w3.org/1999/xlink" x="0px" y="0px"
	 viewBox="0 0 1637.2 676.4" style="enable-background:new 0 0 1637.2 676.4;" xml:space="preserve">
<style type="text/css">
	.st0{fill:url(#SVGID_1_);}
	.st1{fill:#F4F7F9;}
	.st2{fill:#F4F2E8;}
	.st3{display:none;}
	.st4{display:inline;fill:#3B6A75;}
	.st5{fill:#FFFFFF;}
</style>
<g id="Layer_2">
	
		<linearGradient id="SVGID_1_" gradientUnits="userSpaceOnUse" x1="0" y1="-62.2" x2="1637.2" y2="-62.2" gradientTransform="matrix(1 0 0 -1 0 276)">
		<stop  offset="0" style="stop-color:#00A185"/>
		<stop  offset="0.5" style="stop-color:#00B6A9"/>
		<stop  offset="1" style="stop-color:#8AD0C3"/>
	</linearGradient>
	<rect class="st0" width="1637.2" height="676.4"/>
</g>
<g id="Layer_1_1_">
	<g>
		<g>
			<path class="st1" d="M1011.9,296.2L999,241c-0.8-1.8-5-9.7-15-7.2c-3.4,0.8-5.7,2.3-7,4.5c-1.9,3.2-0.9,7-0.9,7.1l0.1,0.7l8,78.4
				L971,364.9l-10.1,37l-8.7-2.4l10.1-37.1l0,0l6.3-23c0.1-1.5,0.5-9.9-7.1-14c-7-3.8-14.1,1.7-16,3.4l-34.1,67.7v125.3H978v-40.6
				l34.1-89.5C1012.1,391.4,1024.4,349.9,1011.9,296.2z"/>
			<path class="st1" d="M696.9,328.7c-1.9-1.7-9.1-7.1-16-3.4c-7.5,4.1-7.2,12.4-7.1,14l16.4,60.2l-8.8,2.4L671.3,365l-13.2-40.5
				l8.1-79.2c0,0,1-3.9-0.9-7.1c-1.2-2.1-3.6-3.6-6.9-4.4c-10-2.5-14.2,5.6-14.9,7.2l-12.9,55.2c-12.5,53.6-0.2,95.2-0.1,95.6
				l34,89.3v40.6H731V396.4L696.9,328.7z"/>
		</g>
		<path class="st2" d="M908.7,186.3c-0.6-16-6.8-25.2-16.4-31.8c-9.6-6.5-23.2-9.5-36.7-9.5c-12.5,0-24.8,2.6-33.1,6.4l-3.4,1.5
			l-3.3-1.5c-6.7-3-15.9-5.3-25.8-6.1l-17,0.2c-10.1,1.1-19.7,4.1-26.9,9c-9.6,6.6-15.8,15.8-16.4,31.7c0,1.3,0,2.5,0,3.5
			c0.2,22.5,5.3,30.7,11.6,42c6.5,11.2,13.9,25.5,13.7,51.9c0,30.7,5.2,48.7,10.9,58.2c5.8,9.6,7.7,11,14,11c6.6,0,8.9-6.7,9.2-10.2
			c1.3-13-0.9-33.3,5.5-55c1.8-6,4.1-13.5,8.6-20.3c6.1-9.1,22.4-16.3,32.6,0c4.3,6.9,6.7,14.3,8.6,20.3c4.9,16.5,6.3,33.8,5.2,47
			c-1.6,18.3,9.1,18.3,9.5,18.3c5.7,0,8.2-1.4,14-11c5.7-9.5,10.9-27.5,10.9-58.2c-0.2-26.5,7.2-40.8,13.7-51.9
			c6.3-11.4,11.4-19.5,11.6-42C908.8,188.7,908.8,187.5,908.7,186.3z"/>
		<g class="st3">
			<path class="st4" d="M1024.2,292.9l-13-55.6l-0.5-1.5c-3.1-7.7-13.8-20.9-32.3-16.3c-9.2,2.3-13.9,7.4-16.1,11.3
				c-1.6,2.8-2.5,5.6-2.9,8.1c-3-0.3-6-0.1-9,0.8c-13.1,3.7-20.8,17.5-17,30.7l11.6,40.5c-5.2,1.9-9.5,5-12.2,7.6l-1.2,1.2
				l-36.8,73.1v128.8h20.4v-124l33-65.4c1.8-1.4,5.7-3.7,8.8-2.1c4,2.2,4.2,6.5,4.2,8.1L944.8,398l19.7,5.4l10-36.7l13.5-41.6
				l-8.1-79.6l-0.3-1.7c0,0-0.2-1.8,0.3-2.7c0.4-0.7,1.7-1.4,3.4-1.8c4.6-1.2,7,1.3,8.2,3.6l12.7,54.6c11.6,49.8,1.3,88.8,0.3,92.4
				L970.1,480v41.6h20.4l0,0v-37.9l33.2-87l0.2-0.6C1024.6,394.3,1037.6,350.5,1024.2,292.9z M956,259.4c2-0.6,4.1,0.4,5,2.2
				l4.9,48.6l-13-45.4C952.3,262.5,953.7,260.1,956,259.4z"/>
			<path class="st4" d="M706.8,319.8l-1.2-1.2c-2.7-2.7-7-5.7-12.2-7.6l11.6-40.6c3.7-13.2-3.9-26.9-17-30.7c-3-0.9-6.1-1.1-9-0.8
				c-0.4-2.6-1.2-5.4-2.9-8.2c-2.3-3.9-6.9-9-16.1-11.3c-18.6-4.7-29.3,8.6-32.4,16.3l-13.4,57.1c-13.4,57.6-0.4,101.5,0.2,103.3
				l33.4,87.7v37.9h20.4v-41.6L633.9,390c-1-3.7-11.3-42.7,0.3-92.4l12.8-54.7c0.8-1.6,3.1-4.8,8.2-3.5c2.5,0.6,4.4,1.4,3.8,4.5
				l-1.3,12.5c0,0.2-0.1,0.3-0.2,0.4h0.1l-7.1,68.3l13.6,41.8l0,0l9.9,36.5l19.7-5.4l-10.2-37.4l0,0v-0.1l-6-22.2
				c-0.1-1.7,0.2-6,4.2-8.1c3.1-1.7,7,0.7,8.8,2l33,65.4v124h20.4V392.8L706.8,319.8z M682.3,259.4c2.3,0.7,3.7,3.1,3,5.4l-13,45.3
				l4.9-48.5C678.3,259.8,680.3,258.8,682.3,259.4z"/>
			<path class="st4" d="M907,235.1c6-10.9,11.8-21.2,12-45.3c0-1,0-2.1-0.1-3.2v-0.7c-0.6-17.6-7.4-30.6-20.9-39.9
				c-10.8-7.3-25.8-11.3-42.6-11.3c-12.9,0-26.4,2.6-36.3,6.9c-7.8-3.4-17.8-5.7-28.4-6.6c-0.3,0-0.6,0-1,0l-17,0.2
				c-0.3,0-0.7,0-1,0.1c-12.4,1.4-23.3,5.1-31.6,10.7c-13.4,9.2-20.2,22.2-20.9,39.9c0,1.4,0,2.6,0,3.8c0.2,24,5.9,34.3,11.9,45.2
				l1.1,1.9c6.3,10.9,12.5,23.5,12.3,46.8c0,35.4,6.7,54.1,12.3,63.5c6,9.9,10.5,16,22.7,16c11.7,0,18.6-9.9,19.4-19.4
				c0.4-4.3,0.5-9,0.6-14.1c0.2-11.7,0.4-25,4.6-39.2c1.7-5.6,3.6-11.9,7.2-17.4c1.7-2.5,5.4-5.2,8.7-5.2c0.9,0,3.6,0,6.6,4.9
				c3.5,5.7,5.7,12,7.5,17.8c4.1,13.9,5.9,30,4.8,43.1c-0.9,10.1,1.1,17.8,6,23.1c5.3,5.8,11.8,6.2,13.6,6.2l0,0
				c11.1,0,16.4-5.4,22.7-16c5.6-9.4,12.3-28.1,12.3-63.6c-0.2-23.2,5.7-35.3,12.4-46.9L907,235.1z M858.7,353v-10.2l0,0V353z
				 M889.2,225.2l-0.8,1.5c-7.4,12.8-15.3,28.8-15,57.1c0,32.3-5.9,47.1-9.4,53c-2.3,3.8-3.5,5.3-4,5.9c-0.3-0.9-0.8-3-0.4-7
				c1.4-15.8-0.7-34.3-5.6-50.8c-2.2-7.3-4.9-15-9.7-22.7c-5.8-9.4-14.4-14.5-24-14.5c-9.9,0-20,5.6-25.7,14.3
				c-5.2,7.9-7.8,16.5-9.9,23c-4.9,16.6-5.2,32.1-5.4,44.5c-0.1,4.8-0.1,9-0.5,12.6c0,0.2-0.1,0.5-0.2,0.8l0,0c-0.6-0.6-1.7-2.2-4-6
				c-3.5-5.9-9.4-20.6-9.4-52.9c0.2-28.4-7.7-44.4-14.9-56.9l-1-1.7c-5.5-10-9.2-16.7-9.4-35.4c0-1,0-2.1,0-3.1
				c0.4-11.3,3.9-18.1,12-23.7c5.4-3.6,13.1-6.2,21.9-7.3l16-0.2c8.4,0.7,16.4,2.6,22.1,5.2l3,1.3l22.5,12c1.5,0.8,3.2,1.2,4.8,1.2
				c3.7,0,7.2-2,9-5.4c2.6-5,0.7-11.2-4.2-13.8l-0.4-0.2c3.1-0.3,6.2-0.5,9.3-0.5c12.3,0,23.5,2.8,30.7,7.7
				c5.9,4.1,11.5,9.8,12,23.6v0.6c0,0.9,0.1,1.8,0.1,2.6C898.4,208.5,894.7,215.2,889.2,225.2z"/>
		</g>
		<path class="st5" d="M768.2,223.3c-4.3,0-8.3-2.7-9.7-7.1c-6.7-20.6,0.5-41.9,17.8-53c4.7-3,11.1-1.7,14.1,3.1s1.7,11.1-3.1,14.1
			c-9.4,6-13.2,17.9-9.4,29.5c1.7,5.4-1.2,11.1-6.6,12.9C770.3,223.2,769.2,223.3,768.2,223.3z"/>
	</g>
</g>
</svg>
