<svg xmlns="http://www.w3.org/2000/svg" xmlns:xlink="http://www.w3.org/1999/xlink" viewBox="0 0 1637.2 676.4"><defs><style>.cls-1{mask:url(#mask);}.cls-2,.cls-4{mix-blend-mode:multiply;}.cls-2{fill:url(#linear-gradient);}.cls-3{mask:url(#mask-2);}.cls-4{fill:url(#linear-gradient-2);}.cls-5{mask:url(#mask-3);}.cls-6{fill:url(#linear-gradient-3);}.cls-7{fill:#f7f7f7;}.cls-8{mask:url(#mask-4);}.cls-9{fill:url(#linear-gradient-4);}.cls-10{filter:url(#luminosity-noclip-4);}.cls-11{filter:url(#luminosity-noclip-3);}.cls-12{filter:url(#luminosity-noclip-2);}.cls-13{filter:url(#luminosity-noclip);}</style><filter id="luminosity-noclip" x="0" y="-8530" width="1637.2" height="32766" filterUnits="userSpaceOnUse" color-interpolation-filters="sRGB"><feFlood flood-color="#fff" result="bg"/><feBlend in="SourceGraphic" in2="bg"/></filter><mask id="mask" x="0" y="-8530" width="1637.2" height="32766" maskUnits="userSpaceOnUse"><g class="cls-13"/></mask><linearGradient id="linear-gradient" y1="-62.2" x2="1637.2" y2="-62.2" gradientTransform="matrix(1, 0, 0, -1, 0, 276)" gradientUnits="userSpaceOnUse"><stop offset="0" stop-color="#fff"/><stop offset="1" stop-color="#ccc"/></linearGradient><filter id="luminosity-noclip-2" x="595.8" y="-8530" width="155.77" height="32766" filterUnits="userSpaceOnUse" color-interpolation-filters="sRGB"><feFlood flood-color="#fff" result="bg"/><feBlend in="SourceGraphic" in2="bg"/></filter><mask id="mask-2" x="595.8" y="-8530" width="155.77" height="32766" maskUnits="userSpaceOnUse"><g class="cls-12"/></mask><linearGradient id="linear-gradient-2" x1="595.8" y1="454.86" x2="751.57" y2="454.86" gradientTransform="matrix(1, 0, 0, 1, 0, 0)" xlink:href="#linear-gradient"/><filter id="luminosity-noclip-3" x="0" y="0" width="1637.2" height="676.4" filterUnits="userSpaceOnUse" color-interpolation-filters="sRGB"><feFlood flood-color="#fff" result="bg"/><feBlend in="SourceGraphic" in2="bg"/></filter><mask id="mask-3" x="0" y="0" width="1637.2" height="676.4" maskUnits="userSpaceOnUse"><g class="cls-11"><g transform="translate(0 0)"><g class="cls-1"><rect class="cls-2" width="1637.2" height="676.4"/></g></g></g></mask><linearGradient id="linear-gradient-3" y1="-62.2" x2="1637.2" y2="-62.2" gradientTransform="matrix(1, 0, 0, -1, 0, 276)" gradientUnits="userSpaceOnUse"><stop offset="0" stop-color="#466a90"/><stop offset="1" stop-color="#466a90"/></linearGradient><filter id="luminosity-noclip-4" x="595.8" y="388.9" width="155.77" height="131.92" filterUnits="userSpaceOnUse" color-interpolation-filters="sRGB"><feFlood flood-color="#fff" result="bg"/><feBlend in="SourceGraphic" in2="bg"/></filter><mask id="mask-4" x="595.8" y="388.9" width="155.77" height="131.92" maskUnits="userSpaceOnUse"><g class="cls-10"><g transform="translate(0 0)"><g class="cls-3"><path class="cls-4" d="M597.72,520.82c-1.56-.88-1.93-2.24-1.92-4,.07-10.12,0-20.23,0-30.34,0-5.29,3.22-8.51,8.48-8.53,2.35,0,2.35,0,2.36-2.28,0-1.91,0-3.81,0-5.72a7.83,7.83,0,0,1,7.83-7.9c3.55,0,7.1-.05,10.64,0a8,8,0,0,1,8.08,8c0,2.54,0,5.07,0,7.87h2.94c2.11,0,4.24-.09,6.35,0,1.46.09,1.77-.46,1.75-1.81a48.58,48.58,0,0,1,.2-7.44,7.58,7.58,0,0,1,7.79-6.68c2.59,0,5.18,0,8,0a6.4,6.4,0,0,0-.62-1.08c-7.66-7.74-15.3-15.51-23-23.21-5.35-5.35-10.79-10.59-16.17-15.91-1.81-1.79-1.78-2.9,0-4.69,4.33-4.34,8.66-8.7,13-13,3.08-3,6.3-6,9.32-9.05,2.85-2.93,8.89-3.23,11.34.11.47.63,1,1.25,1.72,2.2,2-2.12,3.68-3.93,5.4-5.7,3.62-3.72,8.57-3.75,12.24-.11,2.29,2.28,4.58,4.55,6.86,6.84,3.67,3.67,3.7,8.06.05,11.76-1.77,1.8-3.62,3.52-5.43,5.27l4.06,4c1.22-1.2,2.51-2.48,3.82-3.75,1.62-1.58,3.06-3.36,5.45-3.92a7.33,7.33,0,0,1,7.2,1.77c2.78,2.69,5.56,5.37,8.18,8.21,3,3.26,2.76,7.77-.25,11.05-1.75,1.91-3.32,4-4.93,5.94l3.3,3.28a46.72,46.72,0,0,1,4.27-4.14,18.22,18.22,0,0,1,5.38-3.12c3.33-1.07,6.08.62,8.44,2.81s4.32,4.22,6.43,6.38c3.42,3.52,3.36,8.24-.14,11.73-1.8,1.79-3.65,3.52-5.48,5.29l4.19,4c1.55-1.54,3.31-3.27,5-5,3.72-3.74,8.27-3.77,12,0,2.33,2.31,4.66,4.62,7,7,3.41,3.46,3.47,7.78.1,11.27-1.83,1.9-3.77,3.69-6.21,6.07a14.11,14.11,0,0,1,2.21,1.45c3.47,3.39,3.59,8.09.2,11.57-2.58,2.65-5.35,5.1-8,7.72-4.51,4.54-9,9.14-13.45,13.69a32.28,32.28,0,0,1-2.54,2.11h-1a15.2,15.2,0,0,1-1.77-1.3c-5.67-5.52-11.35-11-17-16.63-2.89-2.86-5.64-5.86-8.49-8.76-3.83-3.87-7.7-7.71-11.56-11.55a.81.81,0,0,0-.36-.21c.13,2,.37,3.95.38,5.93,0,9.52,0,19.05,0,28.57,0,1.76-.38,3.09-1.95,4Zm122.75-6.19c.67-.56,1-.77,1.22-1,3.68-3.57,7.39-7.11,11-10.73,3-3,5.91-6.05,8.84-9.1a2.82,2.82,0,0,0,0-4.23c-2.79-2.95-5.58-5.91-8.46-8.78-4-4-8.14-7.86-12.15-11.85q-16.55-16.44-33-32.95L675,423.06q-12-11.94-23.9-23.87c-1.65-1.66-3.15-1.74-4.72-.3-1.82,1.68-3.65,3.36-5.42,5.1q-6.44,6.36-12.82,12.78c-.89.88-1.74,1.8-2.6,2.71l.7-.46ZM601,515.41c.63,0,1.15.08,1.67.08q36.12,0,72.25,0c1.27,0,1.62-.39,1.62-1.63-.05-8.89,0-17.78,0-26.67,0-3.32-.8-4.13-4.15-4.13q-33.67,0-67.34,0c-3.31,0-4.12.84-4.12,4.16q0,13.26,0,26.52C600.93,514.29,601,514.8,601,515.41Zm116.06-57.93c2-2,3.93-3.8,5.78-5.76a2.6,2.6,0,0,0,0-3.85q-3.81-3.93-7.75-7.72a2.51,2.51,0,0,0-3.61-.18c-2.1,1.89-4,4-5.94,5.9Zm-34.18-34.4,11.53,11.57c1.7-1.73,3.5-3.51,5.25-5.35,1.23-1.29,1.37-2.76.24-4q-3.7-4-7.58-7.86a2.52,2.52,0,0,0-3.61-.11C686.66,419.21,684.75,421.26,682.91,423.08Zm-23.29-22.5,11.84,11.48c2-2,3.88-3.94,5.71-5.92a2.44,2.44,0,0,0-.1-3.67q-3.72-3.8-7.54-7.5a2.71,2.71,0,0,0-4-.14C663.57,396.66,661.68,398.57,659.62,400.58ZM612,478c5.13,0,10.15,0,15.17,0,.29,0,.81-.74.83-1.15.08-2.11.06-4.23,0-6.35s-1-3.16-3.09-3.22c-3.43-.09-6.87-.06-10.31,0a2.37,2.37,0,0,0-2.58,2.12C611.83,472.12,612,475,612,478Zm45.55,0h0c2.28,0,4.55,0,6.83,0,.77,0,1.36-.12,1.35-1.09,0-2.28.07-4.55,0-6.82a2.66,2.66,0,0,0-2.81-2.85c-3.49-.1-7-.11-10.47,0-1.9.06-2.86,1.19-2.89,3.09-.05,2.12,0,4.24,0,6.35,0,1.09.42,1.36,1.41,1.34C653.06,477.94,655.28,478,657.5,478Zm71.33-9.42,10.89,11.67c2.06-2.06,4.11-4,6-6a2.73,2.73,0,0,0-.5-3.93,26.21,26.21,0,0,1-2-1.79c-1.73-1.7-3.42-3.46-5.18-5.14-1.19-1.14-2.73-1.4-3.58-.57C732.42,464.77,730.48,466.84,728.83,468.55Zm-58,4c0,1.54,0,3.14,0,4.74,0,.25.53.63.84.67,1.84.21,3.69.33,5,.44Z"/></g></g></g></mask><linearGradient id="linear-gradient-4" x1="595.8" y1="454.86" x2="751.57" y2="454.86" gradientTransform="matrix(1, 0, 0, 1, 0, 0)" xlink:href="#linear-gradient-3"/></defs><title>thumb2</title><g id="Layer_2" data-name="Layer 2"><g id="Layer_2-2" data-name="Layer 2"><g class="cls-5"><rect class="cls-6" width="1637.2" height="676.4"/></g></g></g><g id="Layer_1" data-name="Layer 1"><path class="cls-7" d="M849.18,144.93c6.11,1.09,12.35,1.69,18.29,3.35,49.11,13.63,81.22,45.21,97.55,93.18,1,2.81,2.07,4.77,4.84,6.25,8.07,4.32,12.88,11.51,15.54,20a70.61,70.61,0,0,1,.82,40.47c-3.81,13.81-12.8,22.07-27.32,24a7.13,7.13,0,0,0-4.3,3.15c-15.6,25.14-36.3,44.76-63.21,57.22-39.92,18.49-78.35,14.19-115-9.19-19.37-12.36-34.79-28.68-46.79-48.28-.79-1.27-2.35-2.76-3.69-2.91-17-1.86-27.16-14-30.16-28.21-2.73-13-2.23-25.74,3-38.09a38.36,38.36,0,0,1,17-19,7.52,7.52,0,0,0,2.94-4.11c12-38.92,35.38-68.39,72.2-86.55a109.49,109.49,0,0,1,37.86-10.68,21.49,21.49,0,0,0,2.81-.64Zm-124,116.9C721,263,717.43,266,715.1,271.17a43.89,43.89,0,0,0-1.7,32.5c2.38,7.23,7.66,11.12,15.3,11.59a26.5,26.5,0,0,0,5.84-.15c2.73-.44,4.08.57,5.33,3a129.58,129.58,0,0,0,43,49.08c27.81,19,57.92,25.72,90.39,14.36,31.11-10.88,53.9-32,69.62-60.68,2.58-4.71,5-6.23,10.29-5.67,9,1,14.28-3.07,16.71-11.83a44,44,0,0,0,1.41-8.29c.68-8.48.3-16.87-3.24-24.79-2-4.36-5-7.7-9.94-9.18-.43,3.25-.47,6.23-1.25,9a105.35,105.35,0,0,1-5.25,15.07c-.64,1.42-3.58,2.53-5.43,2.47-2.59-.09-3.74-2.48-3.84-5-.09-2.32,0-4.64,0-7,.09-9.34-2.65-14-11.36-17-16.8-5.91-33.6-11.84-50.66-16.93a271,271,0,0,0-33.2-7.17c-6.69-1.1-10,3.92-7.43,10.25,1.56,3.84,3.62,7.46,5.35,11.23,1.48,3.21,2.4,6.52-.24,9.62s-6,2.56-9.43,1.43a89.27,89.27,0,0,1-33.34-20c-5.12-4.83-9.35-10.26-11.24-17.27-.86-3.2-2.77-3.54-5.37-.88-9.58,9.78-20.8,17.3-32.52,24.21-7.33,4.32-11.2,10.67-10.29,19.51a46.49,46.49,0,0,1,.23,9.13c-.44,4.66-4.83,7.81-8.88,6a9.89,9.89,0,0,1-5-5.7C727.28,275.51,726.4,268.73,725.16,261.83Z" transform="translate(0 0)"/><path class="cls-7" d="M693,520.46c0-18.69.19-37.39-.12-56.07-.26-16.07,5.52-29.66,16.31-41.11C725.42,406,745.31,397,769.4,397.07c6.68,0,10.41,1.8,14.23,7.52,27.16,40.63,88,40.45,115.18-.3,3.63-5.46,7.23-7.2,13.65-7.2,27.86,0,49.81,11.29,66.34,33.33a52.6,52.6,0,0,1,10.56,32.87c-.16,19-.07,38.11-.09,57.17Zm18.91-19.21H970.2c.06-.93.16-1.64.16-2.36,0-12.46,0-24.93,0-37.4a28.28,28.28,0,0,0-.59-5.81c-4.24-19.86-28.23-38.63-50-39.44-4-.15-7,.39-9.14,4.18-1.23,2.18-3.22,4-5,5.83a88.83,88.83,0,0,1-135.34-7.59,5.32,5.32,0,0,0-4.85-2.42c-14.37.16-26.56,5.8-37.29,14.91s-17.26,20.42-16.3,35.14c.29,4.38.05,8.8.05,13.2Z" transform="translate(0 0)"/><path class="cls-7" d="M711.86,501.25V479.49c0-4.4.24-8.82-.05-13.2-1-14.72,5.51-26,16.3-35.14S751,416.4,765.4,416.24a5.32,5.32,0,0,1,4.85,2.42,88.83,88.83,0,0,0,135.34,7.59c1.77-1.85,3.76-3.65,5-5.83,2.14-3.79,5.18-4.33,9.14-4.18,21.79.81,45.78,19.58,50,39.44a28.28,28.28,0,0,1,.59,5.81c0,12.47,0,24.94,0,37.4,0,.72-.1,1.43-.16,2.36Z" transform="translate(0 0)"/><path class="cls-7" d="M819.84,296.48a19.06,19.06,0,1,1-19.09-19A19.05,19.05,0,0,1,819.84,296.48ZM795,298.65a9.77,9.77,0,1,0,10-9.57A9.78,9.78,0,0,0,795,298.65Z" transform="translate(0 0)"/><path class="cls-7" d="M887.45,277.46a19,19,0,1,1-19.19,18.91A19,19,0,0,1,887.45,277.46Zm-4.15,31.07a9.74,9.74,0,1,0-9.69-9.91A9.81,9.81,0,0,0,883.3,308.53Z" transform="translate(0 0)"/><path class="cls-7" d="M795,298.65a9.77,9.77,0,1,1,9.7,9.87A9.79,9.79,0,0,1,795,298.65Z" transform="translate(0 0)"/><path class="cls-7" d="M883.3,308.53a9.74,9.74,0,1,1,9.85-9.73A9.85,9.85,0,0,1,883.3,308.53Z" transform="translate(0 0)"/><g class="cls-8"><path class="cls-9" d="M597.72,520.82c-1.56-.88-1.93-2.24-1.92-4,.07-10.12,0-20.23,0-30.34,0-5.29,3.22-8.51,8.48-8.53,2.35,0,2.35,0,2.36-2.28,0-1.91,0-3.81,0-5.72a7.83,7.83,0,0,1,7.83-7.9c3.55,0,7.1-.05,10.64,0a8,8,0,0,1,8.08,8c0,2.54,0,5.07,0,7.87h2.94c2.11,0,4.24-.09,6.35,0,1.46.09,1.77-.46,1.75-1.81a48.58,48.58,0,0,1,.2-7.44,7.58,7.58,0,0,1,7.79-6.68c2.59,0,5.18,0,8,0a6.4,6.4,0,0,0-.62-1.08c-7.66-7.74-15.3-15.51-23-23.21-5.35-5.35-10.79-10.59-16.17-15.91-1.81-1.79-1.78-2.9,0-4.69,4.33-4.34,8.66-8.7,13-13,3.08-3,6.3-6,9.32-9.05,2.85-2.93,8.89-3.23,11.34.11.47.63,1,1.25,1.72,2.2,2-2.12,3.68-3.93,5.4-5.7,3.62-3.72,8.57-3.75,12.24-.11,2.29,2.28,4.58,4.55,6.86,6.84,3.67,3.67,3.7,8.06.05,11.76-1.77,1.8-3.62,3.52-5.43,5.27l4.06,4c1.22-1.2,2.51-2.48,3.82-3.75,1.62-1.58,3.06-3.36,5.45-3.92a7.33,7.33,0,0,1,7.2,1.77c2.78,2.69,5.56,5.37,8.18,8.21,3,3.26,2.76,7.77-.25,11.05-1.75,1.91-3.32,4-4.93,5.94l3.3,3.28a46.72,46.72,0,0,1,4.27-4.14,18.22,18.22,0,0,1,5.38-3.12c3.33-1.07,6.08.62,8.44,2.81s4.32,4.22,6.43,6.38c3.42,3.52,3.36,8.24-.14,11.73-1.8,1.79-3.65,3.52-5.48,5.29l4.19,4c1.55-1.54,3.31-3.27,5-5,3.72-3.74,8.27-3.77,12,0,2.33,2.31,4.66,4.62,7,7,3.41,3.46,3.47,7.78.1,11.27-1.83,1.9-3.77,3.69-6.21,6.07a14.11,14.11,0,0,1,2.21,1.45c3.47,3.39,3.59,8.09.2,11.57-2.58,2.65-5.35,5.1-8,7.72-4.51,4.54-9,9.14-13.45,13.69a32.28,32.28,0,0,1-2.54,2.11h-1a15.2,15.2,0,0,1-1.77-1.3c-5.67-5.52-11.35-11-17-16.63-2.89-2.86-5.64-5.86-8.49-8.76-3.83-3.87-7.7-7.71-11.56-11.55a.81.81,0,0,0-.36-.21c.13,2,.37,3.95.38,5.93,0,9.52,0,19.05,0,28.57,0,1.76-.38,3.09-1.95,4Zm122.75-6.19c.67-.56,1-.77,1.22-1,3.68-3.57,7.39-7.11,11-10.73,3-3,5.91-6.05,8.84-9.1a2.82,2.82,0,0,0,0-4.23c-2.79-2.95-5.58-5.91-8.46-8.78-4-4-8.14-7.86-12.15-11.85q-16.55-16.44-33-32.95L675,423.06q-12-11.94-23.9-23.87c-1.65-1.66-3.15-1.74-4.72-.3-1.82,1.68-3.65,3.36-5.42,5.1q-6.44,6.36-12.82,12.78c-.89.88-1.74,1.8-2.6,2.71l.7-.46ZM601,515.41c.63,0,1.15.08,1.67.08q36.12,0,72.25,0c1.27,0,1.62-.39,1.62-1.63-.05-8.89,0-17.78,0-26.67,0-3.32-.8-4.13-4.15-4.13q-33.67,0-67.34,0c-3.31,0-4.12.84-4.12,4.16q0,13.26,0,26.52C600.93,514.29,601,514.8,601,515.41Zm116.06-57.93c2-2,3.93-3.8,5.78-5.76a2.6,2.6,0,0,0,0-3.85q-3.81-3.93-7.75-7.72a2.51,2.51,0,0,0-3.61-.18c-2.1,1.89-4,4-5.94,5.9Zm-34.18-34.4,11.53,11.57c1.7-1.73,3.5-3.51,5.25-5.35,1.23-1.29,1.37-2.76.24-4q-3.7-4-7.58-7.86a2.52,2.52,0,0,0-3.61-.11C686.66,419.21,684.75,421.26,682.91,423.08Zm-23.29-22.5,11.84,11.48c2-2,3.88-3.94,5.71-5.92a2.44,2.44,0,0,0-.1-3.67q-3.72-3.8-7.54-7.5a2.71,2.71,0,0,0-4-.14C663.57,396.66,661.68,398.57,659.62,400.58ZM612,478c5.13,0,10.15,0,15.17,0,.29,0,.81-.74.83-1.15.08-2.11.06-4.23,0-6.35s-1-3.16-3.09-3.22c-3.43-.09-6.87-.06-10.31,0a2.37,2.37,0,0,0-2.58,2.12C611.83,472.12,612,475,612,478Zm45.55,0h0c2.28,0,4.55,0,6.83,0,.77,0,1.36-.12,1.35-1.09,0-2.28.07-4.55,0-6.82a2.66,2.66,0,0,0-2.81-2.85c-3.49-.1-7-.11-10.47,0-1.9.06-2.86,1.19-2.89,3.09-.05,2.12,0,4.24,0,6.35,0,1.09.42,1.36,1.41,1.34C653.06,477.94,655.28,478,657.5,478Zm71.33-9.42,10.89,11.67c2.06-2.06,4.11-4,6-6a2.73,2.73,0,0,0-.5-3.93,26.21,26.21,0,0,1-2-1.79c-1.73-1.7-3.42-3.46-5.18-5.14-1.19-1.14-2.73-1.4-3.58-.57C732.42,464.77,730.48,466.84,728.83,468.55Zm-58,4c0,1.54,0,3.14,0,4.74,0,.25.53.63.84.67,1.84.21,3.69.33,5,.44Z" transform="translate(0 0)"/></g><path class="cls-7" d="M720.47,514.63,626.25,419l-.7.46c.86-.91,1.71-1.83,2.6-2.71q6.39-6.4,12.82-12.78c1.77-1.74,3.6-3.42,5.42-5.1,1.57-1.44,3.07-1.36,4.72.3q12,11.93,23.9,23.87L687.93,436q16.52,16.48,33,32.95c4,4,8.14,7.86,12.15,11.85,2.88,2.87,5.67,5.83,8.46,8.78a2.82,2.82,0,0,1,0,4.23c-2.93,3.05-5.84,6.11-8.84,9.1-3.63,3.62-7.34,7.16-11,10.73C721.43,513.86,721.14,514.07,720.47,514.63Z" transform="translate(0 0)"/><path class="cls-7" d="M601,515.41c0-.61-.1-1.12-.1-1.64q0-13.26,0-26.52c0-3.32.81-4.15,4.12-4.16q33.68,0,67.34,0c3.35,0,4.14.81,4.15,4.13,0,8.89,0,17.78,0,26.67,0,1.24-.35,1.63-1.62,1.63q-36.12-.06-72.25,0C602.18,515.49,601.66,515.44,601,515.41Z" transform="translate(0 0)"/><path class="cls-7" d="M717.09,457.48l-11.54-11.61c1.91-1.92,3.84-4,5.94-5.9a2.51,2.51,0,0,1,3.61.18q3.93,3.8,7.75,7.72a2.6,2.6,0,0,1,0,3.85C721,453.68,719.07,455.53,717.09,457.48Z" transform="translate(0 0)"/><path class="cls-7" d="M682.91,423.08c1.84-1.82,3.75-3.87,5.83-5.72a2.52,2.52,0,0,1,3.61.11q3.87,3.86,7.58,7.86c1.13,1.21,1,2.68-.24,4-1.75,1.84-3.55,3.62-5.25,5.35Z" transform="translate(0 0)"/><path class="cls-7" d="M659.62,400.58c2.06-2,4-3.92,5.92-5.75a2.71,2.71,0,0,1,4,.14q3.81,3.7,7.54,7.5a2.44,2.44,0,0,1,.1,3.67c-1.83,2-3.74,3.89-5.71,5.92Z" transform="translate(0 0)"/><path class="cls-7" d="M612,478c0-3-.12-5.84.06-8.67a2.37,2.37,0,0,1,2.58-2.12c3.44,0,6.88-.07,10.31,0,2.13.06,3.07,1.14,3.09,3.22s0,4.24,0,6.35c0,.41-.54,1.14-.83,1.15C622.1,478,617.08,478,612,478Z" transform="translate(0 0)"/><path class="cls-7" d="M657.5,478c-2.22,0-4.44,0-6.66,0-1,0-1.44-.25-1.41-1.34.07-2.11,0-4.23,0-6.35,0-1.9,1-3,2.89-3.09,3.49-.11,7-.1,10.47,0a2.66,2.66,0,0,1,2.81,2.85c.11,2.27,0,4.54,0,6.82,0,1-.58,1.09-1.35,1.09-2.28,0-4.55,0-6.83,0Z" transform="translate(0 0)"/><path class="cls-7" d="M728.83,468.55c1.65-1.71,3.59-3.78,5.62-5.78.85-.83,2.39-.57,3.58.57,1.76,1.68,3.45,3.44,5.18,5.14a26.21,26.21,0,0,0,2,1.79,2.73,2.73,0,0,1,.5,3.93c-1.89,2.05-3.94,4-6,6Z" transform="translate(0 0)"/></g></svg>