<?xml version="1.0" encoding="utf-8"?>
<!-- Generator: Adobe Illustrator 21.1.0, SVG Export Plug-In . SVG Version: 6.00 Build 0)  -->
<svg version="1.1" id="Layer_1" xmlns="http://www.w3.org/2000/svg" xmlns:xlink="http://www.w3.org/1999/xlink" x="0px" y="0px"
	 viewBox="0 0 1637.2 676.4" style="enable-background:new 0 0 1637.2 676.4;" xml:space="preserve">
<style type="text/css">
	.st0{fill:url(#SVGID_1_);}
	.st1{fill:#F9F9F9;}
	.st2{font-family:'HelveticaNeue-Light';}
	.st3{font-size:37.0183px;}
	.st4{fill:#43435B;}
	.st5{fill:none;stroke:#F9F9F9;stroke-width:4;stroke-linecap:round;stroke-linejoin:round;}
</style>
<title>thumb</title>
<g id="Layer_2">
	
		<linearGradient id="SVGID_1_" gradientUnits="userSpaceOnUse" x1="0" y1="740.2" x2="1637.2" y2="740.2" gradientTransform="matrix(1 0 0 1 0 -402)">
		<stop  offset="0" style="stop-color:#EC8D40"/>
		<stop  offset="1" style="stop-color:#F9BE93"/>
	</linearGradient>
	<rect class="st0" width="1637.2" height="676.4"/>
</g>
<g id="Layer_3">
	<text transform="matrix(1 0 0 1 575.5396 509.2725)" class="st1 st2 st3">“Let’s go to work with a smile!”</text>
	<path class="st4" d="M956.6,286.5c6.9-2.7,40.5-16.8,42.4-47.2c1.1-19.7,1.1-39.5,0-59.2c0-1-1-1.7-1.9-1.7h-37.8
		c-1,0-1.7-0.8-1.9-1.7c0,0,0,0,0-0.2c0.4-8.8-1.3-47.2-56.3-54.4H743.9c0,0-52.7-1.5-58.6,53.7c0,1-0.8,1.7-1.7,1.7l-36.1,1
		c-1,0-1.7,0.8-1.7,1.9v58.8c0,0.2,0,0.2,0,0.4c0.4,1.9,4.6,23.5,36.5,42.6c0.8,0.4,1.1,1.5,0.8,2.3c-2.7,6.7-3.8,13.9-3.4,21
		c0,1-0.8,1.9-1.7,1.9h-0.2c-4-0.2-14.5-2.5-28.8-19.1c-0.6-0.8-1.7-0.8-2.5-0.2c-0.4,0.4-0.6,0.8-0.6,1.3l-1.9,144.4
		c0,1,0.8,1.9,1.7,1.9l0,0h351.8c1,0,1.9-0.8,1.9-1.9V294.9c0-1-0.8-1.9-1.9-1.9c-0.4,0-0.8,0.2-1.1,0.4
		c-11.1,8.6-23.9,14.9-37.4,18.5c-1,0.2-1.9-0.4-2.3-1.3c0-0.2,0-0.2,0-0.4l-1-21.8C955.5,287.7,955.8,286.9,956.6,286.5z
		 M716,338.9c0,4.8-3.8,8.6-8.6,8.6c-4.8,0-8.6-3.8-8.6-8.6l0,0v-40.3c0-4.8,3.8-8.6,8.6-8.6c4.8,0,8.6,3.8,8.6,8.6V338.9z
		 M904.9,311.6c0,1.9-1.5,3.4-3.4,3.4H733.5c-1.9,0-3.4-1.5-3.4-3.4v-18.1c0-1.9,1.5-3.4,3.4-3.4h167.9c1.9,0,3.4,1.5,3.4,3.4V311.6
		z M936.9,338.9c0,4.8-3.8,8.6-8.6,8.6c-4.8,0-8.6-3.8-8.6-8.6l0,0v-40.3c0-4.8,3.8-8.6,8.6-8.6c4.8,0,8.6,3.8,8.6,8.6V338.9z
		 M937.9,177.7H706c-1.1,0-1.9-1-1.9-1.9c0-0.2,0-0.2,0-0.4c6.9-40.9,46.6-38.4,46.6-38.4h144.6c41.6,5.9,44.7,31.5,44.7,38.8
		C939.8,176.7,939,177.7,937.9,177.7L937.9,177.7z"/>
	<path id="Smile" class="st5" d="M752.1,364.7c0,0,66.1,79.3,141.3,0"/>
</g>
</svg>
