<?xml version="1.0" encoding="utf-8"?>
<!-- Generator: Adobe Illustrator 21.1.0, SVG Export Plug-In . SVG Version: 6.00 Build 0)  -->
<svg version="1.1" id="Layer_1" xmlns="http://www.w3.org/2000/svg" xmlns:xlink="http://www.w3.org/1999/xlink" x="0px" y="0px"
	 viewBox="0 0 1638.2 676.4" style="enable-background:new 0 0 1638.2 676.4;" xml:space="preserve">
<style type="text/css">
	.st0{fill:url(#SVGID_1_);stroke:#000000;stroke-miterlimit:10;}
	.st1{fill:#F7F7F7;}
	.st2{fill:none;}
</style>
<title>thumb</title>
<g id="Layer_2">
	
		<linearGradient id="SVGID_1_" gradientUnits="userSpaceOnUse" x1="0" y1="-62.7" x2="1637.2" y2="-62.7" gradientTransform="matrix(1 0 0 -1 0.5 275.5)">
		<stop  offset="0" style="stop-color:#D77C85"/>
		<stop  offset="1" style="stop-color:#E3C2C5"/>
	</linearGradient>
	<rect x="0.5" y="0.5" class="st0" width="1637.2" height="675.4"/>
</g>
<g id="Layer_1-2">
	<path class="st1" d="M736.2,398.7c5.4,8,8,16.1,10.7,24.1l29.5,10.7v19.5h269.9l-0.1-0.1L914.1,273.2c0,0-15.6-21.3-31.3,0
		l-81.7,111.3L771,343.6c0,0-15.6-21.3-31.3,0l-7.8,10.6l17.7,17.7L736.2,398.7z"/>
	<ellipse class="st1" cx="701.9" cy="249" rx="32.4" ry="32.5"/>
	<path class="st1" d="M1068,170.7H637.7c-4.7,0-8.6,3.9-8.6,8.6v177.4c0.9-0.3,1.8-0.6,2.6-0.9l10.7-29.5h3.8V188h413.1v276.7H764.4
		l-17.5,6.4c-1.3,3.7-2.5,7.5-4,11H1068c4.7,0,8.6-3.9,8.6-8.6V179.3C1076.7,174.6,1072.8,170.7,1068,170.7z"/>
	<path class="st2" d="M655.8,400.8c-25.5,0-46.2,20.6-46.2,46.2s20.6,46.2,46.2,46.2c25.5,0,46.2-20.6,46.2-46.2l0,0
		C701.9,421.5,681.3,400.9,655.8,400.8z M655.8,470.1c-12.7,0-23.1-10.4-23.1-23.1s10.4-23.1,23.1-23.1c12.7,0,23.1,10.4,23.1,23.1
		S668.6,470.1,655.8,470.1z"/>
	<circle class="st1" cx="655.8" cy="447" r="23.1"/>
	<path class="st1" d="M759.7,458.5v-23.1l-25.4-9.3c-2.3-6.9-4.6-13.8-9.3-20.7l11.5-23.1l-16.2-16.2l-23,11.6
		c-6.9-4.6-13.8-6.9-20.7-9.3l-9.3-25.4h-23.1l-9.3,25.4c-6.9,2.3-13.8,4.6-20.7,9.3l-23.1-11.5l-16.1,16.1l11.5,25.4
		c-4.6,6.9-6.9,13.8-9.3,20.7l-25.4,6.9v23.1l25.4,9.3c2.3,6.9,4.6,13.8,9.3,20.7l-11.5,23.1l16.2,16.2l25.4-11.5
		c6.9,4.6,13.8,6.9,20.7,9.3l6.9,25.4h23.1l9.3-25.4c6.9-2.3,13.8-4.6,20.7-9.3l23.1,11.5l16.2-16.2l-11.5-25.4
		c4.6-4.6,6.9-11.5,9.3-18.5L759.7,458.5z M655.8,493.1c-25.5,0-46.2-20.6-46.2-46.2s20.6-46.2,46.2-46.2
		c25.5,0,46.2,20.6,46.2,46.2l0,0C701.9,472.3,681.3,493,655.8,493.1z"/>
</g>
</svg>
