<?xml version="1.0" encoding="utf-8"?>
<!-- Generator: Adobe Illustrator 21.1.0, SVG Export Plug-In . SVG Version: 6.00 Build 0)  -->
<svg version="1.1" id="Layer_1" xmlns="http://www.w3.org/2000/svg" xmlns:xlink="http://www.w3.org/1999/xlink" x="0px" y="0px"
	 viewBox="0 0 1637.2 676.4" style="enable-background:new 0 0 1637.2 676.4;" xml:space="preserve">
<style type="text/css">
	.st0{fill:url(#SVGID_1_);}
	.st1{fill:#F7F7F7;}
</style>
<g id="Layer_2">
	
		<linearGradient id="SVGID_1_" gradientUnits="userSpaceOnUse" x1="0" y1="740.2" x2="1637.2" y2="740.2" gradientTransform="matrix(1 0 0 1 0 -402)">
		<stop  offset="0" style="stop-color:#C7158C"/>
		<stop  offset="1" style="stop-color:#D471AD"/>
	</linearGradient>
	<rect class="st0" width="1637.2" height="676.4"/>
</g>
<g id="Layer_1_1_">
	<g>
		<path class="st1" d="M852.1,539.1c-1.5,0-2.9,0-4.3-0.1l-57.6-2.4c-12.6-0.5-24.7-1.6-33.7-9.7c-9.8-8.8-11.8-22.3-13.1-35.4
			c-1.7-18-5-41.4-8.2-64.1c-9.4-67.4-12.6-95.5-6.2-102.2c7-7.4,69.4-8.5,105.9-8.5c62.5,0,66.4,3,67.7,4c2.8,2.2,6.3,4.9-3.1,78.2
			c-5.1,39.7-12.3,86-18.4,118.2c-0.7,3.7-1.6,8.2-4.3,12.2C870.8,538.1,859.8,539.1,852.1,539.1z M735.9,332
			c-3.3,8.1,3.6,57.7,8.7,94.1c3.2,22.8,6.5,46.4,8.2,64.5c1.1,11.7,2.7,22.7,9.9,29.2c6.6,6,16.9,6.8,27.7,7.3l57.6,2.4
			c1.3,0.1,2.6,0.1,4,0.1c8.9,0,14.2-1.8,16.8-5.5c1.6-2.3,2.2-5.6,2.8-8.5c12-63.3,26.5-170.4,24.3-187c-6.4-1.1-28.4-2.1-61.1-2.1
			C778,326.4,742,329.2,735.9,332z"/>
		<path class="st1" d="M889.6,327c-0.3,0-0.7,0-1-0.1c-2.6-0.6-4.2-3.1-3.7-5.7c3.1-14.4,6-27.7,8.9-41c2.9-13.2,5.8-26.4,8.8-40.7
			c1.3-6.1,2.2-11.1,0.6-15.4c-1.7-4.5-6.6-7.9-11.7-8c-5.1-0.2-10.4,2.8-13.4,7.3c-2.5,3.8-3.7,8.7-4.8,13.4
			c-3.7,15.6-6.9,29.6-10.1,43.7c-2.9,13-5.9,26.1-9.3,40.5c-0.6,2.6-3.2,4.2-5.8,3.5c-2.6-0.6-4.2-3.2-3.5-5.8
			c3.4-14.3,6.3-27.4,9.3-40.3c3.2-14.2,6.4-28.3,10.1-43.9c1.3-5.3,2.7-11.3,6.2-16.5c4.9-7.4,13.3-11.7,21.6-11.6
			c9,0.2,17.5,6.1,20.5,14.2c2.7,7.2,1.1,14.7-0.2,20.7c-3,14.3-6,27.5-8.9,40.7c-2.9,13.3-5.9,26.6-8.9,41
			C893.8,325.5,891.8,327,889.6,327z"/>
		<path class="st1" d="M903.2,258.5c-0.2,0-0.4,0-0.6,0l-36.8-4.4c-2.6-0.3-4.5-2.7-4.2-5.3s2.7-4.5,5.3-4.2l36.8,4.4
			c2.6,0.3,4.5,2.7,4.2,5.3C907.7,256.7,905.6,258.5,903.2,258.5z"/>
		<path class="st1" d="M799.6,325.6c-2.5,0-4.6-2-4.8-4.5c-1.4-23.2,0.3-87,7-93c4.7-4.2,11-4.8,16-4.9c5.7,0,10.5,1.8,13.8,5.2
			c5.1,5.2,5.4,12.7,5.5,17.7c0.5,13.5,1,25.4,1.5,37.2c0.5,11.9,1,23.7,1.5,37.3c0.1,2.6-2,4.9-4.6,4.9c-2.7,0.1-4.9-2-4.9-4.6
			c-0.5-13.5-1-25.4-1.5-37.2c-0.5-11.9-1-23.7-1.5-37.3c-0.2-4.6-0.5-9-2.8-11.3c-1.5-1.5-4-2.4-6.9-2.3c-3.1,0-6.8,0.3-9.2,2.1
			c-2.6,6.9-6.2,53.7-4.3,85.6c0.2,2.6-1.8,4.9-4.5,5.1C799.7,325.6,799.7,325.6,799.6,325.6z"/>
		<path class="st1" d="M829.6,236.9c-0.1,0-0.2,0-0.3,0c-2.6-0.1-4.7-2.3-4.6-4.9c0.1-2.6,2.3-4.7,4.9-4.6c2-0.1,8-5.7,9.3-10.6
			c1.2-4.7-0.2-14.4-3.2-21c-7.8-17.7-1.2-32,2.8-40.6c0.9-2,2.2-4.7,2.5-6.1c-7-2.5-23.3,6.2-34.8,16.2
			c-11.2,9.8-13.7,23.3-13.9,33c-0.3,13.6,4.6,23.1,14.4,28.3c2.3,1.2,3.2,4.1,2,6.5c-1.2,2.3-4.1,3.2-6.5,2
			c-13.1-6.9-19.8-19.7-19.5-36.9c0.3-16.3,6.4-30.5,17.2-40c1.2-1,29.1-25.3,45.5-17.5c8.6,4.1,4.6,12.5,1.8,18.7
			c-3.9,8.5-8.9,19-2.8,32.7c3.3,7.5,5.7,19.6,3.7,27.3C846.3,226.3,837.6,236.9,829.6,236.9z"/>
		<path class="st1" d="M742.4,328.8c-2,0-3.8-1.2-4.5-3.2c-6.5-18.6-8.3-34.9-10.3-53.7l-0.7-6.8c-1.5-13.4-3-27.2-2.4-41
			c0-0.4,2.3-41.6,14.3-43.2c9.3-1.2,23.9,18.8,27.9,28c4.8,11.3,6.8,23.2,8.6,34.8c2.3,14.4,4,26.1,5.8,37.7
			c1.7,11.6,3.5,23.3,5.8,37.7c0.4,2.6-1.4,5.1-4,5.5s-5.1-1.4-5.5-4c-2.3-14.4-4-26.1-5.8-37.7c-1.7-11.6-3.5-23.3-5.8-37.7
			c-1.8-11-3.6-22.4-7.9-32.5c-3.8-8.9-13.1-19.2-17.2-21.8c-2.5,4.8-6,20.7-6.6,33.6c-0.6,13.1,0.9,26.5,2.3,39.5l0.7,6.9
			c2,18.2,3.7,34,9.8,51.6c0.9,2.5-0.4,5.2-2.9,6.1C743.4,328.7,742.9,328.8,742.4,328.8z"/>
		<path class="st1" d="M733.7,234.5c-1.4,0-2.9-0.1-4.4-0.2c-2.6-0.2-4.6-2.6-4.3-5.2c0.2-2.6,2.6-4.6,5.2-4.3
			c7.5,0.7,14.3-1.1,21.5-2.9c3.7-1,7.6-2,11.6-2.6c2.6-0.4,5.1,1.3,5.5,4c0.4,2.6-1.3,5.1-4,5.5c-3.6,0.6-7.1,1.5-10.8,2.5
			C747.7,232.8,741.1,234.5,733.7,234.5z"/>
		<path class="st1" d="M871.9,351.8c-2.2,0-4.3-1.6-4.7-3.9c-0.5-2.6,1.2-5.1,3.8-5.6l27.1-5.2c2.6-0.5,5.1,1.2,5.6,3.8
			c0.5,2.6-1.2,5.1-3.8,5.6l-27.1,5.2C872.5,351.8,872.2,351.8,871.9,351.8z"/>
		<path class="st1" d="M872,373.5c-2.4,0-4.4-1.8-4.7-4.2c-0.3-2.6,1.5-5,4.2-5.3l25-3.1c2.6-0.3,5,1.5,5.3,4.2
			c0.3,2.6-1.5,5-4.2,5.3l-25,3.1C872.4,373.5,872.2,373.5,872,373.5z"/>
		<path class="st1" d="M867.6,396.9c-2.3,0-4.3-1.6-4.7-3.9c-0.5-2.6,1.3-5.1,3.9-5.5l27.1-4.8c2.6-0.5,5.1,1.3,5.5,3.9
			s-1.3,5.1-3.9,5.5l-27.1,4.8C868.2,396.9,867.9,396.9,867.6,396.9z"/>
		<path class="st1" d="M865.1,425c-2.3,0-4.3-1.6-4.7-4c-0.4-2.6,1.3-5.1,3.9-5.5c4-0.7,8.9-1.4,13.8-2c4.7-0.6,9.5-1.3,13.4-2
			c2.6-0.4,5.1,1.3,5.5,3.9s-1.3,5.1-3.9,5.5c-4,0.7-8.9,1.4-13.8,2c-4.7,0.6-9.5,1.3-13.4,2C865.6,425,865.3,425,865.1,425z"/>
		<path class="st1" d="M861.9,450.5c-2.5,0-4.7-2-4.8-4.6s1.9-4.9,4.6-5l23.9-1.1c2.5-0.1,4.9,1.9,5,4.6c0.1,2.6-1.9,4.9-4.6,5
			l-23.9,1.1C862,450.5,861.9,450.5,861.9,450.5z"/>
		<path class="st1" d="M860.8,482.5c-2.3,0-4.3-1.7-4.7-4c-0.4-2.6,1.4-5.1,4-5.5l21.3-3.4c2.6-0.4,5.1,1.4,5.5,4s-1.4,5.1-4,5.5
			l-21.3,3.4C861.3,482.4,861.1,482.5,860.8,482.5z"/>
		<path class="st1" d="M856.1,505.6c-2.4,0-4.5-1.8-4.7-4.2c-0.3-2.6,1.6-5,4.2-5.3l21.2-2.5c2.7-0.4,5,1.6,5.3,4.2s-1.6,5-4.2,5.3
			l-21.2,2.5C856.4,505.5,856.3,505.6,856.1,505.6z"/>
		<path class="st1" d="M807.4,220.9c-2.1,0-4.1-1.4-4.6-3.6c-2-7.9-4.3-16.9-3.5-26c1-10.8,6.7-20.1,14.9-24.1
			c2.4-1.2,5.2-0.2,6.4,2.2s0.2,5.2-2.2,6.4c-6.3,3.1-9,10.5-9.6,16.4c-0.7,7.5,1.3,15.2,3.2,22.8c0.7,2.6-0.9,5.2-3.5,5.8
			C808.2,220.9,807.8,220.9,807.4,220.9z"/>
		<path class="st1" d="M753.1,306.5c-2.3,0-4.4-1.7-4.7-4.1l-7.8-52.6c-0.4-2.6,1.4-5,4-5.4s5,1.4,5.4,4l7.8,52.6
			c0.4,2.6-1.4,5-4,5.4C753.6,306.5,753.4,306.5,753.1,306.5z"/>
	</g>
</g>
</svg>
