<?xml version="1.0" encoding="utf-8"?>
<!-- Generator: Adobe Illustrator 21.1.0, SVG Export Plug-In . SVG Version: 6.00 Build 0)  -->
<svg version="1.1" id="Layer_1" xmlns="http://www.w3.org/2000/svg" xmlns:xlink="http://www.w3.org/1999/xlink" x="0px" y="0px"
	 viewBox="0 0 478.8 578.7" enable-background="new 0 0 478.8 578.7" xml:space="preserve">
<rect fill="#FFFFFF" width="478.8" height="578.7"/>
<g>
	<path fill="#6D0000" d="M36.1,277.3c111.8,0,223.6,0,335.4,0c10.6,0,21.3,0,32.3,0c0,6.4,0,12.5,0,19c-4,0-8,0-12.4,0
		c0,5.7,0,11,0,16.6c-114.2,0-227.9,0-342.1,0c0-5.3,0-10.6,0-16.6c-4.7,0-9,0-13.3,0C36.1,290,36.1,283.6,36.1,277.3z"/>
	<path fill="none" stroke="#000000" stroke-width="4" stroke-miterlimit="10" d="M209.1,34.3c2.4,0.7,4.8,1.3,7.2,2
		c24.5,7,39.4,30.5,35.8,56.6c-3.3,23.8-25.3,42.4-50.1,42.3c-25-0.1-46.6-19.1-49.8-43.9c-3.4-26.1,13.8-50.4,39.6-56
		c1.1-0.2,2.2-0.7,3.2-1C199.8,34.3,204.5,34.3,209.1,34.3z"/>
	<path fill="none" stroke="#000000" stroke-width="4" stroke-miterlimit="10" d="M249.1,546.3c-4.7-2.7-10.3-4.5-13.8-8.3
		c-3.8-4-7.3-9.7-7.9-15.1c-2.7-25.3-4.4-50.7-6.5-76.1c-0.1-0.6,0.1-1.3,0.2-2.6c1.6,1.2,2.9,2.1,4.1,3.1
		c17.4,14.7,34.9,29.4,52.2,44.3c1.6,1.3,2.8,3.7,3,5.8c0.8,6.3,1.4,12.6,1.6,18.9c0.6,14.1-6.6,24.3-19.9,28.9
		c-0.7,0.3-1.4,0.7-2.1,1.1C256.5,546.3,252.8,546.3,249.1,546.3z"/>
	<path fill="none" stroke="#000000" stroke-width="4" stroke-miterlimit="10" d="M145.1,546.3c-9.3-2.9-16.7-8-20.6-17.3
		c-1.1-2.5-0.8-4.1,1.4-6c17.9-15,35.6-30.1,53.4-45.1c0.3-0.3,0.8-0.4,2-1c-0.5,6.5-0.9,12.6-1.3,18.6c-0.6,8.1-1.2,16.3-2,24.4
		c-1.3,14.2-9.7,22.4-22.9,26.4C151.8,546.3,148.5,546.3,145.1,546.3z"/>
	<path fill="none" stroke="#000000" stroke-width="4" stroke-miterlimit="10" d="M250.8,176.2c-3.1,1.4-3.3,3.1-2.4,6.3
		c2.4,8.8,4.4,17.7,5.5,26.7c1.2,9.8,2.8,19.4,8,28.1c0.6,1,1.1,2.1,1.1,3.2c0.1,9.8,0.1,19.6,0.1,29.8c-23.2,0-45.9,0-69,0
		c0.5-1.2,0.8-2.3,1.2-3.3c3.1-6.4,3.1-12.9,0.4-19.4c-8.6-21.1-25.6-29.1-47-30.2c-2.1-0.1-4.3,0-7,0c0-9.1-0.4-17.7,0.2-26.3
		c0.2-2.6,2.8-5.1,4.6-7.5c3.1-4.1,6.5-8,9.7-12.1c0.5,0.4,1,0.8,1.5,1.2c-1-1.1-1.9-2.2-2.9-3.2c-16.5,10.3-29.9,35-29.3,54.1
		c4.3-0.3,8.6-0.6,12.8-0.9c10.1-0.7,20-0.1,29.5,3.6c11.8,4.5,19.6,13.2,23.3,25c1.2,3.7,0.5,8.2-0.4,12.1
		c-1.2,4.9-4.5,7.8-10.3,7.2c-4.3-0.5-8.7-0.5-13,0c-4.7,0.5-7.5-1.7-8.9-5.6c-2-5.4-6.1-6.8-11-6.7c-7.2,0.2-14.3,1.2-21.4,1.2
		c-6.6,0-13.4,0-19.7-1.6c-10.3-2.6-17.2-11.6-17.6-21.8c-1.6-43.1,17.7-85.4,61.1-105.2c7.7-3.5,15.1-4,23.1,0.8
		c19.2,11.7,39,11.7,58.1,0c8.7-5.3,16.8-4.6,24.8,0c14,7.9,23.4,20,30,34.5c5.8,12.8,8,26.4,8.8,40.3c0.5,7.8,0.5,8,7.9,8.9
		c21.4,2.4,37.3,13.1,48.3,31.4c2.9,4.8,3.8,9.9,2.1,15.3c-2.2,6.8-4.4,8.3-11.5,8.4c-0.8,0-1.7-0.1-2.5,0
		c-9.7,1.2-17.6-0.2-22.7-10.3c-3.1-6.1-9.8-8.1-16.5-9c-3.1-0.4-6.3-0.8-9.4-1.4c-20.1-4.3-30.4-17.5-31.6-40.3
		c-0.5-10.7-1.9-21.2-6.9-30.9C251.9,177.8,251.3,177,250.8,176.2z"/>
	<path fill="#919191" d="M220.4,422.3c22.1-18.7,43.9-37.2,65.8-55.7c12.7-10.8,25.5-21.4,38.1-32.4c1.7-1.5,3-4.2,3.5-6.5
		c1.1-5.7,5.6-9.5,11.3-8.8c5.4,0.7,9.4,5.6,8.9,10.8c-0.5,5.6-5.4,9.5-11.1,9.3c-1.9-0.1-4.3,0.4-5.7,1.6
		c-33.7,28.3-67.2,56.7-100.8,85.2c-0.9,0.7-1.6,1.6-2.8,2.7c3.4,2.9,6.5,5.6,9.6,8.3c30.9,26.2,61.8,52.3,92.7,78.5
		c2.4,2,4.6,3,8,2.7c5.5-0.5,9.9,4.2,10.1,9.6c0.2,5.3-4.1,10-9.4,10.5c-5.3,0.4-9.8-3.6-10.7-9c-0.3-1.9-1-4.3-2.4-5.5
		c-34.5-29.4-69.1-58.7-103.7-87.9c-0.4-0.3-0.8-0.5-1.7-1c-9.5,8.1-19.2,16.2-28.8,24.4c-24.8,21-49.6,42-74.4,62.9
		c-2.4,2-3.9,3.9-4.1,7.3c-0.4,5.5-5.7,9.3-10.9,8.7c-5.7-0.7-9.5-5.6-8.9-11.3c0.6-5.4,5-8.9,10.8-8.9c1.9,0,4.4-0.4,5.8-1.6
		c34-28.6,68-57.4,101.9-86.2c0.5-0.4,1.1-0.8,2.4-1.7c-1.7-1.3-2.9-2.1-4-3.1c-33.2-28.1-66.4-56.2-99.6-84.2c-1.5-1.3-4-2.1-6-2
		c-5.7,0.1-10.3-3.2-11.1-8.6c-0.8-5.5,2.6-10.4,8-11.4c5.7-1.1,11.2,2.2,11.7,8c0.4,4,2.3,6.1,5.1,8.4
		c33.5,28.3,66.9,56.6,100.3,84.9C218.6,421,219.3,421.5,220.4,422.3z"/>
	<path fill="none" stroke="#000000" stroke-width="4" stroke-miterlimit="10" d="M124.4,494.1c3.4-41.1,6.7-81.7,10-123
		c1.2,0.7,1.9,1,2.5,1.5c15.5,13.1,31.1,26.2,46.4,39.5c1.6,1.4,2.8,4.1,2.7,6.2c-0.3,7.8-1.1,15.6-1.9,23.4c-0.2,1.5-1,3.2-2.1,4.2
		c-18.5,15.8-37.1,31.5-55.7,47.2C126.1,493.4,125.5,493.5,124.4,494.1z"/>
	<path fill="none" stroke="#000000" stroke-width="4" stroke-miterlimit="10" d="M266.1,320.4c1.3,16.2,2.7,32.1,3.9,48
		c0.1,1.3-0.3,3.2-1.3,4c-16,13.7-32.1,27.4-49.3,41.9c-0.8-2.7-1.6-4.6-1.8-6.5c-1.9-22.7-3.8-45.4-5.6-68.1
		c-0.5-6.3-1-12.6-1.5-19.2C229.1,320.4,247.3,320.4,266.1,320.4z"/>
	<path fill="none" stroke="#000000" stroke-width="4" stroke-miterlimit="10" d="M188.8,386.8c-4.8-4-8.8-7.4-12.9-10.8
		c-11.7-9.9-23.3-19.9-35.1-29.6c-3.1-2.5-4.2-5.1-3.7-8.9c0.6-4.6,0.6-9.3,1.3-13.9c0.2-1.3,1.9-3.3,2.9-3.4
		c17.4-0.2,34.9-0.1,53-0.1C192.4,342.2,190.7,363.9,188.8,386.8z"/>
	<path fill="none" stroke="#000000" stroke-width="4" stroke-miterlimit="10" d="M237.8,428.4c11.7-9.9,22.8-19.3,34.8-29.5
		c1.7,21.3,3.4,41.6,5.1,63.3C263.8,450.4,251,439.6,237.8,428.4z"/>
	<path d="M370,118.4c0,8.4,0.1,16.5,0,24.7c-0.1,5.2-2.7,9.1-7.5,9.7c-2.5,0.3-6.3-0.8-7.6-2.6c-1-1.4-0.1-5.8,1.5-7.3
		c2.3-2.2,5.9-3.1,9.7-4.9c0-10.6,0-22.4,0-34.4c12.5-3.4,24.6-6.8,37.5-10.3c0,7.5,0,14.4,0,21.4c0,5.3,0.5,10.7-0.2,16
		c-0.4,2.9-2.4,6.2-4.7,8.1c-3.7,3.1-8.7,2-10.5-1.3c-1.8-3.2,0.1-7.7,4.4-9.8c2-1,4.4-1.2,7-1.8c0-4.6,0-9.6,0-15.3
		C389.7,113,380,115.7,370,118.4z M399.2,98.3c-7.6,2.1-15.3,4.1-22.9,6.2c-7,1.9-7,1.9-5.8,9.8c7.8-2.1,15.6-4.2,23.4-6.4
		C400.7,106,400.7,106,399.2,98.3z"/>
	<path d="M419.5,155.6c5.5-9.5,11.5-19.7,17.7-30.4c4.4,4.7,8.4,9.1,12.7,13.8c-0.7,0.9-1.9,2.4-3.3,4.2c-3.5-2.9-6.8-5.7-10.4-8.8
		c-5.5,9.4-10.8,18.6-16.1,27.7c-2.7,4.6-7.3,6.5-11.8,4.3c-2.1-1.1-4.8-4-4.7-5.9c0.1-2,3-5,5.2-5.6
		C411.9,154.2,415.4,155.3,419.5,155.6z"/>
	<path d="M336.3,151.3c-3.1,0.5-6,1-9.6,1.6c2.4,7.5,4.9,14.6,6.8,21.9c0.6,2.3,0.5,5.5-0.7,7.4c-1.1,1.7-4,2.4-6.3,2.9
		c-0.8,0.2-2.9-1.9-2.9-2.7c0.2-2.1,1-4.4,2.2-6.2c0.8-1.2,2.7-1.8,4.3-2.8c-2.7-8.4-5.4-16.9-8.2-25.8c3.8-0.2,7.2-0.2,10.4-0.6
		C335.6,146.5,336.8,147.6,336.3,151.3z"/>
	<path d="M357.3,176.8c-1.2,6.1-2.7,13.7-4.1,21.3c-0.7,3.8-3.1,6-6.7,6c-1.8,0-4.8-1.4-5.1-2.6c-0.4-1.7,0.8-4.6,2.3-5.7
		c1.8-1.3,4.6-1.4,7.5-2.1c1.6-8.1,3.2-16.6,5-25.9c4.4,2,8.4,3.8,12.7,5.8C366.2,182.2,361.5,173.1,357.3,176.8z"/>
	<path fill="none" stroke="#000000" stroke-width="4" stroke-miterlimit="10" d="M154.9,270.3c-4.2,0-8.2,0-12.7,0c0-2,0-4.1,0-6
		C150.5,262.4,152.7,263.4,154.9,270.3z"/>
</g>
</svg>
