<?xml version="1.0" encoding="utf-8"?>
<!-- Generator: Adobe Illustrator 21.1.0, SVG Export Plug-In . SVG Version: 6.00 Build 0)  -->
<svg version="1.1" id="Layer_1" xmlns="http://www.w3.org/2000/svg" xmlns:xlink="http://www.w3.org/1999/xlink" x="0px" y="0px"
	 viewBox="0 0 599.2 462.6" enable-background="new 0 0 599.2 462.6" xml:space="preserve">
<rect fill="#FFFFFF" width="599.2" height="462.6"/>
<g>
	<path fill="#6D0000" d="M556.5,331.4c-27,9-53.9,18-80.9,27c-4.1,1.4-8.2,2.7-12.6,4.2c-1.4-4.1-2.6-7.8-4-11.8
		c1.5-0.9,2.9-1.7,4.6-2.7c-5.3-16.1-10.7-32.1-16-48.3c-1.7,0.3-3.1,0.6-5.1,1c-1.3-3.8-2.7-7.7-4.2-12.1
		c31.2-10.3,62.2-20.6,93.5-31c1.4,4.3,2.7,8,4.1,12.4c-9.6,3.4-18.9,6.6-28.8,10.1c0.4,1.6,0.9,3,1.4,4.7c8.2-2.8,15.9-5.3,24-8.1
		c4.9,14.8,9.8,29.2,14.7,43.8c1.8-0.4,3.2-0.7,4.9-1c1.4,3.6,2.9,7.3,4.3,10.9C556.5,330.7,556.5,331,556.5,331.4z"/>
	<path fill="#6D0000" d="M44.5,330.4c1.4-3.5,2.8-7.1,4.3-10.9c1.5,0.3,3,0.6,4.9,1.1c4.9-14.6,9.6-28.9,14.6-43.8
		c8,2.7,15.8,5.3,24,8c0.6-1.5,1.1-2.8,1.7-4.6c-9.7-3.4-19.1-6.7-28.9-10.1c1.3-4.2,2.6-8,4-12.4c17.9,5.9,35.5,11.8,53.7,17.8
		c-2.4,5.5-4.6,10.5-7,16.1c11.7,5.3,23.2,10.4,35,15.8c-4.5,13.6-8.9,27-13.4,40.7c1.4,0.9,2.8,1.7,4.6,2.8
		c-1.3,3.8-2.5,7.7-4,11.9c-12.5-4.1-24.6-8.1-36.7-12.2c-18.9-6.3-37.8-12.7-56.8-19C44.5,331,44.5,330.7,44.5,330.4z"/>
	<path fill="#6D0000" d="M306.6,432.6c-52.7-0.3-94.3-42.6-94.1-95.7c0.2-51.5,43.3-93.8,95-93.4c52.6,0.4,94.4,42.9,94.1,95.8
		C401.3,390.9,358.6,432.9,306.6,432.6z M307,293.3c-4.1,8.2-8.1,15.5-11.3,23.1c-1.8,4.1-4.4,5.5-8.6,6c-8,0.9-16,2.3-23.5,3.4
		c5.9,6.4,11.7,12.8,17.7,18.9c2.1,2.2,3.2,4,2.5,7.3c-1.8,8.6-3,17.3-4.6,26.9c8.6-4.5,16.4-8.5,24.1-12.7c2.6-1.4,4.6-1.5,7.3-0.1
		c7.7,4.3,15.5,8.2,24.1,12.7c-0.9-5.5-0.9-10.5-2.5-14.9c-4.5-11.9-1-20.6,9.1-27.6c3.8-2.7,7.1-6.1,10.6-9.2
		c-0.4-0.5-0.7-0.9-1.1-1.4c-8.4-1.2-16.7-2.5-25.1-3.5c-3.3-0.4-5.3-1.7-6.7-4.8C315.3,309.6,311.3,301.9,307,293.3z"/>
	<path fill="none" stroke="#000000" stroke-width="4" stroke-miterlimit="10" d="M483,22.8c1.6,0.8,2.9,1.4,4.5,2.2
		c-8.9,18.6-17.7,36.8-26.4,55.1c-4.2,8.7-8.3,17.4-12.5,26.1c-1.1,2.3-1.4,3.9,0.6,6.1c4.4,5,4.6,11,0.6,16.5
		c-13,17.9-26.2,35.8-39.4,53.5c-4.1,5.5-9.6,6.7-16.5,4.3c-13-4.5-26.1-9-39.1-13.5c-0.9-0.3-1.9-0.5-3.5-0.9c0,24.3,0,48.2,0,72.3
		c-7.3-2.3-13.9-4.6-20.6-6.3c-17.7-4.5-35.3-3.6-52.8,1.4c-3.4,1-15.7-2.2-17.4-5c-0.8-1.2-0.7-3.2-0.7-4.8c0-17.1,0-34.3,0-52.6
		c-4.5,4.5-8.4,8.2-12,12.2c-3.1,3.4-5.9,7.2-8.8,10.8c-4.7,5.8-11.5,7.3-17.8,3.6c-17.4-10.1-34.8-20.3-52.1-30.6
		c-6.5-3.8-8.7-9.6-6.1-16.6c1.2-3.2-0.6-4.6-2.1-6.5c-18.3-22.5-36.7-44.9-55-67.3c-0.6-0.8-1.2-1.6-2-2.7c1.1-1,2.2-2,3.7-3.3
		c20,24.5,39.9,48.8,60,73.3c6.6-3.7,12.5-2.1,18.4,1.6c12.6,7.7,25.5,15.1,38.5,22.8c1-1.1,2-2.2,3-3.2
		c6.3-6.1,12.4-12.6,19.1-18.3c8.9-7.5,19.1-11.5,31.2-10.9c14.1,0.6,28.4,0.8,42.5,0c19.7-1.1,38.4,3,56.7,9.6
		c3.8,1.4,7.8,2.2,11.2,4.1c5.3,2.9,8,1,11.2-3.5c8.8-12.7,18.3-25,27.4-37.5c3.4-4.6,7.4-7.3,13.3-7.5c1.5,0,3.4-2.1,4.2-3.7
		c11.8-24.4,23.5-48.9,35.3-73.3C480.5,27.9,481.6,25.7,483,22.8z"/>
	<path fill="#6D0000" d="M156.8,213.1c2.3-5.2,4.4-9.8,6.8-15.2c34.1,15.2,68,30.4,102.5,45.8c-34.5,16.8-54.8,43.5-61.1,81.5
		c-27.3-12.2-54.4-24.3-82-36.6c2.3-5.2,4.5-10,6.8-15.1c2.1,0.8,3.9,1.5,6.3,2.4c8.3-18.4,16.5-36.7,24.8-55.3
		c19.8,8.1,39.3,16.1,58.8,24.1c3-3.1,2.2-4.7-1.4-6.1c-18-7.3-36-14.7-54-22.2C161.9,215.4,159.7,214.4,156.8,213.1z"/>
	<path fill="#919191" d="M420.4,279.7c0,0,0,75.1,0.2,114.8c0,2.2,1.5,5,3.3,6.5c13.5,11.4,27.2,22.5,41.2,34
		c-1.4,1.7-2.6,3.2-4.2,5.3c-14.7-12-29.2-23.8-43.9-35.8c-14.6,11.8-29.1,23.6-44,35.8c-1.5-1.9-2.7-3.4-4.1-5.3
		c13-10.7,25.6-21.3,38.6-31.5c4.4-3.5,6.3-7,6.3-12.8c-0.3-37.2-0.2-102-0.2-103.8C413.5,279.7,417.7,279.7,420.4,279.7z"/>
	<path fill="#6D0000" d="M412.3,275.2c-6.8,1.7-12.2,2.2-18.2,3.1c-1.4,0.2-3.4-0.4-4.4-1.3c-7.1-7.4-14.1-15-21.8-23.3
		c2.2-3,4.5-7.3,7.8-10.6c17-17.2,37.5-26.8,61.8-27.6c3.7-0.1,7.7,0.6,11.3,1.8c10,3.1,14.1,11.1,10,20.7c-2.1,4.9-5,10.2-9,13.6
		c-8.1,6.8-22.4,16.2-25.9,18.4S416.1,274.3,412.3,275.2z"/>
	<path fill="none" stroke="#000000" stroke-width="4" stroke-miterlimit="10" d="M305.1,132.5c-21.2-0.1-37.9-17-37.7-38.3
		c0.2-20.9,17.2-37.7,38.1-37.6c20.7,0.1,37.8,17.2,37.9,38C343.4,115.5,326.2,132.5,305.1,132.5z"/>
	<path fill="#919191" d="M238.2,434.4c-2,2.4-3.5,4.3-5.4,6.5c-15.3-12.5-30.4-24.9-45.8-37.5c-15.2,12.4-30.3,24.8-45.9,37.5
		c-1.8-2.2-3.5-4.2-5.4-6.5c6.4-5.3,12.6-10.4,18.7-15.4c8.1-6.7,16.2-13.4,24.4-19.9c2.7-2.1,3.9-4.4,3.8-7.9
		c-0.2-21.3-0.1-42.6-0.1-64c0-1.7,0-3.3,0-5c7.6,1,8.6,2,8.6,9.1c0,20,0.1,40-0.1,60c0,3.3,1,5.5,3.6,7.6
		C209.2,410.6,223.4,422.3,238.2,434.4z"/>
	<path fill="#919191" d="M130.6,435.1c-1.7,2-2.9,3.5-4.3,5.1c-11.5-9.4-22.6-18.5-34.2-28c-11.4,9.3-22.6,18.5-34.2,28
		c-1.4-1.7-2.8-3.4-4.3-5.2c10.9-8.9,21.5-17.5,31.9-26.3c1.7-1.5,3-4.3,3.1-6.6c0.3-14.3,0.1-28.7,0.1-43c0-2,0-3.9,0-5.9
		c5,0,7.2,1.6,7,6.8c-0.4,13.8,0,27.7-0.2,41.5c-0.1,3.6,1.1,5.8,3.8,8C109.6,417.8,119.8,426.3,130.6,435.1z"/>
	<path fill="#919191" d="M474.8,440.3c-1.5-1.9-2.8-3.4-4.2-5.3c10.7-8.7,21-17.3,31.6-25.7c2.6-2.1,3.6-4.2,3.6-7.6
		c-0.2-13.8,0.1-27.7-0.2-41.5c-0.1-4.9,1.6-7.1,6.7-7c0.1,1.4,0.2,2.8,0.2,4.2c0,15-0.1,30,0.1,45c0,2.1,1.3,4.8,2.9,6.2
		c10.4,8.9,21,17.4,32,26.4c-1.4,1.7-2.7,3.4-4.2,5.3c-11.6-9.5-22.9-18.7-34.3-28C497.6,421.6,486.4,430.8,474.8,440.3z"/>
	<path fill="#CEB093" d="M363.3,253.3c-0.5-2.3-2-4.8-1.4-6.8c1.2-4.4,2.6-9.2,5.4-12.6c18.4-22.5,42.2-33.9,71.4-32.5
		c7.1,0.3,13.3,3.3,17,11.5c-12.9-7.4-25.5-5.7-38-2.4c-12.2,3.2-23.3,8.8-33.3,16.5c-8.8,6.8-16.3,14.7-19.1,26.1
		C364.7,253.2,364,253.3,363.3,253.3z"/>
</g>
</svg>
