<?xml version="1.0" encoding="utf-8"?>
<!-- Generator: Adobe Illustrator 21.1.0, SVG Export Plug-In . SVG Version: 6.00 Build 0)  -->
<svg version="1.1" id="Layer_1" xmlns="http://www.w3.org/2000/svg" xmlns:xlink="http://www.w3.org/1999/xlink" x="0px" y="0px"
	 viewBox="0 0 1637.2 676.4" style="enable-background:new 0 0 1637.2 676.4;" xml:space="preserve">
<style type="text/css">
	.st0{fill:url(#SVGID_1_);}
	.st1{display:none;}
	.st2{display:inline;fill:#F7F7F7;}
	.st3{fill:#BD8FF2;}
	.st4{fill:#F7F7F7;}
</style>
<title>thumb</title>
<g id="Layer_2">
	
		<linearGradient id="SVGID_1_" gradientUnits="userSpaceOnUse" x1="0" y1="1142.2" x2="1637.2" y2="1142.2" gradientTransform="matrix(1 0 0 1 0 -804)">
		<stop  offset="0" style="stop-color:#4C19C0"/>
		<stop  offset="1" style="stop-color:#4C19C0;stop-opacity:0.8"/>
	</linearGradient>
	<rect class="st0" width="1637.2" height="676.4"/>
</g>
<g id="Layer_1_1_" class="st1">
	<path class="st2" d="M807.3,456.7c-95.7,8.8-195.5-5.1-209.4-79.9c-6.8-36.9,10-76,32.3-100.3v-13c-40.1,35.2-61.9,79.7-49.4,132.4
		c16,67.5,101.6,105.7,232.3,93c51.7-5,119.4-21.6,166.4-47.5v-36.7C936.7,430.2,866.1,451.2,807.3,456.7z M1059.4,262.7
		c-22.7-110.8-237.9-117.9-376.6-33.4v9.3c138.5-71.2,335.1-70.8,353,31.3c6,33.8-13,69-47,89.2v26.5
		C1029.6,370.6,1071.6,322.1,1059.4,262.7L1059.4,262.7z"/>
	<path class="st2" d="M971.7,246.6h-25.1v111.7c0,13.1,6.3,24.5,25.1,26.3V246.6z"/>
	<path class="st2" d="M672.9,287.4h-25.1v73c0,13.1,6.3,24.5,25.2,26.3L672.9,287.4z"/>
	<rect x="647.8" y="250" class="st2" width="25.1" height="23.8"/>
	<path class="st2" d="M823.2,385.5c-20.3,0-28.9-14.1-28.9-28v-97h24.9v26.8h18.7v20.1h-18.7V356c0,5.7,2.7,8.8,8.6,8.8h10.1v20.7
		H823.2"/>
	<path class="st2" d="M869,344.2c0,12.7,8,22.1,22,22.1c11,0,16.5-3.1,22.8-9.4l15.4,14.6c-9.8,9.7-20.2,15.6-38.4,15.6
		c-23.8,0-46.6-13-46.6-50.9c0-32.4,19.9-50.7,46.1-50.7c26.6,0,41.8,21.4,41.8,49.5v9L869,344.2 M889.2,306.3
		c-8.5,0-15,4.4-17.8,10.3c-1.6,3.4-2.4,7-2.4,10.7h38.3C906.8,316.6,902,306.3,889.2,306.3L889.2,306.3z"/>
	<path class="st2" d="M740.5,307.5c7.3,0,10.3,3.6,10.3,9.5v68.8h24.9v-68.9c0-14-7.4-29.4-29.3-29.4H695v98.3h24.9v-78.2
		L740.5,307.5L740.5,307.5z"/>
	<path class="st2" d="M998.7,266.5c-5.5,0-10-4.5-10-10s4.5-10,10-10s10,4.5,10,10C1008.7,262.1,1004.2,266.5,998.7,266.5z
		 M998.7,248.2c-4.6,0-8.3,3.8-8.3,8.3c0,4.6,3.8,8.3,8.3,8.3c4.6,0,8.2-3.7,8.3-8.3C1007,252,1003.3,248.3,998.7,248.2L998.7,248.2
		z M1003.1,262.5h-1.9c-0.2,0-0.3-0.1-0.4-0.2l-2.5-4.3c-0.1-0.1-0.2-0.2-0.3-0.2h-1.2v4.3c0,0.2-0.2,0.4-0.4,0.5l0,0h-1.7
		c-0.2,0-0.4-0.2-0.4-0.5v-10.8c0-0.6,0.2-0.9,0.8-1s2.2-0.1,3.1-0.1c3.1,0,4.9,0.9,4.9,3.8v0.2c0.1,1.5-0.8,2.8-2.2,3.2l2.6,4.5
		c0,0.1,0.1,0.2,0.1,0.3C1003.6,262.3,1003.4,262.5,1003.1,262.5C1003.2,262.6,1003.2,262.6,1003.1,262.5z M1000.7,254
		c0-1.2-0.8-1.6-2.3-1.6h-1.6v3.4l1.6,0.1c1.6,0,2.3-0.5,2.3-1.7V254z"/>
</g>
<g id="Layer_2_1_">
	<path id="path1329" class="st3" d="M612.6,383.9h60.6c2.9,0,5.2-2.3,5.2-5.2V329c0-2.9,2.3-5.2,5.2-5.2h60.3c2.9,0,5.2-2.3,5.2-5.2
		v-50.1c0-2.9,2.3-5.2,5.2-5.2h61.2c2.9,0,5.2-2.3,5.2-5.2v-49c0-2.9,2.3-5.2,5.2-5.2h60.8c2.9,0,5.2-2.3,5.2-5.2v-44.6
		c0-4,4.4-6.5,7.9-4.4l1.3,0.8c0.8,0.5,1.5,1.2,1.9,2l5.4,10.2c0.3,0.5,0.6,1,1.1,1.4l10.2,9.4c1.1,1,1.7,2.4,1.7,3.8V229
		c0,2.9-2.3,5.2-5.2,5.2h-60.8c-2.9,0-5.2,2.3-5.2,5.2V289c0,2.9-2.3,5.2-5.2,5.2h-60.7c-2.9,0-5.2,2.3-5.2,5.2v49.3
		c0,2.9-2.3,5.2-5.2,5.2h-61c-2.9,0-5.2,2.3-5.2,5.2v49.8c0,2.9-2.3,5.2-5.2,5.2h-89.8c-2.9,0-5.2-2.3-5.2-5.2v-20
		C607.4,386.2,609.7,383.9,612.6,383.9z"/>
	<path class="st4" d="M881.6,192.8c-2.9-2.9-3.2-6.4-0.8-9.3c1.5-1.9,1.7-5.1,5.1-5c1.6,0,3.3-0.4,4.9-0.6
		c7.7-0.9,15.4-1.9,23.1-2.8c0.6-0.1,1.2-0.1,1.8,0.1c3.3,1.1,6.3,6,6.3,9.9c-0.1,3.2-2.6,6-6.8,7c-3.8,0.9-7.7,1.6-11.8,2.4
		c2.2,21.6,4.4,43.3,6.6,64.9c3,0.3,5.9,4.3,5,6.7c-0.6,1.6-0.5,3.7-2.8,4.3c-0.5,0.1-0.8,1.8-0.7,2.7c0.8,8.8,1.6,17.5,2.6,26.3
		c0.1,1,1.1,2.3,2,2.9c2.5,1.5,3.5,3.8,3.4,6.5c0,0.8-0.4,1.8-0.9,2.4c-1.6,1.6-3.4,3.1-2.7,5.8c0.1,0.3-0.1,0.8-0.3,0.9
		c-4.4,2-2.6,6.3-3.2,9.5c-1,4.9-1,10.1-1.5,15.1c-0.1,1-0.2,2.1-0.7,3c-0.7,1.3-1.7,3.2-2.7,3.3c-2,0.2-4-0.3-5.6-2.4
		c-2.6-3.6-5.7-6.7-8.7-9.9c-0.6-0.6-1.6-0.9-2.9-1.7c-1.1,2.9-1.8,5.7-3,8.2c-3.1,6.4-0.9,12.1,1.4,18.1c5.2,13.6,7,27.9,7.3,42.3
		c0.3,13.3-0.1,26.5,0.2,39.8c0.3,12.6,1.2,25.3,1.8,37.9c0.1,2.5,0.6,5.1,0.1,7.4c-1.1,6,1.1,11.1,3.5,16.3c2.8,6.1,2.3,6.8-4,7.8
		c-7.1,1.1-6.9,0.9-7.4-6.1c-0.2-3.2-2-6.3-3-9.5c-0.6-1.9-1.4-3.9-1.7-5.9c-1-6.1-1.5-12.3-2.6-18.4c-1.2-6.1-3.3-12-4.3-18.1
		c-1.2-7.3-1.9-14.8-2.5-22.2c-0.9-11.1-1.9-22.3-5.6-32.9c-0.2-0.5-0.5-1.1-1.2-1.5c-0.4,6-1.1,12-1.3,18
		c-0.4,10.7-0.1,21.4-0.8,32c-0.5,7.8-2.2,15.5-3.1,23.3c-0.8,7.2-1.1,14.4-1.8,21.7c-0.2,2.5-1.3,4.9-1.5,7.4
		c-0.1,1.4,0.3,3,0.9,4.3c1.9,4.2,1,6.1-3.6,6.4c-2.4,0.2-4.9-0.2-7.3-0.7c-2.8-0.6-3.2-2.8-1.8-4.7c1.9-2.5,1.5-4.8,1.4-7.7
		c-0.7-12.3-1.3-24.6-1.4-37c-0.2-19.2-0.9-38.3-4.3-57.3c-1.6-9.4-2.9-19-0.9-28.4c1.2-5.6,3.7-10.9,6-16.2
		c1.5-3.6,4.1-6.4,1.8-11.1c-2.1-4.3-2.1-9.6-3.3-14.4c-1.6-6.3-3.8-12.4-5.3-18.7c-1.3-5.1,0-9.7,4.7-12.8c0.6-0.4,1.1-1,1.4-1.6
		c2.3-4.3,4.6-8.6,6.8-12.9c1.2-2.2,1.4-4.5,0.7-7.1c-1.6-5.8,1.6-12.9,7.1-16.7c5.8-4.1,11.5-3.6,17.4-0.1c1.5,0.9,3.5,1.3,5.2,1.2
		c6.1-0.4,12.2-0.4,17.9-3.1c1.7-0.8,2-1.7,1.8-3.3c-0.9-8.2-1.9-16.5-2.7-24.7c-1-9.8-1.9-19.6-2.8-29.4c-0.3-3-0.7-5.9-1.1-9.2
		c-3.2,0.2-6.2,0.5-9.2,0.4C886.9,195.5,883.7,195.6,881.6,192.8c4.3,0.3,8.7,1,13.1,1.1c2.4,0.1,4.8-0.8,7.2-1.2
		c4.6-0.7,9.4-0.9,13.9-2.2c4.8-1.4,5.9-3.8,4.2-8.1c-0.6,3.7-2.4,5.4-5.6,5.8c-8.1,1-16.2,2-24.3,3.2c-3.5,0.5-6.5,0.3-8.5-3.1
		c0-0.1-0.4,0-0.9,0C881,189.9,881.3,191.3,881.6,192.8z M910.3,304.8c-0.1-2.2-0.1-3.8-0.3-5.5c-0.9-8.3-2.1-16.6-2.7-25
		c-0.2-2.5-1.3-3-3.2-3.7c-5.9-2.1-11.1-0.2-16.4,2.1c-0.5,0.2-1,1.2-1,1.9c-0.1,0.9,0.4,1.8,0.4,2.7c0,3.2,0.3,6.4-0.3,9.5
		c-0.3,1.4-2.5,2.5-3.7,3.8c-0.6,0.7-1.2,1.7-1.4,2.6c-0.4,3-0.8,5.9-0.9,8.9c-0.1,0.9,0.3,2.3,0.9,2.6c3.6,2.2,7.4,4,10.9,6.4
		c2.2,1.5,4.3,3.5,5.8,5.7c2,2.9,3.2,6.2,5,9.8c0.9-2.2,2.1-3.9,2.4-5.7c0.6-4.3,0.8-8.6,1.1-12.9
		C907,305.9,907.4,304.3,910.3,304.8z"/>
</g>
</svg>
