<?xml version="1.0" encoding="utf-8"?>
<svg id="master-artboard" viewBox="0 0 1098 780" version="1.1" xmlns="http://www.w3.org/2000/svg" x="0px" y="0px" style="enable-background:new 0 0 1098 780;" width="1098px" height="780px">

<path class="st0" d="M477.6,421.3c0,0-25.3-29.8-6.7-86.8c0,0,6.3-35.4,7-65.7c0,0,25.4-116.6,139.7-70c0,0,110.2,64.4,44.5,195.2&#10;&#9;c0,0-22.2,51.8-70.5,88.3c0,0-67.8,80.8-98.6,31.5c0,0-3.1-8,0.3-27.7c0,0,6.2-31.8-8.9-53.1L477.6,421.3z" style="fill: rgb(240, 208, 180);"/>
<path class="st1" d="M643.7,342.9c-2.1-20.6-4.2-39.6-11.3-58.8c-5.7-15.6-10.7-33.4-22.9-44.9c-13.6-12.7-32.9-15.4-51.1-13.6&#10;&#9;c-20.1,2-30,10.1-38.7,29.2c-5.4,11.9-9.3,22-8.5,35.4c0.6,10.2,7.7,19.7,11.4,28.8c4.3,10.3,9.2,22.8,18.1,30&#10;&#9;c7.5,6,17,8.7,24.4,14.7c5.9,4.7,9.5,14.8,16.4,17.1c1-5.9-4.5-15,2.3-18.9c9.9-5.7,12.1,11.3,18.8,14.8&#10;&#9;c10.3-9.9-11.3-39.2-15.7-49.1c-3.9-8.9-0.1-17.7-4.1-26.8c-3.6-8-11.5-15.3-16.5-22.6c-9.1-13.6-20.9-43.4,8.3-33.8&#10;&#9;c17,5.5,25.2,29.6,31.3,44.9c6.5,16.4,9.9,33.7,13,50.6c3.2,18,9.8,40.5,2.1,58.1c-3.4,7.7-7.9,15.4-14.3,21.1&#10;&#9;c-5.7,5.1-12.1,12.8-18.6,17.4c-14.7,10.6-31.9-2.6-45.2,9.2c-4,3.5-16.9,12.8-14.2,18.3c3.4,7,25.1,0.5,30.7-1.1&#10;&#9;c15.5-4.3,33.5-14,46-24.9c11.3-9.8,20.9-23.4,28.7-35.9C645.9,383.2,645.9,364.4,643.7,342.9z M558.5,295.6&#10;&#9;c3.7,6.1,22.7,17.2,17.8,24.6c-4.3,6.6-29.6-12.2-33-16.8c-4.3-5.8-12.7-22.5-6.4-29.1C547.9,262.8,554.9,289.6,558.5,295.6z" style="fill: rgb(207, 158, 118);"/>
<path class="st1" d="M498.6,315.2c7.7,9.4,8.9,18.8,15.2,28.7c-6.8-9.1-17.2-14.5-24.7-22.5c-16.2-17.1-16.2-49.7-8.4-70.6&#10;&#9;c4.2-11.2,18.5-45.2,33.4-44.5c1.1,8.8-8,13.8-12.3,19.9c-5.7,8.1-9.1,18.6-11.6,28.1C484.8,274.4,484.7,298.1,498.6,315.2z" style="fill: rgb(207, 158, 118);"/>
<path class="st1" d="M499.1,495.7c-0.7,8.6-1.8,15.1,5.9,19.5c7.4,4.3,17.7,0.9,24.5-3.3c13.8-8.6,28.5-20.3,40.2-31.6&#10;&#9;c13.3-12.8,29.2-19.9,43.2-31.8c26.3-22.4,40-57.3,46.2-89.3c5.5-28.5,10.7-59.7,1.1-87.9c-9.7-28.3-38.9-54.1-64.8-67.5&#10;&#9;c-7.5-3.9-15.8-5.7-23.6-7.9c-5.9-1.7-15.1-2-20.1-4.4c28.7-15.8,73.6,14.4,95.1,30.3c15.9,11.8,22.2,23,26.7,40.9&#10;&#9;c8.5,33.5,10.9,65.4,4.1,99.7c-3,15.1-11.8,33-20.3,46.2c-8.4,13-16.6,28.7-27.7,39.2c-11.6,10.9-23.1,20.4-33.3,32.6&#10;&#9;c-9.9,11.8-19.1,23.8-32.6,31.6c-21.4,12.4-49.3,35.2-69.7,9.5c-17.7-22.4,7.5-40.3,1.2-63c-0.5-1.8-7.9-21.2-8.6-21.1&#10;&#9;C511.4,436.3,500.1,484,499.1,495.7z" style="fill: rgb(207, 158, 118);"/>
<path class="st1" d="M526.6,368.3c10,8.4,23,16,32.1,25.4c3.9,4,12.6,14.7,10,20.8c-2.7,6.6-15.5,6.3-20.8,7.9&#10;&#9;c-12.9,4-28.6,26.2-39.1,5.6c-6.4-12.5,4.1-15.6,8.5-24.9c5.7-12.2-14.1-18.4-14.4-28.8C502.6,360.4,519.1,362,526.6,368.3z" style="fill: rgb(207, 158, 118);"/>
<g>
	<path class="st2" d="M322.3,243.7c-15.7-29-45.6-50-77.1-58.2c-14.9-3.9-30.8-4.8-45.7-0.7c-15.8,4.4-30.2,13.5-42.3,24.5&#10;&#9;&#9;c-11.7,10.7-22.1,24.2-26.9,39.5c-1.2,3.8-1.1,7.9-1.8,11.7c-0.8,4.1-1.3,8.3-1.8,12.5c-0.8,7.9-0.8,15.9,1,23.6&#10;&#9;&#9;c0.1,0.5,0.5,0.8,1,0.9c-0.1-2.4-0.1-4.8,0-7.2c0.3-6.2,1.2-12.5,2.8-18.5c0.1-0.5,0.1-1,0.2-1.5c1.2-8.5,3.8-16.3,7.3-24&#10;&#9;&#9;c7.2-15.7,18.7-28.9,32.6-39.1c13.2-9.8,29.2-17.1,45.8-17.5c16.3-0.3,32.7,3.9,47.4,10.8c7.2,3.4,14.1,7.5,20.5,12.3&#10;&#9;&#9;c1.7,2.4,3.2,4.9,4.5,7.6c2.2,4.6,2.8,9.8,3.1,14.8c0,0.5,0.8,0.5,0.8,0c0.2-7.3-1.4-14-5-19.8c3,2.4,5.8,4.9,8.5,7.5&#10;&#9;&#9;c0.8,2.3,1.5,4.7,2,7.1c1.3,5.8,1.2,11.7,1.5,17.5c0,0.5,0.8,0.6,0.9,0.1c1.4-6.7,1-14.4-1-21.4c1.3,1.4,2.6,2.8,3.9,4.2&#10;&#9;&#9;c2,2.3,3.9,4.7,5.6,7.2c-0.1,0.1-0.2,0.2-0.1,0.4c2.9,8.2,2.7,16.7,1,25.1c-0.1,0.6,0.8,0.9,1,0.3c2-7.5,3.3-15,0.6-22.2&#10;&#9;&#9;c3.5,5.5,6.5,11.4,9,17.5c0,0.3,0.1,0.6,0.1,0.9c0.2,4.4,0,8.8-0.6,13.2c0,0.4,0.6,0.5,0.7,0.1c0.7-3.1,1.3-6.4,1.6-9.7&#10;&#9;&#9;c0.5,1.3,1,2.6,1.4,3.9c0.4,6,0.2,12.1-1.5,17.9c-0.1,0.3,0.3,0.4,0.4,0.1c1.5-4.5,2.4-8.9,2.5-13.4c0.5,1.7,1,3.4,1.5,5.2&#10;&#9;&#9;c0.7,8.4-0.7,16-5.9,23c-0.3,0.4,0.3,0.8,0.6,0.5c3.2-3.7,6.4-9.3,7.4-14.8c0.5,2.7,1,5.5,1.4,8.2c-1.3,6.2-4.1,12.7-9.1,16.5&#10;&#9;&#9;c-0.1,0.1,0,0.3,0.1,0.2c4.2-3,7.8-8,9.4-13.2c0.3,2.9,0.6,5.8,0.7,8.7c-1.7,4.9-3.9,9.5-9,12.2c-0.5,0.3-0.1,1.1,0.5,0.8&#10;&#9;&#9;c3.4-1.6,6.6-4.9,8.7-8.7c0,2.3,0,4.6,0,6.9c-2.2,4.5-4,9.4-9.6,10.2c-0.6,0.1-0.6,1,0,1c4.3-0.2,7.5-2.9,9.4-6.5&#10;&#9;&#9;c-0.1,1.8-0.2,3.6-0.4,5.4c-1.8,4.3-4.5,8.3-9.4,7.9c-0.3,0-0.3,0.4-0.1,0.5c3.4,0.5,6.7-1.5,9-4.3c-0.1,1.1-0.3,2.3-0.5,3.4&#10;&#9;&#9;c-2.8,5.1-6.5,9.8-12.9,9.6c-0.5,0-0.5,0.7,0,0.7c5.2,0.3,9.5-2.5,12.4-6.6c-0.3,1.7-0.6,3.4-0.9,5c-2.6,4.2-5.8,7.9-11.4,8.3&#10;&#9;&#9;c-0.6,0-0.6,0.9,0,0.9c4,0,7.7-1.8,10.4-4.5c-0.4,1.7-0.8,3.4-1.2,5c-2.3,3.4-6,6.3-10.1,5.6c-0.5-0.1-0.7,0.6-0.2,0.7&#10;&#9;&#9;c3.5,0.9,7-0.5,9.4-3c-0.4,1.5-0.9,3-1.4,4.6c-3,1.9-6.8,2.6-10.7,2.9c-0.4,0-0.4,0.6,0,0.6c3.5,0.2,7.1-0.1,10-1.3&#10;&#9;&#9;c-0.3,0.9-0.6,1.9-0.9,2.8c-2.5,2-5.4,3.3-9,3.5c-0.7,0-0.7,1,0,1c2.4,0,5.4-0.5,8-1.7c-0.5,1.3-1,2.7-1.5,4&#10;&#9;&#9;c-3,3.2-6.6,5.7-10.5,4.4c-0.3-0.1-0.6,0.4-0.2,0.6c3.1,1.8,6.4,0.8,9.3-1.3c-0.5,1.1-0.9,2.2-1.4,3.3c-2.5,2.3-5.3,3.6-8.7,4.2&#10;&#9;&#9;c0,0,0,0,0,0c2.5,0.5,5.1-0.2,7.5-1.6c-0.1,0.2-0.2,0.4-0.3,0.6c-2.7,3.8-6.7,8.4-11.7,8.2c-0.4,0-0.3,0.5,0,0.5&#10;&#9;&#9;c3.9,0.5,7.2-1.7,9.6-4.5c-0.9,1.7-1.7,3.4-2.6,5.1c-3.1,2.3-6.7,3.7-10.8,4.4c-0.3,0-0.2,0.5,0.1,0.5c3.5-0.3,6.9-1.2,9.7-2.9&#10;&#9;&#9;c-1.1,2-2.2,4.1-3.4,6.1c-0.4,0.3-0.8,0.6-1.3,0.9c-2.4,1.4-5.3,2.1-8.1,1.9c-0.7,0-0.7,1,0,1.1c2.2,0.3,5.1-0.1,7.7-1.1&#10;&#9;&#9;c-0.7,1.1-1.4,2.2-2,3.3c-3.8,2.4-7.9,4-12.5,4.4c-0.4,0-0.4,0.6,0,0.6c3.6,0.2,7.7-0.7,11-2.6c-1.1,1.8-2.3,3.5-3.5,5.3&#10;&#9;&#9;c-3.5,1.6-7.4,2.4-11.3,2.7c-0.2,0-0.2,0.3,0,0.3c3.1,0.1,6.7,0,9.9-1c-1.2,1.7-2.4,3.5-3.7,5.2c-2.5,1.4-5.5,1.6-8.2,1&#10;&#9;&#9;c-0.2-0.1-0.3,0.3-0.1,0.3c2.3,0.8,4.8,0.8,7.2,0.2c-0.7,0.9-1.4,1.9-2.1,2.8c-3.9,1-7.7,1.4-11.7,1.4c-0.3,0.3-0.5,0.6-0.8,0.9&#10;&#9;&#9;c0.1,0,0.1,0.1,0.2,0.1c3.7,0,7.6,0.1,11.1-0.9c-1.1,1.5-2.3,3-3.5,4.4c-3.4,0.8-6.9,0.8-10.4,0.8c-0.5,0-0.5,0.7,0,0.7&#10;&#9;&#9;c3.3,0.1,6.6,0.3,9.7-0.6c-1.5,1.9-3,3.8-4.6,5.6c-2.7,0.7-5.4,0.7-8.5,0.4c0,0,0,0,0,0c1.9,1.2,4.6,1.6,7.1,1.2&#10;&#9;&#9;c-1.6,1.9-3.2,3.7-4.8,5.6c-2.5,0.1-5.1-0.6-7.2-1.9c-0.2-0.1-0.5,0.2-0.3,0.4c1.6,1.4,3.9,2.5,6.3,2.8c-1.1,1.2-2.2,2.5-3.3,3.7&#10;&#9;&#9;c-3.4,0.1-6.8-0.5-9.3-2.5c-0.5-0.4-1.2,0.3-0.7,0.7c2.4,2,5.6,2.9,8.9,3c-1.1,1.2-2.2,2.3-3.3,3.5c-3-0.2-5.9-0.9-9-1.6&#10;&#9;&#9;c-0.3-0.1-0.4,0.4-0.1,0.5c2.5,1,5.3,1.9,8.1,2.3c-1,1-2,2.1-3,3.1c-2.6-0.2-5.2-0.7-8-1.5c-0.4-0.1-0.6,0.4-0.3,0.6&#10;&#9;&#9;c1.7,1,4.1,2,6.6,2.5c-0.5,0.6-1.1,1.1-1.6,1.7c-0.6-0.1-1.2-0.2-1.8-0.4c-2.2-0.6-4.2-1.7-6.4-2.2c-0.3-0.1-0.5,0.4-0.2,0.6&#10;&#9;&#9;c1.8,1.2,4.4,2.6,7,3.5c-0.9,0.9-1.7,1.7-2.6,2.5c-0.3,0.3-0.6,0.6-0.9,0.8c-2.6-0.4-5-0.9-7.3-1.9c-1.2,0-2.4-0.2-3.6-0.5&#10;&#9;&#9;c2.6,1.9,5.8,3.6,9.1,4.2c-0.9,0.8-1.7,1.7-2.6,2.5c-3.4-0.6-6.6-1.7-9.7-3.4c-0.3-0.2-0.6,0.3-0.3,0.5c2.7,1.9,5.7,3.4,9,4&#10;&#9;&#9;c-1.5,1.5-3.1,3-4.6,4.4c-3.4-0.3-6.6-1.7-9.3-4.2c-0.5-0.5-1.2,0.3-0.7,0.8c2.4,2.3,5.5,4.1,8.8,4.7c-1.2,1.2-2.4,2.3-3.6,3.5&#10;&#9;&#9;c-3-0.2-5.9-0.6-8.7-2c-0.5-0.3-1,0.5-0.5,0.8c2.7,1.4,5.5,1.9,8.3,2.1c-0.7,0.6-1.3,1.2-2,1.9c-0.7,0.1-1.3,0.1-2.1,0.1&#10;&#9;&#9;c-3.7-0.1-7.4-1.6-10.6-3.5c-0.6-0.3-1.1,0.5-0.5,0.9c3.1,2.1,7.2,3.8,11.4,4.2c-1.8,1.7-3.6,3.4-5.4,5.1c0.1-0.2,0.1-0.5-0.2-0.5&#10;&#9;&#9;c-4.8-0.7-9.3-0.9-13.5-3.6c-0.6-0.4-1.1,0.6-0.6,0.9c4.1,2.6,9.1,3.9,14,3.3c0,0,0.1,0,0.1,0c-1,0.9-2,1.8-2.9,2.8&#10;&#9;&#9;c-0.5,0.5-1,0.9-1.5,1.4c-6-0.8-11.1-2.7-16.1-6.1c-0.4-0.3-0.8,0.4-0.4,0.6c4.6,3.3,9.9,6.3,15.6,6.2c-1.8,1.7-3.7,3.4-5.6,5&#10;&#9;&#9;c-2.9-0.7-5.9-1-8.7-1.9c-4-1.2-7.6-3.4-10.3-6.6c-0.4-0.5-1.2,0.2-0.7,0.8c4.1,5,11.7,8.6,18.5,8.9c-5.1,4.4-10.4,8.5-16,12.2&#10;&#9;&#9;c-9.6,1.7-18.7-6.7-21.6-15.4c-0.2-0.6-1-0.3-0.9,0.2c1.2,5.2,4.8,10.2,9.1,13.4c2.7,2.1,6.3,4,9.8,4c-1.6,1-3.2,1.9-4.9,2.8&#10;&#9;&#9;c-1.5,0.8-3.2,1.6-4.8,2.3c-8.8-3.6-16.1-12.1-18-21.3c-0.1-0.4-0.7-0.3-0.7,0.1c0.8,6.3,4.6,11.7,8.8,16.2c1.9,2,4.5,4.3,7.4,5.9&#10;&#9;&#9;c-2.8,1-5.7,1.8-8.7,2.2c-7.9-6.1-12.4-18.1-12.3-27.1c0-0.5-0.7-0.4-0.7,0c-0.6,8.7,2.8,20.8,9.9,27.4c-1.8,0-3.5-0.1-5.3-0.4&#10;&#9;&#9;c-0.5-0.1-0.9-0.2-1.4-0.3c-6.9-6.3-11.2-17.6-9.3-25.9c0.1-0.5-0.6-0.7-0.8-0.2c-1.8,6.2,0,13,2.6,18.7c0.9,2,2.1,4.2,3.6,6.1&#10;&#9;&#9;c-3.1-1.3-5.9-3.2-8.1-5.6c-4.3-8-6.7-17.2-3.7-25.2c0.1-0.2-0.3-0.3-0.4-0.1c-2.5,6.2-1.9,12.9-0.1,19.2c-1-2.1-1.7-4.4-2-6.9&#10;&#9;&#9;c-1.5-11.9,2.4-23.8,2.7-35.7c0.3-10.3-2.8-19.7-6.7-28.9c-1-1.1-2.1-2.3-3.2-3.3c3,7.4,5.5,14.9,5.6,23c0.2,8.8-1.8,17.4-3.5,25.9&#10;&#9;&#9;c-1.6,7.8-2.9,15.7-1.4,23.6c1.4,7.7,6.3,13.8,12.6,18.3c23.3,16.5,52.8-6.7,69.8-21.8c9.3-8.3,17.8-17.4,26.9-25.8&#10;&#9;&#9;c13.4-12.3,26.1-25.5,37.5-39.7c22.1-27.3,40.4-58.3,48.1-92.8C343.3,313.3,339.3,275,322.3,243.7z" style="fill: rgb(2, 2, 2);"/>
	<path class="st2" d="M300.5,313c-2.2-17.5-5.3-35.2-12.6-51.4c-5.8-12.9-14.7-24.2-26.2-32.5c-11.3-8.1-25.1-12-38.9-12.2&#10;&#9;&#9;c-28.4-0.4-60.3,14.8-68.2,44.1c-1.1,4-1.5,8.1-1.5,12.1c0,3.8,0.4,7.6,1.1,11.2c1.6,8.2,5,16.2,9.2,23.4c2.1,3.6,4.5,7,7.1,10.1&#10;&#9;&#9;c0,0,0,0,0.1,0.1c2.6,3.8,5.3,7.5,7.8,11.4c5.6,8.8,9.3,18.4,13.9,27.7c3.3,6.7,6.8,17.2,14.4,20.3c-1-0.8-1.9-1.6-2.8-2.6&#10;&#9;&#9;c-2.7-3.1-4.9-6.7-6.5-10.5c-1.9-4.5-3.4-9.1-4.4-13.8c-0.2-0.9-0.4-1.8-0.6-2.7c4.2-5.6,6.7-12.8,7.1-19.8c0.5,0.4,1,0.8,1.5,1.2&#10;&#9;&#9;c0.3,3.5-0.4,7-0.7,10.6c0,0.1,0.1,0.1,0.1,0c1.1-3.1,1.9-6.1,2.2-9.3c1,0.9,2.1,1.8,3.1,2.8c0,1.4-0.1,2.8-0.7,4.5&#10;&#9;&#9;c-1,2.7-2.6,5.3-4,7.8c-0.1,0.1,0.1,0.3,0.2,0.2c2-2.4,5.2-6.7,6.2-10.8c0.4,0.4,0.8,0.8,1.3,1.3c-0.1,0.9-0.4,1.8-0.6,2.7&#10;&#9;&#9;c-0.8,2.9-2,5.7-3.9,8.1c0,0,0,0.1,0.1,0c2.5-2.7,4.5-5.9,5.6-9.4c0-0.1,0-0.2,0.1-0.2c0.7,0.8,1.5,1.6,2.2,2.4&#10;&#9;&#9;c-0.1,0.6-0.2,1.2-0.4,1.9c-1,3.5-3.3,7-6.4,8.8c0,0,0,0.1,0,0.1c2.9-1.7,6.3-5.5,7.9-9.5c0.7,0.8,1.4,1.6,2.1,2.5&#10;&#9;&#9;c0,0.1-0.1,0.3-0.1,0.4c-1,3.5-3.4,6.4-6.6,8c-0.3,0.2,0,0.6,0.3,0.4c3.3-1.5,5.6-4,7.1-7.3c0.1-0.2,0.2-0.4,0.3-0.6&#10;&#9;&#9;c0.7,0.9,1.5,1.8,2.2,2.7c-0.2,0.5-0.3,0.9-0.6,1.4c-1.2,2.4-3,4.5-5,6.2c-0.1,0.1,0,0.3,0.2,0.2c1.9-1.2,4.1-3.5,5.7-6.1&#10;&#9;&#9;c0,0,0,0,0,0c0.1,0.7,0.8,0.6,1.2,0.3c0.2,0.3,0.4,0.6,0.6,0.9c-0.2,1.2-0.6,2.4-1.3,3.6c-1.3,2.2-3.4,4.1-5.7,5.1&#10;&#9;&#9;c-0.3,0.1-0.1,0.5,0.2,0.5c3.3-0.7,7-3.6,8.3-7c0.2,0.4,0.5,0.7,0.7,1.1c-0.8,3-2,5.7-4.9,7.6c-0.5,0.3,0,1.1,0.5,0.8&#10;&#9;&#9;c2.2-1.3,4.4-3.9,5.6-6.7c0.4,0.6,0.8,1.3,1.1,1.9c-0.8,2.1-2.1,4-3.9,5.8c-0.5,0.4,0.2,1.1,0.7,0.7c1.6-1.4,3-3.1,4-5&#10;&#9;&#9;c0.4,0.7,0.8,1.4,1.2,2.2c-0.8,1.4-1.7,2.7-2.8,3.9c-0.4,0.4,0.2,1,0.6,0.6c1-1,1.9-2.2,2.7-3.5c0.3,0.6,0.6,1.2,0.9,1.8&#10;&#9;&#9;c-1,1.9-1.9,3.8-2.8,5.7c-0.1,0.3,0.3,0.6,0.4,0.3c0.9-1.7,1.9-3.4,2.8-5.1c1,2.1,2,4.2,2.9,6.3c-0.5,1-1.1,1.9-1.8,2.8&#10;&#9;&#9;c-0.3,0.4,0.3,1.1,0.6,0.6c0.6-0.8,1.2-1.6,1.6-2.4c1.9,4.5,3.6,9.1,4.9,13.8c1.6,5.6,2.5,11.7,1,17.4c-1.6,6.1-6.7,9.3-12.5,10.8&#10;&#9;&#9;c-2.6,0.7-5.7,0.5-8.7,0.2c0,0,0,0,0,0c-3.2-4.1-6.8-8.1-10.3-11.9c-3.9-4.3-8.7-7.5-13.1-11.2c-0.2-0.2-0.6,0.1-0.4,0.4&#10;&#9;&#9;c4.4,4.1,9.2,7.8,12.9,12.6c2.6,3.3,4.9,7.4,8.5,9.8c-1.2-0.2-2.4-0.3-3.6-0.4c-1.3-0.1-2.6-0.1-3.9,0c-2-2.3-4-4.6-6-7&#10;&#9;&#9;c-0.1-0.1-0.3,0-0.2,0.2c1.6,2.3,3.2,4.6,4.9,6.9c-2.1,0.2-4.2,0.6-6.3,1.2c-3.1-4.1-6.4-8.1-9.7-11.9c-3-3.4-6.8-6.4-10.7-8.9&#10;&#9;&#9;c-0.1-0.2-0.2-0.3-0.2-0.5c-2.4-4.1-6.3-7.2-9.7-10.5c-2.6-2.5-5.7-5.5-6.7-9.1c3.2,2.6,6.6,4.7,10,7c9.4,6.4,17.4,14.8,26.1,22&#10;&#9;&#9;c0.1,0.1,0.3-0.1,0.2-0.2c-7.4-7.4-14.9-15-22.9-21.9c-2.9-2.5-6.1-4.7-9.1-7.1c-1.6-1.3-3-2.6-4.3-4c0,0,0,0,0-0.1&#10;&#9;&#9;c0.1-0.4,0.2-0.7,0.3-0.9c0.1,0,0.2,0,0.3-0.1c0.2,0,0.2,0.1,0.7,0.2c4.3,1,8.3,4.3,11.8,6.8c4.6,3.2,8.9,6.8,13.2,10.5&#10;&#9;&#9;c2.4,2.1,5,4.9,8,6.1c0.1,0.1,0.2,0,0.3-0.1c-0.1-0.1-0.1-0.1-0.2-0.2c-0.3-0.3-0.7-0.7-1-1c-2.9-1.7-5.3-4.8-7.5-7.1&#10;&#9;&#9;c-3.9-4.1-7.3-8.5-11.1-12.7c-4.7-5.2-15.6-16.1-21.8-6.8c-3,4.4-1.9,10.7,0,15.2c1.8,4.2,5.4,7.7,8.6,10.9c1.3,2,2.5,4.1,3.2,6.4&#10;&#9;&#9;c1.6,5.1-4.6,7.2-7.8,9.7c-8.1,6.5-7.2,21.3,0.8,27.3c4.2,4.4,10.3,6.2,16.7,4.8c7.8-1.7,13.3-8.1,19.7-12.3c1-0.6,1.9-1.1,2.9-1.6&#10;&#9;&#9;c0.2,0,0.4,0,0.5-0.2c4.1-1.6,8.4-1.7,12.8-1.4c0,0,0,0,0.1,0.1c0.6,0,1.1,0,1.7,0.1c0,0,0,0,0,0c3.2,0.2,6.5,0.5,9.7,0.3&#10;&#9;&#9;c7.7-0.4,14.9-4.5,19.4-10.6c3.7-5,4.5-11.9,3.9-17.9c-0.6-6.5-2.5-12.7-5-18.7c-3.3-7.8-6.8-15.4-11.4-22.5&#10;&#9;&#9;c-1.2-1.8-2.5-3.6-3.8-5.3c0.1-1.8,0.1-3.6,0.1-5.3c0-4.7-0.2-9.3-0.3-14c-0.2-8.2-0.4-19.7,6.8-25.3c0.2-0.1,0-0.5-0.2-0.3&#10;&#9;&#9;c-6.9,4.4-7.8,14-8.4,21.4c-0.6,6.7-0.6,13.6-0.5,20.4c-0.5-0.6-1.1-1.3-1.6-1.9c1-6.6-1.9-14.5-2.1-20.6c0-0.4-0.6-0.4-0.7,0&#10;&#9;&#9;c-0.3,4.1,0.2,8.1,0.6,12.2c0.2,2.1,0.2,4,0,6c-0.4-0.4-0.8-0.9-1.2-1.3c-0.3-1.3-0.6-2.6-0.9-3.7c-1.5-5.6-3.2-11.1-2.6-16.9&#10;&#9;&#9;c0-0.3-0.5-0.4-0.5-0.1c-0.9,4.7-0.3,9.4,0.6,14c0.2,1.3,0.5,2.5,0.7,3.8c-0.1-0.1-0.1-0.1-0.2-0.2c-0.1-0.4-0.3-0.7-0.5-1.1&#10;&#9;&#9;c-0.1-0.2-0.5-0.3-0.7-0.1c-0.4-0.4-0.9-0.9-1.3-1.3c-2.2-7-4.4-14.4-0.9-21.2c0.2-0.3-0.3-0.5-0.4-0.3c-3.1,5-3.6,11.9-2.2,18.2&#10;&#9;&#9;c-0.8-0.7-1.6-1.4-2.3-2.1c-1.5-4.7-2.5-9.5-1.1-14.5c0.1-0.4-0.5-0.6-0.7-0.2c-1.4,4.1-1.7,8.5-0.5,12.7c-1.2-1.1-2.5-2.2-3.7-3.3&#10;&#9;&#9;c-1.5-3.7-2-7.3-0.7-11.6c0.1-0.3-0.4-0.5-0.5-0.2c-1.2,2.9-1.9,6.3-1.5,9.5c-0.4-0.4-0.9-0.8-1.3-1.2c-0.5-0.4-1-0.8-1.5-1.2&#10;&#9;&#9;c-0.5-1.6-1-3.2-1.1-5c-0.1-3.8,1.2-7.5,4.6-9.4c0.1-0.1,0-0.3-0.1-0.3c-3.7,1-5.7,4.4-6.1,8.1c-0.1,1.2-0.2,2.8,0,4.3&#10;&#9;&#9;c-0.8-0.6-1.6-1.3-2.4-1.9c-0.7-4.3,0.4-8.8,3.9-11.6c0.1-0.1,0-0.4-0.2-0.3c-3.6,2.3-4.9,6.6-5.1,10.7c-0.9-0.7-1.8-1.4-2.7-2.1&#10;&#9;&#9;c0.3-5.1,2.6-10.1,6.3-13.5c0.2-0.2-0.1-0.6-0.3-0.4c-3.7,2.6-7,7.6-7.8,12.5c-0.4-0.3-0.8-0.6-1.3-1c-0.7-6,1.3-12.4,6.9-15.6&#10;&#9;&#9;c0.2-0.1,0-0.4-0.2-0.3c-3.9,1.7-6.6,5.2-8.2,9.1c-0.6,1.4-1,3.1-1,4.9c-0.4-0.3-0.8-0.6-1.1-0.9c0-4.7,1.7-9.1,5.1-13.1&#10;&#9;&#9;c0.2-0.2-0.1-0.5-0.3-0.3c-3.2,3.3-6.1,7.5-6.6,11.9c-0.9-0.8-1.8-1.5-2.6-2.3c0.6-5,3.1-9.4,7.5-12.5c0.3-0.2,0-0.8-0.3-0.6&#10;&#9;&#9;c-4.1,2.8-7.5,6.8-8.6,11.4c-0.3-0.3-0.5-0.7-0.8-1c0.2-2,0.8-4,1.8-6c2.1-4.1,5.9-7.5,9.5-10.2c0.1,0,0-0.2-0.1-0.1&#10;&#9;&#9;c-5.7,3-11.4,8.2-12.8,14.4c-0.4-0.5-0.8-1-1.2-1.5c-0.7-1-1.3-2-1.9-3.1c0.4-0.6,0.8-1.2,1.3-1.8c3-3.4,6.9-6,10.5-8.7&#10;&#9;&#9;c3.4-2.6,6.5-5.3,8.5-9.2c3.2-6.1,3.6-13.2,8.1-18.6c0.3-0.3-0.2-0.8-0.5-0.5c-4.6,4.9-5.7,11.5-9,17.1c-2.9,4.9-8.1,7.4-12.7,10.6&#10;&#9;&#9;c-2.2,1.5-4.7,3.5-6.9,5.7c0.1-1.4,0.4-2.8,1.1-4.2c1.9-3.8,5.6-6.5,8.8-9.2c3.6-3.1,6.7-6.4,9.4-10.3c4-5.7,7.1-12.1,12-17.1&#10;&#9;&#9;c0.2-0.2-0.1-0.4-0.2-0.2c-5.4,5.2-9.4,11.2-14.2,17c-3.4,4.1-7.8,6.9-11.9,10.2c-1.8,1.5-3.6,3-5.1,4.8c0.4-0.9,0.8-1.9,1.4-2.8&#10;&#9;&#9;c3.2-5.3,8.4-9.4,13-13.5c3.2-2.8,5.2-6.4,7.5-10c2.3-3.6,6.2-10.8,11.5-9.7c0.3,0.1,0.5-0.4,0.1-0.5c-4.4-1.3-7.6,2.2-10.2,5.4&#10;&#9;&#9;c-3.7,4.7-6.1,9.9-11.2,13.3c-5.1,3.4-11.3,8.9-14.7,15c1.2-6.4,7-10.4,11-15c0.1-0.1,0.2-0.2,0.3-0.4c1.7-1.4,3.4-2.8,4.8-4.6&#10;&#9;&#9;c4.9-6.3,7.1-21.7,17.9-20.5c0.2,0,0.2-0.4,0-0.4c-10.4-1.1-13.6,11.3-18,18.2c-0.2,0.4-0.5,0.7-0.8,1.1c1.3-2.9,1.9-6.1,2.1-9.6&#10;&#9;&#9;c0.1-1.5,0.1-3.1,0.3-4.7c1.1-1.9,2.4-3.8,4-5.5c3.4-1.8,7-3.3,10.7-4.5c13.8-4.5,29.1-5,43-0.4c0.7,0.2,1.4,0.5,2.1,0.8&#10;&#9;&#9;c-4.7,1.2-9.1,3.9-12.7,7.1c-0.2,0.2,0.1,0.6,0.3,0.4c3.4-2.3,7.1-4,11-5.2c1.5-0.5,3-0.8,4.5-1c1.7,0.8,3.4,1.7,5,2.6&#10;&#9;&#9;c-1.5,0.2-2.9,0.4-4.3,0.6c-4.2,0.6-8.1,2.2-11,5.5c-0.1,0.2,0.1,0.4,0.2,0.2c3.1-3.3,7.4-4.4,11.8-4.8c1.8-0.2,3.7,0,5.5,0&#10;&#9;&#9;c1.9,1.2,3.7,2.6,5.5,4c-0.6,0-1.1,0-1.6,0c-6.2,0.1-12.2,2.1-17.5,5.1c-0.1,0,0,0.1,0,0.1c4.6-2.1,10-3.2,15-3.6&#10;&#9;&#9;c2-0.2,4-0.1,6,0.1c2.8,2.5,5.4,5.3,7.8,8.2c-1.6-0.4-3.3-0.7-4.9-0.9c-5.7-0.8-16.5-1.5-20.2,4.2c-0.2,0.4,0.3,0.8,0.6,0.5&#10;&#9;&#9;c3.8-4.7,13.2-3.6,18.4-2.8c2.9,0.4,5.9,1.1,8.6,2.4c0,0.1,0.1,0.1,0.1,0.2c1,1.4,2,2.9,2.9,4.4c-1.4-0.5-2.9-1-4.2-1.3&#10;&#9;&#9;c-6.5-1.6-14.1-1.9-20.6,0c-0.4,0.1-0.2,0.7,0.2,0.6c5.7-1.4,12.1-1,17.9,0.1c2.7,0.5,5.4,1.2,7.8,2.4c1.4,2.5,2.7,5.1,3.8,7.7&#10;&#9;&#9;c-2.2-1.5-4.6-2.7-7.1-3.6c-6.6-2.5-14.3-3.2-21.2-1.8c-0.6,0.1-0.3,0.9,0.2,0.8c6.3-1,13-0.1,19,1.8c3.2,1,6.2,2.5,8.8,4.7&#10;&#9;&#9;c0.7,0.6,1.3,1.2,1.9,1.8c0.3,0.8,0.6,1.6,0.9,2.4c-2-1.3-4.2-2.3-5.6-2.9c-5.3-2.2-11.5-3-17.2-2.3c-0.6,0.1-0.7,1.1,0,1&#10;&#9;&#9;c5.1-0.5,10.3,0.4,15.1,2.1c2.8,1,5.4,2.5,7.6,4.4c0.6,0.5,1,1.1,1.4,1.6c0.5,1.6,1,3.3,1.5,4.9c-1.3-0.6-2.4-1.1-3-1.4&#10;&#9;&#9;c-4.4-1.8-9-3.2-13.7-4.3c-2.8-0.6-5.9-1.3-8.7-0.7c-0.3,0.1-0.2,0.6,0.1,0.6c2.6-0.3,5.3,0.6,7.7,1.2c3.7,0.9,7.3,2.1,10.8,3.5&#10;&#9;&#9;c2.3,0.9,5,2,7.4,3.5c0.7,2.8,1.4,5.7,2,8.6c-1.3-1.1-2.7-2.1-4-3.1c-5.2-3.7-12.3-8.4-19-8.3c-0.2,0-0.2,0.3,0,0.3&#10;&#9;&#9;c6.2,0.5,12.5,5.2,17.2,8.9c2.5,1.9,4.8,4.2,6.7,6.7c0.3,1.5,0.6,3,0.8,4.5c-1.7-2-3.4-3.7-5-5.2c-5.3-5-12.7-9.5-20.2-8.5&#10;&#9;&#9;c-0.3,0-0.2,0.5,0.1,0.5c7.6,0.2,14.3,5,19.4,10.1c2.6,2.6,4.8,5.6,6.6,8.8c0,0.1,0,0.2,0,0.3c-1.5-1.7-3.1-3.3-4.2-4.3&#10;&#9;&#9;c-4.7-4.2-10.5-7.2-16.6-8.7c-0.6-0.2-0.8,0.7-0.3,0.9c5.4,1.8,10.5,4.7,14.8,8.4c2.3,2,4.3,4.4,5.9,7c0.4,0.6,0.6,1.2,0.9,1.9&#10;&#9;&#9;c-1-0.9-2-1.6-2.9-2.3c-3.9-3-10-7.1-15.2-6.5c-0.2,0-0.3,0.4-0.1,0.4c4.7,0.9,9,3.7,12.7,6.7c2.4,1.9,4.7,4,6.4,6.6&#10;&#9;&#9;c0.3,2.3,0.5,4.6,0.8,6.8c-1.5-2.2-3.3-4.2-5.3-6c-4.4-4.2-9.9-7.3-15.8-8.6c-0.2,0-0.3,0.2-0.1,0.3c5.7,1.7,10.7,5.1,15,9.3&#10;&#9;&#9;c2.2,2.2,3.9,4.6,5.3,7.3c0.6,1.2,0.9,2.7,1.5,4c0,0.1,0,0.3,0,0.4c-1.3-1.5-2.7-2.8-3.9-3.9c-4.2-4.1-9.4-8.5-15.3-9.7&#10;&#9;&#9;c-0.5-0.1-0.7,0.6-0.2,0.7c5.3,1.5,9.9,5.7,13.6,9.6c2.5,2.6,4.5,5.4,6.1,8.5c0.1,1.3,0.2,2.5,0.2,3.8&#10;&#9;&#9;c-4.4-7.5-12.7-13.5-19.8-16.9c-0.3-0.1-0.6,0.3-0.3,0.4c9,5,18.8,14.3,20.3,25c0,0,0,0.1,0,0.1c0,0.6,0,1.1,0,1.7&#10;&#9;&#9;c-1-2.3-2.3-4.4-3.4-6c-3.8-5.4-8.9-10-13.6-14.6c-0.1-0.1-0.3,0.1-0.2,0.2c3.9,4,7.8,7.9,11.1,12.5c1.8,2.5,3.4,5.3,4.5,8.2&#10;&#9;&#9;c1,2.6,0.7,5,0.9,7.6c-1-2.2-2.4-4.4-3.7-6.4c-3.6-5.5-8.1-10.5-12.3-15.6c-0.1-0.1-0.3,0-0.2,0.2c3.3,4.9,6.9,9.5,10,14.5&#10;&#9;&#9;c1.7,2.7,3.3,5.6,4.5,8.6c0.3,0.9,0.5,1.9,0.7,2.9c-0.7-1.3-1.5-2.7-2.2-4c-3.2-5.5-7.2-10.5-11.9-14.9c-0.5-0.4-1.2,0.2-0.7,0.7&#10;&#9;&#9;c4.4,4.5,8.1,9.5,11.1,15.1c1.5,2.8,2.9,5.8,4.1,8.8c0.2,0.4,0.3,0.7,0.4,1.1c-0.2,1.6-0.3,3.3-0.6,4.9c-1.1-3.1-3-6.1-4.5-8.7&#10;&#9;&#9;c-2.8-4.5-6.2-8.5-9.6-12.5c-0.3-0.4-0.8,0.2-0.5,0.5c3.2,4.1,6.2,8.2,8.8,12.7c2.3,3.9,3.3,8.2,5.1,12.2c-0.2,0.9-0.3,1.8-0.5,2.6&#10;&#9;&#9;c-0.7-1.9-1.5-3.8-2.2-5.4c-2.3-5.2-5.9-9.7-9.3-14.2c-0.3-0.4-1,0.1-0.7,0.6c2.9,4,5.7,8.1,7.9,12.5c1.2,2.4,2.1,4.9,2.8,7.6&#10;&#9;&#9;c0.3,1.1,0.4,2.2,0.6,3.4c-0.4,1.6-0.8,3.2-1.3,4.7c-0.7-2.7-1.7-5.4-2.6-7.8c-2-5-4.6-9.6-7.5-14c-0.4-0.6-1.3-0.1-1,0.6&#10;&#9;&#9;c2.6,4.5,4.9,9.1,6.5,14c1.3,4.2,1.7,8.6,2.8,12.7c-0.4,1.1-0.8,2.1-1.2,3.1c0.4-9.2-4.3-17.5-9.3-24.9c-0.3-0.4-0.8,0-0.6,0.4&#10;&#9;&#9;c2.1,3.7,4.2,7.5,5.7,11.6c1.7,4.4,2,8.9,2.2,13.6c0,0.1,0,0.2,0,0.3c-0.3,1.4-0.5,2.8-0.7,4.3c-0.2,0.4-0.4,0.8-0.7,1.1&#10;&#9;&#9;c0.6-3.7-0.2-7.9-0.9-11.5c-0.9-4.6-2.7-8.8-5-12.9c-0.3-0.5-1.1-0.1-0.8,0.5c2.2,4,3.6,8.3,4.3,12.8c0.6,4.1,0,8.5,1.1,12.4&#10;&#9;&#9;c0,0.1,0.1,0.2,0.2,0.3c-0.4,0.6-0.8,1.3-1.2,1.9c0.1-3.2-0.7-6.6-1.2-9.5c-0.8-4.6-2.4-8.9-5-12.8c-0.2-0.3-0.6,0-0.5,0.3&#10;&#9;&#9;c2,4.1,3.3,8.4,4.1,12.9c0.6,3.7,0.1,7.8,1,11.5c-0.9,1.2-1.7,2.4-2.7,3.6c-0.2-2.8-0.8-5.8-1.1-8.2c-0.6-4.9-1.8-9.6-3.5-14.2&#10;&#9;&#9;c-0.1-0.4-0.8-0.2-0.6,0.2c1.4,5,2.2,10.1,2.7,15.2c0.2,2.4,0.3,4.8,0.4,7.2c0,0.8,0,1.7,0,2.5c-0.7,0.8-1.4,1.7-2.1,2.5&#10;&#9;&#9;c0.4-3.3-0.3-7.1-0.7-10.3c-0.5-4-1.4-7.9-2.4-11.8c-0.1-0.4-0.7-0.2-0.6,0.2c0.6,4.2,1,8.5,1.4,12.7c0.3,3.5-0.4,7.6,0.7,11&#10;&#9;&#9;c0,0,0,0.1,0.1,0.1c-0.4,0.5-0.9,1.1-1.3,1.6c0.3-2.5,0.1-5.1,0.1-7.5c-0.1-3.9-0.6-7.7-1.2-11.6c-0.1-0.4-0.8-0.3-0.8,0.1&#10;&#9;&#9;c0.4,3.8,0.6,7.6,0.6,11.5c0,3.3-0.7,6.6-0.8,9.9c-0.4,0.4-0.7,0.8-1.1,1.2c0.8-5.5-0.2-11.8-0.6-16.8c0-0.3-0.5-0.3-0.5,0&#10;&#9;&#9;c0.1,3.6,0.2,7.2,0.1,10.8c-0.1,2.8-0.7,5.5-1.1,8.2c-1,1.1-1.9,2.1-2.9,3.2c0.5-3,0.5-6.1,0.6-9c0.1-4.8-0.6-9.5-2.2-14.1&#10;&#9;&#9;c-0.2-0.5-0.9-0.3-0.7,0.2c1.3,4.6,1.6,9.2,1.5,13.9c-0.1,3.6-1,7.3-1,11c-0.6,0.6-1.2,1.3-1.8,1.9c1.3-6.4-0.4-14.1-1.6-20.2&#10;&#9;&#9;c-0.2-0.8-1.3-0.5-1.2,0.3c0.6,3.9,1.1,7.8,1.3,11.8c0.1,3.2-0.3,6.5-0.1,9.7c-0.6,0.6-1.1,1.2-1.7,1.7c-0.1-1-0.2-2-0.2-2.7&#10;&#9;&#9;c-0.2-4.2-1.2-8.4-1.8-12.5c0-0.3-0.6-0.2-0.5,0.1c0.4,3.8,0.6,7.6,0.7,11.5c0,2,0,4-0.4,6c-0.6,0.6-1.2,1.2-1.8,1.8&#10;&#9;&#9;c-0.6,0.5-1.2,1.1-1.8,1.6c1-0.6,1.9-1.3,2.9-2c0.4-0.4,0.9-0.9,1.3-1.3c9.2-7.6,18.5-14.8,26.1-24.3c5.1-6.4,9.8-13.3,12.8-20.9&#10;&#9;&#9;c3.7-7.5,6.4-15.4,8-23.9C303.3,353.5,303,332.9,300.5,313z M172.5,429.3c-2.7-3-5.2-6.6-7.1-10.4c0.3-0.4,0.7-0.8,1.1-1.2&#10;&#9;&#9;c0.8,2.4,2,4.6,3.6,6.5c1,1.2,2.6,3.2,4.5,4.9C173.9,429.3,173.2,429.3,172.5,429.3z M177.4,428c-1.6-1.1-3.1-2.5-4.5-3.9&#10;&#9;&#9;c-2.1-2.2-3.9-4.8-5-7.7c0.3-0.3,0.7-0.5,1-0.7c1,2.2,2.4,4.2,3.9,6.1c1.6,1.9,3.4,4.1,5.5,5.8C178,427.7,177.7,427.8,177.4,428z&#10;&#9;&#9; M179.5,426.8c-3.6-3.7-7.7-6.9-10.1-11.5c0.6-0.5,1.3-0.9,1.8-1.3c0.1-0.1,0.3-0.2,0.4-0.3c1.8,2.6,3.7,5,5.9,7.3&#10;&#9;&#9;c1.2,1.4,2.6,3,4,4.5C180.9,425.9,180.2,426.4,179.5,426.8z M183.4,424.1c-1.4-1.2-2.7-2.3-3.9-3.5c-2.4-2.5-4.7-5.1-6.8-7.9&#10;&#9;&#9;c0.7-0.6,1.3-1.1,1.9-1.7c1.9,2.2,3.9,4.2,5.9,6.3c1.7,1.7,3.3,3.4,4.9,5.2C184.8,423,184.1,423.5,183.4,424.1z M186.8,421.5&#10;&#9;&#9;c-1-1-2-2-2.9-2.9c-2.8-2.8-5.7-5.5-8.3-8.4c1-1.1,2-2.2,2.8-3.4c0.1-0.2,0.2-0.3,0.3-0.5c2.6,2.7,5,5.5,7.3,8.6&#10;&#9;&#9;c1.1,1.5,2.1,3.2,3.1,4.9C188.3,420.3,187.6,420.9,186.8,421.5z M190.6,418.7c-1.2-1.7-2.5-3.2-3.6-4.6c-2.4-3-5-5.9-7.9-8.4&#10;&#9;&#9;c0.7-1.3,1.1-2.7,1.3-4.2c3,3.4,6.4,6.5,9.4,9.8c1.5,1.7,3,3.4,4.4,5.2C192.9,417.1,191.7,417.9,190.6,418.7z M196,415.5&#10;&#9;&#9;c-0.2,0.1-0.3,0.1-0.5,0.2c-1.1-1.3-2.2-2.6-3.3-3.8c-3.6-4.1-7.7-8-11.8-11.7c0-1.7-0.3-3.3-0.8-4.9c3.3,2.3,6.4,4.8,9.1,7.8&#10;&#9;&#9;c3.2,3.5,5.7,8,8.8,11.7C197,415.1,196.5,415.3,196,415.5z M195.2,324.6c1.2,0.9,2.4,1.7,3.6,2.7c-1,6.7-3.6,12.9-6.6,19&#10;&#9;&#9;c-0.1-0.6-0.2-1.2-0.3-1.9c-0.3-1.1-0.6-2.2-1-3.4C193.9,336.1,195.4,330.3,195.2,324.6z M191.6,322.2c0.8,0.5,1.7,1.1,2.5,1.7&#10;&#9;&#9;c-0.4,5.4-1.8,10.4-3.7,15.5c-0.3-1.1-0.7-2.2-1-3.2C191.7,332.1,192.7,326.6,191.6,322.2z" style="fill: rgb(2, 2, 2);"/>
	<path class="st2" d="M140.3,266c-6.9,12.2-6.6,28.3-5.1,41.9c0.1,0.6,0.9,0.6,1,0c1.6-14.1-0.9-28.2,4.5-41.7&#10;&#9;&#9;C140.8,265.9,140.4,265.8,140.3,266z" style="fill: rgb(2, 2, 2);"/>
	<path class="st2" d="M140.7,300.4c0.4-5.9,1.2-11.8,1.4-17.8c0-0.2-0.3-0.2-0.3,0c-2.3,11.2-4.8,24.5-1.6,35.8&#10;&#9;&#9;c0.1,0.5,0.9,0.4,0.9-0.1C140.7,312.2,140.3,306.3,140.7,300.4z" style="fill: rgb(2, 2, 2);"/>
	<path class="st2" d="M146.2,299.7c0-0.4-0.5-0.4-0.5,0c-0.3,7.4-1.8,15.3-0.7,22.7c0,0.3,0.5,0.3,0.6,0&#10;&#9;&#9;C146.7,315,146.5,307,146.2,299.7z" style="fill: rgb(2, 2, 2);"/>
	<path class="st2" d="M153.2,322.8c-1-4.3-1.1-8.6-1.1-12.9c0-0.8-1.2-0.8-1.2,0c0,4.5-0.1,8.9,1.6,13.1&#10;&#9;&#9;C152.6,323.5,153.3,323.4,153.2,322.8z" style="fill: rgb(2, 2, 2);"/>
	<path class="st2" d="M150.4,443.3c-0.2-0.4-0.9-0.1-0.7,0.3c2.2,5.5,4,11.2,5.2,17.1c1.3,6.1,1.2,12.2,1,18.4&#10;&#9;&#9;c0,0.4,0.6,0.5,0.7,0.1C160,467.5,155.3,453.9,150.4,443.3z" style="fill: rgb(2, 2, 2);"/>
	<path class="st2" d="M158,451.4c-0.2-0.5-1.1-0.1-0.9,0.4c1.5,4.4,2.1,8.8,2.3,13.4c0.1,3.7-0.3,7.6,0.4,11.2c0.1,0.5,0.9,0.5,1,0&#10;&#9;&#9;C162.5,468.5,161.3,458.9,158,451.4z" style="fill: rgb(2, 2, 2);"/>
	<path class="st2" d="M165,456.5c0-0.7-1.1-0.7-1.2,0c-0.1,5.1-0.5,10.9,0.8,15.9c0.1,0.5,0.8,0.5,0.9,0&#10;&#9;&#9;C166.8,467.4,165.2,461.5,165,456.5z" style="fill: rgb(2, 2, 2);"/>
	<path class="st2" d="M168.9,461.3c0,1.6,0.1,3.2,0.1,4.8c0,0.2,0.4,0.2,0.4,0c0.1-1.6,0.1-3.2,0.1-4.8&#10;&#9;&#9;C169.6,460.9,168.9,460.9,168.9,461.3z" style="fill: rgb(2, 2, 2);"/>
	<path class="st2" d="M205,510.2c-9.3-1.4-15.7-5.8-21-13.5c-0.3-0.4-0.9,0-0.6,0.4c4.6,7.4,12.1,14.9,21.5,13.9&#10;&#9;&#9;C205.2,510.9,205.4,510.3,205,510.2z" style="fill: rgb(2, 2, 2);"/>
	<path class="st2" d="M210.3,504.8c-6.9-0.5-13.9-3.1-18-8.9c-0.4-0.6-1.3,0-0.9,0.6c4.4,6.3,11.5,9.2,19,8.9&#10;&#9;&#9;C210.7,505.4,210.7,504.8,210.3,504.8z" style="fill: rgb(2, 2, 2);"/>
	<path class="st2" d="M284.1,223.2c-1-4.9-3.7-8.9-6.7-12.8c-0.2-0.3-0.7,0.1-0.5,0.4c2.3,4.1,5.1,8,6.3,12.6&#10;&#9;&#9;C283.3,224.1,284.2,223.8,284.1,223.2z" style="fill: rgb(2, 2, 2);"/>
	<path class="st2" d="M275.5,215.5c-1.3-2.4-2.4-4.9-3.6-7.4c-0.2-0.4-0.7-0.1-0.7,0.3c0.4,2.8,1.9,5.3,3.3,7.7&#10;&#9;&#9;C274.9,216.7,275.9,216.1,275.5,215.5z" style="fill: rgb(2, 2, 2);"/>
	<path class="st2" d="M268.9,210.3c-1.4-1.2-2.8-3.2-4.8-3.3c-0.3,0-0.6,0.4-0.5,0.7c0.3,0.9,0.9,1.5,1.6,2.1c0.8,0.7,1.7,1.4,2.5,2&#10;&#9;&#9;C268.6,212.4,269.7,211,268.9,210.3z" style="fill: rgb(2, 2, 2);"/>
	<path class="st2" d="M210,253.7c-10.2,2.3-12.8,12.9-15.7,21.6c-0.1,0.4,0.5,0.6,0.7,0.3c4.9-7,6.1-18.5,15.1-21.6&#10;&#9;&#9;C210.2,253.9,210.1,253.6,210,253.7z" style="fill: rgb(2, 2, 2);"/>
	<path class="st2" d="M212,258.9c-6.8,4.3-10.6,11.8-13.8,18.9c-0.2,0.5,0.4,1.1,0.8,0.6C204.5,272.7,205.5,263.9,212,258.9&#10;&#9;&#9;C212.1,258.9,212.1,258.9,212,258.9z" style="fill: rgb(2, 2, 2);"/>
	<path class="st2" d="M216.5,262.2c-7.7,2.5-11.7,10.7-12.9,18.2c-0.1,0.4,0.5,0.6,0.6,0.2c2.5-7,5.4-14.5,12.4-18.1&#10;&#9;&#9;C216.7,262.4,216.6,262.2,216.5,262.2z" style="fill: rgb(2, 2, 2);"/>
	<path class="st2" d="M217.4,267.7c-6.1,3.4-10,10-11.1,16.8c-0.1,0.6,0.8,1.1,1,0.4c2.6-6.1,4.5-12.8,10.2-16.9&#10;&#9;&#9;C217.8,267.9,217.7,267.5,217.4,267.7z" style="fill: rgb(2, 2, 2);"/>
	<path class="st2" d="M216.1,276.6c-4.1,3.8-7.2,8.9-8.1,14.4c-0.1,0.3,0.4,0.6,0.6,0.2c2.5-5,3.6-10.3,7.7-14.4&#10;&#9;&#9;C216.4,276.7,216.2,276.5,216.1,276.6z" style="fill: rgb(2, 2, 2);"/>
	<path class="st2" d="M223,277.3c-5.2,0.7-9.2,7.6-9.6,12.4c0,0.4,0.6,0.5,0.7,0.2c2.7-4.3,3.7-10.3,8.9-12.4&#10;&#9;&#9;C223.2,277.5,223.2,277.3,223,277.3z" style="fill: rgb(2, 2, 2);"/>
	<path class="st2" d="M221.5,283.1c-2.9,2.7-5.3,6.4-5.7,10.4c0,0.4,0.5,0.4,0.6,0.1c1.2-3.8,2.7-7.2,5.3-10.2&#10;&#9;&#9;C221.9,283.2,221.7,283,221.5,283.1z" style="fill: rgb(2, 2, 2);"/>
	<path class="st2" d="M226.4,286.6c-4.7,3-7.7,8.6-8.4,14c0,0.4,0.4,0.5,0.5,0.1c2.1-5.1,3.6-10.3,8-14.1&#10;&#9;&#9;C226.5,286.7,226.5,286.6,226.4,286.6z" style="fill: rgb(2, 2, 2);"/>
	<path class="st2" d="M229.4,292.3c-3.5,1.8-7.2,4.9-7.7,9c-0.1,0.4,0.4,0.6,0.6,0.3c0.9-1.4,1.7-2.9,2.6-4.4&#10;&#9;&#9;c1.2-1.9,2.9-3.3,4.7-4.5C229.9,292.5,229.7,292.2,229.4,292.3z" style="fill: rgb(2, 2, 2);"/>
	<path class="st2" d="M229.2,296.6c-2.3,2.3-3.8,5-4.7,8.1c-0.1,0.3,0.4,0.4,0.5,0.1c1.1-2.8,2.7-5.5,4.9-7.6&#10;&#9;&#9;C230.2,296.8,229.6,296.3,229.2,296.6z" style="fill: rgb(2, 2, 2);"/>
	<path class="st2" d="M235.9,312.5c-6,5.7-5.6,14.9-4.3,22.5c0,0.3,0.5,0.3,0.6,0c0.5-3.2,0.6-6.3,1-9.5c0.5-4.2,0.2-9.2,3-12.7&#10;&#9;&#9;C236.3,312.6,236.1,312.4,235.9,312.5z" style="fill: rgb(2, 2, 2);"/>
	<path class="st2" d="M240.6,322.2c-1.2,5.9-2.9,11.6-5.2,17.1c-0.1,0.3,0.4,0.5,0.6,0.2c3.2-5.2,4.3-11.2,5.1-17.2&#10;&#9;&#9;C241.1,322,240.6,321.9,240.6,322.2z" style="fill: rgb(2, 2, 2);"/>
	<path class="st2" d="M244,325.6c-1.4,4.3-3.3,8.6-4.5,13c-0.1,0.3,0.4,0.6,0.6,0.2c2.2-4,3.2-8.7,4.5-13.1&#10;&#9;&#9;C244.6,325.4,244.1,325.3,244,325.6z" style="fill: rgb(2, 2, 2);"/>
	<path class="st2" d="M247.3,327.3c-1.5,5.3-3.7,10.3-5.8,15.4c-0.1,0.4,0.4,0.6,0.6,0.3c2.8-4.8,4.6-10,5.9-15.5&#10;&#9;&#9;C248.2,327,247.4,326.8,247.3,327.3z" style="fill: rgb(2, 2, 2);"/>
	<path class="st2" d="M249.4,331.1c-1,4.9-3.7,9.1-4.4,14.1c0,0.3,0.3,0.4,0.4,0.1c1.6-4.6,3.8-9.1,4.5-14&#10;&#9;&#9;C250.1,330.9,249.5,330.7,249.4,331.1z" style="fill: rgb(2, 2, 2);"/>
	<path class="st2" d="M251.1,337.6c-1.1,3.9-3.1,8-3.7,12c0,0.3,0.4,0.5,0.6,0.2c2.1-3.5,3-8.1,3.9-12&#10;&#9;&#9;C251.9,337.3,251.2,337.1,251.1,337.6z" style="fill: rgb(2, 2, 2);"/>
	<path class="st2" d="M251.7,344.9c-0.1,3.7-1.5,7-2.2,10.6c-0.1,0.2,0.3,0.3,0.4,0.1c1.4-3.4,2.5-6.9,2.6-10.7&#10;&#9;&#9;C252.5,344.4,251.7,344.4,251.7,344.9z" style="fill: rgb(2, 2, 2);"/>
	<path class="st2" d="M253.8,351.3c-0.7,2.5-1.1,5.1-1.9,7.6c-0.1,0.2,0.3,0.3,0.4,0.1c1.1-2.4,1.5-5,2.2-7.5&#10;&#9;&#9;C254.6,351,254,350.9,253.8,351.3z" style="fill: rgb(2, 2, 2);"/>
	<path class="st2" d="M255.8,356.9c-0.1,1.7-0.5,3.4-0.9,5.1c-0.1,0.3,0.4,0.5,0.6,0.2c0.9-1.6,1.2-3.4,1.2-5.3&#10;&#9;&#9;C256.7,356.3,255.8,356.3,255.8,356.9z" style="fill: rgb(2, 2, 2);"/>
	<path class="st2" d="M187.9,439.2c-0.2-0.2-0.6,0.1-0.3,0.3c1.5,1.5,2.9,3.2,4,5c1,1.7,1.2,3.7,2.2,5.3c0.2,0.3,0.8,0.3,0.9-0.1&#10;&#9;&#9;C195.4,445.7,190.7,441.5,187.9,439.2z" style="fill: rgb(2, 2, 2);"/>
	<path class="st2" d="M191.8,436.6c-0.1,0-0.1,0-0.1-0.1c0.6,0.9,1.3,1.7,2,2.5c0.2,0.2,0.4,0.4,0.7,0.7c1.2,1.4,2.1,3.1,2.5,4.8&#10;&#9;&#9;c0,0.1,0,0.2,0,0.4c0.7,2,1.2,4.2,1.6,6.5c0.1,0.4,0.7,0.4,0.8,0C200.5,445.9,196.5,439.4,191.8,436.6z" style="fill: rgb(2, 2, 2);"/>
	<path class="st2" d="M199.8,439.2c-0.2-0.5-0.9-0.1-0.7,0.4c1.4,2.9,1.8,6,2.5,9.1c0.1,0.3,0.5,0.2,0.5-0.1&#10;&#9;&#9;C202.1,445.4,201.2,442.1,199.8,439.2z" style="fill: rgb(2, 2, 2);"/>
	<path class="st2" d="M202.5,435.7c-0.3-0.5-1.1-0.1-0.8,0.5c3.1,6.1,2.2,12.3,3.5,18.7c0.1,0.3,0.6,0.3,0.7,0&#10;&#9;&#9;C207.1,448.5,205.8,441.3,202.5,435.7z" style="fill: rgb(2, 2, 2);"/>
	<path class="st2" d="M209.4,454.4c-0.1,0.4,0.5,0.7,0.8,0.6c0.2-0.6,0.4-1.1,0.6-1.7c0.6-1.9,1.1-4.1,1.5-6.4&#10;&#9;&#9;c-0.1-0.7-0.2-1.4-0.3-2c-0.9-4.6-3.1-8.8-5.8-12.6c-0.2-0.3-0.7,0-0.5,0.3c1.5,3.5,3,7.2,4,10.9&#10;&#9;&#9;C210.7,447.6,209.9,450.6,209.4,454.4z" style="fill: rgb(2, 2, 2);"/>
	<path class="st2" d="M212.7,432.7c-0.2-0.4-0.7,0-0.6,0.3c1.7,3.4,2.8,7,3.5,10.7c0.7,3.7,0.1,7.3,0.2,11c0,0.4,0.5,0.4,0.7,0.1&#10;&#9;&#9;C219.2,447.9,216.4,438.8,212.7,432.7z" style="fill: rgb(2, 2, 2);"/>
	<path class="st2" d="M220.1,455.7c0.2-1,0.4-2.1,0.6-3.1c0.3-1.8,0.4-3.8,0.7-5.8c-0.3-4.4-1.2-8.8-2.8-12.7&#10;&#9;&#9;c-0.2-0.4-0.9-0.3-0.7,0.2C220.4,441.4,219.2,448.5,220.1,455.7z" style="fill: rgb(2, 2, 2);"/>
	<path class="st2" d="M223.7,432.8c-0.5-0.5-1-1-1.5-1.4c0,0,0,0.1,0,0.1c3.3,6.4,3.1,13.2,3.7,20.1c0.4-1,0.9-2,1.3-2.9&#10;&#9;&#9;c0.1-5.3-0.6-10.5-2.8-15.3C224.1,433.1,223.9,432.9,223.7,432.8z" style="fill: rgb(2, 2, 2);"/>
	<path class="st2" d="M233,443c-0.6-4.2-1.8-8.5-4.3-11.9c-0.8-0.7-1.7-1.3-2.6-1.8c0,0,0,0,0,0.1c3.5,3.8,4.8,8.9,5.4,13.9&#10;&#9;&#9;c0.3,2.4,0.2,4.9,0.1,7.3c-0.1,1.4-0.6,2.9-0.7,4.3c0.2-0.3,0.4-0.7,0.5-1c1-1.8,1.6-3.5,2.1-5.3C233.4,446.5,233.2,444.5,233,443z&#10;&#9;&#9;" style="fill: rgb(2, 2, 2);"/>
	<path class="st2" d="M236.3,442.8c0.1,3.1-0.4,6.1-0.8,9.1c1.1-2.1,1.9-4.3,2.4-6.6c0-0.5,0-0.9,0-1.4c0-1.8-0.2-3.7-0.4-5.5&#10;&#9;&#9;c-0.2-0.3-0.3-0.6-0.4-0.9c-0.5-1.3-0.8-2.6-1.3-3.9c-0.4-0.9-0.7-1.7-1-2.6c0,0,0,0,0,0C235.6,434.9,236.1,438.8,236.3,442.8z" style="fill: rgb(2, 2, 2);"/>
	<path class="st2" d="M241.7,434.5c-0.3-1.6-0.2-3.1-0.5-4.7c-0.2-1.3-0.4-2.8-0.6-4.3c-0.2,0.1-0.4,0.2-0.3,0.5&#10;&#9;&#9;c0.9,7.9-0.1,15.7,0.1,23.6c0,0.4,0.7,0.6,0.8,0.1c0.9-4.4,1.1-8.9,1-13.4C242,435.6,241.8,434.9,241.7,434.5z" style="fill: rgb(2, 2, 2);"/>
	<path class="st2" d="M245.3,445c0.5-2.1,0.8-4.3,1-6.5c-0.2-1.6-0.5-3.3-0.7-4.7c-0.2-1.8-0.3-3.7-0.5-5.6c0,2.4,0,4.8-0.2,7.1&#10;&#9;&#9;c-0.3,4.5-1.3,8.8-2.1,13.2C243.6,447.3,244.5,446.2,245.3,445z" style="fill: rgb(2, 2, 2);"/>
</g>
<g>
	<path class="st3" d="M475.9,294.7c0,0-14-84.1,75.8-109.5c0,0,107.2-19.6,132.8,103.5c0,0,19.1,77.9-53.7,158.4&#10;&#9;&#9;c-72.8,80.5-104.4,99-133.8,79.5c-29.4-19.6,8.1-45.2-9.6-87.9c0,0,14.3,18,8,49.2c-6.3,31.2,15.1,53.2,51.5,28.6&#10;&#9;&#9;c0,0,91.7-75.3,112-122.3c0,0,59.9-110.1-26.3-179.8c0,0-56.1-44.8-110.5-7.9C522,206.4,480.1,226.2,475.9,294.7z" style="fill: rgb(125, 73, 33);"/>
	<path class="st3" d="M551.4,376.2c0,0-4.8,0.2-18.1-31.5c0,0-7.9-20.9-16.5-26.8c0,0-26.8-32.5-10-66.9c0,0,38.4-61.9,109.8-14.1&#10;&#9;&#9;c0,0,31.4,21.2,33.1,99.8c0,0,10,72.4-53.7,110.4c0,0,64.3-38.3,41.6-134.3c0,0-6.7-107.8-91.2-81.4c0,0-14.5,3.3-14.8,12.3&#10;&#9;&#9;c0,0-0.1,15.5-10,22.2c0,0-16.2,10.5-2.7,31c13.5,20.5,33.9,23.3,52.3,48.5c0,0,45.8,56.4,12.4,75.7c0,0-8.4,5.9-21.5,3.5&#10;&#9;&#9;c0,0-12.1-4.9-26.7,10.2c0,0-18.5,14.7-31.5-3.8c0,0-8-11.5,2.3-22.5c10.3-11.1,9.2-11-1-23.5c-10.1-12.6-0.6-30.3,10.6-20&#10;&#9;&#9;c11.2,10.3,23.7,27.3,28.3,28.3c0,0-11.6-5.5-18.2-14c-6.6-8.6-20.9-15.4-15.5-2c5.3,13.4,26,16,14,33c0,0-3.3,3.7-9,7.8&#10;&#9;&#9;c0,0-8.8,3.8-1.5,10.8c7.4,7,18.1-3.8,26.8-10.2c0,0,6.3-5.7,18.9-3.8c0,0,26.7,4.8,26.6-14.5c0,0-0.5-24.4-21-52.2&#10;&#9;&#9;c0,0-19.9-24.7-29-24.4c-9.1,0.3-1.8,5.8,0.7,14.1C536.8,337.6,541.1,361.7,551.4,376.2z" style="fill: rgb(125, 73, 33);"/>
</g>
<g>
	<path class="st2" d="M788.8,299.6c0,0-14-84.1,75.8-109.5c0,0,107.2-19.6,132.8,103.5c0,0,19.1,77.9-53.7,158.4&#10;&#9;&#9;c-72.8,80.5-104.4,99-133.8,79.5c-29.4-19.6,8.1-45.2-9.6-87.9c0,0,14.3,18,8,49.2c-6.3,31.2,15.1,53.2,51.5,28.6&#10;&#9;&#9;c0,0,91.7-75.3,112-122.3c0,0,59.9-110.1-26.3-179.8c0,0-56.1-44.8-110.6-7.9C834.9,211.4,793,231.1,788.8,299.6z" style="fill: rgb(2, 2, 2);"/>
	<path class="st2" d="M864.3,381.1c0,0-4.8,0.2-18.1-31.5c0,0-7.9-20.9-16.5-26.8c0,0-26.8-32.5-10-66.9c0,0,38.4-61.9,109.8-14.1&#10;&#9;&#9;c0,0,31.4,21.2,33.1,99.8c0,0,10,72.4-53.7,110.4c0,0,64.3-38.3,41.6-134.3c0,0-6.7-107.8-91.2-81.4c0,0-14.5,3.3-14.8,12.3&#10;&#9;&#9;c0,0-0.1,15.5-10,22.2c0,0-16.2,10.5-2.7,31c13.5,20.5,33.9,23.3,52.3,48.5c0,0,45.8,56.4,12.4,75.7c0,0-8.4,5.9-21.5,3.5&#10;&#9;&#9;c0,0-12.1-4.9-26.7,10.2c0,0-18.5,14.7-31.5-3.8c0,0-8-11.5,2.3-22.5c10.3-11.1,9.2-11-1-23.5c-10.1-12.6-0.6-30.3,10.6-20&#10;&#9;&#9;C839.9,380,852.3,397,857,398c0,0-11.6-5.5-18.2-14c-6.6-8.6-20.9-15.4-15.5-2c5.3,13.4,26,16,14,33c0,0-3.3,3.7-9,7.8&#10;&#9;&#9;c0,0-8.8,3.8-1.5,10.8c7.4,7,18.1-3.8,26.8-10.2c0,0,6.3-5.7,18.9-3.8c0,0,26.7,4.8,26.6-14.5c0,0-0.5-24.4-21-52.2&#10;&#9;&#9;c0,0-19.9-24.7-29-24.4c-9.1,0.3-1.8,5.8,0.7,14.1C849.7,342.6,854,366.6,864.3,381.1z" style="fill: rgb(2, 2, 2);"/>
</g>
<path class="st4" d="M488.2,381.6c2.6,4.2,11.9,10.1,12.2,15.2c0.3,7-11.7,11.7-8.9,21c-13.9,3.5-10.5-20.4-12.7-27.4&#10;&#9;c-1.7-5.4-3.7-11.2-3.6-16.9c0.1-6,3.3-11,4.8-16.6c1.8-7,1.1-31.2,15.3-19.9c4,3.2,6.4,7.4,10.5,10.5c2.9,2.1,6.3,2.9,8.2,6&#10;&#9;c-1.7,1.3-3.6,1.4-5.8,1.5c-5.7,0.3-13.6-1.5-18.5,2.1C482.2,362.5,484.1,374.8,488.2,381.6z" style="fill: rgb(245, 224, 205);"/>
<path class="st4" d="M538.9,208.9c-16.5,8.3-36.4,22.1-41,41.2c7.4,1.1,17.4-17.2,22.3-22c8.3-8,22.1-14,33-14.9&#10;&#9;c12.9-1.1,24.3-1.3,36.3,3.4c10.2,4,19.2,11,29.4,15.1c1.8,0.7,2.7,1.8,4.8,2c-2-0.2-10-12-12.5-13.8c-4.2-3.1-9.4-6.3-14.1-8.8&#10;&#9;C579.6,201.8,556.8,199.8,538.9,208.9z" style="fill: rgb(245, 224, 205);"/>
<path class="st4" d="M601.3,309.7c-2.2-13.7-4.8-42.9-21.9-46.7c-7.5-1.7-8.1,4.8-5.6,10.4c4.5,10.3,14.2,17.8,18,28.6&#10;&#9;c2.1,6,1.2,11.9,2.7,18c1.4,5.6,4.8,10.8,7.2,15.9c2.5,5.4,4,11.1,5.8,16.9c3.2,10.6,8.1,8.9,5.5-2.2&#10;&#9;C609.8,336.9,603.5,323.3,601.3,309.7z" style="fill: rgb(245, 224, 205);"/>
<path class="st4" d="M567.4,391.3c1.2,2.7,4.3,14.5,7.1,15.4c5,1.7,5-5.5,4.7-8.9c-0.7-7-4-12.1-8.4-17.6&#10;&#9;c-3.7-4.6-10.3-17.2-17-16.5c-6.5,0.8-1.6,2.7,0,5.8C557.9,377.5,563.8,383.4,567.4,391.3z" style="fill: rgb(245, 224, 205);"/>
<path class="st4" d="M537.4,475.9c11-1.7,24.2-6.7,34.2-11.4c-2.5,9.2-19.4,12.5-26.1,17.5c-9.9,7.5-17.1,19-29.3,23.5&#10;&#9;c-18.9,7.1-7.9-19.6-7.5-28.4c0.2-5.4-1.5-12.8,1.5-17.3c1.6-2.4,13.3-11.2,15.7-11.1c0.6,0,1.2-0.6,1.9-0.6&#10;&#9;c2.5-0.1-7.2,13.4-7.5,14.3C515.6,474.1,529.1,477.3,537.4,475.9z" style="fill: rgb(245, 224, 205);"/>
</svg>