<?xml version="1.0" encoding="utf-8"?>
<!-- Generator: Adobe Illustrator 21.1.0, SVG Export Plug-In . SVG Version: 6.00 Build 0)  -->
<svg version="1.1" id="Layer_1" xmlns="http://www.w3.org/2000/svg" xmlns:xlink="http://www.w3.org/1999/xlink" x="0px" y="0px"
	 viewBox="0 0 1637.2 676.4" style="enable-background:new 0 0 1637.2 676.4;" xml:space="preserve">
<style type="text/css">
	.st0{fill:url(#SVGID_1_);stroke:#303C42;stroke-linecap:round;stroke-linejoin:round;}
	.st1{display:none;}
	.st2{display:inline;}
	.st3{fill:#F7F7F7;}
	.st4{fill:none;stroke:#303C42;stroke-linecap:round;stroke-linejoin:round;}
	.st5{fill:#EFEFEF;}
</style>
<g id="Layer_2">
	
		<linearGradient id="SVGID_1_" gradientUnits="userSpaceOnUse" x1="0" y1="-62.2" x2="1637.2" y2="-62.2" gradientTransform="matrix(1 0 0 -1 0 276)">
		<stop  offset="0" style="stop-color:#EEB868"/>
		<stop  offset="1" style="stop-color:#EEB868;stop-opacity:0.7"/>
	</linearGradient>
	<rect class="st0" width="1637.2" height="676.4"/>
</g>
<g id="Layer_1_1_">
	<g id="Candy" class="st1">
		<g class="st2">
			<path class="st3" d="M923.6,287.5l78.7-45.5c-11-11-23.3,1.4-35-9.6s1.4-23.3-9.6-35s-23.3,1.4-35-9.4s1.4-23.3-9.4-35
				l-43.9,80.3"/>
			<path class="st3" d="M713.6,388.9l-78.7,45.5c11,11,23.3-1.4,35,9.6s-1.4,23.3,9.6,35s23.3-1.4,35,9.4s-1.4,23.3,9.4,35
				l43.9-80.3"/>
			
				<ellipse transform="matrix(0.7071 -0.7071 0.7071 0.7071 0.6181 677.8806)" class="st3" cx="818.6" cy="338.2" rx="123.9" ry="86.6"/>
			<path class="st4" d="M748.6,363c5.3-23.4,17.5-44.8,35-61.2"/>
		</g>
	</g>
	<g id="Candy_1_">
		<g>
			<path class="st5" d="M1000,242.1c-4.8-4.8-11.3-7.4-18.1-7.1h-4.7c-3.5,0.8-7.1,0-10-2.2c-2.3-2.3-2.5-4.3-2.2-10
				c1.4-8.2-1.2-16.6-7-22.6c-4.7-4.8-11.2-7.4-17.9-7.1H936c-3.4,0.8-7,0.1-9.8-2c-2.3-2.3-2.5-4.3-2-9.8c1.4-8.2-1.2-16.6-7-22.6
				c-1.9-1.8-4.6-2.6-7.1-2.2c-2.6,0.3-4.8,1.8-6.1,4L878,204.8c-2.3,4-0.9,9.1,3,11.3c0.6,0.3,1.2,0.6,1.8,0.8
				c28.8,7.6,51.4,30,59.2,58.8c1.3,4.4,5.9,6.9,10.3,5.6c0.6-0.2,1.2-0.4,1.8-0.8l44-25.8c4-2.3,5.3-7.4,3-11.3
				c-0.4-0.6-0.8-1.2-1.4-1.8L1000,242.1z"/>
			<path class="st5" d="M756.4,461.4c-28.8-7.6-51.4-30-59.2-58.8c-1.3-4.4-5.9-6.9-10.3-5.6c-0.6,0.2-1.2,0.4-1.8,0.8l-44,25.8
				c-4,2.3-5.3,7.4-3,11.3c0.4,0.6,0.8,1.2,1.4,1.8c4.8,4.8,11.3,7.4,18.1,7.1h4.7c4.3,0,7.5,0,10,2.2s2.5,4.3,2.2,10
				c-1.4,8.2,1.2,16.6,7,22.6c4.7,4.8,11.2,7.4,17.9,7.1h4.2c3.4-0.7,7,0,9.8,2.2c2.3,2.3,2.5,4.3,2,9.8c-1.4,8.2,1.2,16.6,7,22.6
				c1.7,1.4,3.9,2.1,6.1,1.8h1c2.6-0.3,4.8-1.8,6.1-4l25.9-44.4c2.3-4,0.9-9.1-3-11.3c-0.6-0.3-1.2-0.6-1.8-0.8L756.4,461.4z"/>
			<path class="st5" d="M854.6,229.4c-37.9,1.8-73.6,18.3-99.7,45.9c-22.3,21.9-37.4,50-43.4,80.6c-6.2,25.9,1,53.2,19.1,72.8
				c14.6,13.8,34.1,21.2,54.2,20.4c37.9-1.8,73.6-18.3,99.7-45.9c22.3-21.9,37.4-50,43.4-80.6c6.2-25.9-1-53.2-19.1-72.8
				C894.2,236,874.7,228.7,854.6,229.4z M790.8,310.5c-15.1,14.5-25.6,33.2-30.1,53.7c-0.7,3.9-4.1,6.8-8.1,6.8h-1.5
				c-4.5-0.8-7.6-5-6.8-9.6c0,0,0,0,0-0.1c5.1-23.9,17.3-45.7,34.9-62.6c3.3-3.3,8.5-3.3,11.8,0c3.3,3.3,3.3,8.5,0,11.8L790.8,310.5
				z"/>
		</g>
	</g>
</g>
</svg>
