<?xml version="1.0" encoding="utf-8"?>
<!-- Generator: Adobe Illustrator 21.1.0, SVG Export Plug-In . SVG Version: 6.00 Build 0)  -->
<svg version="1.1" id="Layer_1" xmlns="http://www.w3.org/2000/svg" xmlns:xlink="http://www.w3.org/1999/xlink" x="0px" y="0px"
	 viewBox="0 0 1637.2 676.4" style="enable-background:new 0 0 1637.2 676.4;" xml:space="preserve">
<style type="text/css">
	.st0{fill:url(#SVGID_1_);stroke:#303C42;stroke-linecap:round;stroke-linejoin:round;}
	.st1{fill:#F7F7F7;}
	.st2{fill:none;stroke:#303C42;stroke-linecap:round;stroke-linejoin:round;}
</style>
<g id="Layer_2">
	
		<linearGradient id="SVGID_1_" gradientUnits="userSpaceOnUse" x1="0" y1="339.8" x2="1637.2" y2="339.8" gradientTransform="matrix(1 0 0 -1 0 678)">
		<stop  offset="0" style="stop-color:#F6BB42"/>
		<stop  offset="1" style="stop-color:#F7D48C"/>
	</linearGradient>
	<rect class="st0" width="1637.2" height="676.4"/>
</g>
<g id="Layer_1_1_">
	<g id="Candy">
		<g>
			<path class="st1" d="M923.6,287.5l78.7-45.5c-11-11-23.3,1.4-35-9.6s1.4-23.3-9.6-35s-23.3,1.4-35-9.4s1.4-23.3-9.4-35
				l-43.9,80.3"/>
			<path class="st1" d="M713.6,388.9l-78.7,45.5c11,11,23.3-1.4,35,9.6s-1.4,23.3,9.6,35s23.3-1.4,35,9.4s-1.4,23.3,9.4,35
				l43.9-80.3"/>
			
				<ellipse transform="matrix(0.7071 -0.7071 0.7071 0.7071 0.6114 677.8968)" class="st1" cx="818.6" cy="338.2" rx="123.9" ry="86.6"/>
			<path class="st2" d="M748.6,363c5.3-23.4,17.5-44.8,35-61.2"/>
		</g>
	</g>
</g>
</svg>
