<?xml version="1.0" encoding="utf-8"?>
<!-- Generator: Adobe Illustrator 22.0.1, SVG Export Plug-In . SVG Version: 6.00 Build 0)  -->
<svg version="1.1" id="honors-_x26_-awards" xmlns="http://www.w3.org/2000/svg" xmlns:xlink="http://www.w3.org/1999/xlink"
	 x="0px" y="0px" viewBox="0 0 216 216" style="enable-background:new 0 0 216 216;" xml:space="preserve">
<style type="text/css">
	.st0{fill:#444444;}
	.st1{fill:#FFC925;}
</style>
<g>
	<path class="st0" d="M93.3,120.5c-1.2,0-2.2,0-3.5,0c0,1.1,0,2.3,0,3.4c0,21.9,0,43.9,0,65.8c0,6.5-5.6,10.9-11.8,9.4
		c-3.9-0.9-6.8-4.4-7.2-8.4c0-0.7,0-1.4,0-2.1c0-21.5,0-43,0-64.5c0-16.3,0-32.5,0-48.8c0-0.4,0-0.7,0-1.1c-0.1,0-0.2-0.1-0.3-0.2
		c-0.3,0.5-0.6,0.9-0.8,1.4c-2.9,6-4.1,12.4-4.8,19c-1,9.5-1,19-0.4,28.6c0.2,3.5-2.2,6.3-5.7,6.6c-3.4,0.3-6.4-2.1-6.6-5.6
		c-0.3-6.2-0.5-12.5-0.4-18.7c0.3-9.8,1.1-19.5,4.2-28.9c2.1-6.1,4.8-11.8,9.8-16.2c3.5-3,7.6-4.6,12.3-4.5c9.9,0.1,19.9,0,29.8,0
		c0.7,0,1.5,0.1,2.3,0.3c1.7,0.3,2.8,1.1,3,3.2c0.5,4.8,2.1,9.3,4.6,13.4c2.4,3.9,5.7,6.8,9.9,8.8c0.7,0.3,1.2,1,1.7,1.6
		c1.6,2.2,3.1,4.5,4.7,6.6c1.1,1.5,1.6,3.7,0.6,5.6c-8.8-3.8-16.1-9.6-22.3-17.1c0,0.6,0,1.3,0,1.9c0,36.3,0,72.6,0,108.9
		c0,4.3-1.4,7.6-5.3,9.6c-6,3.1-13.1-0.9-13.8-7.6c-0.1-0.9-0.1-1.8-0.1-2.8c0-21.8,0-43.6,0-65.4C93.3,121.9,93.3,121.2,93.3,120.5
		z"/>
	<path class="st1" d="M114.2,48.1c3.1,0,6.2,0,9.4,0c0-1.2,0-2.3,0-3.5c10.4,0,20.7,0,31,0c0,1.1,0,2.2,0,3.4c3.2,0,6.3,0,9.7,0
		c0,2.3,0.1,4.5,0,6.6c-0.3,5.7-1.5,11.1-4.4,16.1c-2.4,4.2-5.8,7.3-10.2,9.3c-0.7,0.3-1.3,1-1.8,1.7c-1.7,2.3-3.1,4.7-4.9,6.9
		c-2,2.4-1.8,6.7,0.7,8.6c1.6,1.2,3.3,2.1,3.5,4.6c-5.4,0-10.8,0-16.3,0c0.2-1.8,1.2-3,2.6-3.9c3.1-2.2,3.7-4.2,2.5-7.7
		c-0.2-0.5-0.5-1-0.8-1.4c-1.7-2.4-3.4-4.9-5.1-7.3c-0.3-0.5-0.7-1-1.2-1.2c-7.2-3-11.1-8.7-13.3-15.9c-1.5-5-2-10.1-1.7-15.4
		C114.1,48.8,114.1,48.5,114.2,48.1z M154.9,51.7c-1.2,7.7-2.4,15.2-3.6,22.7c2.3-0.6,3.9-2.1,5.3-4.2c1.9-2.9,3-6.2,3.5-9.6
		c0.5-2.9,0.8-5.9,1.2-9C158.8,51.7,156.8,51.7,154.9,51.7z M127.6,74.5c-0.5-1.9-1-3.5-1.2-5.1c-0.8-5.4-1.5-10.9-2.4-16.3
		c-0.1-0.5-0.5-1.4-0.8-1.4c-1.9-0.1-3.8-0.1-5.9-0.1c0.2,2.1,0.3,4,0.5,5.9c0.6,4.6,1.6,9.1,4.3,13.1
		C123.4,72.4,125.1,73.9,127.6,74.5z"/>
	<path class="st0" d="M91.4,51.3c-9.6,0-17.2-7.8-17.2-17.4c0-9.6,7.7-17.3,17.3-17.3c9.6,0,17.4,7.8,17.4,17.4
		S101.1,51.3,91.4,51.3z"/>
	<path class="st0" d="M146.8,86.9c2.8,2,3.5,5.5,1.7,8.3c-0.5,0.8-1.7,2-2.2,1.8c-1.1-0.4-2.3-1.4-2.7-2.4c-0.7-1.7-0.5-3.6,1-5.2
		C145.3,88.6,146,87.7,146.8,86.9z"/>
</g>
</svg>
