<?xml version="1.0" encoding="utf-8"?>
<!-- Generator: Adobe Illustrator 21.1.0, SVG Export Plug-In . SVG Version: 6.00 Build 0)  -->
<svg version="1.1" id="Layer_1" xmlns="http://www.w3.org/2000/svg" xmlns:xlink="http://www.w3.org/1999/xlink" x="0px" y="0px"
	 viewBox="0 0 216 216" style="enable-background:new 0 0 216 216;" xml:space="preserve">
<style type="text/css">
	.st0{opacity:0.4;fill:#D1D3D4;enable-background:new    ;}
	.st1{fill:#FF8700;}
	.st2{fill:#FF7901;}
	.st3{fill:#4A5662;}
	.st4{fill:#3B444F;}
</style>
<title>thumb</title>
<g>
	<ellipse id="Shadow" class="st0" cx="108" cy="176.9" rx="43.5" ry="5.8"/>
	<ellipse id="Shadow_1_" class="st0" cx="44.4" cy="133.6" rx="43.5" ry="5.8"/>
	<ellipse id="Shadow_3_" class="st0" cx="171.6" cy="133.6" rx="43.5" ry="5.8"/>
	<ellipse id="Shadow_2_" class="st0" cx="143.4" cy="157.8" rx="43.5" ry="5.8"/>
	<ellipse id="Shadow_4_" class="st0" cx="72.3" cy="157.8" rx="43.5" ry="5.8"/>
	<g>
		<path class="st1" d="M106.5,83.8c-1.1-1.9-2.2-3.8-3.2-5.7c-0.4-0.8-0.9-1-1.7-1c-2.7,0-5.4,0-8.2,0c-5,0-8.2,3-8.3,8
			c-0.1,12.3-0.1,24.7,0,37c0,4.5,2.2,6.9,6.6,7.9c0.4,0.1,0.9,0.7,1.1,1.2s0,1.1,0.1,1.6c0,12.2,0,24.5,0.1,36.7c0,3.6,2.7,6.6,6,7
			c4,0.5,7.2-1.4,8.4-5.1c0.1-0.4,0.3-0.8,0.5-1.6c0,0,0,0,0,0.1V84.5C107.4,85,107,84.8,106.5,83.8z"/>
		<path class="st2" d="M130.7,84.3c0-3.9-3.4-7.1-7.2-7.2c-3.4-0.1-6.9,0-10.3,0c-0.5,0-1.2,0.4-1.4,0.9c-1.2,1.9-2.2,3.9-3.3,5.8
			c-0.2,0.3-0.3,0.5-0.5,0.7V170c0.3,0.9,0.4,1.4,0.6,1.9c1.8,4.8,7.5,6.5,11.6,3.4c2.1-1.6,3-3.9,3-6.5c0-12.2,0-24.4,0-36.6
			c0-0.6,0-1.2,0-1.8c0.8-0.2,1.4-0.3,2-0.4c3.1-0.8,5.5-3.7,5.6-6.9C130.7,110.1,130.7,97.2,130.7,84.3z"/>
		<path class="st2" d="M124,59.8c0.4-9.2-6.2-16.8-15.1-17.2c-0.3,0-0.7,0-1,0v32c0,0,0,0,0.1,0C116,75,123.6,67.9,124,59.8z"/>
		<path class="st1" d="M91.9,58.2c-0.2,9.1,7,16.4,16,16.4v-32C99.2,42.7,92.1,49.4,91.9,58.2z"/>
	</g>
	<g>
		<path class="st3" d="M71.9,76.6c-0.9-1.6-1.8-3.1-2.6-4.7c-0.4-0.8-0.9-1.1-1.8-1.1c-2.7,0.1-5.3,0-8,0c-4.3,0.1-7,2.6-7,7
			c0,10.7,0,21.5,0,32.2c0,4,2.1,6.3,5.9,7.1c0.2,0,0.4,0.1,0.7,0.2c0,5.1,0,10.2,0,15.2c0,6.2,0,12.3,0,18.5c0,4.5,4,7.7,8.1,6.7
			c2.7-0.7,4.3-2.6,5.1-5.5l0.5-74.9C72.5,77.3,72.2,77.1,71.9,76.6z"/>
		<path class="st4" d="M89.7,74.6c0.5-0.2,1.1-0.3,1.7-0.5c-1.4-2.4-3.4-3.4-6-3.5s-5.2-0.1-7.9,0c-0.4,0-1.1,0.4-1.3,0.8
			c-1,1.7-1.9,3.4-2.9,5.1c-0.2,0.5-0.5,0.7-0.7,0.8l-0.5,74.9c0.1,0.3,0.2,0.5,0.3,0.7c1.4,3.6,4.3,5.5,7.4,5
			c2.9-0.5,5.8-2.9,5.7-7.3c-0.1-6.3,0-12.6-0.1-18.9c0-0.7-0.4-1.6-0.8-2.2c-1.5-1.9-2.5-4-2.5-6.5c0-12.9,0-25.7,0-38.6
			C82.3,79.8,85.5,75.8,89.7,74.6z"/>
		<path class="st4" d="M73,68.7c7.2,0,13.4-6.5,13.4-14.1S80.2,40.5,73,40.5c-0.2,0-0.4,0-0.7,0v28.1C72.6,68.7,72.8,68.7,73,68.7z"
			/>
		<path class="st3" d="M72.4,68.7V40.6c-8,0.3-14,6.3-14.1,14C58.3,62.4,64.4,68.4,72.4,68.7z"/>
	</g>
	<g>
		<path class="st3" d="M41.9,65.4c-0.3-0.4-0.8-0.8-1.3-0.8c-2.2-0.1-4.5-0.1-6.7,0c-3,0.1-5.1,2.2-5.2,5.2c0,8.8,0,17.6,0,26.4
			c0,2.7,1.5,4.5,4.1,5.1c0.9,0.2,1.2,0.6,1.2,1.5c0,3.2,0,6.4,0,9.6c0,5.4,0,10.9,0,16.3c0,2.4,1.7,4.5,3.9,5
			c2.4,0.5,4.8-0.6,5.9-3c0.2-0.4,0.3-0.8,0.5-1.3l0.3-59C43.6,68.3,42.8,66.8,41.9,65.4z"/>
		<path class="st4" d="M57,68.2c0.9-0.2,1.8-0.3,2.7-0.4c-0.7-2-2.4-3.2-4.5-3.3c-2.1,0-4.2,0-6.3,0c-0.8,0-1.2,0.2-1.6,0.9
			c-0.8,1.5-1.7,3-2.7,4.8l-0.3,59c0.2,0.4,0.3,0.6,0.4,0.9c1,2.6,3.2,4,5.6,3.5c2.8-0.5,4.4-2.6,4.5-5.4c0-2.5,0-5.1,0-7.6
			c0-1.1-0.2-1.7-1.2-2.3c-2.6-1.7-4-4.2-4.1-7.3c-0.1-11.3-0.1-22.6,0-33.9C49.7,72.8,52.9,69,57,68.2z"/>
		<path class="st4" d="M45,62.9c5.7,0,10.6-5.2,10.5-11.2c0-6-4.9-11.1-10.6-11.1L45,62.9L45,62.9z"/>
		<path class="st3" d="M45,62.9V40.6c-6.7,0-11.6,4.8-11.6,11.2C33.4,58.1,38.3,62.9,45,62.9z"/>
	</g>
	<g>
		<path class="st3" d="M143,76.5c-0.9-1.6-1.8-3.2-2.7-4.8c-0.2-0.4-0.8-0.8-1.2-0.8c-3.3,0-6.6-0.1-9.9,0.1
			c-2.1,0.1-3.6,1.3-4.7,3.2c6,1.3,9.2,5.2,9.2,11.1c0.1,12.3,0,24.6,0,36.9c0,2.9-0.9,5.5-2.9,7.7c-0.3,0.4-0.5,1-0.5,1.6
			c0,6.7,0,13.3,0,20c0,3.2,2.3,5.8,5.3,6.4c3.2,0.6,6.2-1.1,7.3-4.2c0.1-0.4,0.3-0.8,0.5-1.3l0.2-74.9
			C143.4,77.2,143.2,77,143,76.5z"/>
		<path class="st4" d="M156.7,119.1c0-0.6,0-1.2,0-1.8c4.6-0.7,6.7-3.1,6.7-7.6c0-10.7,0-21.4,0-32.1c0-4-2.7-6.8-6.7-6.9
			c-2.7-0.1-5.3-0.1-8,0c-0.4,0-1,0.4-1.3,0.8c-1,1.6-1.9,3.3-2.8,4.9c-0.4,0.7-0.7,1-1,0.9l-0.2,74.9c1.2,4,4.2,6.2,7.4,5.7
			c3.5-0.6,5.9-3.5,5.9-7.5C156.6,140,156.7,129.6,156.7,119.1z"/>
		<path class="st4" d="M187.2,69.7c0-3.1-2.3-5.2-5.5-5.2c-1.7,0-3.5,0.1-5.2,0c-1.2-0.1-1.9,0.3-2.5,1.4c-0.6,1.4-1.5,2.7-2.4,4.3
			l-0.2,59.3c0.2,0.5,0.3,0.8,0.5,1.2c1.7,3.6,6.6,4.2,8.8,0.9c0.8-1.2,1.1-2.8,1.2-4.2c0.1-8,0.1-16,0.1-24c0-0.6,0-1.1,0-1.8
			c3.1-0.6,5.2-2.2,5.2-5.4C187.3,87.3,187.3,78.5,187.2,69.7z"/>
		<path class="st3" d="M168.9,65.3c-0.2-0.4-0.7-0.7-1.1-0.8c-2.3-0.1-4.6-0.1-6.8,0c-2.1,0.1-3.8,1.1-4.8,3.2
			c6.2,0,10.4,4.6,10.2,10.9c-0.3,10.4-0.1,20.9-0.1,31.3c0,3.8-1.4,6.6-4.6,8.7c-0.3,0.2-0.7,0.7-0.7,1.1c-0.1,2.9-0.1,5.8,0,8.7
			c0.1,2.5,1.9,4.5,4.2,4.9c2.6,0.4,4.7-0.8,5.8-3.3c0.1-0.3,0.2-0.5,0.4-0.9c0,0,0,0.1,0.1,0.1l0.2-59.3
			C170.6,68.3,169.8,66.8,168.9,65.3z"/>
		<path class="st4" d="M144.1,68.7c7.3,0,13.6-6.5,13.6-14.1c0-7.5-6.2-14.1-13.4-14.1c-0.2,0-0.4,0-0.6,0v28.1
			C143.8,68.7,143.9,68.7,144.1,68.7z"/>
		<path class="st3" d="M143.7,68.7V40.6c-8,0.3-14,6.2-14,14C129.6,62.5,135.6,68.5,143.7,68.7z"/>
		<path class="st3" d="M171.5,62.9V40.6c-6.4,0.2-11.1,4.9-11.2,11.1C160.3,57.9,165.1,62.7,171.5,62.9z"/>
		<path class="st4" d="M171.9,62.9c5.7,0,10.7-5.2,10.7-11.1s-4.9-11.2-10.6-11.2c-0.2,0-0.4,0-0.6,0v22.3
			C171.6,62.9,171.8,62.9,171.9,62.9z"/>
	</g>
</g>
</svg>
