<?xml version="1.0" encoding="utf-8"?>
<!-- Generator: Adobe Illustrator 21.1.0, SVG Export Plug-In . SVG Version: 6.00 Build 0)  -->
<svg version="1.1" id="Layer_1" xmlns="http://www.w3.org/2000/svg" xmlns:xlink="http://www.w3.org/1999/xlink" x="0px" y="0px"
	 viewBox="0 0 216 216" style="enable-background:new 0 0 216 216;" xml:space="preserve">
<style type="text/css">
	.st0{opacity:0.4;fill:#D1D3D4;enable-background:new    ;}
	.st1{fill:#FF8700;}
	.st2{fill:#FF7901;}
	.st3{fill:#4A5662;}
	.st4{fill:#3B444F;}
</style>
<title>thumb</title>
<g>
	<ellipse id="Shadow" class="st0" cx="108" cy="177.4" rx="43.9" ry="5.8"/>
	<ellipse id="Shadow_1_" class="st0" cx="43.9" cy="133.8" rx="43.9" ry="5.8"/>
	<ellipse id="Shadow_3_" class="st0" cx="172.1" cy="133.8" rx="43.9" ry="5.8"/>
	<ellipse id="Shadow_2_" class="st0" cx="143.7" cy="158.2" rx="43.9" ry="5.8"/>
	<ellipse id="Shadow_4_" class="st0" cx="72" cy="158.2" rx="43.9" ry="5.8"/>
	<g>
		<path class="st1" d="M106.5,83.6c-1.1-1.9-2.2-3.8-3.2-5.7c-0.4-0.8-0.9-1-1.7-1c-2.7,0-5.4,0-8.3,0c-5,0-8.3,3-8.4,8.1
			c-0.1,12.4-0.1,24.9,0,37.3c0,4.5,2.2,7,6.7,8c0.4,0.1,0.9,0.7,1.1,1.2s0,1.1,0.1,1.6c0,12.3,0,24.7,0.1,37c0,3.6,2.7,6.7,6.1,7.1
			c4,0.5,7.3-1.4,8.5-5.1c0.1-0.4,0.3-0.8,0.5-1.6c0,0,0,0,0,0.1V84.3C107.4,84.8,107,84.6,106.5,83.6z"/>
		<path class="st2" d="M130.9,84.1c0-3.9-3.4-7.2-7.3-7.3c-3.4-0.1-7,0-10.4,0c-0.5,0-1.2,0.4-1.4,0.9c-1.2,1.9-2.2,3.9-3.3,5.8
			c-0.2,0.3-0.3,0.5-0.5,0.7v86.2c0.3,0.9,0.4,1.4,0.6,1.9c1.8,4.8,7.6,6.6,11.7,3.4c2.1-1.6,3-3.9,3-6.6c0-12.3,0-24.6,0-36.9
			c0-0.6,0-1.2,0-1.8c0.8-0.2,1.4-0.3,2-0.4c3.1-0.8,5.5-3.7,5.6-7C130.9,110.1,130.9,97.1,130.9,84.1z"/>
		<path class="st2" d="M124.1,59.4c0.4-9.3-6.3-16.9-15.2-17.3c-0.3,0-0.7,0-1,0v32.3c0,0,0,0,0.1,0
			C116.1,74.7,123.7,67.5,124.1,59.4z"/>
		<path class="st1" d="M91.8,57.8c-0.2,9.2,7.1,16.5,16.1,16.5V42C99.1,42.1,92,48.9,91.8,57.8z"/>
	</g>
	<g>
		<path class="st3" d="M71.6,76.3c-0.9-1.6-1.8-3.1-2.6-4.7c-0.4-0.8-0.9-1.1-1.8-1.1c-2.7,0.1-5.3,0-8.1,0
			c-4.3,0.1-7.1,2.6-7.1,7.1c0,10.8,0,21.7,0,32.5c0,4,2.1,6.4,5.9,7.2c0.2,0,0.4,0.1,0.7,0.2c0,5.1,0,10.3,0,15.3
			c0,6.3,0,12.4,0,18.7c0,4.5,4,7.8,8.2,6.8c2.7-0.7,4.3-2.6,5.1-5.5L72.5,77C72.2,77,71.9,76.8,71.6,76.3z"/>
		<path class="st4" d="M89.5,74.3c0.5-0.2,1.1-0.3,1.7-0.5c-1.4-2.4-3.4-3.4-6.1-3.5c-2.6-0.1-5.2-0.1-8,0c-0.4,0-1.1,0.4-1.3,0.8
			c-1,1.7-1.9,3.4-2.9,5.1c-0.2,0.5-0.5,0.7-0.7,0.8l-0.5,75.5c0.1,0.3,0.2,0.5,0.3,0.7c1.4,3.6,4.3,5.5,7.5,5
			c2.9-0.5,5.8-2.9,5.7-7.4c-0.1-6.4,0-12.7-0.1-19.1c0-0.7-0.4-1.6-0.8-2.2c-1.5-1.9-2.5-4-2.5-6.6c0-13,0-25.9,0-38.9
			C82.1,79.5,85.3,75.5,89.5,74.3z"/>
		<path class="st4" d="M72.7,68.3c7.3,0,13.5-6.6,13.5-14.2S80,39.9,72.7,39.9c-0.2,0-0.4,0-0.7,0v28.3
			C72.3,68.3,72.5,68.3,72.7,68.3z"/>
		<path class="st3" d="M72.1,68.3V40C64,40.3,58,46.4,57.9,54.1C57.9,62,64,68,72.1,68.3z"/>
	</g>
	<g>
		<path class="st3" d="M41.3,65c-0.3-0.4-0.8-0.8-1.3-0.8c-2.2-0.1-4.5-0.1-6.8,0c-3,0.1-5.1,2.2-5.2,5.2c0,8.9,0,17.7,0,26.6
			c0,2.7,1.5,4.5,4.1,5.1c0.9,0.2,1.2,0.6,1.2,1.5c0,3.2,0,6.5,0,9.7c0,5.4,0,11,0,16.4c0,2.4,1.7,4.5,3.9,5c2.4,0.5,4.8-0.6,5.9-3
			c0.2-0.4,0.3-0.8,0.5-1.3l0.3-59.5C43.1,67.9,42.3,66.4,41.3,65z"/>
		<path class="st4" d="M56.6,67.8c0.9-0.2,1.8-0.3,2.7-0.4c-0.7-2-2.4-3.2-4.5-3.3c-2.1,0-4.2,0-6.4,0c-0.8,0-1.2,0.2-1.6,0.9
			c-0.8,1.5-1.7,3-2.7,4.8l-0.3,59.5c0.2,0.4,0.3,0.6,0.4,0.9c1,2.6,3.2,4,5.6,3.5c2.8-0.5,4.4-2.6,4.5-5.4c0-2.5,0-5.1,0-7.7
			c0-1.1-0.2-1.7-1.2-2.3c-2.6-1.7-4-4.2-4.1-7.4c-0.1-11.4-0.1-22.8,0-34.2C49.2,72.5,52.4,68.6,56.6,67.8z"/>
		<path class="st4" d="M44.5,62.5c5.7,0,10.7-5.2,10.6-11.3c0-6.1-4.9-11.2-10.7-11.2L44.5,62.5L44.5,62.5z"/>
		<path class="st3" d="M44.5,62.5V40c-6.8,0-11.7,4.8-11.7,11.3C32.8,57.7,37.7,62.5,44.5,62.5z"/>
	</g>
	<g>
		<path class="st3" d="M143.3,76.2c-0.9-1.6-1.8-3.2-2.7-4.8c-0.2-0.4-0.8-0.8-1.2-0.8c-3.3,0-6.7-0.1-10,0.1
			c-2.1,0.1-3.6,1.3-4.7,3.2c6.1,1.3,9.3,5.2,9.3,11.2c0.1,12.4,0,24.8,0,37.2c0,2.9-0.9,5.5-2.9,7.8c-0.3,0.4-0.5,1-0.5,1.6
			c0,6.8,0,13.4,0,20.2c0,3.2,2.3,5.8,5.3,6.5c3.2,0.6,6.3-1.1,7.4-4.2c0.1-0.4,0.3-0.8,0.5-1.3l0.2-75.5
			C143.7,76.9,143.5,76.7,143.3,76.2z"/>
		<path class="st4" d="M157.1,119.2c0-0.6,0-1.2,0-1.8c4.6-0.7,6.8-3.1,6.8-7.7c0-10.8,0-21.6,0-32.4c0-4-2.7-6.9-6.8-7
			c-2.7-0.1-5.3-0.1-8.1,0c-0.4,0-1,0.4-1.3,0.8c-1,1.6-1.9,3.3-2.8,4.9c-0.4,0.7-0.7,1-1,0.9l-0.2,75.5c1.2,4,4.2,6.3,7.5,5.7
			c3.5-0.6,5.9-3.5,5.9-7.6C157,140.2,157.1,129.8,157.1,119.2z"/>
		<path class="st4" d="M187.9,69.3c0-3.1-2.3-5.2-5.5-5.2c-1.7,0-3.5,0.1-5.2,0c-1.2-0.1-1.9,0.3-2.5,1.4c-0.6,1.4-1.5,2.7-2.4,4.3
			l-0.2,59.8c0.2,0.5,0.3,0.8,0.5,1.2c1.7,3.6,6.7,4.2,8.9,0.9c0.8-1.2,1.1-2.8,1.2-4.2c0.1-8.1,0.1-16.1,0.1-24.2
			c0-0.6,0-1.1,0-1.8c3.1-0.6,5.2-2.2,5.2-5.4C188,87.1,188,78.2,187.9,69.3z"/>
		<path class="st3" d="M169.4,64.9c-0.2-0.4-0.7-0.7-1.1-0.8c-2.3-0.1-4.6-0.1-6.9,0c-2.1,0.1-3.8,1.1-4.8,3.2
			c6.3,0,10.5,4.6,10.3,11c-0.3,10.5-0.1,21.1-0.1,31.6c0,3.8-1.4,6.7-4.6,8.8c-0.3,0.2-0.7,0.7-0.7,1.1c-0.1,2.9-0.1,5.8,0,8.8
			c0.1,2.5,1.9,4.5,4.2,4.9c2.6,0.4,4.7-0.8,5.8-3.3c0.1-0.3,0.2-0.5,0.4-0.9c0,0,0,0.1,0.1,0.1l0.2-59.8
			C171.1,67.9,170.3,66.4,169.4,64.9z"/>
		<path class="st4" d="M144.4,68.3c7.4,0,13.7-6.6,13.7-14.2c0-7.6-6.3-14.2-13.5-14.2c-0.2,0-0.4,0-0.6,0v28.3
			C144.1,68.3,144.2,68.3,144.4,68.3z"/>
		<path class="st3" d="M144,68.3V40c-8.1,0.3-14.1,6.3-14.1,14.1C129.8,62.1,135.8,68.1,144,68.3z"/>
		<path class="st3" d="M172,62.5V40c-6.5,0.2-11.2,4.9-11.3,11.2C160.7,57.4,165.6,62.3,172,62.5z"/>
		<path class="st4" d="M172.4,62.5c5.7,0,10.8-5.2,10.8-11.2S178.3,40,172.5,40c-0.2,0-0.4,0-0.6,0v22.5
			C172.1,62.5,172.3,62.5,172.4,62.5z"/>
	</g>
</g>
</svg>
