<svg xmlns="http://www.w3.org/2000/svg" viewBox="0 0 197.57 172.56"><title>publish3</title><g style="isolation:isolate"><g id="Shadow"><path id="Shadow-2" data-name="Shadow" d="M205.64,190.64c0,7.3-44.23,13.24-98.79,13.24S8.07,197.94,8.07,190.64s44.23-13.24,98.78-13.24S205.64,183.33,205.64,190.64Z" transform="translate(-8.07 -31.33)" style="fill:#d1d3d4;opacity:0.4;mix-blend-mode:multiply"/></g><g id="Paper"><polygon id="Page" points="51.48 0 51.48 152.42 154.98 152.42 154.98 31.71 122.47 31.71 99.58 0 51.48 0" style="fill:#a6caf7"/><polygon id="Fold" points="122.5 0 122.47 31.71 154.98 31.71 122.5 0" style="fill:#414b93"/><polygon id="FoldShadow" points="99.58 0 122.5 0 122.47 31.71 99.58 0" style="fill:#82a3bf"/><g id="Lines"><line x1="85.83" y1="33.34" x2="120.14" y2="33.34" style="fill:none;stroke:#4a4c4c;stroke-linecap:round;stroke-linejoin:round;stroke-width:6px"/><line x1="67.6" y1="53.53" x2="139.24" y2="53.53" style="fill:none;stroke:#4a4c4c;stroke-linecap:round;stroke-linejoin:round;stroke-width:6px"/><line x1="67.6" y1="69.53" x2="139.24" y2="69.53" style="fill:none;stroke:#4a4c4c;stroke-linecap:round;stroke-linejoin:round;stroke-width:6px"/><line x1="67.6" y1="85.01" x2="139.24" y2="85.01" style="fill:none;stroke:#4a4c4c;stroke-linecap:round;stroke-linejoin:round;stroke-width:6px"/><line x1="67.6" y1="101.01" x2="139.24" y2="101.01" style="fill:none;stroke:#4a4c4c;stroke-linecap:round;stroke-linejoin:round;stroke-width:6px"/><line x1="67.6" y1="116.01" x2="139.24" y2="116.01" style="fill:none;stroke:#4a4c4c;stroke-linecap:round;stroke-linejoin:round;stroke-width:6px"/></g></g><g id="Stamp"><path d="M159.24,194.11c-2.24-.75-4.32-1.43-6.4-2.19a2.74,2.74,0,0,0-3.21.78c-1.54,1.36-3.16,2.62-5,4.1-.37-2.08-1.21-6.58-1.21-6.58-.6,3-1.33,6.61-2,9.76-2-1.7-3.79-3.31-5.68-4.8a2.1,2.1,0,0,0-1.65-.32c-2.29.65-4.55,1.43-7.16,2.27.46-2.62.84-5,1.32-7.41.75-3.71,1.66-7.39,2.28-11.13.09-.55-.89-1.55-1.59-1.92-2-1-3.53-2.25-4.16-4.3a7.66,7.66,0,0,0,4.13,4.24,14.79,14.79,0,0,1,4,3.08c2.17,2.21,4.36,3.75,7.76,3.2a32.07,32.07,0,0,1,7.37,0,8.67,8.67,0,0,0,6.59-2.46c.8-.7,1.64-1.38,2.5-2-.55.81-.37,1.88,0,4.25C157.87,185.92,159.24,193.4,159.24,194.11Z" transform="translate(-8.07 -31.33)" style="fill:#c14528"/><path d="M128.49,195.38s5.34-2,6.87-1.7,5.4,4.14,5.4,4.14l2.74-13.88a6.81,6.81,0,0,0-1.81.11,10.49,10.49,0,0,1-3.13.16,8.61,8.61,0,0,1-2.51-.85,11.92,11.92,0,0,1-2.57-2,7.47,7.47,0,0,0-1.86-1.61Z" transform="translate(-8.07 -31.33)" style="fill:#e64f30"/><path d="M157.92,192.42l-2.14-11.55c-.19.14-.41.33-.72.6a14.11,14.11,0,0,1-1.39,1.11,8.81,8.81,0,0,1-2.77,1.31,6.57,6.57,0,0,1-1.82.25c-1.07,0-1.65-.11-2.9-.15l-1.52,6.29.72,4.49s4.09-4.25,5.74-4.45S157.92,192.42,157.92,192.42Z" transform="translate(-8.07 -31.33)" style="fill:#e64f30"/><path d="M144,193.07l2.48-10.32a12.08,12.08,0,0,0-1.64-.07l-1.36,7.56Z" transform="translate(-8.07 -31.33)" style="fill:#9f3923"/><path d="M164.71,162.51c-.18.34-.36.68-.52,1a27.09,27.09,0,0,0-2.37,7.72,2.38,2.38,0,0,1-.18.58l-.06.12a10.22,10.22,0,0,1-2.67,2.77c-1.66,1.36-3.83,2.19-5.26,3.73-1.88,2-3.9,2.4-6.44,2.16a28,28,0,0,0-7,.05c-2.27.37-3.59-.76-5-2-1.22-1.06-2.33-2.4-3.74-3-3-1.38-4.84-3.24-5.08-6.82-.13-1.94-1.38-3.8-2.12-5.7-.27-.7-.53-1.39-.74-2a6.33,6.33,0,0,1,.36-1.76l0,0c.22-.37.42-.75.61-1.14.09-.18.18-.35.27-.53a21.19,21.19,0,0,0,2-7.2,3.5,3.5,0,0,1,.37-1.32l0-.05a7,7,0,0,1,2.43-2.19c1.72-1.19,3.7-2.11,5.13-3.57a7.3,7.3,0,0,1,7.11-2.26,17.27,17.27,0,0,0,6.26-.1,4.23,4.23,0,0,1,4.31,1.23,19.42,19.42,0,0,0,6.83,4.93c2.35,1,2.48,3.14,3.07,5.11a44.23,44.23,0,0,0,2.26,6.57,3.89,3.89,0,0,1,.17,3.6Z" transform="translate(-8.07 -31.33)" style="fill:#fff"/><path d="M167.28,160.35a8.2,8.2,0,0,0-.87-2.87,22.42,22.42,0,0,1-1.94-5.75c-.53-2.94-1.61-5.21-4.42-6.7a40,40,0,0,1-5.88-4.37,7.51,7.51,0,0,0-6.82-1.78,12.11,12.11,0,0,1-5.19.05,8.36,8.36,0,0,0-8.58,2.7c-1.37,1.44-3.31,2.37-5,3.45-1.9,1.2-3.47,2.57-3.89,5-.32,1.82-.38,3.9-1.31,5.37-2.22,3.52-2.49,6.72-.23,10.32a11.78,11.78,0,0,1,1.49,5.15,7.12,7.12,0,0,0,.29,1.52,7.66,7.66,0,0,0,4.13,4.24,14.79,14.79,0,0,1,4,3.08c2.17,2.21,4.36,3.75,7.76,3.2a32.07,32.07,0,0,1,7.37,0,8.67,8.67,0,0,0,6.59-2.46c.8-.7,1.64-1.38,2.5-2,.43-.63,1.31-1.12,2.87-1.93l0,0,.14-.07c2-1,3.54-2.47,3.75-4.73h0a18.32,18.32,0,0,1,2.33-7.47c.09-.16.18-.33.26-.5v0A6.13,6.13,0,0,0,167.28,160.35Zm-2.57,2.16c-.18.34-.36.68-.52,1a27.09,27.09,0,0,0-2.37,7.72,2.38,2.38,0,0,1-.18.58l-.06.12a10.22,10.22,0,0,1-2.67,2.77c-1.66,1.36-3.83,2.19-5.26,3.73-1.88,2-3.9,2.4-6.44,2.16a28,28,0,0,0-7,.05c-2.27.37-3.59-.76-5-2-1.22-1.06-2.33-2.4-3.74-3-3-1.38-4.84-3.24-5.08-6.82-.13-1.94-1.38-3.8-2.12-5.7-.27-.7-.53-1.39-.74-2a6.33,6.33,0,0,1,.36-1.76l0,0c.22-.37.42-.75.61-1.14.09-.18.18-.35.27-.53a21.19,21.19,0,0,0,2-7.2,3.5,3.5,0,0,1,.37-1.32l0-.05a7,7,0,0,1,2.43-2.19c1.72-1.19,3.7-2.11,5.13-3.57a7.3,7.3,0,0,1,7.11-2.26,17.27,17.27,0,0,0,6.26-.1,4.23,4.23,0,0,1,4.31,1.23,19.42,19.42,0,0,0,6.83,4.93c2.35,1,2.48,3.14,3.07,5.11a44.23,44.23,0,0,0,2.26,6.57,3.89,3.89,0,0,1,.17,3.6Z" transform="translate(-8.07 -31.33)" style="fill:#c8462c"/><path d="M144.48,145.06c7.8-.63,16,6.86,15.81,16.06a15.88,15.88,0,0,1-31.75-.51C128.51,152.09,136.5,144.42,144.48,145.06Z" transform="translate(-8.07 -31.33)" style="fill:#c8442b"/><path d="M129.92,177.35a13.78,13.78,0,0,1,3.25,2.2c2.17,2.21,4.36,3.75,7.76,3.2a32.07,32.07,0,0,1,7.37,0,8.67,8.67,0,0,0,6.59-2.46c.8-.7,2.5-2,2.5-2a2,2,0,0,0-.46,1.72s-1.31,1-2.11,1.72a8.67,8.67,0,0,1-6.59,2.46,32.07,32.07,0,0,0-7.37,0c-3.4.55-5.6-1-7.76-3.2a14.07,14.07,0,0,0-2.53-2A1.67,1.67,0,0,0,129.92,177.35Z" transform="translate(-8.07 -31.33)" style="fill:#ba4029"/></g></g></svg>