<svg id="Layer_5" data-name="Layer 5" xmlns="http://www.w3.org/2000/svg" viewBox="0 0 170.22 139.18"><title>teaching2</title><path d="M161.73,95c-11.82-2.46-21.11,1.07-27.25,11.4-4.56,7.67-4.64,18.29,3.12,27.51-7.51,5.75-16.55,8.26-25.24,11.78l-7.64-11.81q-2.88-4.47-5.75-8.95a9.86,9.86,0,0,0-11.21-4.52,1.76,1.76,0,0,1-2.29-.9Q75.74,104.76,65.9,90.12a5.79,5.79,0,0,0-2.59-2.18,3.32,3.32,0,0,0-4,1.49,3.55,3.55,0,0,0,.24,4.26q4.78,7.06,9.6,14.09C73,113.41,76.87,119,80.66,124.67a2.43,2.43,0,0,1,.28,1.79,10.64,10.64,0,0,0,1.33,9c2.39,3.74,4.76,7.49,7.26,11.43-.66.06-1.13.13-1.59.13l-50.67,0c-3.89,0-4.93-1-4.93-4.89q0-46.53,0-93.06c0-3.56,1.2-4.77,4.74-4.77H157.34c3.31,0,4.4,1.12,4.4,4.51q0,22.13,0,44.25C161.73,93.72,161.73,94.33,161.73,95Zm-51.34-8.08h24.15c2.37,0,3.77-1.18,3.81-3.13a3.68,3.68,0,0,0-3.81-4q-24.15,0-48.31,0a4.58,4.58,0,0,0-2.7,1.07,3.13,3.13,0,0,0-.79,3.85,3.63,3.63,0,0,0,3.67,2.19Zm-.17-24.1c-7.88,0-15.76,0-23.64,0-1.7,0-3.15.36-3.86,2.09-1.06,2.58.78,5.09,3.74,5.09q13.85,0,27.69,0c6.81,0,13.62,0,20.43,0a3.33,3.33,0,0,0,3.69-3.47,3.53,3.53,0,0,0-3.58-3.67c-.45,0-.9,0-1.35,0Zm-4.9,41.38h0c6.36,0,12.72,0,19.08,0,2.25,0,3.5-1.06,3.79-3,.34-2.34-1.44-4.12-4.16-4.12H86.71c-2.56,0-4.23,1.37-4.29,3.52s1.65,3.64,4.32,3.64Z" transform="translate(-23.31 -44.35)" style="fill:#0fb799"/><path d="M118,170.81l1.18-9.62c-2.58,1-5,1.92-7.42,2.87-3.77,1.47-6.62.55-8.84-2.85q-8.77-13.43-17.56-26.83a6.94,6.94,0,0,1-1.14-5.77,6,6,0,0,1,4.87-4.82,6.23,6.23,0,0,1,6.74,2.81q6.1,9.32,12.17,18.66l3.29,5.05,9.17-3.46,10.57-4a2.85,2.85,0,0,0,.93-.39c3.38-3.12,7.7-4.59,11.65-6.72.08,0,.12-.17.27-.39-1-1.09-2-2.2-3-3.33-5.84-6.75-7.22-14.31-3.47-22.42,3.66-7.9,10.2-11.93,18.86-11.85,15.27.14,24.94,16.06,18,29.41a27.45,27.45,0,0,1-3,4.25c-1,1.26-2.14,2.42-3.42,3.84,15.88,6.66,24.83,18.11,25.7,35.55Z" transform="translate(-23.31 -44.35)" style="fill:#f7a93b"/><path d="M59.55,164.78H27.31c-1.43,0-2.7-.27-3.46-1.63a3.74,3.74,0,0,1,.08-4,3.64,3.64,0,0,1,3.46-1.66q17.3,0,34.6,0c10,0,19.92.08,29.88,0a3.66,3.66,0,0,1,3.44,5.45,3.7,3.7,0,0,1-3.68,1.85c-8.72,0-17.44,0-26.16,0H59.55Z" transform="translate(-23.31 -44.35)" style="fill:#06728d"/><path d="M110.39,86.89h-24a3.63,3.63,0,0,1-3.67-2.19,3.13,3.13,0,0,1,.79-3.85,4.58,4.58,0,0,1,2.7-1.07q24.15-.1,48.31,0a3.68,3.68,0,0,1,3.81,4c0,2-1.44,3.12-3.81,3.13Z" transform="translate(-23.31 -44.35)" style="fill:#fff"/><path d="M110.21,62.79h23.13c.45,0,.9,0,1.35,0a3.53,3.53,0,0,1,3.58,3.67A3.33,3.33,0,0,1,134.58,70c-6.81,0-13.62,0-20.43,0q-13.85,0-27.69,0c-3,0-4.8-2.51-3.74-5.09.71-1.73,2.16-2.1,3.86-2.09C94.45,62.81,102.33,62.79,110.21,62.79Z" transform="translate(-23.31 -44.35)" style="fill:#fff"/><path d="M105.31,104.17H86.74c-2.67,0-4.38-1.44-4.32-3.64S84.15,97,86.71,97H124c2.72,0,4.5,1.79,4.16,4.12-.28,2-1.54,3-3.79,3-6.36,0-12.72,0-19.08,0Z" transform="translate(-23.31 -44.35)" style="fill:#fff"/><g id="Students"><path id="Student" d="M32.34,183.54c0-10.07,5.93-13.66,13.28-18.2-.5-.56-1-1.13-1.53-1.71-3-3.46-3.7-7.35-1.78-11.51A9.92,9.92,0,0,1,52,146a10.36,10.36,0,0,1,9.24,15.1,14.09,14.09,0,0,1-1.55,2.18c-.51.65-1.1,1.24-1.75,2,8.15,3.42,12.75,9.3,13.2,18.25Z" transform="translate(-23.31 -44.35)" style="fill:#915207"/><path id="Student-2" data-name="Student" d="M62.25,183.54c0-10.07,5.93-13.66,13.28-18.2-.5-.56-1-1.13-1.53-1.71-3-3.46-3.7-7.35-1.78-11.51A9.92,9.92,0,0,1,81.9,146a10.36,10.36,0,0,1,9.24,15.1,14.09,14.09,0,0,1-1.55,2.18c-.51.65-1.1,1.24-1.75,2,8.15,3.42,12.75,9.3,13.2,18.25Z" transform="translate(-23.31 -44.35)" style="fill:#915207"/><path id="Student-3" data-name="Student" d="M93,183.54c0-10.07,5.93-13.66,13.28-18.2-.5-.56-1-1.13-1.53-1.71-3-3.46-3.7-7.35-1.78-11.51a9.92,9.92,0,0,1,9.68-6.08,10.36,10.36,0,0,1,9.24,15.1,14.09,14.09,0,0,1-1.55,2.18c-.51.65-1.1,1.24-1.75,2,8.15,3.42,12.75,9.3,13.2,18.25Z" transform="translate(-23.31 -44.35)" style="fill:#915207"/><path id="Student-4" data-name="Student" d="M123,183.54c0-10.07,5.93-13.66,13.28-18.2-.5-.56-1-1.13-1.53-1.71-3-3.46-3.7-7.35-1.78-11.51A9.92,9.92,0,0,1,142.6,146a10.36,10.36,0,0,1,9.24,15.1,14.09,14.09,0,0,1-1.55,2.18c-.51.65-1.1,1.24-1.75,2,8.15,3.42,12.75,9.3,13.2,18.25Z" transform="translate(-23.31 -44.35)" style="fill:#915207"/></g></svg>