<?xml version="1.0" encoding="utf-8"?>
<!-- Generator: Adobe Illustrator 21.1.0, SVG Export Plug-In . SVG Version: 6.00 Build 0)  -->
<svg version="1.1" id="Layer_5" xmlns="http://www.w3.org/2000/svg" xmlns:xlink="http://www.w3.org/1999/xlink" x="0px" y="0px"
	 viewBox="0 0 216 216" style="enable-background:new 0 0 216 216;" xml:space="preserve">
<style type="text/css">
	.st0{fill:#0FB799;}
	.st1{fill:#F7A93B;}
	.st2{fill:#06728D;}
	.st3{fill:#FFFFFF;}
	.st4{fill:#915207;}
</style>
<title>teaching2</title>
<path class="st0" d="M175.6,84c-15-3.1-26.8,1.4-34.6,14.5c-5.8,9.7-5.9,23.2,4,34.9c-9.5,7.3-21,10.5-32,14.9l-9.7-15
	c-2.4-3.8-4.9-7.6-7.3-11.4c-2.9-4.9-8.7-7.3-14.2-5.7c-1.1,0.5-2.4,0-2.9-1.1C70.6,102.6,62.4,90.2,54,77.8
	c-0.8-1.2-1.9-2.2-3.3-2.8c-1.9-0.7-4.1,0.1-5.1,1.9c-1.1,1.7-1,3.9,0.3,5.4c4,6,8.1,11.9,12.2,17.9c4.9,7.1,9.8,14.2,14.6,21.4
	c0.4,0.7,0.5,1.5,0.4,2.3c-1.2,3.9-0.6,8.1,1.7,11.4c3,4.7,6,9.5,9.2,14.5c-0.8,0.1-1.4,0.2-2,0.2H17.7c-4.9,0-6.3-1.3-6.3-6.2
	c0-39.4,0-78.7,0-118.1c0-4.5,1.5-6.1,6-6.1h152.6c4.2,0,5.6,1.4,5.6,5.7c0,18.7,0,37.4,0,56.1C175.6,82.3,175.6,83.1,175.6,84z
	 M110.5,73.7h30.6c3,0,4.8-1.5,4.8-4c0.2-2.6-1.7-4.8-4.2-5.1c-0.2,0-0.4,0-0.6,0c-20.4,0-40.9,0-61.3,0c-1.3,0.1-2.5,0.5-3.4,1.4
	c-1.4,1.2-1.9,3.2-1,4.9c0.8,1.8,2.7,3,4.7,2.8L110.5,73.7z M110.3,43.1c-10,0-20,0-30,0c-2.2,0-4,0.5-4.9,2.7
	c-1.3,3.3,1,6.5,4.7,6.5c11.7,0,23.4,0,35.1,0c8.6,0,17.3,0,25.9,0c2.3,0.3,4.4-1.4,4.7-3.7c0-0.2,0-0.4,0-0.7
	c0.1-2.5-1.8-4.6-4.3-4.7c-0.1,0-0.2,0-0.2,0c-0.6,0-1.1,0-1.7,0L110.3,43.1z M104.1,95.6L104.1,95.6c8.1,0,16.1,0,24.2,0
	c2.9,0,4.4-1.3,4.8-3.8c0.4-3-1.8-5.2-5.3-5.2H80.5c-3.2,0-5.4,1.7-5.4,4.5s2.1,4.6,5.5,4.6L104.1,95.6z"/>
<path class="st1" d="M120.2,180.2l1.5-12.2c-3.3,1.3-6.3,2.4-9.4,3.6c-4.8,1.9-8.4,0.7-11.2-3.6c-7.4-11.4-14.8-22.7-22.3-34
	c-1.5-2.1-2.1-4.8-1.4-7.3c0.6-3.1,3-5.6,6.2-6.1c3.3-0.8,6.8,0.7,8.6,3.6c5.2,7.9,10.3,15.8,15.4,23.7l4.2,6.4l11.6-4.4l13.4-5.1
	c0.4-0.1,0.8-0.3,1.2-0.5c4.3-4,9.8-5.8,14.8-8.5c0.1,0,0.2-0.2,0.3-0.5c-1.3-1.4-2.5-2.8-3.8-4.2c-7.4-8.6-9.2-18.2-4.4-28.4
	c4.6-10,12.9-15.1,23.9-15c19.4,0.2,31.6,20.4,22.8,37.3c-1.1,1.9-2.4,3.7-3.8,5.4c-1.3,1.6-2.7,3.1-4.3,4.9
	c20.1,8.5,31.5,23,32.6,45.1L120.2,180.2z"/>
<path class="st2" d="M46,172.5H5.1c-1.8,0-3.4-0.3-4.4-2.1c-0.9-1.6-0.9-3.5,0.1-5.1c0.9-1.5,2.6-2.3,4.4-2.1c14.6,0,29.3,0,43.9,0
	c12.7,0,25.3,0.1,37.9,0c2.6-0.2,4.8,1.8,5,4.3c0.1,0.9-0.1,1.8-0.6,2.6c-0.9,1.7-2.8,2.6-4.7,2.3c-11.1,0-22.1,0-33.2,0L46,172.5
	L46,172.5z"/>
<path class="st3" d="M110.5,73.7H80c-2,0.2-3.9-0.9-4.7-2.8c-0.9-1.7-0.4-3.7,1-4.9c1-0.8,2.2-1.3,3.4-1.4c20.4-0.1,40.9-0.1,61.3,0
	c2.6-0.1,4.7,1.9,4.8,4.5c0,0.2,0,0.4,0,0.6c0,2.5-1.8,4-4.8,4L110.5,73.7z"/>
<path class="st3" d="M110.3,43.1h29.3c0.6,0,1.1,0,1.7,0c2.5,0,4.5,1.9,4.5,4.4c0,0.1,0,0.2,0,0.2c0.2,2.3-1.6,4.3-3.9,4.5
	c-0.3,0-0.5,0-0.8,0c-8.6,0-17.3,0-25.9,0c-11.7,0-23.4,0-35.1,0c-3.8,0-6.1-3.2-4.7-6.5c0.9-2.2,2.7-2.7,4.9-2.7
	C90.3,43.1,100.3,43.1,110.3,43.1z"/>
<path class="st3" d="M104.1,95.6H80.5c-3.4,0-5.6-1.8-5.5-4.6c0.1-2.8,2.2-4.5,5.4-4.5h47.3c3.5,0,5.7,2.3,5.3,5.2
	c-0.4,2.5-2,3.8-4.8,3.8C120.2,95.5,112.1,95.5,104.1,95.6L104.1,95.6z"/>
<g id="Students">
	<path id="Student" class="st4" d="M11.5,196.3c0-12.8,7.5-17.3,16.8-23.1c-0.6-0.7-1.3-1.4-1.9-2.2c-3.8-4.4-4.7-9.3-2.3-14.6
		c2-4.9,7-8,12.3-7.8c7.3,0,13.2,5.8,13.2,13.1c0,2.1-0.5,4.2-1.5,6c-0.6,1-1.2,1.9-2,2.8c-0.6,0.8-1.4,1.6-2.2,2.5
		c10.3,4.3,16.2,11.8,16.7,23.2L11.5,196.3z"/>
	<path id="Student-2" class="st4" d="M49.4,196.3c0-12.8,7.5-17.3,16.8-23.1c-0.6-0.7-1.3-1.4-1.9-2.2c-3.8-4.4-4.7-9.3-2.3-14.6
		c2-4.9,7-8,12.3-7.8c7.3,0,13.2,5.8,13.2,13.1c0,2.1-0.5,4.2-1.5,6c-0.6,1-1.2,1.9-2,2.8c-0.6,0.8-1.4,1.6-2.2,2.5
		c10.3,4.3,16.2,11.8,16.7,23.2L49.4,196.3z"/>
	<path id="Student-3" class="st4" d="M88.4,196.3c0-12.8,7.5-17.3,16.8-23.1c-0.6-0.7-1.3-1.4-1.9-2.2c-3.8-4.4-4.7-9.3-2.3-14.6
		c2.1-4.9,7-8,12.3-7.7c7.3,0,13.2,5.8,13.2,13.1c0,2.1-0.5,4.2-1.5,6c-0.6,1-1.2,1.9-2,2.8c-0.6,0.8-1.4,1.6-2.2,2.5
		c10.3,4.3,16.2,11.8,16.7,23.2L88.4,196.3z"/>
	<path id="Student-4" class="st4" d="M126.5,196.3c0-12.8,7.5-17.3,16.8-23.1c-0.6-0.7-1.3-1.4-1.9-2.2c-3.8-4.4-4.7-9.3-2.3-14.6
		c2-4.9,6.9-8,12.2-7.8c7.3,0,13.2,5.8,13.2,13.1c0,2.1-0.5,4.2-1.5,6c-0.6,1-1.2,1.9-2,2.8c-0.6,0.8-1.4,1.6-2.2,2.5
		c10.3,4.3,16.2,11.8,16.7,23.2L126.5,196.3z"/>
</g>
</svg>
