<svg id="Layer_1" data-name="Layer 1" xmlns="http://www.w3.org/2000/svg" viewBox="0 0 110.66 210.86"><title>work</title><path id="Man" d="M146.55,93.33c-1.9-13.05-4.72-25.82-12.08-37.09a31.34,31.34,0,0,0-8.67-9.29A3.48,3.48,0,0,0,124,46.4c-3,0-6,.14-9,.14-12.43,0-24.86-.12-37.29-.13a4.9,4.9,0,0,0-2.65.81A34.43,34.43,0,0,0,64.89,59a80.2,80.2,0,0,0-9,26.8c-1.28,7.94-2.15,16-2.82,24-.47,5.65-.43,11.36-.4,17a7.17,7.17,0,0,0,10.89,6c2.35-1.43,3.24-3.69,3.31-6.39.17-6.87.25-13.75.62-20.61A131.36,131.36,0,0,1,71.4,79.5c.68-2.57,1.54-5.09,2.32-7.63l.37.08V82.59c0,25,0,105.27,0,120.34a10.55,10.55,0,0,0,15.39,9.31c4-2.06,5.82-5.48,5.82-9.92V127.53h10.82c0,.35.08.65.08.95q0,19.84,0,39.67c0,11.55,0,23.1,0,34.65a10.62,10.62,0,1,0,21.23-.24c0-10.14.08-129.64.08-129.64,6.15,17.3,6.58,35.31,6.85,53.52a12,12,0,0,0,.91,3.66c.85,2.33,3.28,3.8,6.38,3.82,1.86,0,4.93-1.15,5.89-3.82s.79-2.65.79-3.81C148.34,125.58,148,102.93,146.55,93.33Zm-41.71-7.22c-1.28,2.2-2.72,4.32-4.24,6.68-1.69-2.6-3.26-5-4.77-7.4a2.28,2.28,0,0,1-.2-1.37Q97,71.8,98.46,59.6a2.19,2.19,0,0,0-.66-2.12,3.79,3.79,0,1,1,5.79-.28,3.07,3.07,0,0,0-.76,2.72q1.41,11.8,2.64,23.62A4.5,4.5,0,0,1,104.85,86.11ZM79.61,23.59A21.19,21.19,0,1,1,100.78,44.9,21.14,21.14,0,0,1,79.61,23.59Z" transform="translate(-52.67 -2.57)" style="fill:#444"/><path id="Tie" d="M100.61,92.78c-1.69-2.6-3.26-5-4.77-7.4a2.29,2.29,0,0,1-.2-1.37Q97,71.8,98.46,59.6a2.2,2.2,0,0,0-.66-2.12,3.79,3.79,0,1,1,5.79-.28,3.07,3.07,0,0,0-.76,2.72q1.41,11.8,2.64,23.62a4.53,4.53,0,0,1-.61,2.56C103.57,88.31,102.13,90.42,100.61,92.78Z" transform="translate(-52.67 -2.57)" style="fill:#c92717"/><path id="Briefcase" d="M158.92,135.42h-6.65v-7.49a1.47,1.47,0,0,0-1.47-1.47H129.56a1.47,1.47,0,0,0-1.47,1.47v7.49h-6.8a4.42,4.42,0,0,0-4.41,4.41v24.73a4.42,4.42,0,0,0,4.41,4.41h37.63a4.42,4.42,0,0,0,4.41-4.41V139.82A4.42,4.42,0,0,0,158.92,135.42Zm-10.33,0H131.65v-5.54H148.6Z" transform="translate(-52.67 -2.57)" style="fill:#c92717"/></svg>