<?xml version="1.0" encoding="utf-8"?>
<!-- Generator: Adobe Illustrator 22.0.1, SVG Export Plug-In . SVG Version: 6.00 Build 0)  -->
<svg version="1.1" id="Layer_1" xmlns="http://www.w3.org/2000/svg" xmlns:xlink="http://www.w3.org/1999/xlink" x="0px" y="0px"
	 viewBox="0 0 216 216" style="enable-background:new 0 0 216 216;" xml:space="preserve">
<style type="text/css">
	.st0{fill:#444444;}
	.st1{fill:#C92717;}
</style>
<title>work</title>
<path id="Man" class="st0" d="M143.3,94.3c-1.7-12.2-4.4-24.1-11.3-34.7c-2.1-3.4-4.8-6.4-8.1-8.7c-0.5-0.4-1.1-0.5-1.6-0.5
	c-2.8,0-5.6,0.1-8.4,0.1c-11.6,0.1-23.2,0-34.8,0c-0.9,0-1.7,0.3-2.5,0.7c-3.9,2.9-7.2,6.7-9.5,11.1c-4.3,7.8-7.1,16.3-8.4,25
	c-1.2,7.4-2,15-2.6,22.5c-0.5,5.3-0.4,10.6-0.4,15.9c0.1,3.7,3.1,6.7,6.9,6.6c1.2,0,2.4-0.4,3.4-1c2.2-1.4,3-3.5,3.1-5.9
	c0.2-6.4,0.3-12.9,0.5-19.3c0.4-8.3,1.6-16.5,3.7-24.6c0.6-2.4,1.5-4.8,2.2-7.1l0.4,0.1v9.9c0,23.4,0,98.4,0,112.5
	c0,5.5,4.5,9.9,10,9.8c1.6,0,3.1-0.4,4.5-1.1c3.7-1.9,5.5-5.1,5.5-9.3v-69.8h10.1c0,0.4,0.1,0.6,0.1,0.9c0,12.3,0,24.8,0,37.1
	c0,10.8,0,21.6,0,32.4c-0.1,5.5,4.3,10,9.8,10.1c5.5,0.1,10-4.3,10.1-9.8c0-0.2,0-0.4,0-0.5c0-9.5,0.1-121.2,0.1-121.2
	c5.8,16.2,6.1,33,6.4,50.1c0.1,1.2,0.4,2.4,0.8,3.4c0.8,2.2,3.1,3.6,5.9,3.6c1.7,0,4.6-1.1,5.5-3.6c0.9-2.5,0.7-2.5,0.7-3.6
	C145.1,124.5,144.7,103.3,143.3,94.3z M104.4,87.5c-1.2,2.1-2.6,4-3.9,6.2c-1.6-2.5-3-4.7-4.5-6.9c-0.2-0.4-0.3-0.8-0.2-1.3
	c0.8-7.6,1.7-15.3,2.6-22.8c0.2-0.7-0.1-1.5-0.6-2c-1.4-1.5-1.3-3.7,0.2-5c1.5-1.4,3.7-1.3,5,0.2c1.2,1.3,1.3,3.2,0.2,4.6
	c-0.6,0.6-0.9,1.6-0.7,2.6c0.9,7.3,1.7,14.7,2.5,22.1C105.1,86,104.8,86.8,104.4,87.5L104.4,87.5z M80.8,29.1c0.1-11,9-19.7,20-19.6
	c11,0.1,19.7,9,19.7,19.9c-0.1,10.9-9,19.7-19.8,19.7s-19.7-8.9-19.8-19.7C80.8,29.3,80.8,29.2,80.8,29.1z"/>
<path id="Tie" class="st1" d="M100.4,92.4c-1.7-2.7-3.3-5.1-4.9-7.6c-0.2-0.4-0.3-0.9-0.2-1.4c0.9-8.3,1.9-16.7,2.9-25
	c0.2-0.8-0.1-1.6-0.7-2.2c-1.5-1.6-1.4-4,0.2-5.5s4-1.4,5.5,0.2c1.3,1.4,1.4,3.5,0.2,5c-0.7,0.7-1,1.8-0.8,2.8
	c1,8,1.9,16.1,2.7,24.2c0.1,0.9-0.2,1.8-0.6,2.6C103.5,87.8,102,90,100.4,92.4z"/>
<path id="Briefcase" class="st1" d="M160.1,136.1h-6.8v-7.7c0-0.8-0.7-1.5-1.5-1.5l0,0h-21.7c-0.8,0-1.5,0.7-1.5,1.5l0,0v7.7h-7
	c-2.5,0-4.5,2-4.5,4.5v25.3c0,2.5,2,4.5,4.5,4.5h38.5c2.5,0,4.5-2,4.5-4.5v-25.3C164.6,138.1,162.6,136.1,160.1,136.1z M149.5,136.1
	h-17.3v-5.7h17.3V136.1z"/>
</svg>
