<?xml version="1.0" encoding="utf-8"?>
<!-- Generator: Adobe Illustrator 21.1.0, SVG Export Plug-In . SVG Version: 6.00 Build 0)  -->
<svg version="1.1" id="Layer_1" xmlns="http://www.w3.org/2000/svg" xmlns:xlink="http://www.w3.org/1999/xlink" x="0px" y="0px"
	 viewBox="0 0 216 216" style="enable-background:new 0 0 216 216;" xml:space="preserve">
<style type="text/css">
	.st0{fill:#444444;}
	.st1{fill:#C92717;}
</style>
<title>work</title>
<path id="Man" class="st0" d="M147.4,93c-1.9-13.4-4.8-26.4-12.4-38c-2.3-3.7-5.3-7-8.9-9.5c-0.6-0.4-1.2-0.5-1.8-0.6
	c-3.1,0-6.1,0.1-9.2,0.1C102.4,45.1,89.7,45,77,45c-1,0-1.9,0.3-2.7,0.8c-4.3,3.2-7.9,7.3-10.4,12.1c-4.7,8.5-7.8,17.8-9.2,27.4
	c-1.3,8.1-2.2,16.4-2.9,24.6c-0.5,5.8-0.4,11.6-0.4,17.4c0.1,4.1,3.4,7.3,7.5,7.2c1.3,0,2.6-0.4,3.7-1.1c2.4-1.5,3.3-3.8,3.4-6.5
	c0.2-7,0.3-14.1,0.6-21.1c0.4-9.1,1.8-18.1,4-26.9c0.7-2.6,1.6-5.2,2.4-7.8l0.4,0.1V82c0,25.6,0,107.7,0,123.1
	c0,6,4.9,10.8,10.9,10.7c1.7,0,3.4-0.4,4.9-1.2c4.1-2.1,6-5.6,6-10.2V128h11.1c0,0.4,0.1,0.7,0.1,1c0,13.5,0,27.1,0,40.6
	c0,11.8,0,23.6,0,35.5c-0.1,6,4.7,10.9,10.7,11.1c6,0.1,10.9-4.7,11.1-10.7c0-0.2,0-0.4,0-0.6c0-10.4,0.1-132.7,0.1-132.7
	c6.3,17.7,6.7,36.1,7,54.8c0.1,1.3,0.4,2.6,0.9,3.7c0.9,2.4,3.4,3.9,6.5,3.9c1.9,0,5-1.2,6-3.9s0.8-2.7,0.8-3.9
	C149.3,126,148.9,102.8,147.4,93z M104.8,85.6c-1.3,2.3-2.8,4.4-4.3,6.8c-1.7-2.7-3.3-5.1-4.9-7.6c-0.2-0.4-0.3-0.9-0.2-1.4
	c0.9-8.3,1.9-16.7,2.9-25c0.2-0.8-0.1-1.6-0.7-2.2c-1.5-1.6-1.4-4,0.2-5.5c1.6-1.5,4-1.4,5.5,0.2c1.3,1.4,1.4,3.5,0.2,5
	c-0.7,0.7-1,1.8-0.8,2.8c1,8,1.9,16.1,2.7,24.2C105.5,83.9,105.2,84.8,104.8,85.6L104.8,85.6z M78.9,21.6C79,9.6,88.8,0,100.8,0.1
	c12,0.1,21.6,9.8,21.6,21.8c-0.1,11.9-9.8,21.6-21.7,21.6c-11.9,0-21.6-9.7-21.7-21.6C78.9,21.8,78.9,21.7,78.9,21.6z"/>
<path id="Tie" class="st1" d="M100.4,92.4c-1.7-2.7-3.3-5.1-4.9-7.6c-0.2-0.4-0.3-0.9-0.2-1.4c0.9-8.3,1.9-16.7,2.9-25
	c0.2-0.8-0.1-1.6-0.7-2.2c-1.5-1.6-1.4-4,0.2-5.5c1.6-1.5,4-1.4,5.5,0.2c1.3,1.4,1.4,3.5,0.2,5c-0.7,0.7-1,1.8-0.8,2.8
	c1,8,1.9,16.1,2.7,24.2c0.1,0.9-0.2,1.8-0.6,2.6C103.5,87.8,102,90,100.4,92.4z"/>
<path id="Briefcase" class="st1" d="M160.1,136.1h-6.8v-7.7c0-0.8-0.7-1.5-1.5-1.5l0,0h-21.7c-0.8,0-1.5,0.7-1.5,1.5l0,0v7.7h-7
	c-2.5,0-4.5,2-4.5,4.5v25.3c0,2.5,2,4.5,4.5,4.5h38.5c2.5,0,4.5-2,4.5-4.5v-25.3C164.6,138.1,162.6,136.1,160.1,136.1z M149.5,136.1
	h-17.3v-5.7h17.3L149.5,136.1z"/>
</svg>
