<?xml version="1.0" encoding="utf-8"?>
<!-- Generator: Adobe Illustrator 21.1.0, SVG Export Plug-In . SVG Version: 6.00 Build 0)  -->
<svg version="1.1" id="Layer_1" xmlns="http://www.w3.org/2000/svg" xmlns:xlink="http://www.w3.org/1999/xlink" x="0px" y="0px"
	 viewBox="0 0 1637.2 676.4" style="enable-background:new 0 0 1637.2 676.4;" xml:space="preserve">
<style type="text/css">
	.st0{fill:url(#SVGID_1_);}
	.st1{display:none;}
	.st2{display:inline;fill:#231F20;}
	.st3{display:inline;fill:#3182C4;}
	.st4{display:inline;fill:#242021;}
	.st5{display:inline;fill:#52A9D4;}
	.st6{display:inline;fill:#F7D2B5;}
	.st7{display:inline;fill:#9E191C;}
	.st8{display:inline;fill:#F4A934;}
	.st9{display:inline;fill:#F0F0F2;}
	.st10{display:inline;fill:#30333C;}
	.st11{display:inline;fill:none;stroke:#EBBF9C;stroke-linecap:round;stroke-linejoin:round;stroke-miterlimit:10;}
	.st12{fill:#DB9FF7;}
	.st13{fill:#171717;}
	.st14{fill:#303030;}
	.st15{fill:#4D4D4D;}
	.st16{fill:#F5D93E;}
	.st17{fill:#CFA51F;}
	.st18{fill:#FFF577;}
	.st19{fill:#7A7A7A;}
	.st20{fill:#E2C317;}
	.st21{fill:#F7F7F7;}
</style>
<g id="Layer_3">
	<g>
		
			<linearGradient id="SVGID_1_" gradientUnits="userSpaceOnUse" x1="0" y1="-62.2" x2="1637.4" y2="-62.2" gradientTransform="matrix(1 0 0 -1 0 276)">
			<stop  offset="0" style="stop-color:#884A9D"/>
			<stop  offset="1" style="stop-color:#AD7CB6"/>
		</linearGradient>
		<rect class="st0" width="1637.4" height="676.4"/>
	</g>
</g>
<g id="Layer_4">
	<g id="Layer_5" class="st1">
		<path id="Pants" class="st2" d="M683.7,337c0,0,17.7,29.1-17.4,30.4v2.7c0,0,2.2-0.5,0,1.8v5.1c0,0,0.4,3.8,2.3-4
			c0,0,1.4-3.6,2.7-2.7c0,0,22.3-3,19.7-20.3l19.9-4.5c0,0,19.8-2.1,22.9,17.1l2.6-0.5c0,0-0.5-1.6,0.7-1c1.3,0.6,5.5-0.3,5.5-0.3
			s3.9-0.8-2.2-1.3c0,0-4.7,0.5-5.2-3.6c-0.5-4-9.7-13.5-23.1-13.9c0,0-2.3-5.8-2.2-9l-0.1-1.7C710.1,331.4,686.1,335.5,683.7,337z"
			/>
		<path id="Shirt" class="st3" d="M635,320.8l4.3,0.6c0,0,1.2-24,28.9-20.8l15.7,36.3l26.1-5.4v-32.2c0,0,25.1,17.2,42.4-9l-3.6-2.2
			c0,0-15.9,22.9-39,3.7c0,0-15.1,24.8-35.4,2.8c0,0-1.2,1.2-3.3,0.5C669,294.2,641.3,288.9,635,320.8z"/>
		<polygon id="Tie" class="st4" points="695.2,304.4 694.1,307.6 696.3,309.6 697,329.1 702.7,333 705.5,327.4 698,309.6 
			698.9,306.2 696.2,304.1 		"/>
		<path id="Collar" class="st5" d="M682.6,300.6c0,0,10.3,8.5,22.5-3.3c0,0,1,6.7-3.7,11.4l-5.1-4.8l-1,0.3l-1.2,3.1l-0.4,3.4
			C693.8,310.7,687.6,309.8,682.6,300.6z"/>
		<path id="Ear" class="st6" d="M648.1,241.1v2c0,0-8.4,0.9-5.6,9.3c2.8,8.4,10.1,3.9,10.7,3.9c0.5,0,2.2-0.1,2.2-0.1l-3.2-13
			L648.1,241.1z"/>
		<path id="Face" class="st6" d="M723,216.7c0,0,9.8,68.3-26.8,86.7c-1.6,0.8-4.3,0.7-5.9,0.5c-6.6-1.1-23.1-9.5-34.7-42.7l4.4-0.6
			c0,0-4.6-14.3,0.8-31.4c0,0,28-3.7,52.2-14.6L723,216.7z"/>
		<path id="Mouth" class="st7" d="M683.4,273l29.4-3.7C712.8,269.3,701.5,308,683.4,273z"/>
		<path id="Hair" class="st8" d="M660.3,261.8c0,0-5-15.3,0.8-32.5c0,0,20.7-0.5,52.3-14.8c0,0,19.1,8.2,20.1-4.9
			c1-13.2-8.1-11.1-11.4-11.5c0,0-3.5-5-12.9-4.2c0,0-6.5-14.4-26.2-3.7c0,0-11.8-11.1-24.7,8.9c0,0-21.1-5.8-18.4,22.9
			c0,0-6.2,14.3,11.2,22.2c0,0,3.7,16,4.4,17.1L660.3,261.8z"/>
		<ellipse id="LeftEye" class="st9" cx="683.5" cy="242.3" rx="5" ry="4.8"/>
		<ellipse id="RightEye" class="st9" cx="710" cy="239.4" rx="5" ry="4.8"/>
		<ellipse class="st10" cx="684.5" cy="241.9" rx="2.9" ry="2.8"/>
		<ellipse class="st10" cx="711.4" cy="239" rx="2.9" ry="2.8"/>
		<path class="st9" d="M683.4,239.1l1-0.3C684.5,238.8,684.7,243.3,683.4,239.1z"/>
		<path class="st9" d="M710.2,236.4l1-0.3C711.2,236,711.4,240.5,710.2,236.4z"/>
		<path class="st11" d="M701.7,252c0,0,7.9,5.7-2,8.9"/>
		<path class="st6" d="M636,321.2h2.3c0,0-0.5,1.6,1,2.4v5.2c0,0-0.2,2.1-0.6,0.4l-1.4-0.1c0,0-0.5,4.2-2.5,2.3c0,0-2.5,0.5-2.4-1.9
			c0,0-1.2,0.4-0.8-1.2s0.5-6,4.2-6.2L636,321.2z"/>
		<path class="st6" d="M749.9,288.5l2.3,1.3l-0.1-0.4c0,0,4.9,0.5,5.6-4.5h-0.3c0,0,0.6-1.2-0.6-2c-1.3-0.8-1.6-0.6-1.6-0.6
			s0.1-1.1-0.9,0c0,0-0.6,0.5-1.6,0.3c0,0,0.9-4.9-0.9-0.3c0,0-1.7,2.9-1.5,4L749.9,288.5z"/>
	</g>
	<g id="Layer_2">
		<rect x="513.4" y="468" class="st12" width="79.8" height="68.2"/>
		<rect x="618.1" y="426.8" class="st12" width="79.8" height="109.4"/>
		<rect x="722.2" y="389.2" class="st12" width="79.8" height="146.9"/>
		<rect x="827.5" y="355.4" class="st12" width="79.8" height="180.7"/>
		<rect x="934.2" y="321.3" class="st12" width="79.8" height="214.9"/>
		<rect x="1035.8" y="287.2" class="st12" width="79.8" height="249"/>
	</g>
	<g>
		<g>
			<g>
				<path class="st13" d="M1053.6,270.3c0,0-7.6,4.3-8.4,5.1c-0.7,0.7-1.2,3.8,1.3,5.4l-1.7,1.1c0,0-0.4,2.2,0,3.4
					c0.4,1.3,2.2,8.4,31.7,8.4s30.3-9.2,30.3-9.2s0.5-4.2-0.7-5.7c0,0,1.6-2.4,0.3-3.9c-1.4-1.6-8-4.4-8-4.4L1053.6,270.3z"/>
				<path class="st14" d="M1073.4,286.5c-6.6-0.4-13-1.7-12.7-1.9c0.3-0.2,2.2-6.3,3.3-6.3s1.5-0.1,0.3-0.9s-1.3-1,9-0.9
					c10.2,0.1,18.2-3.7,14.8-2.6c-3.3,1.1-11.8,1.4-20.6,1.2s-12.9-3.5-12.9-3.5c0,2,7.9,4.8,6.6,5.1c-1.4,0.2-1.4,0.7-0.3,1.7
					s1.1,5.6-3.4,5.4S1045,279,1045,279l0.3,0.6c0.3,0.5,0.6,0.8,1.2,1.2l-0.1,0.1c2,1.1,8.7,4.2,19.3,6.1c12.9,2.2,29.2-2,29.2-2
					S1080,286.9,1073.4,286.5z"/>
				<path class="st14" d="M1052.1,267.1c0,0-0.5,1.9,0.7,3.5c1.4,1.6,7,5.3,20.3,5.4c13.2,0.1,24.9-3.4,25.5-5.8
					c0.5-2.5,0.5-1.6,0.5-2.5c0-0.7-0.7-1.1-0.7-1.1L1052.1,267.1z"/>
				<ellipse class="st15" cx="1075.4" cy="267.1" rx="23.3" ry="5.2"/>
				<path class="st14" d="M1093.4,265l-37.1,0.5c0,0,1.5,3.7,5.8,4.4s-4.7,0-7.2-0.5c-0.5-0.1-0.6-0.1-0.5,0.1
					c3.8,1.7,11.7,2.8,20.7,2.8c0.4,0,0.7,0,1,0c-1.7-0.3-3.5-0.5-4.4-0.7c-1.9-0.3,4.7,0,10.1-1s7.6-2,9.5-2s3,0.3,0.7,1.2
					c-2.3,0.8,4.2-0.4,4.6-2C1097.4,266.1,1093.4,265,1093.4,265z"/>
				<path class="st16" d="M1057.2,260.5l-1.4-0.3l0.5,5.4c0,0,0.4,1.6,1.9,2.4c1.6,0.7,7.9,2.7,16.8,2.7c9,0,18.9-3.2,19-4.2
					s0.1-1.6,0.1-1.6s0.9-3.7,0.8-4.5C1094.9,259.7,1057.2,260.5,1057.2,260.5z"/>
				<ellipse class="st16" cx="1075.2" cy="260.5" rx="19.8" ry="4.4"/>
				<ellipse class="st17" cx="1075.2" cy="260.2" rx="18.7" ry="4.1"/>
				<path class="st17" d="M1057.2,261.9c0,0,6.3,4.2,20.1,3.7c13.7-0.5,16.4-3.7,16.4-3.7s-0.3,0.9-0.3,1.3s0,1.7,0,1.7l-0.5-1
					c0,0-7.8,1.6-15.5,2.2S1059.4,264.9,1057.2,261.9z"/>
				<path class="st17" d="M1084.3,266.1c-3.9,0.3,5.3-1.1,7.1-1C1093.2,265.3,1088.2,265.9,1084.3,266.1z"/>
				<path class="st17" d="M1090.2,266.3c0,0-3.5,0.5-4.9,1c-1.5,0.5,4.1,0,4.5-0.2s-5.7,1.6-7.4,2s8.5-1.5,9.3-2.2
					C1092.6,266.1,1090.2,266.3,1090.2,266.3z"/>
				<path class="st18" d="M1058.3,268c0.3,0.2,0.7,0.4,1.4,0.5c0.5,0,1,0.1,1.7,0.4c4.5,1.3,8,0.4,8,0.4s-4.4-0.1-7.6-1.2
					s-4.9-3.4-0.7-2.4c4.2,1.1,9.2,0.7,9.2,0.7s-3.7-0.5-9-1.6s-5.3-3.5-5.3-3.5l0.5-0.2l-0.7-1l0.5,5.4
					C1056.3,265.6,1056.8,267.1,1058.3,268z"/>
				<path class="st18" d="M1063.2,267c0,0,8.8,1.6,13.5,1.6c4.8,0,6.8,0,6.8,0S1074.2,270.2,1063.2,267z"/>
				<path class="st19" d="M1058.2,272.5c0,0,6,3.1,20.9,2.2C1079.1,274.7,1067.6,277,1058.2,272.5z"/>
				<path class="st19" d="M1051.6,271.8c0,0-4.3,2.7-4.6,2.7s-1.7,2.2-0.4,3.7c1.4,1.6,2.9,2,2.9,2s-1.9-1.7-1.4-2.9
					c0.5-1.2,5.1-3.5,5.6-3.7C1054.1,273.5,1051.6,271.8,1051.6,271.8z"/>
				<path class="st19" d="M1056.3,275.6c0,0-3.9,2-3.9,2.7s5.1-2,5.1-2L1056.3,275.6z"/>
				<path class="st17" d="M1065.4,282.6c0,0-1.8,0.5-1.9,0.7c-0.1,0.3-0.3,0.5,1.5,1c1.7,0.4,6.1,0.2,12.1,0.2s7.8-1.1,7.8-1.1
					l-0.2-0.7L1065.4,282.6z"/>
				<path class="st16" d="M1065.6,279.5c0,0-2.2,3.5-2.2,3.9c0,0.5,5.6,0.5,11.7,0.5s9.5-1.2,9.5-1.2s-1.2-2.8-1.3-3.1
					S1073.8,279.8,1065.6,279.5z"/>
				<path class="st19" d="M1086,278.9c9-0.7,11.4-4.8,11.4-4.8l8.5,2.7c0,0-2.9,5.4-8,6.9s-10.7,1.3-10.7,1.3
					S1085.3,279.7,1086,278.9z"/>
				<path class="st19" d="M1094.1,285.2c0,0,5.3-0.7,7.9-2.6s3.7-3.3,3.7-3.3s0.5,1.8,0.4,3.7c-0.1,1.7-3.2,3.8-5.8,5.1
					c-2.6,1.3-3.8,1.9-3.8,1.9s3.2-2.8,4.2-3.4c1-0.5-2.8,1.2-2.8,1.2l2.5-2l-3.4,1.2c0,0,1.9-1.3,2.7-1.8
					S1098.3,285.1,1094.1,285.2z"/>
				<path class="st19" d="M1075.1,286.8c0,0,4.6-0.5,6.2-0.7C1083,285.8,1078.6,287.2,1075.1,286.8z"/>
				<path class="st19" d="M1073.6,287.8c0,0,6.4,0,9-0.2s-3.1,1.3-5.3,1.3C1075.2,288.9,1073.6,287.8,1073.6,287.8z"/>
				<path class="st19" d="M1071,290.4c0,0,10.3,0.2,13-0.4s-1.4,0.5-3,0.7c-1.6,0.1,2,1.9,2,1.9s-5.5-0.4-8.2-0.2
					c-2.7,0.2,1.2-1,1.2-1l-5.4-1H1071z"/>
				<path class="st14" d="M1047.4,282.5c0,0,6,3.1,10.8,4.2s9.8,1.3,9.8,1.3s-5.1,0.7-11.7-0.5s-9.5-1.5-8,0.2c1.6,1.6,5.9,3,5.9,3
					s-6.9-1.7-8.6-4.3c-0.7-1.1,0.3-4.4,0.3-4.4L1047.4,282.5z"/>
			</g>
			<g>
				<path class="st16" d="M1089.4,172c-1.4-1.9-2.4-0.9-3.7-2.1c-1.2-1.2-5.8-3-6.7-3.7c-0.9-0.8-0.5-3.7-0.5-3.7s1.2-1.9,1.2-3.4
					c0,0,0.6-1,0.7-2.6s-1-2.3-1-2.3s0.9-4.7-3.9-4.8l0,0h-0.1c0,0,0,0-0.1,0l0,0c-4.8,0.1-3.9,4.8-3.9,4.8s-1.2,0.7-1,2.3
					c0.1,1.6,0.7,2.6,0.7,2.6c0,1.5,1.2,3.4,1.2,3.4s0.5,2.9-0.5,3.7c-0.9,0.8-5.4,2.6-6.7,3.7c-1.2,1.2-2.3,0.2-3.7,2.1
					c-1.4,1.9-0.5,11.5,0.6,17.2c1.2,5.7,4.5,6.3,4.6,7.5c0.1,1.1,0.2,7.9-0.2,12.7c-0.5,4.8,2.9,15.9,2.9,17.3s-0.2,4.8-0.7,8.5
					s2.2,12.2,2.2,16.4s-3.4,6.9-3.7,8.8c-0.3,1.8,3.6,1.2,5.1,1.1c1.4-0.1,2.6-0.7,2.9-0.8c0.4,0.2,1.6,0.7,2.9,0.8
					c1.6,0.1,5.4,0.7,5.1-1.1c-0.3-1.8-3.7-4.5-3.7-8.8s2.6-12.7,2.2-16.4c-0.5-3.7-0.7-7-0.7-8.5s3.4-12.4,2.9-17.3
					c-0.5-4.8-0.3-11.7-0.2-12.7c0.1-1,3.4-1.8,4.6-7.5C1090,183.6,1090.8,174,1089.4,172z"/>
				<path class="st18" d="M1077.8,251.3c-0.1-2.6,3.3-8.7,2.6-13.5c-0.6-4.8-1.4-4.4-1.4-6.4s0.3-3.9,0.3-6.3c0-2.4,1.3-5.1,1.6-7.3
					s0.5-10.7,0.3-11.8c-0.3-1.1-1.9-0.6-1.9-0.6s0.9-4,0.3-5.8s-1.9-2.6-2.6-1.8c-0.6,0.7-1,7.2-0.8,9.7s-0.2,5.1-0.2,5.1l1-1
					c0,0-0.7,3.4-0.7,5s0.4,7.2,0.4,9c0,1.7,0.1,5.1,0.2,7c0.1,1.8-0.1,6.9-0.1,10.3s-0.4,7.9-0.4,7.9s0.6,2.6,0.5,3.4
					c-0.1,0.6-1.5,0.2-1.5,0.2s-1.6-2.6-1.6-1.9c-0.1,0.6,0.6,2.6,0.8,3.1c0.3,0.5,0.6,1.8,0.2,2c-0.5,0.2-0.6-1-1.4-0.8
					c-0.6,0.3-2.1,1.3-2.1,1.3s1.6-3.5,1.5-4.3s-0.7,0.6-0.7,0.6s0.6-2.6,0.5-5.4s-0.5-11.1-0.6-11.8c-0.1-0.5-1.4,3.5-1.9,6
					c0.6,3.2,1.4,6.6,1.4,8.9c0,3.8-2.6,6.4-3.5,8.1c0.3,0.5,1,1.3,2.6,1.3c2.6,0,3.5,0.3,4.3-1.8c0.8-2.2,0.8-2.6,0.8-2.9
					s-0.1-1-0.1-1s0.5,0.7,0.6,1.6c0.3,0.8,0,2.6,0,2.8c0,0.3,1.6,1.4,2.4,1.5c0.7,0.1,0.7,0.1,0.7,0.1s2.7,0.6,2.9-0.4
					c0.2-1-1.6-2.2-2.5-3.5C1078.9,256,1077.9,253.8,1077.8,251.3z"/>
				<path class="st17" d="M1071.8,160.8c0.1-0.7,0.5-1.6,0.6-1.8c0.4-0.5-0.1-2.1,0.7-2.4s1.4-0.4,1.4-0.4s-0.6-1-1.4-1.1
					s-0.7,0.7-1,0.8c-0.2,0-0.4-0.7-0.6-1.5c-0.3,0.3-0.9,1-0.8,2.1c0.1,1.6,0.7,2.6,0.7,2.6
					C1071.4,159.6,1071.6,160.3,1071.8,160.8z M1074.1,162.7c-0.9-0.4,0.4-1.2,0.5-1.7s0.1-0.5,0.1-0.5l1.8-0.5c0,0-0.7-1-1.3-1.1
					c-0.6-0.1-1.2,1.2-1.5,1.6c-0.3,0.4-0.5,2-1.2,1.8c0,0.1,0.1,0.1,0.1,0.1s0.5,2.9-0.5,3.7c-0.1,0.1-0.3,0.3-0.5,0.4
					c0.2,0.2,0.3,0.4,0.3,0.6c0,0.5-0.5,0-1.2-0.2c-0.1,0.1-0.3,0.1-0.4,0.2c0,0.3,0.5,0.7,1.6,0.9c1.8,0.2,2.6-2.5,3.2-3.1
					s2.5-1,2.7-1.8C1078.4,162.4,1075.1,163.1,1074.1,162.7z"/>
				<path class="st18" d="M1066.5,184.7l2.6-3.7c0,0-1.6,0.2-1.6-1c-0.1-1.2,0-3.3,0-3.9c0-0.6-1.4-1.6-2.3,1.6
					c-1,3.2,1,5.2,0.5,6.3s-0.7,1.7-0.8,2.6c-0.1,1,3.2-1.6,3.5-1.9c0.3-0.3,1-2.4,1-2.4S1068.2,182.8,1066.5,184.7z"/>
				<path class="st20" d="M1062.3,187.7C1062.3,187.6,1062.3,187.6,1062.3,187.7c0.7-1.7,2.6-3.3,2.6-3.7c0-0.5,0.1-1.6-0.1-2.7
					c-0.2-1.2-0.6-1.9-0.1-4.3c0.5-2.4,2.9-3,3.4-2.1s1.5,5.6-0.3,7.6c-1.7,2-2.7,4.5-2.7,4.5s1.2-1.4,3.2-3.3
					c2-1.9,4.1-3.2,4.1-3.2s1.8-2.4,1.2-2.4s-1.5,1.8-1.5,1.8s-0.4-3-1-4.9c-0.6-2-2.5-3.9-2-3.9s3.9-0.2,3.1-0.6
					c-0.8-0.4-4.6-0.1-4.6-0.1c-0.9,0.2-2.9,0.9-2,0.9s1.4,1,1,1s-1.9,0.5-2.6,2.2c-0.8,1.7-0.8-2-1.7-2.2
					C1060.7,173.8,1061.3,181.9,1062.3,187.7z"/>
				<path class="st17" d="M1072.7,181.2c0,0-3.1,1.2-2.7,2s0.3,0.8,0.4,1.5s-3.2,3.1-3.3,4.8c-0.1,1.8,0.5,2.6,1.9,3.3
					c1.4,0.6,3.6,1,2.9,0.5c-0.6-0.5-3.5-0.9-3.1-3.3c0.4-2.4,2.2-3.2,2.6-2.6c0.4,0.6,0.9,2.3,1.3,2.5s0.7,1.6,0.8,1.9
					s1-0.5,0.7-2.6c-0.3-2.2-1.8-2.3-1.8-3.5C1072.3,184.5,1072.9,182.5,1072.7,181.2z"/>
				<path class="st20" d="M1077.9,177.4c0,0,0.5,0.8-0.4,1.1s-1.6,0.7-0.3,1C1078.5,179.8,1079,177.4,1077.9,177.4z"/>
				<path class="st20" d="M1065.3,193.7c0,0,0.9-0.5,1.4-0.1C1067.1,194.1,1066.8,195.7,1065.3,193.7z"/>
				<path class="st20" d="M1075.7,253.6c0-0.4-0.3-24.8-0.7-31.5c-0.4-6.8-0.6-25.5-1.4-26.1c-0.8-0.7-4.3-1.8-4.8-0.8
					c-0.4,0.7-1.3,1.1-1.8,1.3c0.1,0.1,0.1,0.3,0.1,0.3c0.1,1.1,0.2,7.9-0.2,12.7c0,0.5,0,1.1,0,1.7c0.1,0.8,0.2,1.6,0.3,2.6
					c0.7,5.3,2.6,12,2.6,13.1c0,1.4-0.2,4.8-0.7,8.5c-0.3,1.6,0.2,4.2,0.7,6.9c0.1-3.6,1-8.5,2.2-7.3c1.4,1.4,1.5,11.5,1.9,13.6
					C1074.3,250.5,1075.7,254,1075.7,253.6z"/>
				<path class="st16" d="M1072.2,229c0,0,0.3-3.6,0.8-5.1s0.2-11.7-0.9-14.8c-1.1-3.2-2.9-3.5-3.2-3.3c-0.3,0.2,0.1,7.8,0.4,12.9
					c0.3,5.1,2,6.9,2.2,8.1S1071.4,229,1072.2,229z"/>
				<path class="st20" d="M1071.3,221.6c0,0-0.6-0.5-0.6-1.4s0.3-3.5,1.1-3.7C1072.6,216.4,1072.3,222.9,1071.3,221.6z"/>
				<path class="st20" d="M1072.2,239.6c0,0-0.5-0.2-0.8,0.7s0.2,4.7,0.7,6.1C1072.6,247.9,1072.6,240.1,1072.2,239.6z"/>
				<path class="st20" d="M1078,234c0,0-0.1,0.2-0.3,0.4c-0.5,0.6-1.3,1.9-1.1,2.6c0.2,0.9,1.2-0.5,1.9,0.7c0.7,1.2,1.6,3.3,0.8,6.9
					c-0.8,3.6-1.6,6.1-1.5,6.8s1.2-3.7,1.3-3.9s1.5-4.4,1-7.1C1079.6,237.3,1078,234,1078,234z"/>
				<path class="st20" d="M1073.5,254.2c0,0-2.3,2.6-2.5,3.7s0.3,1.2,0.3,1.2l-1.1,1.3l1.1,0.5c0,0-0.9-0.6,0.2-1.1s0.8-0.9,0.8-0.9
					s-0.6-1.2-0.4-1.6C1072.1,257,1073.5,255.6,1073.5,254.2z"/>
				<path class="st20" d="M1081.4,256.3l-1.6,1.1c0,0,2.2,1.4,2.7,2.9c0.3,0.5,0.3,1,0.2,1.4c0.6-0.2,1.1-0.5,1-1.1
					C1083.6,259.4,1082.4,258,1081.4,256.3z M1080.1,251.6c0-4.3,2.6-12.7,2.2-16.4c-0.5-3.7-0.7-7-0.7-8.5c0-0.9,1.4-5.8,2.2-10.4
					l0,0c-0.9-3.9-1.2-4.9-1.7-1s-1.8,9.2-2,10.3s0.6,0.6,0.6,1.7s-0.8,4.1-0.8,5.1s1.2,1.4,1.2,4.6c0,3.2-1.2,10-1.9,13.2
					c-0.7,3.3-0.1,5.7,0.5,5.7c0.5,0,1.5,0.2,1.6,0.2C1080.6,254.9,1080.1,253.4,1080.1,251.6z"/>
				<path class="st20" d="M1077.3,259.5c0-0.7-0.7,0.5-0.6,1.6c0.5,0.2,0.9,0.3,1.5,0.4C1077.7,260.8,1077.3,259.9,1077.3,259.5z"/>
				<path class="st20" d="M1076.6,252.3c0,0,1.2,2.9,1.4,3.7c0.2,0.9-0.8-0.5-0.8-0.5S1076.7,254.4,1076.6,252.3z"/>
				<path class="st20" d="M1077.7,230.4c0,0,0.7-0.5,0.8-1.6c0.1-1.1-0.8-1.3-1.2-0.7C1076.9,228.8,1076.6,230.3,1077.7,230.4z"/>
				<path class="st20" d="M1077.9,221.7c0,0,1-2.3,1-4.4c0-2.1-2-3.4-2.1-1.9C1076.7,216.9,1077.1,221.7,1077.9,221.7z"/>
				<path class="st20" d="M1080.6,216.3c0,0,0.7-7.3,0.3-8.7c-0.4-1.3-1.9-1.1-3.3-0.3s-1.2,3.6-1.2,4.1s1.1-2.4,1.6-3.1
					c0.5-0.7,1.1-0.7,1.6-0.6C1080.2,207.8,1079.6,216.3,1080.6,216.3z"/>
				<path class="st20" d="M1077.1,205.6c0,0,1.4-1.3,1.5-1.9c0.1-0.6,0.5-1.5-0.2-2.1s-0.6-1-1.3-0.8
					C1076.4,200.9,1076.5,205.5,1077.1,205.6z"/>
				<path class="st20" d="M1076.8,167.9c0,0-1-2-1.4-1.4s0.6,2.3,0.9,2.1C1076.6,168.5,1076.8,167.9,1076.8,167.9z"/>
				<path class="st17" d="M1079.6,154.2c0,0,0.7-3.7-2.5-4.6c0,0.9,0.1,2.5,0,3.3c-0.2,1.1-1.4,1.8-1.4,2.4c0,0.6,0.3,3,0.3,3
					s1.6,1.1,1.6,1.6s-0.5,1-0.9,1.7c-0.4,0.6,1.6,0.4,2.3,0.4c0.4-0.6,1-1.8,1-2.9c0,0,0.6-1,0.7-2.6
					C1080.8,155,1079.6,154.2,1079.6,154.2z M1078.5,163.7c-0.4,0.5-0.7,0.9-1.1,1c-0.9,0.4,0.7,2.3,1,2.4c0.2,0,0.7-0.3,1.2-0.6
					c-0.3-0.2-0.5-0.3-0.5-0.4C1078.6,165.7,1078.5,164.6,1078.5,163.7z"/>
				<path class="st16" d="M1079,155.1c0,0-2.3-0.5-2,0.3s0.3,0.7,0.9,0.5C1078.4,155.7,1079.1,155.9,1079,155.1z"/>
				<path class="st17" d="M1080.6,191.9c0-0.3-1.2-1.2-1.7-0.6c-0.5,0.6,0,0.5,0,0.5s0.6,0.7-0.6,1.2s-3.4,0.1-4.1-0.1
					s-1.4,0.3-0.8,0.8s3.3,0.3,3,1s-2.9-0.2-2.9-0.2s1.2,1,2.3,1.6c1.1,0.5,2.4-0.1,4.1-0.6c1.3-0.4,3.5,0.5,4.6,0.8
					c0.3-0.4,0.9-0.7,1.5-1.5c-1.5-0.7-4.3-1.6-4.8-2C1080.4,192.3,1080.6,192.1,1080.6,191.9z M1083.4,202.1
					c0.1-1.3-1.3-0.9-1.9,0.3s-2,1.5-1,1.6s0.8-0.9,1.4-0.3c0.6,0.6,0.2,5.8,1,6.1c0.8,0.4,1-1.5,1-1.5s0,0.6,0.5,0.7
					c-0.1-1-0.1-2-0.2-3C1083.7,204.5,1083.4,202.7,1083.4,202.1z M1072.3,230.3c-0.3,0.6-1.4-0.5-1.4-0.5c-0.7,2.2,0.5,2,1.1,1.9
					s0.9-1.6,0.9-1.6S1072.6,229.8,1072.3,230.3z M1080.6,201.1c0.4,0.4,0.2-1.6,1.3-1.6c1.1,0,2.1,0.1,2.1,0.1s0,0,0.1,0
					c0-0.7,0-1.4,0-1.9c-0.6,0-2.9-0.3-3.4-0.5c-0.6-0.4-0.1,1.5-0.1,2C1080.6,199.6,1080.3,200.7,1080.6,201.1z M1084.1,187.7
					c-0.3-0.1,1.4-3.3,1.3-4.9c0,0-1.5,1.1-1.8,2s-2.3,0.6-2.6-0.1c-0.4-0.7,0.2-2.4,0.2-3.2s-1.6,2.7-2.1,2.9
					c-0.5,0.1-2.6-3.9-3.3-3.9s-0.7,0-0.7,0s-0.3,4.3,1,5.1s8.1,4.5,9,4.5s1.7,1.2,0.9,1.2c-0.8,0-7.3-3.7-7.7-3.7s0.4,1,1,1.8
					s1.5,0.9,2.5,1.3c1,0.4,4.5,2.3,5.7,2.4l0,0c0.5-0.7,0.8-1.6,1.1-2.7c-0.6-0.3-1.7-0.4-2.2-0.7
					C1085.7,188.9,1084.4,187.8,1084.1,187.7z M1090,173.4c-0.3,0.1-0.5,0.3-0.5,0.5c-0.1,0.7-0.2,3.9-0.2,3.9s0.6,0.7,0.9,1.4
					C1090.1,177,1090.1,174.9,1090,173.4z M1086,175.1c0,0-2.7,3.3-3.2,3.3c-0.4,0,2.3,0.3,3.1,0.3
					C1086.8,178.7,1086.4,175.1,1086,175.1z M1088.8,179.9c0,0-0.4,4.5-0.5,5.9s-1.3,2.9-1.3,2.9s1.5-1.3,2-2.7
					c0.2-0.5,0.4-0.7,0.5-1c0.2-1.6,0.4-3.2,0.5-4.8C1089.6,180.3,1088.8,179.9,1088.8,179.9z"/>
				<path class="st18" d="M1065.6,190c-0.1-1.7,1.4-3.3,1.4-3.6s-1.6,1.1-2.1,2.7c-0.3,1-1.1,1.6-1.8,1.9c0.3,0.7,0.5,1.3,0.8,1.7
					c0.3-0.4,0.5-0.6,0.9-0.7c0.9-0.2,2.6,0.7,2.9,0.6C1067.9,192.7,1065.6,191.7,1065.6,190z M1073.1,150.1
					c-1.6,1.1-1.6,3.2-1.5,3.8c0.3,0.3,0.5,0.5,0.7,0.4c0.7-0.2-0.3-2.6,0.6-3.9C1073,150.3,1073.1,150.2,1073.1,150.1z
					 M1065.3,170.2c-0.9,0.6-1.7,0.3-2.6,1l2,0.4C1064.6,171.7,1064.9,170.7,1065.3,170.2z M1065.6,169.9c0.5-0.1,4.8-1,4.8-1
					s-1.4-0.3-1.8-0.8C1067.3,168.7,1066.1,169.4,1065.6,169.9z"/>
				<path class="st18" d="M1081.5,171c0,0-4.9,0.9-5.1,1.5c-0.2,0.5,0.7,1.9,1.3,2.1c0.5,0.2,2.2-0.5,3-0.5s0.3,1.4,0.7,1.1
					c0.4-0.3,0.9-2.7,2.3-3.1C1085.2,171.9,1081.5,171,1081.5,171z"/>
				<path class="st18" d="M1070.9,172c0,0,2.4-0.3,2.9,0s0,2.9-0.2,3.2s-0.6-0.7-0.8-0.1c-0.2,0.5,0.1,1.6-0.3,1.6
					C1072,176.7,1070.9,172,1070.9,172z"/>
				<path class="st18" d="M1078.4,171c0,0,1.2-0.8,3.3-0.8c2.1,0,2.7,0.1,2.6,0.5C1084.1,171.1,1081.8,170.3,1078.4,171z"/>
				<path class="st18" d="M1087,182.6c0,0-0.6-0.9-1.6,1.1s0.1,4.8,0.5,4.3C1086.4,187.4,1087.2,183.8,1087,182.6z"/>
				<path class="st18" d="M1085.1,179.7c0,0-0.5,1.2-1,1.8s-0.8,0.6-1,1s0.2,1.5-1,1.7c-1.1,0.3-0.8-3,0-4
					C1083,179.3,1084.6,179.5,1085.1,179.7z"/>
				<path class="st18" d="M1076.7,186.7c0,0,1.5,2,1.5,2.8s-0.2,0.9-0.1,1.1c0.1,0.3,0.6,0.7,0,1.3s-1.2,0.6-1.2,0.2
					s0.8-0.8,0.1-0.9s0.1,0.2-1,0.9s-1.8,0.4-1.5-0.1s0.6-1.2,0.6-1.6c0-0.5,1.7-0.8,1.9-1.1c0.3-0.3-0.8-0.2-0.8-0.2
					s-0.1-1.6-0.3-2c-0.2-0.4-0.5,1.9-0.5,1.9s-0.2,0.8-0.3,0c-0.1-0.8-1.3-1.5-1.4-2.6c-0.1-1.2-0.5-4.7,0-5.5s0.5,3.6,0.9,4.5
					C1075.1,186.3,1076.7,186.7,1076.7,186.7z"/>
			</g>
		</g>
	</g>
</g>
<g>
	<path class="st21" d="M682.4,314.1c-0.3,2.9-0.5,5.7-0.8,8.4c-0.5,6.4-1.1,12.9-1.6,19.3c-0.4,5.7-0.9,11.4-1.1,17.1
		c-0.1,3.1-1.7,5.6-3.1,8.2c-6.6,12-13.2,23.9-19.8,35.9c-2,3.7-7.1,6-11.6,5.4c-4.5-0.6-7.9-2.6-9.3-7.2c-0.7-2.2-0.5-4.4,0.6-6.4
		c3.3-6.1,6.6-12.1,9.9-18.1c2.9-5.3,5.5-10.7,8.7-15.9c2.1-3.3,1.9-6.9,2.3-10.5c0.6-5.4,1-10.7,1.4-16.1c0.5-5.5,1-10.9,1.3-16.4
		c0.5-10.5,2.7-20.6,5.5-30.6c2.5-8.8,4.8-17.6,7.2-26.4c0-0.2,0-0.4,0-0.9c-1,0.7-1.7,1.2-2.5,1.8c-5.9,4.3-11.8,8.5-17.6,12.8
		c-0.9,0.6-1.6,1.7-1.9,2.7c-2.8,8.9-5.6,17.8-8.3,26.7c-1.2,3.9-5,6.1-8.7,5.1c-4.1-1.2-6.2-5.1-4.9-9.2c2.8-9.1,5.6-18.3,8.5-27.4
		c0.6-1.9,1.2-3.7,2-5.6c1.3-3.3,4.3-5,6.9-7.1c4.4-3.5,8.8-6.8,13.2-10.2c5.1-4,10.2-8,15.4-11.8c5.9-4.2,12.6-6.6,19.4-9
		c10.5-3.7,21.1-7.1,31.6-10.9c4.8-1.7,9.2-4.3,13.9-6.1c8.6-3.4,17.3-6.6,26-9.9c3.4-1.3,7.1,0.3,8.3,3.2c1.4,3.2-0.2,7.2-3.4,8.9
		c-11.9,6-23.7,12.1-35.6,18c-7,3.5-14,6.8-21,10.1c-1,0.5-1.4,1.1-1.6,2.1c-3.4,15.7-6.9,31.3-10.3,47c-0.2,0.7-0.3,1.4-0.5,2.2
		c2.6,0.3,5.1,0.6,7.6,0.8c5.1,0.5,10.2,0.9,15.3,1.5c4.4,0.5,8.8,1,13.1,1.9c3.8,0.8,7.5,2.2,9.3,6c1.2,2.4,1.9,5,2.7,7.5
		c2.9,8.8,5.9,17.5,8.8,26.3c1.2,3.6,2.5,7.1,3.4,10.7c1.7,6.6-3.5,13.4-10.2,13.6c-4.7,0.1-9-2.5-10.7-7.6
		c-3.9-11.4-7.7-22.8-11.5-34.2c-0.3-0.8-0.5-1.1-1.4-1.2c-6.6-0.6-13.1-1.4-19.7-2.1c-5.2-0.6-10.4-1.2-15.6-1.7
		C688.8,314.8,685.7,314.5,682.4,314.1z"/>
	<path class="st21" d="M706.7,217.3c0,10.4-8.7,19.1-19,19c-10.8-0.1-19.3-8.7-19.1-19.5c0.1-10.2,8.7-18.6,19.1-18.6
		C698.3,198.3,706.7,206.7,706.7,217.3z"/>
</g>
</svg>
