<?xml version="1.0" encoding="utf-8"?>
<!-- Generator: Adobe Illustrator 21.1.0, SVG Export Plug-In . SVG Version: 6.00 Build 0)  -->
<svg version="1.1" id="Layer_1" xmlns="http://www.w3.org/2000/svg" xmlns:xlink="http://www.w3.org/1999/xlink" x="0px" y="0px"
	 viewBox="0 0 216 216" style="enable-background:new 0 0 216 216;" xml:space="preserve">
<style type="text/css">
	.st0{opacity:0.4;fill:#D1D3D4;enable-background:new    ;}
	.st1{fill:#D89A2E;}
	.st2{fill:#633201;}
</style>
<title>archery</title>
<g>
	<g id="Archery">
		<path id="Shadow" class="st0" d="M201.6,194.9c0,7.3-44.2,13.2-98.8,13.2s-98.8-5.9-98.8-13.2s44.2-13.2,98.8-13.2
			S201.6,187.6,201.6,194.9z"/>
		<path id="String" d="M35.3,99.9l0.2-0.2l67.8-87.3c0.4-0.3,0.9-0.4,1.3-0.2c0.5,0.1,0.7,0.4,0.4,0.7L37.5,99.9l65.3,87.8
			c0.2,0.3,0,0.6-0.5,0.7c-0.5,0.1-1,0-1.3-0.2L35.3,99.9z"/>
		<g id="Arrow">
			<polygon id="Head" class="st1" points="188.7,97.6 202.4,101.5 216,105.4 202.2,108.5 188.3,111.6 195.1,104.8 			"/>
			<polygon id="Spine" class="st1" points="24.3,97 210.1,105.2 24.1,102.7 			"/>
			<path id="Fletching" class="st1" d="M0,107.2L14,99L0.5,90c0,0,5.4-0.6,11.2-0.8s12.4,0,14.6,1.6s3.4,5.3,3.4,8.9
				s-1.3,7.1-3.8,8.4s-9,1.1-14.9,0.6S0,107.2,0,107.2z"/>
		</g>
		<path id="Bow" class="st2" d="M111.2,195.8c0.4-0.2,0.6-0.7,0.4-1.1c-0.1-0.2-0.2-0.3-0.4-0.4l-1.4-0.9c-0.5-0.3-1-0.7-1.5-1.1
			c-0.6-0.5-1.2-1-1.8-1.5c-1.3-1.2-2.2-2.8-2.6-4.6v-0.7v-0.1v-0.2v-0.4c0-0.6,0.1-1.1,0.3-1.7c0.1-0.5,0.3-1.1,0.6-1.6l0.4-0.8
			c0.2-0.3,0.4-0.5,0.6-0.8c0.4-0.5,0.9-1.1,1.3-1.5c0.6-0.5,1.2-1,1.9-1.4c1.6-1,3.2-1.7,5-2.3c3.8-1.4,8.4-2.3,13.3-3.4
			c2.4-0.6,4.9-1.2,7.5-2c2.5-0.7,5-1.6,7.4-2.7c2.3-1.1,4.5-2.4,6.6-4c0.9-0.7,1.8-1.5,2.6-2.4c0.7-0.8,1.4-1.7,2-2.6
			c2.1-3.3,3.4-7.1,3.6-11l0.1-1.4v-3.9c0-1.7-0.1-3.4-0.2-5.1c-0.1-0.8-0.1-1.7-0.2-2.5s-0.2-1.6-0.3-2.4c-0.2-1.6-0.3-3.2-0.5-4.7
			c-0.4-3-0.8-5.8-1.1-8.4s-0.6-5-0.8-7.1s-0.4-3.9-0.4-5.4c0-1.9-0.1-3.3-0.1-4.1s0-2.1,0.1-4c0-1.5,0.2-3.3,0.4-5.4
			s0.5-4.5,0.8-7.1s0.7-5.4,1.1-8.4c0.2-1.5,0.4-3.1,0.5-4.7c0.1-0.8,0.2-1.6,0.3-2.4s0.1-1.7,0.2-2.5c0.1-1.7,0.3-3.4,0.2-5.1v-3.8
			l-0.1-1.4c-0.3-3.9-1.5-7.7-3.6-11c-0.6-0.9-1.3-1.8-2-2.6c-0.8-0.9-1.7-1.7-2.6-2.4c-2-1.6-4.2-2.9-6.6-4c-2.4-1.1-4.9-2-7.4-2.7
			c-2.5-0.8-5-1.4-7.4-1.9c-4.9-1.2-9.5-2.1-13.3-3.5c-1.8-0.6-3.4-1.3-5-2.3c-0.7-0.4-1.3-0.9-1.9-1.4c-0.5-0.5-1-1-1.3-1.5
			c-0.2-0.3-0.4-0.5-0.6-0.8l-0.4-0.8c-0.3-0.5-0.4-1-0.6-1.6c-0.2-0.5-0.2-1.1-0.3-1.7v-0.4v-0.2v-0.1v-0.7
			c0.3-1.8,1.2-3.4,2.6-4.6c0.6-0.5,1.1-1,1.8-1.5c0.5-0.4,1-0.7,1.5-1.1l1.4-0.9c0.4-0.2,0.5-0.7,0.3-1c-0.1-0.1-0.2-0.3-0.3-0.3
			c-0.7-0.4-1.5-0.4-2.2-0.1L107.6,9c-1.4,0.8-2.7,1.8-3.9,2.8c-1.7,1.4-3,3.4-3.6,5.6l-0.1,0.9v0.9c0,0.6,0,1.2,0.2,1.8
			c0.1,0.7,0.3,1.4,0.6,2c0.1,0.3,0.3,0.7,0.4,1s0.4,0.7,0.6,1c1.6,2.8,5.4,5.2,9.7,6.9c4.5,1.6,9.1,3,13.7,4.1
			c2.3,0.6,4.6,1.3,6.8,2c2.1,0.7,4.2,1.5,6.2,2.5c1.8,0.9,3.5,2,5,3.3c0.7,0.6,1.3,1.2,1.9,1.9c0.5,0.7,1,1.4,1.4,2.1
			c1.6,2.9,2.4,6.1,2.3,9.4v1.2l-0.1,1.2c-0.1,0.8-0.1,1.7-0.2,2.5c-0.1,1.7-0.4,3.3-0.6,4.9c-0.1,0.8-0.2,1.6-0.3,2.3l-0.4,2.3
			c-0.3,1.6-0.6,3.1-0.9,4.5c-0.6,3-1.2,5.8-1.8,8.4s-1,5-1.4,7.2s-0.7,4-0.8,5.6c-0.1,1.1-0.2,2-0.3,2.7c-0.2,0.4-0.3,0.8-0.2,1.2
			c0,0,0,0.2,0,0.5s0,0.5,0,0.5c0,0.1,0,0.1,0,0.2c0,0.3,0.1,0.7,0.2,1c0.1,0.8,0.2,1.7,0.3,2.8c0.2,1.6,0.5,3.4,0.8,5.6
			s0.9,4.6,1.4,7.2s1.1,5.4,1.8,8.4c0.3,1.5,0.6,3,0.9,4.5c0.1,0.8,0.3,1.6,0.4,2.3s0.2,1.6,0.3,2.4c0.2,1.6,0.5,3.2,0.6,4.9
			c0.1,0.8,0.1,1.7,0.2,2.5l0.1,1.2v1.2c0.2,4.2-1.2,8.2-3.8,11.5c-0.6,0.7-1.2,1.3-1.9,1.9c-1.5,1.3-3.2,2.4-5,3.3
			c-2,1-4.1,1.9-6.2,2.6c-2.2,0.8-4.5,1.4-6.8,2c-4.6,1.1-9.2,2.5-13.7,4.1c-4.3,1.6-8.1,4.1-9.7,6.9c-0.2,0.3-0.4,0.7-0.6,1l-0.4,1
			c-0.3,0.6-0.4,1.3-0.6,2c-0.1,0.6-0.2,1.2-0.2,1.8v0.9l0.1,0.9c0.5,2.3,1.8,4.4,3.6,5.9c1.2,1.1,2.5,2,3.9,2.8l1.4,0.9
			C109.8,196.3,110.6,196.2,111.2,195.8z"/>
	</g>
</g>
</svg>
