<svg xmlns="http://www.w3.org/2000/svg" viewBox="0 0 216 200.26"><title>archery</title><g style="isolation:isolate"><g id="Archery"><path id="Shadow" d="M201.64,193.64c0,7.3-44.23,13.24-98.79,13.24S4.07,200.94,4.07,193.64s44.23-13.24,98.78-13.24S201.64,186.33,201.64,193.64Z" transform="translate(0 -6.63)" style="fill:#d1d3d4;opacity:0.4;mix-blend-mode:multiply"/><path id="String" d="M35.33,98.63l.2-.21,67.8-87.35a1.55,1.55,0,0,1,1.35-.24c.49.13.67.44.45.69L37.53,98.66l65.26,87.8c.22.27,0,.56-.46.67a1.48,1.48,0,0,1-1.33-.24Z" transform="translate(0 -6.63)"/><g id="Arrow"><polygon id="Head" points="188.73 89.74 202.36 93.64 216 97.51 202.16 100.61 188.32 103.7 195.12 96.9 188.73 89.74" style="fill:#d89a2e"/><polygon id="Spine" points="24.31 89.11 210.09 97.34 24.15 94.86 24.31 89.11" style="fill:#d89a2e"/><path id="Fletching" d="M0,106l14-8.26-13.54-9s5.36-.61,11.25-.82,12.38,0,14.63,1.57,3.39,5.26,3.35,8.88-1.28,7.12-3.83,8.42-9,1.09-14.86.58S0,106,0,106Z" transform="translate(0 -6.63)" style="fill:#d89a2e"/></g><path id="Bow" d="M111.24,194.59a.79.79,0,0,0,0-1.43l-1.39-.89a16.18,16.18,0,0,1-1.48-1.07,18.17,18.17,0,0,1-1.76-1.51,8.12,8.12,0,0,1-2.55-4.59l0-.7v-.11l0-.21,0-.42a7.5,7.5,0,0,1,.28-1.67,6.73,6.73,0,0,1,.56-1.57l.39-.81c.16-.27.37-.52.55-.78a10.59,10.59,0,0,1,1.35-1.51,14.1,14.1,0,0,1,1.87-1.36,22.75,22.75,0,0,1,5-2.28c3.81-1.35,8.45-2.29,13.31-3.45,2.43-.57,4.94-1.19,7.45-2a53,53,0,0,0,7.43-2.74,30.74,30.74,0,0,0,6.55-4,25.84,25.84,0,0,0,2.63-2.41,24.78,24.78,0,0,0,2-2.61,23,23,0,0,0,3.64-11l.11-1.36v-3.89c0-1.67-.12-3.4-.22-5.08-.06-.84-.12-1.67-.17-2.5s-.18-1.61-.26-2.41c-.17-1.59-.33-3.15-.54-4.65-.4-3-.78-5.82-1.12-8.44s-.62-5-.83-7.05-.35-3.9-.4-5.39c0-1.93-.08-3.31-.1-4.05s0-2.12.1-4c0-1.48.25-3.31.4-5.39s.5-4.46.83-7.06.72-5.44,1.12-8.43c.21-1.49.37-3.06.54-4.65.08-.79.17-1.6.26-2.41s.11-1.66.17-2.51c.1-1.68.26-3.42.22-5.07V57.3l-.11-1.36a23,23,0,0,0-3.64-11,24.75,24.75,0,0,0-2-2.61,26.26,26.26,0,0,0-2.63-2.41,30.6,30.6,0,0,0-6.55-4,53,53,0,0,0-7.43-2.74c-2.51-.76-5-1.37-7.45-1.94-4.86-1.16-9.5-2.1-13.31-3.45a23.08,23.08,0,0,1-5-2.28,14.39,14.39,0,0,1-1.87-1.36,10.42,10.42,0,0,1-1.35-1.52c-.18-.26-.39-.51-.55-.78l-.39-.81a6.79,6.79,0,0,1-.56-1.57,7.54,7.54,0,0,1-.28-1.67l0-.42,0-.21V17.1l0-.7a8.13,8.13,0,0,1,2.55-4.59,18.63,18.63,0,0,1,1.76-1.51,14.73,14.73,0,0,1,1.49-1.07l1.38-.89a.78.78,0,0,0,0-1.39,2.27,2.27,0,0,0-2.23-.06l-1.45.85a26.62,26.62,0,0,0-3.91,2.82,10.63,10.63,0,0,0-3.55,5.59l-.13.92V18a8.93,8.93,0,0,0,.15,1.8,9.38,9.38,0,0,0,.55,2c.14.34.27.68.42,1s.4.68.6,1c1.64,2.77,5.42,5.23,9.74,6.85a139.85,139.85,0,0,0,13.72,4.09c2.33.63,4.64,1.28,6.84,2a42.32,42.32,0,0,1,6.2,2.55,22.22,22.22,0,0,1,5,3.3,19.67,19.67,0,0,1,1.91,1.93,18.17,18.17,0,0,1,1.44,2.12,18.57,18.57,0,0,1,2.3,9.37v1.2l-.09,1.22c-.06.85-.13,1.7-.19,2.54-.08,1.71-.36,3.3-.58,4.88-.11.79-.23,1.57-.34,2.35l-.44,2.34c-.29,1.55-.56,3.06-.88,4.54-.62,3-1.22,5.77-1.76,8.37s-1,5-1.4,7.17-.68,4-.84,5.59c-.12,1.08-.2,2-.28,2.74a2.38,2.38,0,0,0-.22,1.24s0,.17,0,.48,0,.48,0,.48a1.53,1.53,0,0,0,0,.18,2.59,2.59,0,0,0,.24,1c.07.75.16,1.66.28,2.76.16,1.57.51,3.44.84,5.59s.87,4.56,1.4,7.17,1.14,5.4,1.76,8.37c.33,1.49.59,3,.88,4.54.15.77.29,1.56.44,2.34s.23,1.57.34,2.35c.22,1.59.5,3.17.58,4.88.06.84.13,1.68.19,2.53l.09,1.22v1.21a17.23,17.23,0,0,1-3.75,11.49,20.45,20.45,0,0,1-1.91,1.93,22.12,22.12,0,0,1-5,3.3,43.16,43.16,0,0,1-6.2,2.56c-2.2.75-4.5,1.41-6.84,2a138.87,138.87,0,0,0-13.72,4.08c-4.32,1.62-8.09,4.07-9.74,6.85-.21.34-.44.67-.6,1l-.42,1a9.46,9.46,0,0,0-.55,2,8.88,8.88,0,0,0-.15,1.8v.91l.13.92A10.61,10.61,0,0,0,103.7,191a26.62,26.62,0,0,0,3.91,2.82l1.45.85A2.29,2.29,0,0,0,111.24,194.59Z" transform="translate(0 -6.63)" style="fill:#633201"/></g></g></svg>