<?xml version="1.0" encoding="utf-8"?>
<!-- Generator: Adobe Illustrator 21.1.0, SVG Export Plug-In . SVG Version: 6.00 Build 0)  -->
<svg version="1.1" id="Layer_2" xmlns="http://www.w3.org/2000/svg" xmlns:xlink="http://www.w3.org/1999/xlink" x="0px" y="0px"
	 viewBox="0 0 216 216" style="enable-background:new 0 0 216 216;" xml:space="preserve">
<style type="text/css">
	.st0{opacity:0.4;fill:#D2D3D4;enable-background:new    ;}
	.st1{fill:#FFFFFF;}
	.st2{fill:#AAD157;}
	.st3{fill:#6ECFF2;}
	.st4{fill:#FDBC61;}
	.st5{fill:#231F20;}
</style>
<title>bouldering5</title>
<path id="Shadow" class="st0" d="M216,196.7c0,8-48.4,14.5-108,14.5S0,204.6,0,196.7c0-8,48.4-14.5,108-14.5S216,188.7,216,196.7z"
	/>
<path class="st1" d="M208.5,49.2l1.9-0.6c-3-11.2-5.6-22.7-9.2-33.7c-1.8-5.6-6.9-8.1-13.1-7.3c-7.8,0.9-11.9,6.4-15.4,12.5
	c-6,10.5-13.5,18.4-26,22.2c-15.7,4.8-23.3,19.3-20.4,34c3.1,15.7,13.2,24.1,28,27.8c14.6,3.6,27.9,1.9,38.4-10
	C204,81.3,208.3,65.9,208.5,49.2z M67,4.8c-2.1,0.3-6.3,0.7-10.4,1.4C9.6,14.3-0.7,50.9,8.9,83c2.2,7.5,6.4,14.5,14.8,16
	c7.9,1.4,10.7-6,14.2-11c10.3-14.6,23.4-25.6,39.5-33.4c5.7-2.8,11.2-6.3,16.2-10.2c7.1-5.5,8.7-12.6,5.7-21
	C94.5,10.3,85.8,4.9,67,4.8L67,4.8z M100.4,194c21.6,0.2,48.1-20.7,52.9-41.6c3.2-14-4.5-22.4-18.5-19.3c-22.4,5-44.9,6-67.1-0.2
	c-13.1-3.6-23.2,3.3-18.8,20.7C53.9,173.8,79.8,193.8,100.4,194z"/>
<path class="st2" d="M208.5,49.2c-0.2,16.7-4.4,32.1-15.7,44.9c-10.5,11.9-23.8,13.7-38.4,10c-14.8-3.7-25-12.2-28-27.8
	c-2.9-14.7,4.7-29.2,20.4-34c12.5-3.8,20-11.7,26-22.2c3.5-6.1,7.6-11.6,15.4-12.5c6.2-0.7,11.2,1.7,13.1,7.3
	c3.6,11.1,6.2,22.5,9.2,33.7L208.5,49.2z M174.6,74.4c-0.1-6.8-4-10.7-9.3-10.6c-5.9,0.1-9,3.6-9.5,9.1c-0.5,5.1,4.8,10.2,9.8,9.6
	C171,81.8,174.5,78.8,174.6,74.4z"/>
<path class="st3" d="M67,4.8c18.7,0.1,27.4,5.4,32.1,18.6c3,8.4,1.4,15.5-5.7,21c-5,3.9-10.5,7.4-16.2,10.2
	C61.2,62.4,48.1,73.4,37.8,88c-3.5,5-6.3,12.4-14.2,11c-8.3-1.5-12.5-8.5-14.8-16C-0.7,50.9,9.6,14.3,56.7,6.2
	C60.8,5.5,64.9,5.1,67,4.8z M51.8,41.1c-1-5.6-4.2-9.2-9.8-9.1c-5.7,0.1-9,3.8-9.4,9.4c-0.4,5.3,4.4,9.5,10.1,9.2
	C48.7,50.4,51,46.5,51.8,41.1z"/>
<path class="st4" d="M100.4,194c-20.7-0.2-46.5-20.2-51.5-40.4c-4.3-17.3,5.8-24.3,18.8-20.7c22.2,6.2,44.6,5.2,67.1,0.2
	c14.1-3.1,21.8,5.3,18.5,19.3C148.5,173.3,122,194.2,100.4,194z M99.7,178c6.2,0,10.6-4.1,10.8-9c0.2-5-4.7-10.1-9.9-9.6
	c-5.5,0.5-9.1,3.6-9.1,9.4C91.6,174.7,95.2,177.5,99.7,178L99.7,178z"/>
<path class="st5" d="M174.6,74.4c-0.1,4.5-3.5,7.5-9,8.1c-5,0.6-10.2-4.5-9.8-9.6c0.5-5.5,3.6-9,9.5-9.1
	C170.6,63.7,174.5,67.6,174.6,74.4z"/>
<path class="st5" d="M51.8,41.1c-0.7,5.4-3,9.3-9.1,9.5c-5.7,0.2-10.5-3.9-10.1-9.2c0.4-5.6,3.7-9.3,9.4-9.4
	C47.6,31.9,50.8,35.5,51.8,41.1z"/>
<path class="st5" d="M99.7,178c-4.5-0.5-8.1-3.3-8.2-9.2c0-5.9,3.6-8.9,9.1-9.4c5.1-0.5,10.1,4.6,9.9,9.6
	C110.3,173.9,105.9,178,99.7,178z"/>
</svg>
