<svg id="Layer_2" data-name="Layer 2" xmlns="http://www.w3.org/2000/svg" viewBox="0 0 1056.11 1008.65"><title>bouldering5</title><path id="Shadow" d="M1068.05,1001.46c0,39-236.43,70.77-528.08,70.77s-528-31.75-528-70.77,236.43-70.77,528-70.77S1068.05,962.38,1068.05,1001.46Z" transform="translate(-11.95 -63.59)" style="fill:#d2d3d4;opacity:0.4000000059604645;isolation:isolate"/><path d="M1031.26,280.55l9.24-2.69c-14.68-55-27.24-110.79-44.94-164.84-9-27.35-33.73-39.49-64-35.86-38,4.55-58,31.43-75.07,61.08-29.56,51.49-66,90.09-127.2,108.63-76.79,23.26-114.05,94.37-99.95,166.25,15,76.56,64.7,117.88,137.13,135.95,71.34,17.8,136.62,9.37,187.93-49C1009.53,437.41,1030.46,362.36,1031.26,280.55Zm-691.49-217C329.39,64.92,309,66.76,289,70.23,58.71,110.13,8.73,288.83,55.35,446c10.87,36.63,31.32,70.66,72.16,78.11,38.59,7,52.15-29.42,69.32-53.72C247.25,399,311.22,345,389.83,307c27.87-13.5,54.52-30.72,79-49.77,34.58-26.92,42.38-61.82,27.81-102.91C473.86,90.11,431.37,63.87,339.77,63.59ZM503,988.46c105.47.77,235-101,258.72-203.26,15.86-68.35-21.76-109.49-90.52-94.19-109.75,24.43-219.56,29.23-327.89-.86-63.85-17.74-113.21,16.2-92.14,101C275.61,889.63,401.9,987.72,503,988.46Z" transform="translate(-11.95 -63.59)" style="fill:#fff"/><path d="M1031.26,280.55c-.81,81.81-21.74,156.87-76.86,219.54-51.31,58.34-116.59,66.77-187.93,49C694,531,644.38,489.67,629.35,413.11c-14.1-71.88,23.15-143,99.95-166.25,61.2-18.54,97.64-57.14,127.2-108.63,17-29.65,37.08-56.53,75.07-61.08,30.26-3.63,55,8.51,64,35.86,17.7,54.06,30.25,109.8,44.94,164.84ZM865.4,403.5c-.37-33.21-19.5-52.17-45.43-51.69-29,.54-43.86,17.37-46.32,44.45-2.25,24.81,23.37,50.07,47.84,47.05C848.08,440,865.11,425.33,865.4,403.5Z" transform="translate(-11.95 -63.59)" style="fill:#aad157"/><path d="M339.77,63.59c91.6.28,134.09,26.52,156.85,90.7,14.57,41.09,6.76,76-27.81,102.91-24.46,19-51.11,36.27-79,49.77-78.61,38.07-142.59,92-193,163.41-17.17,24.31-30.73,60.76-69.32,53.72C86.67,516.65,66.22,482.63,55.35,446,8.73,288.83,58.71,110.13,289,70.23,309,66.76,329.39,64.92,339.77,63.59ZM265.06,240.94c-4.93-27.25-20.53-44.86-48-44.54-27.66.32-43.9,18.67-46,45.85-2,26,21.59,46.33,49.31,45.22C250.2,286.26,261.41,267.44,265.06,240.94Z" transform="translate(-11.95 -63.59)" style="fill:#6ecff2"/><path d="M503,988.46c-101.06-.74-227.35-98.83-251.82-197.3-21.08-84.81,28.28-118.75,92.14-101,108.33,30.09,218.14,25.28,327.89.86,68.75-15.3,106.37,25.84,90.52,94.19C738,887.46,608.43,989.23,503,988.46Zm-3.36-78.2c30.1.1,51.84-20,52.85-44.06,1-24.5-23.16-49.31-48.18-47-27.09,2.48-44.62,17.38-44.53,46.12S477.41,907.66,499.6,910.26Z" transform="translate(-11.95 -63.59)" style="fill:#fdbc61"/><path d="M865.4,403.5c-.3,21.83-17.32,36.54-43.91,39.82-24.47,3-50.08-22.24-47.84-47.05,2.45-27.08,17.36-43.91,46.32-44.45C845.9,351.33,865,370.29,865.4,403.5Z" transform="translate(-11.95 -63.59)" style="fill:#231f20"/><path d="M265.06,240.94c-3.65,26.5-14.86,45.32-44.67,46.52-27.72,1.12-51.3-19.18-49.31-45.22,2.08-27.18,18.32-45.53,46-45.85C244.53,196.08,260.13,213.69,265.06,240.94Z" transform="translate(-11.95 -63.59)" style="fill:#231f20"/><path d="M499.6,910.26c-22.19-2.6-39.77-16.08-39.86-45s17.43-43.64,44.53-46.12c25-2.29,49.22,22.52,48.18,47C551.44,890.26,529.7,910.36,499.6,910.26Z" transform="translate(-11.95 -63.59)" style="fill:#231f20"/></svg>