<svg id="Layer_1" data-name="Layer 1" xmlns="http://www.w3.org/2000/svg" viewBox="0 0 980.27 717.83"><title>boxing</title><path d="M145.79,610.61c24.62,45.36,41,75.17,80.87,77.5h0c56.24,3.11,158.88-30.33,182-52.62a7,7,0,0,1,1.81-2.07A13.08,13.08,0,0,0,413,629c8-27.21,12.18-246.49,0-284.59-8.55-26.44-26.7-42-37.06-49-8.81,29.55-31.1,53.13-66.87,71.28C313.49,382,329,427.62,367.4,453a7,7,0,0,1,1.81,9.59,6.5,6.5,0,0,1-5.7,3.11,7.31,7.31,0,0,1-3.89-1c-40.69-27.21-57.8-73.09-63.5-91.75-16.59,7.26-35.77,13.48-57.54,18.92-109.64,27-140.22-5.18-158.62-24.36-1.3-1.3-2.33-2.59-3.37-3.63a6.78,6.78,0,0,1,9.59-9.59c1.3,1.3,2.33,2.59,3.63,3.89,17.37,18.14,43.54,45.62,145.41,20.48,25.14-6.22,45.36-13.48,61.95-21.25.26-.26.52-.26.78-.52,45.36-21.77,60.91-48,66.09-71.54a13,13,0,0,1,.52-3.11,117.53,117.53,0,0,0,1.56-18.4c0-34.73-11.4-94.86-87.61-104.71A482,482,0,0,0,221,155.47c-68.69,0-165.36,16.59-190.76,105.49-32.66,114,43.54,233.53,84.5,297.81C127.65,576.92,137.24,594.8,145.79,610.61Z" transform="translate(-9.32 -141.08)" style="fill:#ed1c24"/><path d="M634.88,401.44c-7.78,28-19.7,53.13-31.1,77.24C595,497.34,586.67,515,580.71,532.34a3.45,3.45,0,0,1-.78,2.07c-9.07,28-11.66,55.73.52,87.35h0c9.85,25.66,96.94,52.87,169.51,52.87h0c14.77,0,27.73-1,38.36-3.37.26,0,.78-.26,1-.26a88,88,0,0,0,20.74-7c12.18-6,26.18-33.69,42.51-65.83,15.81-30.84,33.44-65.83,56.76-97.71,46.91-64.28,93.31-159.4,46.91-248.56C914,170.25,815.8,161.43,775.62,161.43a268.55,268.55,0,0,0-44.84,3.63c-46.4,8.29-101.08,28.25-99.27,76.72.52,13.74,3.11,25.66,6,38.62C644,309.43,651,342.09,634.88,401.44Z" transform="translate(-9.32 -141.08)" style="fill:#ed1c24"/><path d="M707.72,804c-76.2,0-134.26-31.1-163.55-54.69-4.15,9.07-9.33,22.29-8.81,31.1,7,10.37,78.28,45.88,137.37,59.87,37.06,8.81,50.54,4.67,55.21,1.3,6.22-4.15,15.55-23.33,22.81-41.21a270.3,270.3,0,0,1-43,3.63Z" transform="translate(-9.32 -141.08)" style="fill:#ed1c24"/><path d="M369.73,711.18c-19.7,7-41,9.85-58.06,12.18-10.89,1.56-24.1,3.11-27.73,5.44.26,16.33,9.85,62.72,24.1,66.09a28.16,28.16,0,0,0,3.37.26c31.88,0,148.26-35.77,158.62-51.58,5.18-8,4.15-27.47-2.85-46.65-5.44-15-13.48-26.44-20-28.25a15.17,15.17,0,0,0-3.37-.52c-4.92,0-10.63,3.11-17.11,7.52a.25.25,0,0,0-.26.26c-3.11,2.07-6.48,4.67-9.85,7.26C404.72,692.52,389.69,703.92,369.73,711.18Z" transform="translate(-9.32 -141.08)" style="fill:#60c5ba"/><path d="M591.34,472.72c11.15-23.59,22.81-48.21,30.33-74.91,14.51-52.62,9.59-81.9,3.89-108.86-6-1-18.4-2.33-30.84,3.89-13.74,7-23.85,21-30.33,41.73-18.4,58.32-10.63,136.07,8.55,179.62C578.12,500.46,584.86,486.72,591.34,472.72Z" transform="translate(-9.32 -141.08)" style="fill:#ed1c24"/><path d="M311.41,808.63a37.22,37.22,0,0,1-6.22-.52c-28-6.48-35-72.05-34.73-80.61,0-12.7,15.81-14.77,39.66-17.88,16.33-2.07,36.81-4.92,55.21-11.4,17.88-6.48,31.36-16.85,43.54-25.92,2.07-1.56,3.89-3.11,6-4.41a127.15,127.15,0,0,1-4.41-16.33C373.62,677.74,286,700.81,236.51,701.85c6.22,18.66,20,60.91,24.88,90.2l.26,2.07c3.11,18.4,5.7,33.18,16.59,40.43s31.1,7.78,61.95,1.3c56-11.92,99.79-22.81,114.3-45.62,4.15-6.74,5.7-14.26,4.92-23.07C417.68,787.12,335.78,808.63,311.41,808.63Z" transform="translate(-9.32 -141.08)" style="fill:#ed1c24"/><path d="M546,733.21l.52.52c22.55,20,80.61,56.5,161.22,56.5h0a277.44,277.44,0,0,0,43.8-3.63,22.47,22.47,0,0,0,7-3.63l.26-.26c4.67-3.63,8.55-9.33,10.89-16.59,4.15-11.66,3.63-24.36-1-30.58-3.11-4.41-15-4.41-29.81-4.41-21.51,0-51.06,0-87.35-11.92-42.77-14-68.43-32.66-85.27-45.1-8.29-6-15-10.89-20.22-13-6.74,6.48-13.74,49-9.85,60.65C536.91,724.14,540.28,728,546,733.21Z" transform="translate(-9.32 -141.08)" style="fill:#60c5ba"/><path d="M750,688.37c-56.5,0-142.3-18.14-172.62-48l-4.92,21.25c.78.52,1.3,1,2.07,1.56,17.11,12.44,40.69,29.81,81.64,43,34,11.15,62.21,11.15,82.94,11.15,13,0,23.33,0,31.1,2.85,2.33-8.81,6.22-22.55,10.11-33.69A212.85,212.85,0,0,1,750,688.37Z" transform="translate(-9.32 -141.08)" style="fill:#ed1c24"/><path d="M133.61,617.09c24.88,46.14,43.28,79.57,87.61,84.24,4.92,14.26,20.74,61.95,26.18,93l.26,2.07c3.37,20,6.74,38.88,22.29,49.25,8,5.44,18.66,8.29,32.66,8.29,10.89,0,24.1-1.56,39.66-4.92,61.17-13,105.75-24.36,123.12-51.84,6.74-10.63,8.81-23.33,6.22-37.58,4.67-3.11,8-6,9.85-8.81,9.33-14.26,5.18-40.69-1.3-58.84-3.37-9.33-13-31.88-28.77-36.81a24,24,0,0,0-7.52-1c-6.22,0-11.92,2.07-17.88,5.44a135.79,135.79,0,0,1-4.15-18.92,24.78,24.78,0,0,0,4.41-8c8.81-29.81,13.48-250.12,0-292.63-11.15-34.47-36.29-52.62-46.91-59.1a131.18,131.18,0,0,0,1.3-17.62c0-31.62-9.59-106.53-99.53-118.45-52.36-6.74-226-18.92-263.34,111.45C-16.46,376,61.81,499.16,103.8,565.25,115.72,583.91,125.32,601.54,133.61,617.09ZM454,790c-14.51,22.81-58.32,34-114.3,45.62-30.84,6.48-51.06,6.22-61.95-1.3-10.63-7.26-13.22-21.77-16.59-40.43l-.26-2.07c-5.18-29.29-18.66-71.54-24.88-90.2,49.51-.78,137.11-24.1,173.92-50.28a154.84,154.84,0,0,0,4.41,16.33c-1.81,1.56-3.89,2.85-6,4.41-11.92,9.07-25.66,19.44-43.54,25.92-18.4,6.48-38.62,9.33-55.21,11.4-23.85,3.11-39.66,5.18-39.66,17.88,0,8.55,6.74,74.13,34.73,80.61a23.24,23.24,0,0,0,6.22.52c24.36,0,106-21.51,147.48-41.73C459.67,775.72,458.12,783.49,454,790Zm-27.21-114a.25.25,0,0,0,.26-.26c6.48-4.41,12.18-7.52,17.11-7.52a13.13,13.13,0,0,1,3.37.52c6.48,2.07,14.51,13.48,20,28.25,6.74,18.92,8,38.62,2.85,46.65-10.37,15.55-126.74,51.58-158.62,51.58-1.81,0-2.85-.26-3.37-.26-14.51-3.37-23.85-49.76-24.1-66.09,3.63-2.33,16.85-4.15,27.73-5.44C329,721,350.29,718.43,370,711.18c20-7.26,35-18.66,47.17-28A116.7,116.7,0,0,1,426.75,675.93ZM31.23,260.45C56.63,171.54,153.31,155,222,155a482,482,0,0,1,57.54,3.63c76.2,9.85,87.61,70,87.61,104.71a92.85,92.85,0,0,1-1.56,18.4,6.57,6.57,0,0,0-.52,3.11c-4.92,23.59-20.74,50-66.09,71.54-.26,0-.52.26-.78.52-16.59,7.78-36.81,15-61.95,21.25-101.86,25.14-128-2.33-145.41-20.48a49.77,49.77,0,0,1-3.63-3.89,6.78,6.78,0,1,0-9.59,9.59A46.31,46.31,0,0,1,81,367c18.4,19.18,49,51.58,158.62,24.36,21.77-5.44,41-11.66,57.54-18.92,5.44,18.66,22.55,64.54,63.5,91.75a7.31,7.31,0,0,0,3.89,1,6.5,6.5,0,0,0,5.7-3.11,7,7,0,0,0-1.81-9.59c-38.36-25.66-54.17-71.28-58.32-86.31,35.77-18.14,57.8-42,66.87-71.28,10.37,7,28.51,22.55,37.06,49,12.18,38.1,8,257.38,0,284.59a16.14,16.14,0,0,1-2.59,4.41,7,7,0,0,0-1.81,2.07c-23.07,22.55-125.71,55.73-182,52.62h0c-40.17-2.33-56.24-32.14-80.87-77.5-8.55-15.81-18.14-33.44-30.07-52.1C74.77,494-1.43,374.49,31.23,260.45Z" transform="translate(-9.32 -141.08)" style="fill:#fff"/><path d="M521.62,782.45c.26,3.37,1,12.44,50.28,35.77,34.47,16.33,97.71,41,137.37,40.69,10.89,0,20-1.81,26.18-6.22,13.48-9.33,28.77-48.73,32.92-60.39,6.22-5.18,11.15-12.7,14.26-21.77,5.18-14.51,4.41-30.07-1-40.17,2.07-8.29,8.81-32.66,14-46.4,7.52-1.81,14.77-4.15,21-7.52,16.07-8,29.55-34.73,48.47-71.8,15.55-30.33,32.92-65.06,55.73-95.9C970,441.36,1018.22,341.05,969,245.67,923.36,157.55,818.91,148,776.14,148a274.55,274.55,0,0,0-47.43,3.89C635.14,168.69,617,210.42,618,242.56a178,178,0,0,0,4.41,32.14c-8.55-.78-21-.52-33.69,6-17.11,8.55-29.81,25.4-37.58,50-21.51,68.17-9.59,157.85,15.29,201.65-9.07,29-11.66,59.1.52,92.79l-6.74,28.77a50.4,50.4,0,0,0-11.4-5.44,13.13,13.13,0,0,0-3.37-.52c-2.85,0-7.26,1-11.15,6.74-10.37,14.51-16.07,58.06-11.15,72.31,1,2.85,4.41,7.52,10.11,13.22C528.87,748.76,520.32,768.2,521.62,782.45Zm206.06,59.1c-4.67,3.11-18.14,7.26-55.21-1.3-59.1-14-130.37-49.25-137.37-59.87-.52-8.81,4.67-22.29,8.81-31.1C573.2,772.86,631.25,804,707.46,804h0a264.22,264.22,0,0,0,42.77-3.37C743.22,818.22,733.63,837.4,727.67,841.55ZM731,165.32a273.22,273.22,0,0,1,44.84-3.63c40.17,0,138.41,8.81,180.66,90.46,46.14,89.16,0,184.54-46.91,248.56-23.33,31.88-41.21,66.87-56.76,97.71-16.33,32.14-30.33,59.87-42.51,65.83a84.09,84.09,0,0,1-20.74,7,1.56,1.56,0,0,0-1,.26,206.94,206.94,0,0,1-38.36,3.37h0c-72.57,0-159.92-27.21-169.51-52.87h0c-11.92-31.62-9.33-59.61-.52-87.35a17.86,17.86,0,0,0,.78-2.07c6-17.62,14.26-35.25,23.07-53.65,11.4-24.1,23.33-49.25,31.1-77.24,16.33-59.35,9.07-92,2.85-121-2.85-12.7-5.44-24.88-6-38.62C630,193.57,684.91,173.62,731,165.32Zm49,521.49c-3.63,11.15-7.52,24.88-10.11,33.69-7.78-2.85-18.14-2.85-31.1-2.85-20.74,0-49,0-82.94-11.15-40.69-13.48-64.28-30.58-81.64-43-.78-.52-1.3-1-2.07-1.56l4.92-21.25c30.58,29.55,116.38,48,172.62,48h0C759,688.37,769.4,688.11,780,686.81ZM564.12,334.57c6.48-20.74,16.85-34.73,30.33-41.73A48.26,48.26,0,0,1,625.29,289c5.7,27.21,10.63,56.5-3.89,108.86-7.26,27-18.92,51.32-30.33,74.91-6.48,14-13.22,27.47-18.4,41.21C553.76,470.39,545.72,392.89,564.12,334.57ZM546,661.41c5.44,2.07,11.92,6.74,20.22,13,16.85,12.44,42.51,31.1,85.27,45.1,36,11.92,65.58,11.92,87.35,11.92,14.77,0,26.44,0,29.81,4.41,4.67,6.22,4.92,18.92,1,30.58-2.59,7.26-6.22,12.7-10.89,16.59a.25.25,0,0,0-.26.26,25.73,25.73,0,0,1-7,3.63,277.44,277.44,0,0,1-43.8,3.63h0c-80.61,0-138.41-36.55-161.22-56.5l-.52-.52c-5.7-5.18-9.07-9.07-9.85-10.89C532.24,710.4,539.24,668.15,546,661.41Z" transform="translate(-9.32 -141.08)" style="fill:#fff"/></svg>