<?xml version="1.0" encoding="utf-8"?>
<!-- Generator: Adobe Illustrator 21.1.0, SVG Export Plug-In . SVG Version: 6.00 Build 0)  -->
<svg version="1.1" id="Layer_1" xmlns="http://www.w3.org/2000/svg" xmlns:xlink="http://www.w3.org/1999/xlink" x="0px" y="0px"
	 viewBox="0 0 1080 1080" style="enable-background:new 0 0 1080 1080;" xml:space="preserve">
<style type="text/css">
	.st0{opacity:0.4;fill:#D1D3D4;enable-background:new    ;}
	.st1{fill:#FC544C;}
	.st2{fill:#ED1C24;}
	.st3{fill:#60C5BA;}
	.st4{fill:#FFFFFF;}
</style>
<title>boxing2</title>
<path id="Shadow" class="st0" d="M1080,902.1c0,39.8-241,72.2-538.4,72.2S3.3,941.9,3.3,902.1s241-72.2,538.3-72.2
	S1080,862.3,1080,902.1z"/>
<g>
	<path class="st1" d="M156.6,625c26.7,49.2,44.4,81.4,87.7,84l0,0c60.9,3.4,172.2-32.9,197.2-57c0.5-0.9,1.2-1.6,2-2.2
		c1.2-1.3,2.2-3.1,2.7-4.8c8.7-29.5,13.2-267,0-308.4c-9.3-28.6-29-45.5-40.1-53.1c-9.5,32-33.7,57.6-72.5,77.3
		c4.8,16.6,21.6,66,63.2,93.5c3.3,2.3,4.3,7,2,10.4c-1.3,2.2-3.7,3.4-6.2,3.4c-1.5,0-2.9-0.4-4.2-1.1
		c-44.1-29.5-62.6-79.2-68.8-99.4c-18,7.8-38.8,14.6-62.4,20.5c-118.9,29.2-152-5.6-171.9-26.4c-1.5-1.5-2.6-2.8-3.7-3.9
		c-2.8-2.8-2.8-7.6,0-10.4c2.8-2.8,7.6-2.8,10.4,0l0,0c1.5,1.5,2.6,2.8,3.9,4.2c18.8,19.7,47.2,49.4,157.6,22.1
		c27.3-6.7,49.2-14.6,67.1-23c0.2-0.2,0.6-0.2,0.9-0.6c49.2-23.6,66-52,71.7-77.5c0-1.1,0.2-2.3,0.6-3.4c1.1-6.6,1.7-13.2,1.7-19.9
		c0-37.7-12.3-102.8-94.9-113.5c-20.7-2.6-41.5-3.9-62.4-3.9c-74.5,0-179.3,18-206.8,114.3C-4,369.8,78.6,499.4,122.9,569
		C136.9,588.5,147.3,607.9,156.6,625z"/>
	<path class="st1" d="M686.5,398.4c-8.4,30.3-21.4,57.6-33.7,83.8c-9.5,20.2-18.6,39.4-24.9,58.2c0,0.9-0.4,1.6-0.9,2.2
		c-9.8,30.3-12.6,60.4,0.6,94.6l0,0c10.6,27.8,105,57.3,183.7,57.3l0,0c16,0,30.1-1.1,41.6-3.7c0.2,0,0.9-0.2,1.1-0.2
		c7.8-1.6,15.3-4.2,22.5-7.6c13.2-6.5,28.4-36.6,46.1-71.3c17.1-33.4,36.2-71.3,61.5-105.9c50.9-69.7,101.1-172.8,50.9-269.4
		c-45.7-88.5-152.2-98.1-195.8-98.1c-16.3,0-32.5,1.2-48.5,3.9c-50.3,8.9-109.6,30.6-107.6,83.1c0.6,14.9,3.4,27.8,6.5,41.8
		C696.4,298.6,704,334,686.5,398.4z"/>
	<path class="st2" d="M765.5,834.6c-82.5,0-145.5-33.7-177.2-59.3c-4.5,9.8-10.1,24.2-9.5,33.7c7.6,11.2,84.9,49.8,148.8,64.9
		c40.1,9.5,54.8,5,59.8,1.5c6.7-4.5,16.9-25.3,24.7-44.6C796.7,833.2,781.2,834.6,765.5,834.6L765.5,834.6z"/>
	<path class="st3" d="M399.3,733.9c-21.4,7.6-44.4,10.6-63,13.2c-11.9,1.7-26.2,3.4-30.1,5.9c0.2,17.7,10.6,68,26.2,71.7
		c1.2,0.1,2.4,0.2,3.7,0.2c34.6,0,160.7-38.8,171.9-55.9c5.6-8.7,4.5-29.7-3.1-50.5c-5.9-16.3-14.6-28.6-21.6-30.6
		c-1.2-0.4-2.4-0.5-3.7-0.6c-5.4,0-11.5,3.4-18.6,8.2c-0.1,0-0.2,0.1-0.2,0.2l0,0l0,0c-3.4,2.2-7,5-10.6,7.8
		C437.2,713.8,420.9,726.1,399.3,733.9z"/>
	<path class="st1" d="M639.3,475.6c12.1-25.6,24.7-52.2,32.9-81.2c15.8-57,10.4-88.8,4.2-118c-6.5-1.1-19.9-2.6-33.4,4.2
		c-14.9,7.6-25.8,22.7-32.9,45.2c-19.9,63.2-11.5,147.5,9.3,194.7C625,505.6,632.3,490.7,639.3,475.6z"/>
	<path class="st2" d="M336.1,839.6c-2.2,0-4.5-0.2-6.7-0.6c-30.3-7-37.9-78-37.7-87.3c0-13.8,17.1-16,42.9-19.3
		c17.7-2.2,39.9-5.4,59.8-12.3c19.3-7,34-18.2,47.2-28.1c2.2-1.7,4.2-3.4,6.5-4.8c-2-5.7-3.5-11.7-4.8-17.7
		c-39.9,28.4-134.9,53.3-188.5,54.5c6.7,20.2,21.6,66,26.9,97.7l0.2,2.2c3.4,19.9,6.2,35.9,18,43.8c11.7,7.8,33.7,8.4,67.1,1.5
		c60.6-13,108.1-24.7,123.9-49.4c4.5-7.3,6.2-15.4,5.4-24.9C451.3,816.2,362.5,839.6,336.1,839.6z"/>
	<path class="st3" d="M590.3,757.9l0.6,0.6c24.5,21.6,87.3,61.3,174.7,61.3l0,0c15.9,0,31.8-1.3,47.4-3.9c2.7-0.9,5.3-2.2,7.6-3.9
		l0.2-0.2c5-3.9,9.3-10.1,11.9-18c4.5-12.6,3.9-26.4-1.1-33.1c-3.4-4.8-16.3-4.8-32.3-4.8c-23.4,0-55.3,0-94.6-13
		c-46.3-15.2-74.1-35.3-92.4-48.9c-8.9-6.5-16.3-11.9-21.9-14.1c-7.3,7-14.9,53.1-10.6,65.7C580.4,748,584,752.3,590.3,757.9z"/>
	<path class="st2" d="M811.4,709.2c-61.3,0-154.2-19.7-187.1-52l-5.4,23c0.9,0.6,1.5,1.1,2.2,1.7c18.6,13.5,44.1,32.3,88.4,46.6
		c36.8,12.1,67.4,12.1,89.9,12.1c14.1,0,25.3,0,33.7,3.1c2.6-9.5,6.7-24.5,11-36.6C833.2,708.7,822.2,709.4,811.4,709.2z"/>
	<path class="st4" d="M143.4,632.1c26.9,50,47,86.2,94.9,91.3c5.4,15.4,22.5,67.1,28.4,100.8l0.2,2.2c3.7,21.6,7.3,42.2,24.2,53.3
		c8.7,5.9,20.2,8.9,35.3,8.9c11.9,0,26.2-1.7,42.9-5.4c66.3-14.1,114.6-26.4,133.4-56.1c7.3-11.5,9.5-25.3,6.7-40.7
		c5-3.4,8.7-6.5,10.6-9.5c10.1-15.4,5.6-44.1-1.5-63.7c-3.7-10.1-14.1-34.6-31.2-39.9c-2.7-0.7-5.4-1.1-8.2-1.1
		c-6.7,0-13,2.2-19.3,5.9c-2-6.7-3.5-13.6-4.5-20.5c2.1-2.6,3.8-5.5,4.8-8.7c9.5-32.3,14.6-271.1,0-317.1
		c-12.1-37.3-39.4-57-50.9-64.1c0.9-6.4,1.3-12.7,1.5-19.1c0-34.2-10.4-115.4-107.8-128.4C246.2,112.9,58,99.7,17.5,241
		c-37,129.7,47.7,263.1,93.2,334.8C124,596.1,134.4,615.2,143.4,632.1z M490.5,819.4c-15.8,24.7-63.2,36.8-123.9,49.4
		c-33.4,7-55.3,6.7-67.1-1.5c-11.5-7.8-14.3-23.6-18-43.8l-0.2-2.2c-5.6-31.8-20.2-77.5-26.9-97.7c53.7-0.9,148.6-26.2,188.4-54.5
		c1.2,6,2.9,11.9,4.8,17.7c-2,1.7-4.2,3.1-6.5,4.8c-13,9.8-27.8,21-47.2,28.1c-19.9,7-41.8,10.1-59.8,12.3
		c-25.8,3.4-42.9,5.6-42.9,19.3c0,9.3,7.3,80.3,37.7,87.3c2.2,0.5,4.5,0.7,6.7,0.6c26.4,0,114.8-23.4,159.8-45.2
		C496.7,803.9,495,812.3,490.5,819.4z M461,695.9c0.1,0,0.2-0.1,0.2-0.2l0,0l0,0c7-4.8,13.2-8.2,18.6-8.2c1.2,0,2.4,0.2,3.7,0.6
		c7,2.2,15.8,14.6,21.6,30.6c7.3,20.5,8.7,41.8,3.1,50.5C497,786,370.9,825,336.3,825c-2,0-3.1-0.2-3.7-0.2
		c-15.8-3.7-25.8-53.9-26.2-71.7c3.9-2.6,18.2-4.5,30.1-5.9c18.5-2.7,41.5-5.4,62.8-13.3c21.6-7.8,37.9-20.2,51.1-30.3
		C453.9,700.9,457.5,698.2,461,695.9L461,695.9z M32.5,245.6C60,149.2,164.8,131.2,239.2,131.2c20.8,0.1,41.7,1.3,62.4,3.9
		c82.5,10.6,94.9,75.8,94.9,113.5c0.1,6.7-0.5,13.3-1.7,19.9c-0.5,1.1-0.6,2.2-0.6,3.4c-5.4,25.6-22.5,54.2-71.7,77.5
		c-0.2,0-0.6,0.2-0.9,0.6c-18,8.4-39.9,16.3-67.1,23c-110.4,27.3-138.7-2.6-157.6-22.1c-1.3-1.3-2.7-2.7-3.9-4.2
		c-2.8-2.8-7.6-2.8-10.4,0c-2.8,2.8-2.8,7.6,0,10.4c1.3,1.2,2.6,2.6,3.7,3.9c19.9,20.8,53.1,55.9,171.9,26.4
		c23.6-5.9,44.4-12.6,62.4-20.5c5.9,20.2,24.5,69.9,68.8,99.4c1.2,0.7,2.7,1.1,4.2,1.1c2.6,0,4.9-1.2,6.2-3.4
		c2.3-3.4,1.3-8.1-2-10.4c-41.6-27.8-58.7-77.3-63.2-93.5c38.8-19.7,62.6-45.5,72.5-77.3c11.2,7.6,30.9,24.5,40.1,53.1
		c13.2,41.3,8.7,278.9,0,308.4c-0.7,1.7-1.6,3.3-2.8,4.8c-0.9,0.6-1.5,1.3-2,2.2c-24.9,24.5-136.2,60.4-197.2,57l0,0
		c-43.5-2.6-60.9-34.8-87.7-84c-9.3-17.1-19.7-36.2-32.5-56.5C79.7,498.7-3,369.2,32.5,245.6z"/>
	<path class="st4" d="M563.9,811.2c0.2,3.7,1.1,13.5,54.5,38.8c37.3,17.7,105.9,44.4,148.8,44.1c11.9,0,21.6-2,28.4-6.7
		c14.6-10.1,31.2-52.8,35.7-65.4c6.7-5.6,12.1-13.8,15.4-23.6c5.6-15.8,4.8-32.5-1.1-43.5c2.2-8.9,9.5-35.3,15.2-50.3
		c7.9-1.7,15.5-4.5,22.7-8.2c17.4-8.7,32-37.7,52.6-77.8c16.9-32.9,35.7-70.6,60.4-103.9c53.3-73,105.5-181.7,52.2-285
		C999.2,134,885.9,123.8,839.6,123.8c-17.2-0.1-34.4,1.3-51.4,4.2c-101.4,18.2-121.1,63.5-120,98.3c0.5,11.7,2.1,23.4,4.8,34.8
		c-9.3-0.9-22.7-0.6-36.6,6.5c-18.6,9.3-32.3,27.5-40.7,54.2c-23.4,73.9-10.4,171.1,16.6,218.5c-9.8,31.4-12.6,64.1,0.6,100.5
		l-7.3,31.2c-3.9-2.4-7.9-4.4-12.3-5.9c-1.2-0.4-2.4-0.5-3.7-0.6c-3.1,0-7.8,1.1-12.1,7.3c-11.2,15.8-17.4,63-12.1,78.4
		c1.1,3.1,4.8,8.2,11,14.3C571.7,774.8,562.4,795.8,563.9,811.2z M787.1,875.3c-5,3.4-19.7,7.8-59.8-1.5
		c-64.1-15.2-141.2-53.3-148.8-64.9c-0.6-9.5,5-24.2,9.5-33.7c31.8,25.6,94.6,59.3,177.2,59.3l0,0c15.5,0,31.1-1.2,46.3-3.7
		C804,850,793.6,870.8,787.1,875.3L787.1,875.3z M790.7,142.5c16-2.7,32.3-3.9,48.5-3.9c43.5,0,150,9.5,195.8,98.1
		c50,96.6,0,199.9-50.9,269.4c-25.3,34.6-44.6,72.5-61.5,105.9c-17.7,34.8-32.9,64.9-46.1,71.3c-7.1,3.5-14.7,6-22.5,7.6
		c-0.4,0-0.7,0.1-1.1,0.2c-13.7,2.4-27.6,3.7-41.6,3.7l0,0c-78.6,0-173.3-29.5-183.7-57.3l0,0c-13-34.2-10.1-64.6-0.6-94.6
		c0.4-0.7,0.6-1.5,0.9-2.2c6.5-19.1,15.4-38.1,24.9-58.1c12.3-26.2,25.3-53.3,33.7-83.8c17.7-64.3,9.8-99.7,3.1-131.1
		c-3.1-13.8-5.9-26.9-6.5-41.8C681.3,173.1,740.8,151.5,790.7,142.5z M843.8,707.6c-3.9,12.1-8.2,26.9-11,36.6
		c-8.4-3.1-19.7-3.1-33.7-3.1c-22.5,0-53.1,0-89.9-12.1c-44.1-14.6-69.7-33.1-88.4-46.6c-0.9-0.6-1.5-1.1-2.2-1.7l5.4-23
		c33.1,32,126.1,52,187.1,52l0,0C821,709.2,832.4,709,843.8,707.6z M609.8,325.9c7-22.5,18.2-37.7,32.9-45.2
		c10.4-5,22.1-6.5,33.5-4.2c6.2,29.5,11.5,61.3-4.2,118c-7.8,29.2-20.5,55.6-32.9,81.2c-7,15.2-14.3,29.7-19.9,44.6
		C598.7,473.1,589.9,389.1,609.8,325.9z M590.3,680c5.9,2.2,13,7.3,21.9,14.1c18.2,13.5,46.1,33.7,92.4,48.9c39,13,71,13,94.6,13
		c16,0,28.6,0,32.3,4.8c5,6.7,5.4,20.5,1.1,33.1c-2.8,7.8-6.7,13.8-11.9,18c-0.1,0-0.2,0.1-0.2,0.2l0,0l0,0
		c-2.3,1.7-4.9,3.1-7.6,3.9c-15.7,2.6-31.5,3.9-47.4,3.9l0,0c-87.3,0-150-39.6-174.7-61.3l-0.6-0.6c-6.2-5.6-9.8-9.8-10.6-11.9
		C575.4,733.2,582.9,687.3,590.3,680z"/>
</g>
</svg>
