<?xml version="1.0" encoding="utf-8"?>
<!-- Generator: Adobe Illustrator 21.1.0, SVG Export Plug-In . SVG Version: 6.00 Build 0)  -->
<svg version="1.1" id="Layer_1" xmlns="http://www.w3.org/2000/svg" xmlns:xlink="http://www.w3.org/1999/xlink" x="0px" y="0px"
	 viewBox="0 0 216 216" style="enable-background:new 0 0 216 216;" xml:space="preserve">
<style type="text/css">
	.st0{opacity:0.4;fill:#D1D3D4;enable-background:new    ;}
	.st1{fill:#FC544C;}
	.st2{fill:#ED1C24;}
	.st3{fill:#60C5BA;}
	.st4{fill:#FFFFFF;}
</style>
<title>boxing2</title>
<path id="Shadow" class="st0" d="M216.6,184.8c0,8-48.3,14.5-108,14.5s-108-6.5-108-14.5s48.3-14.5,108-14.5
	S216.6,176.8,216.6,184.8z"/>
<g>
	<path class="st1" d="M31.4,129.2c5.4,9.9,8.9,16.3,17.6,16.9l0,0c12.2,0.7,34.5-6.6,39.6-11.4c0.1-0.2,0.2-0.3,0.4-0.4
		c0.2-0.3,0.4-0.6,0.5-1c1.7-5.9,2.6-53.6,0-61.9c-1.9-5.7-5.8-9.1-8-10.7c-1.9,6.4-6.8,11.6-14.5,15.5c1,3.3,4.3,13.2,12.7,18.8
		c0.7,0.5,0.9,1.4,0.4,2.1c-0.3,0.4-0.7,0.7-1.2,0.7c-0.3,0-0.6-0.1-0.8-0.2c-8.8-5.9-12.6-15.9-13.8-19.9
		c-3.6,1.6-7.8,2.9-12.5,4.1c-23.9,5.9-30.5-1.1-34.5-5.3c-0.3-0.3-0.5-0.6-0.7-0.8c-0.6-0.6-0.6-1.5,0-2.1c0.6-0.6,1.5-0.6,2.1,0
		l0,0c0.3,0.3,0.5,0.6,0.8,0.8c3.8,4,9.5,9.9,31.6,4.4c5.5-1.3,9.9-2.9,13.5-4.6c0,0,0.1,0,0.2-0.1c9.9-4.7,13.2-10.4,14.4-15.5
		c0-0.2,0-0.5,0.1-0.7c0.2-1.3,0.3-2.6,0.3-4c0-7.6-2.5-20.6-19-22.8c-4.2-0.5-8.3-0.8-12.5-0.8c-14.9,0-36,3.6-41.5,22.9
		C-0.8,78,15.8,104,24.6,118C27.5,121.9,29.5,125.8,31.4,129.2z"/>
	<path class="st1" d="M137.7,83.8c-1.7,6.1-4.3,11.6-6.8,16.8c-1.9,4.1-3.7,7.9-5,11.7c0,0.2-0.1,0.3-0.2,0.4
		c-2,6.1-2.5,12.1,0.1,19l0,0c2.1,5.6,21.1,11.5,36.9,11.5l0,0c3.2,0,6-0.2,8.3-0.7c0,0,0.2,0,0.2,0c1.6-0.3,3.1-0.8,4.5-1.5
		c2.6-1.3,5.7-7.3,9.2-14.3c3.4-6.7,7.3-14.3,12.3-21.2c10.2-14,20.3-34.7,10.2-54c-9.2-17.8-30.5-19.7-39.3-19.7
		c-3.3,0-6.5,0.2-9.7,0.8c-10.1,1.8-22,6.1-21.6,16.7c0.1,3,0.7,5.6,1.3,8.4C139.7,63.7,141.2,70.8,137.7,83.8z"/>
	<path class="st2" d="M153.6,171.3c-16.6,0-29.2-6.8-35.5-11.9c-0.9,2-2,4.9-1.9,6.8c1.5,2.2,17,10,29.9,13c8,1.9,11,1,12,0.3
		c1.3-0.9,3.4-5.1,5-8.9C159.8,171,156.7,171.3,153.6,171.3L153.6,171.3z"/>
	<path class="st3" d="M80.1,151.1c-4.3,1.5-8.9,2.1-12.6,2.6c-2.4,0.3-5.3,0.7-6,1.2c0,3.6,2.1,13.6,5.3,14.4c0.2,0,0.5,0,0.7,0
		c6.9,0,32.2-7.8,34.5-11.2c1.1-1.7,0.9-6-0.6-10.1c-1.2-3.3-2.9-5.7-4.3-6.1c-0.2-0.1-0.5-0.1-0.7-0.1c-1.1,0-2.3,0.7-3.7,1.6
		c0,0,0,0,0,0l0,0l0,0c-0.7,0.4-1.4,1-2.1,1.6C87.7,147,84.4,149.5,80.1,151.1z"/>
	<path class="st1" d="M128.2,99.2c2.4-5.1,5-10.5,6.6-16.3c3.2-11.4,2.1-17.8,0.8-23.7c-1.3-0.2-4-0.5-6.7,0.8
		c-3,1.5-5.2,4.6-6.6,9.1c-4,12.7-2.3,29.6,1.9,39.1C125.4,105.3,126.8,102.3,128.2,99.2z"/>
	<path class="st2" d="M67.4,172.3c-0.4,0-0.9,0-1.3-0.1c-6.1-1.4-7.6-15.6-7.6-17.5c0-2.8,3.4-3.2,8.6-3.9c3.6-0.4,8-1.1,12-2.5
		c3.9-1.4,6.8-3.7,9.5-5.6c0.4-0.3,0.8-0.7,1.3-1c-0.4-1.1-0.7-2.3-1-3.6c-8,5.7-27.1,10.7-37.8,10.9c1.3,4.1,4.3,13.2,5.4,19.6
		l0,0.4c0.7,4,1.2,7.2,3.6,8.8c2.3,1.6,6.8,1.7,13.5,0.3c12.2-2.6,21.7-5,24.9-9.9c0.9-1.5,1.2-3.1,1.1-5
		C90.5,167.6,72.7,172.3,67.4,172.3z"/>
	<path class="st3" d="M118.4,155.9l0.1,0.1c4.9,4.3,17.5,12.3,35,12.3l0,0c3.2,0,6.4-0.3,9.5-0.8c0.5-0.2,1.1-0.4,1.5-0.8l0,0
		c1-0.8,1.9-2,2.4-3.6c0.9-2.5,0.8-5.3-0.2-6.6c-0.7-1-3.3-1-6.5-1c-4.7,0-11.1,0-19-2.6c-9.3-3-14.9-7.1-18.5-9.8
		c-1.8-1.3-3.3-2.4-4.4-2.8c-1.5,1.4-3,10.7-2.1,13.2C116.4,153.9,117.1,154.8,118.4,155.9z"/>
	<path class="st2" d="M162.8,146.1c-12.3,0-30.9-4-37.5-10.4l-1.1,4.6c0.2,0.1,0.3,0.2,0.4,0.3c3.7,2.7,8.8,6.5,17.7,9.3
		c7.4,2.4,13.5,2.4,18,2.4c2.8,0,5.1,0,6.8,0.6c0.5-1.9,1.3-4.9,2.2-7.3C167.1,146,164.9,146.2,162.8,146.1z"/>
	<path class="st4" d="M28.8,130.6c5.4,10,9.4,17.3,19,18.3c1.1,3.1,4.5,13.5,5.7,20.2l0,0.4c0.7,4.3,1.5,8.5,4.9,10.7
		c1.7,1.2,4.1,1.8,7.1,1.8c2.4,0,5.3-0.3,8.6-1.1c13.3-2.8,23-5.3,26.8-11.3c1.5-2.3,1.9-5.1,1.3-8.2c1-0.7,1.7-1.3,2.1-1.9
		c2-3.1,1.1-8.8-0.3-12.8c-0.7-2-2.8-6.9-6.3-8c-0.5-0.1-1.1-0.2-1.6-0.2c-1.3,0-2.6,0.4-3.9,1.2c-0.4-1.3-0.7-2.7-0.9-4.1
		c0.4-0.5,0.8-1.1,1-1.7c1.9-6.5,2.9-54.4,0-63.6c-2.4-7.5-7.9-11.4-10.2-12.9c0.2-1.3,0.3-2.5,0.3-3.8c0-6.9-2.1-23.2-21.6-25.8
		c-11.4-1.5-49.1-4.1-57.3,24.2c-7.4,26,9.6,52.8,18.7,67.2C24.9,123.4,27,127.3,28.8,130.6z M98.4,168.2c-3.2,5-12.7,7.4-24.9,9.9
		c-6.7,1.4-11.1,1.3-13.5-0.3c-2.3-1.6-2.9-4.7-3.6-8.8l0-0.4c-1.1-6.4-4.1-15.5-5.4-19.6c10.8-0.2,29.8-5.3,37.8-10.9
		c0.2,1.2,0.6,2.4,1,3.6c-0.4,0.3-0.8,0.6-1.3,1c-2.6,2-5.6,4.2-9.5,5.6c-4,1.4-8.4,2-12,2.5c-5.2,0.7-8.6,1.1-8.6,3.9
		c0,1.9,1.5,16.1,7.6,17.5c0.4,0.1,0.9,0.1,1.3,0.1c5.3,0,23-4.7,32.1-9.1C99.6,165.1,99.3,166.8,98.4,168.2z M92.5,143.4
		C92.5,143.4,92.5,143.4,92.5,143.4L92.5,143.4L92.5,143.4c1.4-1,2.7-1.7,3.8-1.7c0.2,0,0.5,0,0.7,0.1c1.4,0.4,3.2,2.9,4.3,6.1
		c1.5,4.1,1.7,8.4,0.6,10.1c-2.2,3.4-27.5,11.2-34.5,11.2c-0.4,0-0.6,0-0.7,0c-3.2-0.7-5.2-10.8-5.3-14.4c0.8-0.5,3.7-0.9,6-1.2
		c3.7-0.5,8.3-1.1,12.6-2.7c4.3-1.6,7.6-4.1,10.3-6.1C91,144.4,91.8,143.9,92.5,143.4L92.5,143.4z M6.5,53.1
		C12,33.8,33,30.2,48,30.2c4.2,0,8.4,0.3,12.5,0.8c16.6,2.1,19,15.2,19,22.8c0,1.3-0.1,2.7-0.3,4c-0.1,0.2-0.1,0.4-0.1,0.7
		c-1.1,5.1-4.5,10.9-14.4,15.5c0,0-0.1,0-0.2,0.1c-3.6,1.7-8,3.3-13.5,4.6c-22.1,5.5-27.8-0.5-31.6-4.4c-0.3-0.3-0.5-0.5-0.8-0.8
		c-0.6-0.6-1.5-0.6-2.1,0c-0.6,0.6-0.6,1.5,0,2.1c0.3,0.2,0.5,0.5,0.7,0.8c4,4.2,10.7,11.2,34.5,5.3c4.7-1.2,8.9-2.5,12.5-4.1
		c1.2,4.1,4.9,14,13.8,19.9c0.2,0.1,0.5,0.2,0.8,0.2c0.5,0,1-0.2,1.2-0.7c0.5-0.7,0.3-1.6-0.4-2.1C71.4,89.3,68,79.3,67.1,76.1
		c7.8-4,12.6-9.1,14.5-15.5c2.2,1.5,6.2,4.9,8,10.7c2.6,8.3,1.7,56,0,61.9c-0.1,0.3-0.3,0.7-0.6,1c-0.2,0.1-0.3,0.3-0.4,0.4
		c-5,4.9-27.3,12.1-39.6,11.4l0,0c-8.7-0.5-12.2-7-17.6-16.9c-1.9-3.4-4-7.3-6.5-11.3C16,103.9-0.6,77.9,6.5,53.1z"/>
	<path class="st4" d="M113.1,166.6c0,0.7,0.2,2.7,10.9,7.8c7.5,3.6,21.2,8.9,29.9,8.8c2.4,0,4.3-0.4,5.7-1.3
		c2.9-2,6.3-10.6,7.2-13.1c1.3-1.1,2.4-2.8,3.1-4.7c1.1-3.2,1-6.5-0.2-8.7c0.4-1.8,1.9-7.1,3-10.1c1.6-0.3,3.1-0.9,4.6-1.6
		c3.5-1.7,6.4-7.6,10.6-15.6c3.4-6.6,7.2-14.2,12.1-20.8c10.7-14.6,21.2-36.5,10.5-57.2c-9.9-19.2-32.7-21.2-41.9-21.2
		c-3.5,0-6.9,0.3-10.3,0.8c-20.3,3.7-24.3,12.7-24.1,19.7c0.1,2.3,0.4,4.7,1,7c-1.9-0.2-4.6-0.1-7.3,1.3c-3.7,1.9-6.5,5.5-8.2,10.9
		c-4.7,14.8-2.1,34.3,3.3,43.8c-2,6.3-2.5,12.9,0.1,20.2l-1.5,6.3c-0.8-0.5-1.6-0.9-2.5-1.2c-0.2-0.1-0.5-0.1-0.7-0.1
		c-0.6,0-1.6,0.2-2.4,1.5c-2.2,3.2-3.5,12.6-2.4,15.7c0.2,0.6,1,1.6,2.2,2.9C114.7,159.3,112.8,163.5,113.1,166.6z M157.9,179.4
		c-1,0.7-4,1.6-12-0.3c-12.9-3-28.3-10.7-29.9-13c-0.1-1.9,1-4.9,1.9-6.8c6.4,5.1,19,11.9,35.5,11.9l0,0c3.1,0,6.2-0.2,9.3-0.7
		C161.3,174.4,159.2,178.5,157.9,179.4L157.9,179.4z M158.6,32.4c3.2-0.5,6.5-0.8,9.7-0.8c8.7,0,30.1,1.9,39.3,19.7
		c10,19.4,0,40.1-10.2,54c-5.1,6.9-8.9,14.5-12.3,21.2c-3.6,7-6.6,13-9.2,14.3c-1.4,0.7-2.9,1.2-4.5,1.5c-0.1,0-0.1,0-0.2,0
		c-2.7,0.5-5.5,0.7-8.3,0.7l0,0c-15.8,0-34.8-5.9-36.9-11.5l0,0c-2.6-6.9-2-13-0.1-19c0.1-0.1,0.1-0.3,0.2-0.4
		c1.3-3.8,3.1-7.6,5-11.7c2.5-5.3,5.1-10.7,6.8-16.8c3.6-12.9,2-20,0.6-26.3c-0.6-2.8-1.2-5.4-1.3-8.4
		C136.7,38.6,148.6,34.2,158.6,32.4z M169.3,145.8c-0.8,2.4-1.6,5.4-2.2,7.3c-1.7-0.6-4-0.6-6.8-0.6c-4.5,0-10.7,0-18-2.4
		c-8.8-2.9-14-6.6-17.7-9.3c-0.2-0.1-0.3-0.2-0.4-0.3l1.1-4.6c6.6,6.4,25.3,10.4,37.5,10.4l0,0C164.7,146.1,167,146.1,169.3,145.8z
		 M122.3,69.2c1.4-4.5,3.7-7.6,6.6-9.1c2.1-1,4.4-1.3,6.7-0.8c1.2,5.9,2.3,12.3-0.8,23.7c-1.6,5.9-4.1,11.2-6.6,16.3
		c-1.4,3-2.9,6-4,8.9C120.1,98.7,118.3,81.9,122.3,69.2z M118.4,140.3c1.2,0.4,2.6,1.5,4.4,2.8c3.7,2.7,9.2,6.8,18.5,9.8
		c7.8,2.6,14.2,2.6,19,2.6c3.2,0,5.7,0,6.5,1c1,1.3,1.1,4.1,0.2,6.6c-0.6,1.6-1.3,2.8-2.4,3.6c0,0,0,0,0,0l0,0l0,0
		c-0.5,0.3-1,0.6-1.5,0.8c-3.1,0.5-6.3,0.8-9.5,0.8l0,0c-17.5,0-30.1-7.9-35-12.3l-0.1-0.1c-1.2-1.1-2-2-2.1-2.4
		C115.4,150.9,116.9,141.7,118.4,140.3z"/>
</g>
</svg>
