<?xml version="1.0" encoding="utf-8"?>
<!-- Generator: Adobe Illustrator 21.1.0, SVG Export Plug-In . SVG Version: 6.00 Build 0)  -->
<svg version="1.1" id="Layer_1" xmlns="http://www.w3.org/2000/svg" xmlns:xlink="http://www.w3.org/1999/xlink" x="0px" y="0px"
	 viewBox="0 0 216 216" style="enable-background:new 0 0 216 216;" xml:space="preserve">
<style type="text/css">
	.st0{opacity:0.4;fill:#D1D3D4;enable-background:new    ;}
	.st1{fill:#FF4343;}
	.st2{fill:#2D2D2D;}
	.st3{fill:#5B3A00;}
</style>
<title>bojutsu2</title>
<path id="Shadow" class="st0" d="M216,180.1c0,8-48.3,14.5-108,14.5S0,188.1,0,180.1s48.3-14.5,108-14.5S216,172.1,216,180.1z"/>
<circle class="st1" cx="67.1" cy="53" r="31.6"/>
<path class="st2" d="M54.1,108.6c3.1,1,6.3,0.3,9-3.2c0.9-1.1,2.6-1.7,4.1-2.1c6.9-2.1,13.9-4.1,21.8-6.4c0,4,0.2,7.4-0.1,10.8
	c-0.3,3.3,1.1,5.1,4,6.6c5.4,2.7,10.8,5.3,15.8,8.7c2.4,1.6,4.9,4.6,5.3,7.2c2,11.5,3.3,23.1,4.6,34.7c0.7,6.1-2,10-6.8,10.7
	c-5,0.7-8.8-2.6-9.7-8.9c-1.3-8.8-2.5-17.5-3.4-26.3c-0.3-3.2-1.5-5.1-4.3-6.5c-6.9-3.5-13.6-7.6-20.6-11c-1.8-0.9-4.8-0.8-6.6,0.1
	c-6.7,3.2-13,7.2-19.7,10.5c-3.5,1.7-4.8,4.1-5.2,7.7c-0.9,8.6-2.1,17.2-3.3,25.8c-0.8,5.8-4.6,9.2-9.4,8.6c-5.1-0.6-7.9-4.9-7.1-11
	c1.4-11.1,3-22.1,4.3-33.2c0.5-4.3,2.5-7.1,6.3-9.1c5.2-2.6,10.3-5.4,15.3-8.4C50.4,112.9,51.8,110.9,54.1,108.6z"/>
<path class="st2" d="M55.9,92.9c1.6,1.8,3.7,3.4,4.6,5.5s1.3,5.2,0.3,7c-1.5,2.9-4.8,3.2-7.3,1c-5.7-5-11.4-10-16.7-15.4
	c-1.2-1.3-1.7-4.7-0.9-6.2c3.1-6,6.3-12.3,10.7-17.4c5.6-6.6,13.3-7.4,21.1-3.9l-0.2-0.2c6.1,5.2,11.7,5.2,21.2-0.2L108.4,83
	c-7,4.5-13.4,3.7-17.9-4.3c-0.8,0.6-1.3,0.8-1.3,1c-0.8,9.5-0.8,9.5-10.5,12.4c-2,0.6-4.1,1.2-6.1,1.8
	C66.9,95.8,61.1,98.3,55.9,92.9c-5.1-6.1-5.6-12.4-0.3-19c-2.9,3.1-5.4,6.5-7.5,10.1c-0.4,0.7-0.1,2.5,0.5,3.1
	C50.9,89.2,53.5,91,55.9,92.9z"/>
<path class="st2" d="M67.8,63.4c-1.9-4.2-4.7-8.3-5.5-12.7c-1.1-6.6,3.4-12.6,9.5-14.9c6.4-2.3,13.6-0.2,17.6,5.1
	c3.9,5.2,4.1,12.7,0.4,17.9c-3.9,5.6-10.9,8-17.3,5.9c-1.6-0.5-3.3-1.1-4.9-1.6L67.8,63.4z"/>
<path class="st2" d="M105.3,94.1c10.9-5.9,21.1-11.5,31.2-17c1.4-0.8,2.8-2.3,4.1-2.2c2.5,0.2,5.8,0.7,7.1,2.3
	c0.9,1.2-0.1,5.7-1.6,6.6c-9.2,6-18.6,11.5-28.2,16.8c-1.4,0.8-4.3,0.3-5.8-0.6C109.2,98.3,107,95.8,105.3,94.1z"/>
<g id="Staff">
	<path class="st3" d="M148,73.5l28.4-8.3c11-3.2,22.1-6.5,33.2-9.6c1.4-0.4,3.2,0.6,4.8,1l-0.2,2.1c-7.6,2.2-15.2,4.5-22.8,6.7
		c-12.4,3.6-24.8,7.2-37.2,10.9C151.5,77.2,149.1,77.8,148,73.5z"/>
	<path class="st3" d="M127.9,79.4C109,93,85.8,94.5,65,102.7l-1.6-1.2c0.8-1.4,1.4-3.7,2.5-4C86.5,91.3,107.2,85.4,127.9,79.4z"/>
	<path class="st3" d="M50,106.7c-14.8,4.3-29.5,8.7-44.3,12.8c-1.1,0.3-2.7-0.9-4.1-1.5l0.3-1.8c4.2-1.3,8.3-2.6,12.5-3.9
		c9.7-2.8,19.3-5.8,29.1-8.3c2.1-0.5,4.5,0.3,6.8,0.5L50,106.7z"/>
</g>
</svg>
