<svg id="Layer_1" data-name="Layer 1" xmlns="http://www.w3.org/2000/svg" viewBox="0 0 1076.7 863.1"><title>bojutsu2</title><path id="Shadow" d="M1079.94,943.74c0,39.78-241,72.18-538.35,72.18S3.24,983.52,3.24,943.74s241-72.18,538.35-72.18S1079.94,904,1079.94,943.74Z" transform="translate(-3.24 -152.83)" style="fill:#d1d3d4;opacity:0.4000000059604645;isolation:isolate"/><circle cx="334.59" cy="157.39" r="157.39" style="fill:#ff4343"/><path d="M273,587.25c15.43,5,31.61,1.57,44.95-15.76C322.19,566,331,563.2,338.33,561c34.45-10.5,69.08-20.37,108.53-31.89,0,19.74,1.07,36.88-.3,53.82-1.35,16.6,5.42,25.66,19.88,32.82,26.85,13.28,54,26.56,78.74,43.22,11.89,8,24.37,22.73,26.64,36.1,9.75,57.33,16.32,115.22,23,173,3.51,30.42-9.86,49.91-34,53.55-24.73,3.73-43.85-13-48.39-44.22C506,833.77,500,790.07,495.46,746.23c-1.65-15.78-7.36-25.2-21.67-32.47C439.23,696.2,406,675.93,371.14,659c-9-4.34-23.74-3.81-32.88.61-33.29,16.13-64.81,35.91-98,52.16-17.29,8.46-24.09,20.22-26.07,38.51-4.65,43-10.69,85.76-16.53,128.57-3.94,28.89-22.75,45.8-46.7,42.8-25.55-3.21-39.31-24.55-35.34-55,7.19-55.09,14.93-110.11,21.45-165.27,2.53-21.4,12.42-35.53,31.54-45.19,26-13.11,51.59-27,76.49-42C254.35,608.59,261.2,598.87,273,587.25Z" transform="translate(-3.24 -152.83)" style="fill:#2d2d2d"/><path d="M282.12,508.9c7.83,9,18.49,16.92,22.7,27.4s6.31,25.8,1.56,35c-7.4,14.28-23.72,15.71-36.29,4.84-28.55-24.68-56.87-49.79-83.17-76.78-6.11-6.28-8.56-23.26-4.5-31.05,15.66-30.06,31.47-61.1,53.19-86.7C263.34,348.91,301.77,344.64,341,362l-.88-.95c30.25,26.15,58.49,25.82,105.68-1.18L543.59,460c-34.86,22.66-66.74,18.6-89.18-21.58-4.08,3-6.4,3.85-6.5,4.89-4.15,47.56-4.13,47.56-52.4,61.78-10.14,3-20.32,5.85-30.35,9.16-28.52,9.41-57.12,21.58-83.5-4.89-24.93-31-27.44-62.33-1.15-95.3a273.72,273.72,0,0,0-37.2,50.47c-2.13,3.64-.59,12.64,2.58,15.57C257.19,490.55,269.93,499.43,282.12,508.9Z" transform="translate(-3.24 -152.83)" style="fill:#2d2d2d"/><path d="M341,362c-9.44-21-23.59-41.18-27.2-63.12-5.45-33.08,16.82-62.93,47.45-74.19C392.92,213.1,429,223.63,449,250.31c19.4,26,20.26,63.08,2.07,89.16a77.11,77.11,0,0,1-86.47,29.59c-8.18-2.58-16.31-5.32-24.45-8Z" transform="translate(-3.24 -152.83)" style="fill:#2d2d2d"/><path d="M528,515.34c54.53-29.65,105-57.08,155.5-84.57,7-3.79,14-11.55,20.55-11,12.41,1,28.79,3.3,35.16,11.54,4.55,5.88-.71,28.21-8.19,33.09-45.67,29.79-92.87,57.34-140.56,83.86-7.13,4-21.46,1.61-29-3.22C547.81,536.25,536.78,523.42,528,515.34Z" transform="translate(-3.24 -152.83)" style="fill:#2d2d2d"/><g id="Staff"><path d="M741.15,412.54l141.6-41.23c55-16,110-32.5,165.25-47.62,7.06-1.93,16,3.15,24.13,5l-.88,10.44q-56.81,16.66-113.61,33.3c-61.8,18-123.69,35.81-185.39,54.2C758.52,430.71,746.51,434,741.15,412.54Z" transform="translate(-3.24 -152.83)" style="fill:#5b3a00"/><path d="M640.62,441.79C546.34,509.53,430.86,517.19,327.16,558l-7.93-6c4.14-6.9,6.92-18.33,12.62-20C434.57,501.27,537.63,471.66,640.62,441.79Z" transform="translate(-3.24 -152.83)" style="fill:#5b3a00"/><path d="M252.24,577.84c-73.55,21.47-147,43.22-220.79,63.86C25.81,643.28,18,637,11.18,634.36l1.46-9c20.79-6.42,41.52-13.06,62.39-19.2,48.21-14.17,96.31-28.78,144.88-41.57,10.36-2.73,22.56,1.48,33.91,2.5Z" transform="translate(-3.24 -152.83)" style="fill:#5b3a00"/></g></svg>