<?xml version="1.0" encoding="utf-8"?>
<!-- Generator: Adobe Illustrator 21.1.0, SVG Export Plug-In . SVG Version: 6.00 Build 0)  -->
<svg version="1.1" xmlns="http://www.w3.org/2000/svg" xmlns:xlink="http://www.w3.org/1999/xlink" x="0px" y="0px"
	 viewBox="0 0 1378.7 1256.5" style="enable-background:new 0 0 1378.7 1256.5;" xml:space="preserve">
<style type="text/css">
	.st0{display:none;}
	.st1{display:inline;fill:#FFBD61;}
	.st2{display:inline;fill:#E35959;}
	.st3{display:inline;fill:#E6A64E;}
	.st4{display:inline;fill:#A8DFF7;}
	.st5{display:inline;fill:#BCE5F7;}
	.st6{display:inline;fill:#29ABE2;}
	.st7{display:inline;fill:#119BD6;}
	.st8{display:inline;fill:#D15252;}
	.st9{display:inline;fill:#6F92B5;}
	.st10{display:inline;fill:#6788A8;}
	.st11{display:inline;fill:#D4F3FF;}
	.st12{display:inline;fill:#C3EBFA;}
	.st13{fill:#6788A8;}
	.st14{fill:#E6A64E;}
	.st15{fill:#D15252;}
	.st16{fill:#FFBD61;}
	.st17{fill:#474747;}
</style>
<g id="Layer_1" class="st0">
	<title>cooking</title>
	<path class="st1" d="M63.8,61.2h70.1c7.2,0,13,5.8,13,13v258.3c0,7.2-5.8,13-13,13H63.8c-7.2,0-13-5.8-13-13V74.2
		C50.8,67,56.6,61.2,63.8,61.2z"/>
	<path class="st2" d="M108.9,370.7v-25.2h-20v25.2c-9.2,5.5-12.2,17.5-6.6,26.6c5.5,9.2,17.5,12.2,26.6,6.6s12.2-17.5,6.6-26.6
		C113.9,374.6,111.6,372.3,108.9,370.7z"/>
	<path class="st2" d="M108.9,36v25.2h-20V36c-9.2-5.5-12.2-17.5-6.6-26.6s17.5-12.2,26.6-6.6c9.2,5.5,12.2,17.5,6.6,26.6
		C113.9,32.1,111.6,34.4,108.9,36z"/>
	<path class="st3" d="M146.9,333.3V73.5c0-6.7-5.5-12.2-12.2-12.2H98.9v284.2h35.8C141.4,345.5,146.9,340,146.9,333.3z"/>
	<path class="st4" d="M676.4,78.7c0-10.2-8.3-18.6-18.5-18.6c-10.2,0-18.6,8.3-18.6,18.5c0,7.9,4.9,14.9,12.4,17.5v46H664v-46
		C671.4,93.5,676.4,86.5,676.4,78.7z"/>
	<path class="st5" d="M787.2,263.4H528.4v-32.8c0-71.5,57.9-129.4,129.4-129.4c0,0,0,0,0,0l0,0c71.5,0,129.4,57.9,129.4,129.4V263.4
		z"/>
	<path class="st6" d="M813.6,283.2H502c-5.5,0-9.9-4.4-9.9-9.9v0l0,0c0-5.5,4.4-9.9,9.9-9.9l0,0h311.6c5.5,0,9.9,4.4,9.9,9.9v0l0,0
		C823.5,278.8,819.1,283.2,813.6,283.2L813.6,283.2z"/>
	<path class="st7" d="M823.5,273.3L823.5,273.3c0-5.5-4.4-9.9-9.9-9.9l0,0H657.8v19.8h155.8C819.1,283.2,823.5,278.7,823.5,273.3
		C823.5,273.3,823.5,273.3,823.5,273.3z"/>
	<path class="st4" d="M787.2,230.6c0-71.5-57.9-129.4-129.4-129.4l0,0v162.3h129.4V230.6z"/>
	<path class="st4" d="M1259.4,273.9h-56.6c-6.8,0-12.3-5.5-12.3-12.3V75c0-34.6,28-62.7,62.7-62.7l0,0h6.3V273.9z"/>
	<path class="st2" d="M1249.3,376.1h-21.4c-5.6,0-10.1-4.5-10.1-10.1v0v-92.1h41.7V366C1259.4,371.6,1254.8,376.1,1249.3,376.1z"/>
	<path class="st5" d="M1208.6,261.1V81.3c0-31.1,20.8-58.3,50.8-66.5v-2.4l0,0c-38,0-68.9,30.9-68.9,68.9v179.8
		c0,7.1,5.7,12.8,12.8,12.8l0,0h18.1C1214.3,273.9,1208.6,268.2,1208.6,261.1z"/>
	<path class="st8" d="M1259.4,365v-91.1h-20.9v102.2h9.7C1254.4,376.1,1259.4,371.1,1259.4,365C1259.4,365,1259.4,365,1259.4,365z"
		/>
	<rect x="90.5" y="608.6" class="st1" width="16.7" height="156.6"/>
	<path class="st3" d="M41.7,492.5V563c0,31.6,25.6,57.2,57.2,57.2l0,0c31.6,0,57.2-25.6,57.2-57.2v-70.5H41.7z M78.6,583.5
		c0,3.7-3,6.7-6.7,6.7s-6.7-3-6.7-6.7v-71.1c0-3.7,3-6.7,6.7-6.7s6.7,3,6.7,6.7V583.5z M105.6,583.5c0,3.7-3,6.7-6.7,6.7
		s-6.7-3-6.7-6.7v-71.1c0-3.7,3-6.7,6.7-6.7s6.7,3,6.7,6.7V583.5z M132.6,583.5c0,3.7-3,6.7-6.7,6.7c-3.7,0-6.7-3-6.7-6.7v-71.1
		c0-3.7,3-6.7,6.7-6.7c3.7,0,6.7,3,6.7,6.7V583.5z"/>
	<rect x="98.9" y="608.6" class="st3" width="8.3" height="156.6"/>
	<path class="st2" d="M88.5,757.7h20.8c4,0,7.3,3.3,7.3,7.3v94.1c0,4-3.3,7.3-7.3,7.3H88.5c-4,0-7.3-3.3-7.3-7.3v-94.1
		C81.2,760.9,84.5,757.7,88.5,757.7z"/>
	<path class="st8" d="M116.6,860.2v-96.3c0-3.4-2.8-6.2-6.2-6.2c0,0,0,0,0,0H98.9v108.7h11.5C113.8,866.4,116.6,863.6,116.6,860.2
		C116.6,860.2,116.6,860.2,116.6,860.2z"/>
	<path class="st8" d="M1160.5,725.5l-5.4-5.9l-5.4,5.9c-1.6,1.7-38.4,42.4-38.4,77.2c0,32.9,16.4,52.5,43.8,52.5
		s43.8-19.6,43.8-52.5C1198.9,767.9,1162.1,727.3,1160.5,725.5z M1125.9,802.8c0-11.8,5.8-27,16.9-44.1c1.6-2.5,3.3-4.9,4.9-7.2
		v88.3C1129.9,836,1125.9,818.1,1125.9,802.8L1125.9,802.8z M1162.4,839.8v-88.3c1.6,2.2,3.2,4.6,4.9,7.2
		c11.1,17.1,16.9,32.3,16.9,44.1C1184.2,818.1,1180.2,836,1162.4,839.8z"/>
	<path class="st9" d="M1355.7,505.6h-197.1c-33.4,0-61.9,23.9-67.9,56.7l-19,105.7c-3.2,18,8.7,35.3,26.8,38.5
		c1.9,0.4,3.9,0.5,5.9,0.5h251.3c12.7,0,23.1-10.3,23.1-23.1V528.7C1378.8,515.9,1368.4,505.6,1355.7,505.6
		C1355.7,505.6,1355.7,505.6,1355.7,505.6z M1349.7,554.9c0,11.3-9.2,20.5-20.5,20.5l0,0h-142.5c-11.3,0-20.5-9.2-20.5-20.5l0,0l0,0
		c0-11.3,9.2-20.5,20.5-20.5l0,0h142.5C1340.5,534.4,1349.7,543.5,1349.7,554.9L1349.7,554.9z"/>
	<path class="st10" d="M1104.4,707.1h251.3c12.7,0,23.1-10.3,23.1-23.1v-63.9h-298.5l-8.6,47.9c-3.2,18,8.7,35.3,26.8,38.5
		C1100.4,706.9,1102.4,707.1,1104.4,707.1z"/>
	<rect x="1126.8" y="707.1" class="st2" width="56.4" height="29"/>
	<circle class="st1" cx="1122.2" cy="582.9" r="20.5"/>
	<path class="st9" d="M192.9,1145h-13.8v-19.1h13.8c36.1,0,65.4-29.3,65.4-65.4v-4.3h-79.3v-19.1h98.3v23.4
		C277.4,1107.1,239.6,1144.9,192.9,1145z"/>
	<path class="st9" d="M125.5,1204.7H82.8c-45.7,0-82.8-37.1-82.8-82.8V1018h208.4v103.8C208.4,1167.6,171.3,1204.7,125.5,1204.7
		C125.5,1204.7,125.5,1204.7,125.5,1204.7z"/>
	<path class="st10" d="M208.4,1121.8V1018H104.2v186.6h21.3C171.2,1204.7,208.3,1167.6,208.4,1121.8
		C208.4,1121.9,208.4,1121.8,208.4,1121.8z"/>
	<path class="st10" d="M43.6,1201.6h121.2c4,0,7.3,3.3,7.3,7.3v1.2c0,4-3.3,7.3-7.3,7.3H43.6c-4,0-7.3-3.3-7.3-7.3v-1.2
		C36.2,1204.9,39.5,1201.6,43.6,1201.6z"/>
	<circle class="st5" cx="670.5" cy="1117.7" r="138.8"/>
	<path class="st4" d="M809.4,1117.7c0-76.7-62.1-138.8-138.8-138.8h0v277.6C747.2,1256.5,809.4,1194.4,809.4,1117.7
		C809.4,1117.7,809.4,1117.7,809.4,1117.7z"/>
	<circle class="st11" cx="670.5" cy="1117.7" r="71.7"/>
	<path class="st12" d="M742.2,1117.7c0-39.6-32.1-71.7-71.7-71.7l0,0v143.3C710.1,1189.4,742.2,1157.3,742.2,1117.7z"/>
	<path class="st6" d="M591.4,863.6L591.4,863.6c-7.8,0-14-6.3-14-14.1c0-0.1,0-0.3,0-0.4l7.3-240.5h13.4l7.3,240.5
		c0.2,7.8-5.8,14.2-13.6,14.5C591.7,863.6,591.5,863.6,591.4,863.6z"/>
	<path class="st7" d="M605.4,849.1l-7.3-240.5h-6.7v255c7.8,0,14.1-6.3,14.1-14C605.4,849.5,605.4,849.3,605.4,849.1z"/>
	<path class="st5" d="M645.2,572.5c0,38.6-24.1,59.8-53.8,59.8s-53.8-21.2-53.8-59.8s24.1-80.1,53.8-80.1S645.2,533.9,645.2,572.5z"
		/>
	<path class="st4" d="M645.2,572.5c0-38.6-24.1-80.1-53.8-80.1l0,0v139.8l0,0C621.1,632.3,645.2,611.1,645.2,572.5z"/>
	<path class="st6" d="M728.7,863.6L728.7,863.6c-7.8,0-14-6.3-14-14.1c0-0.1,0-0.3,0-0.4l7.3-240.5h13.4l7.3,240.5
		c0.2,7.8-5.8,14.2-13.6,14.5C729.1,863.6,728.9,863.6,728.7,863.6z"/>
	<path class="st7" d="M742.8,849.1l-7.3-240.5h-6.7v255c7.7,0,14-6.2,14-14C742.8,849.5,742.8,849.3,742.8,849.1z"/>
	<path class="st5" d="M756.7,513.9v70.8c0,4.5-3.7,8.2-8.2,8.2l0,0c-4.5,0-8.2-3.7-8.2-8.2v-80.7c0-6.3-5.1-11.5-11.5-11.5l0,0l0,0
		c-6.3,0-11.5,5.1-11.5,11.5l0,0v80.7c0,4.5-3.7,8.2-8.2,8.2l0,0c-4.5,0-8.2-3.7-8.2-8.2v-70.8c0-11.8-9.6-21.4-21.4-21.4
		c0,0,0,0,0,0l0,0V589c0,23.9,19.4,43.3,43.3,43.2c0,0,0,0,0,0h12.1c23.9,0,43.3-19.4,43.3-43.3v-96.5l0,0
		C766.2,492.5,756.7,502.1,756.7,513.9z"/>
	<path class="st4" d="M778.1,589v-96.6c-11.8,0-21.4,9.6-21.4,21.4v70.8c0.2,4.5-3.4,8.4-7.9,8.5s-8.4-3.4-8.5-7.9
		c0-0.2,0-0.4,0-0.6v-80.7c0-6.3-5.1-11.5-11.5-11.5l0,0v139.8h6C758.7,632.3,778,612.9,778.1,589z"/>
	<path class="st8" d="M1278.7,989h-51.8c-30.4,0-55,24.6-55,55v69.9l-10.5-18.3c-6.7-11.6-21.5-15.5-33.1-8.9c0,0,0,0,0,0l0,0
		c-11.6,6.7-15.5,21.5-8.9,33.1c0,0,0,0,0,0l52.4,90.8v17.5c0,10.1,8.2,18.2,18.2,18.2l0,0h125.3c10.1,0,18.2-8.2,18.2-18.2l0,0
		V1044C1333.7,1013.6,1309.1,989,1278.7,989z"/>
	<path class="st2" d="M1333.7,1228.2V1044c0-30.4-24.6-55-55-55l0,0h-24.3v257.4h61C1325.4,1246.5,1333.7,1238.3,1333.7,1228.2
		C1333.7,1228.2,1333.7,1228.2,1333.7,1228.2z"/>
	<path class="st1" d="M1303.7,1120.6h-36.8l26-26c2-2,2-5.3,0-7.3s-5.3-2-7.3,0l-26,26v-36.8c0-2.8-2.3-5.2-5.2-5.1
		c-2.8,0-5.1,2.3-5.1,5.1v36.7l-26-26c-2-2-5.3-2-7.3,0s-2,5.3,0,7.3l26,26h-36.8c-2.8,0-5.2,2.3-5.2,5.1c0,2.8,2.3,5.2,5.1,5.2
		c0,0,0,0,0,0h36.8l-26,26c-2,2-2,5.3,0,7.3s5.3,2,7.3,0l26-26v36.8c0,2.8,2.3,5.2,5.2,5.1c2.8,0,5.1-2.3,5.1-5.1v-36.7l26,26
		c2,2,5.3,2,7.3,0s2-5.3,0-7.3l-26-26h36.8c2.8,0,5.2-2.3,5.1-5.2C1308.8,1123,1306.5,1120.7,1303.7,1120.6L1303.7,1120.6z"/>
</g>
<g id="Layer_2">
	<path class="st13" d="M806,396.6c-16.5,4.1-32.9,10.8-49.6,11.8c-119.5,6.6-239.2,10-358.5,18.9c-44.3,3.3-90.2,13.9-119.5,56.9
		c181.5,80.9,625.2,85.4,791.5,4.9c-40.7-20.7-76.2-38.9-117.1-59.8c12.4-8,22.2-19.6,32.4-20c47.5-1.9,119.9,59.1,118.7,106.5
		c-2.2,84.7-2.9,171.2-20.9,253.3C1052.9,906.2,964,991.4,819.1,997c-110.5,4.3-221.7-0.3-332.2-7c-91.3-5.5-155-60.4-196.7-138.3
		c-62.8-117.4-76-243.6-50-372.8c4.2-21,29.3-46.4,50.2-53.6c55.3-18.9,113.3-37.6,171-40.7c112.5-6.2,225.5-1.8,338.3-1.8
		C801.9,387.3,803.9,392,806,396.6z"/>
	<path class="st14" d="M839.4,515.2c-44.9,3-100.2,6.7-168.3,11.2c32.1-44,67.4-70.2,106.3-66.9c76.4,6.4,97.1-52.1,114-98.2
		c40.8-111.3,123.9-192.3,187.6-287c7.9-11.8,45.2-19.2,54-11.6c13.3,11.6,20.8,39.6,17.2,58.1c-4.1,20.8-21.9,39.6-35.9,57.6
		c-41.4,53.1-81.6,107.4-126.7,157.3c-35.6,39.4-79.5,71.3-116,109.9C857.1,460.9,852.6,485.5,839.4,515.2z"/>
	<path class="st15" d="M259.9,1232.6c-12.9-36.1,7.6-37.2,31.7-37.2c126.5,0.4,253,0.2,379.5,0.2c121.6,0,243.1,0.2,364.7-0.2
		c24.4-0.1,47.3-0.7,35.5,37.1C801.2,1232.6,532.2,1232.6,259.9,1232.6z"/>
	<path class="st16" d="M859.8,1059.4c25.1,38.2,45.4,69.2,69.3,105.5c-179.2,0-351.4,0-531.5,0c25.2-37.6,46.5-69.5,70.1-104.8
		c22.6,32.3,42.1,60.3,66.1,94.7c22.6-31.9,42.8-60.4,66.2-93.4c21.4,29.8,41,57.1,63.6,88.6c22-31,41.5-58.5,63.5-89.5
		c22,32,42.2,61.3,65.3,94.8C815.7,1122.1,836.4,1092.6,859.8,1059.4z"/>
	<path class="st17" d="M351.7,24.2c52.3-3,77,19.4,60.7,68c-19.5,57.7-12,108.2,20.9,165.3c-58.5-53.4-69-96.4-43.7-158.9
		C403.9,63.1,400.1,55.6,351.7,24.2z"/>
	<path class="st17" d="M332.7,301c-29.4-29.3-60-66.4-38.9-124.4c15-41.4-14.4-54.3-49-62.5c47.4-21.3,69.9-0.8,72.4,55.2
		C319.2,214.2,327.5,259,332.7,301z"/>
</g>
</svg>
