<?xml version="1.0" encoding="utf-8"?>
<!-- Generator: Adobe Illustrator 21.1.0, SVG Export Plug-In . SVG Version: 6.00 Build 0)  -->
<svg version="1.1" id="Layer_1" xmlns="http://www.w3.org/2000/svg" xmlns:xlink="http://www.w3.org/1999/xlink" x="0px" y="0px"
	 viewBox="0 0 216 216" style="enable-background:new 0 0 216 216;" xml:space="preserve">
<style type="text/css">
	.st0{display:none;}
	.st1{display:inline;fill:#FFBD61;}
	.st2{display:inline;fill:#E35959;}
	.st3{display:inline;fill:#E6A64E;}
	.st4{display:inline;fill:#A8DFF7;}
	.st5{display:inline;fill:#BCE5F7;}
	.st6{display:inline;fill:#29ABE2;}
	.st7{display:inline;fill:#119BD6;}
	.st8{display:inline;fill:#D15252;}
	.st9{display:inline;fill:#6F92B5;}
	.st10{display:inline;fill:#6788A8;}
	.st11{display:inline;fill:#D4F3FF;}
	.st12{display:inline;fill:#C3EBFA;}
	.st13{fill:#6788A8;}
	.st14{fill:#E6A64E;}
	.st15{fill:#D15252;}
	.st16{fill:#FFBD61;}
	.st17{fill:#474747;}
</style>
<g id="Layer_1_1_" class="st0">
	<title>cooking</title>
	<path class="st1" d="M-517.5-459h70.1c7.2,0,13,5.8,13,13v258.3c0,7.2-5.8,13-13,13h-70.1c-7.2,0-13-5.8-13-13V-446
		C-530.5-453.2-524.7-459-517.5-459z"/>
	<path class="st2" d="M-472.4-149.5v-25.2h-20v25.2c-9.2,5.5-12.2,17.5-6.6,26.6c5.5,9.2,17.5,12.2,26.6,6.6s12.2-17.5,6.6-26.6
		C-467.4-145.6-469.7-148-472.4-149.5z"/>
	<path class="st2" d="M-472.4-484.2v25.2h-20v-25.2c-9.2-5.5-12.2-17.5-6.6-26.6s17.5-12.2,26.6-6.6c9.2,5.5,12.2,17.5,6.6,26.6
		C-467.4-488.1-469.7-485.9-472.4-484.2z"/>
	<path class="st3" d="M-434.4-187v-259.8c0-6.7-5.5-12.2-12.2-12.2h-35.8v284.2h35.8C-439.9-174.8-434.4-180.2-434.4-187z"/>
	<path class="st4" d="M95.1-441.5c0-10.2-8.3-18.6-18.5-18.6S58-451.9,58-441.6c0,7.9,4.9,14.9,12.4,17.5v46h12.3v-46
		C90.1-426.8,95.1-433.8,95.1-441.5z"/>
	<path class="st5" d="M205.9-256.9H-52.9v-32.8C-52.9-361.2,5-419,76.5-419l0,0l0,0c71.5,0,129.4,57.9,129.4,129.4L205.9-256.9
		L205.9-256.9z"/>
	<path class="st6" d="M232.3-237H-79.3c-5.5,0-9.9-4.4-9.9-9.9l0,0l0,0c0-5.5,4.4-9.9,9.9-9.9l0,0h311.6c5.5,0,9.9,4.4,9.9,9.9l0,0
		l0,0C242.2-241.5,237.8-237,232.3-237L232.3-237z"/>
	<path class="st7" d="M242.2-247L242.2-247c0-5.5-4.4-9.9-9.9-9.9l0,0H76.5v19.8h155.8C237.8-237,242.2-241.5,242.2-247L242.2-247z"
		/>
	<path class="st4" d="M205.9-289.6C205.9-361.1,148-419,76.5-419l0,0v162.3h129.4L205.9-289.6L205.9-289.6z"/>
	<path class="st4" d="M678.1-246.4h-56.6c-6.8,0-12.3-5.5-12.3-12.3v-186.6c0-34.6,28-62.7,62.7-62.7l0,0h6.3L678.1-246.4
		L678.1-246.4z"/>
	<path class="st2" d="M668-144.1h-21.4c-5.6,0-10.1-4.5-10.1-10.1l0,0v-92.1h41.7v92.1C678.1-148.6,673.5-144.1,668-144.1z"/>
	<path class="st5" d="M627.3-259.1V-439c0-31.1,20.8-58.3,50.8-66.5v-2.4l0,0c-38,0-68.9,30.9-68.9,68.9v179.8
		c0,7.1,5.7,12.8,12.8,12.8l0,0h18.1C633-246.4,627.3-252,627.3-259.1z"/>
	<path class="st8" d="M678.1-155.2v-91.1h-20.9v102.2h9.7C673.1-144.1,678.1-149.1,678.1-155.2L678.1-155.2z"/>
	<rect x="-490.8" y="88.3" class="st1" width="16.7" height="156.6"/>
	<path class="st3" d="M-539.6-27.8v70.5c0,31.6,25.6,57.2,57.2,57.2l0,0c31.6,0,57.2-25.6,57.2-57.2v-70.5H-539.6z M-502.7,63.2
		c0,3.7-3,6.7-6.7,6.7s-6.7-3-6.7-6.7V-7.8c0-3.7,3-6.7,6.7-6.7s6.7,3,6.7,6.7V63.2z M-475.7,63.2c0,3.7-3,6.7-6.7,6.7
		c-3.7,0-6.7-3-6.7-6.7V-7.8c0-3.7,3-6.7,6.7-6.7c3.7,0,6.7,3,6.7,6.7V63.2z M-448.7,63.2c0,3.7-3,6.7-6.7,6.7c-3.7,0-6.7-3-6.7-6.7
		V-7.8c0-3.7,3-6.7,6.7-6.7c3.7,0,6.7,3,6.7,6.7V63.2z"/>
	<rect x="-482.4" y="88.3" class="st3" width="8.3" height="156.6"/>
	<path class="st2" d="M-492.8,237.5h20.8c4,0,7.3,3.3,7.3,7.3v94.1c0,4-3.3,7.3-7.3,7.3h-20.8c-4,0-7.3-3.3-7.3-7.3v-94.1
		C-500.1,240.7-496.8,237.5-492.8,237.5z"/>
	<path class="st8" d="M-464.7,340v-96.3c0-3.4-2.8-6.2-6.2-6.2l0,0h-11.5v108.7h11.5C-467.5,346.2-464.7,343.3-464.7,340L-464.7,340
		z"/>
	<path class="st8" d="M579.2,205.2l-5.4-5.9l-5.4,5.9c-1.6,1.7-38.4,42.4-38.4,77.2c0,32.9,16.4,52.5,43.8,52.5s43.8-19.6,43.8-52.5
		C617.6,247.7,580.8,207,579.2,205.2z M544.6,282.5c0-11.8,5.8-27,16.9-44.1c1.6-2.5,3.3-4.9,4.9-7.2v88.3
		C548.6,315.8,544.6,297.8,544.6,282.5L544.6,282.5z M581.1,319.5v-88.3c1.6,2.2,3.2,4.6,4.9,7.2c11.1,17.1,16.9,32.3,16.9,44.1
		C602.9,297.8,598.9,315.8,581.1,319.5z"/>
	<path class="st9" d="M774.4-14.6H577.3c-33.4,0-61.9,23.9-67.9,56.7l-19,105.7c-3.2,18,8.7,35.3,26.8,38.5c1.9,0.4,3.9,0.5,5.9,0.5
		h251.3c12.7,0,23.1-10.3,23.1-23.1V8.5C797.5-4.3,787.1-14.6,774.4-14.6L774.4-14.6z M768.4,34.7c0,11.3-9.2,20.5-20.5,20.5l0,0
		H605.4c-11.3,0-20.5-9.2-20.5-20.5l0,0l0,0c0-11.3,9.2-20.5,20.5-20.5l0,0h142.5C759.2,14.2,768.4,23.2,768.4,34.7L768.4,34.7z"/>
	<path class="st10" d="M523.1,186.8h251.3c12.7,0,23.1-10.3,23.1-23.1V99.8H499l-8.6,47.9c-3.2,18,8.7,35.3,26.8,38.5
		C519.1,186.7,521.1,186.8,523.1,186.8z"/>
	<rect x="545.5" y="186.8" class="st2" width="56.4" height="29"/>
	<circle class="st1" cx="540.9" cy="62.7" r="20.5"/>
	<path class="st9" d="M-388.4,624.8h-13.8v-19.1h13.8c36.1,0,65.4-29.3,65.4-65.4v-4.3h-79.3v-19.1h98.3v23.4
		C-303.9,586.8-341.7,624.7-388.4,624.8z"/>
	<path class="st9" d="M-455.8,684.4h-42.7c-45.7,0-82.8-37.1-82.8-82.8V497.8h208.4v103.8C-372.9,647.3-410,684.4-455.8,684.4
		L-455.8,684.4z"/>
	<path class="st10" d="M-372.9,601.6V497.8h-104.2v186.6h21.3C-410.1,684.4-373,647.3-372.9,601.6
		C-372.9,601.7-372.9,601.6-372.9,601.6z"/>
	<path class="st10" d="M-537.7,681.3h121.2c4,0,7.3,3.3,7.3,7.3v1.2c0,4-3.3,7.3-7.3,7.3h-121.2c-4,0-7.3-3.3-7.3-7.3v-1.2
		C-545.1,684.7-541.8,681.3-537.7,681.3z"/>
	<circle class="st5" cx="89.2" cy="597.4" r="138.8"/>
	<path class="st4" d="M228.1,597.4c0-76.7-62.1-138.8-138.8-138.8l0,0v277.6C165.9,736.2,228.1,674.2,228.1,597.4L228.1,597.4z"/>
	<circle class="st11" cx="89.2" cy="597.4" r="71.7"/>
	<path class="st12" d="M160.9,597.4c0-39.6-32.1-71.7-71.7-71.7l0,0v143.3C128.8,669.2,160.9,637.1,160.9,597.4z"/>
	<path class="st6" d="M10.1,343.3L10.1,343.3c-7.8,0-14-6.3-14-14.1c0-0.1,0-0.3,0-0.4L3.4,88.3h13.4l7.3,240.5
		c0.2,7.8-5.8,14.2-13.6,14.5C10.4,343.3,10.2,343.3,10.1,343.3z"/>
	<path class="st7" d="M24.1,328.8L16.8,88.3h-6.7v255c7.8,0,14.1-6.3,14.1-14C24.1,329.2,24.1,329,24.1,328.8z"/>
	<path class="st5" d="M63.9,52.2c0,38.6-24.1,59.8-53.8,59.8s-53.8-21.2-53.8-59.8s24.1-80.1,53.8-80.1S63.9,13.7,63.9,52.2z"/>
	<path class="st4" d="M63.9,52.2c0-38.6-24.1-80.1-53.8-80.1l0,0V112l0,0C39.8,112,63.9,90.8,63.9,52.2z"/>
	<path class="st6" d="M147.4,343.3L147.4,343.3c-7.8,0-14-6.3-14-14.1c0-0.1,0-0.3,0-0.4l7.3-240.5h13.4l7.3,240.5
		c0.2,7.8-5.8,14.2-13.6,14.5C147.8,343.3,147.6,343.3,147.4,343.3z"/>
	<path class="st7" d="M161.5,328.8l-7.3-240.5h-6.7v255c7.7,0,14-6.2,14-14C161.5,329.2,161.5,329,161.5,328.8z"/>
	<path class="st5" d="M175.4-6.3v70.8c0,4.5-3.7,8.2-8.2,8.2l0,0c-4.5,0-8.2-3.7-8.2-8.2v-80.7c0-6.3-5.1-11.5-11.5-11.5l0,0l0,0
		c-6.3,0-11.5,5.1-11.5,11.5l0,0v80.7c0,4.5-3.7,8.2-8.2,8.2l0,0c-4.5,0-8.2-3.7-8.2-8.2V-6.3c0-11.8-9.6-21.4-21.4-21.4l0,0l0,0
		v96.5c0,23.9,19.4,43.3,43.3,43.2l0,0h12.1c23.9,0,43.3-19.4,43.3-43.3v-96.5l0,0C184.9-27.8,175.4-18.1,175.4-6.3z"/>
	<path class="st4" d="M196.8,68.8v-96.6c-11.8,0-21.4,9.6-21.4,21.4v70.8c0.2,4.5-3.4,8.4-7.9,8.5s-8.4-3.4-8.5-7.9
		c0-0.2,0-0.4,0-0.6v-80.7c0-6.3-5.1-11.5-11.5-11.5l0,0v139.8h6C177.4,112,196.7,92.7,196.8,68.8z"/>
	<path class="st8" d="M697.4,468.8h-51.8c-30.4,0-55,24.6-55,55v69.9l-10.5-18.3c-6.7-11.6-21.5-15.5-33.1-8.9l0,0l0,0
		c-11.6,6.7-15.5,21.5-8.9,33.1l0,0l52.4,90.8v17.5c0,10.1,8.2,18.2,18.2,18.2l0,0H734c10.1,0,18.2-8.2,18.2-18.2l0,0V523.8
		C752.4,493.3,727.8,468.8,697.4,468.8z"/>
	<path class="st2" d="M752.4,707.9V523.8c0-30.4-24.6-55-55-55l0,0h-24.3v257.4h61C744.1,726.2,752.4,718.1,752.4,707.9L752.4,707.9
		z"/>
	<path class="st1" d="M722.4,600.3h-36.8l26-26c2-2,2-5.3,0-7.3s-5.3-2-7.3,0l-26,26v-36.8c0-2.8-2.3-5.2-5.2-5.1
		c-2.8,0-5.1,2.3-5.1,5.1v36.7l-26-26c-2-2-5.3-2-7.3,0s-2,5.3,0,7.3l26,26h-36.8c-2.8,0-5.2,2.3-5.2,5.1c0,2.8,2.3,5.2,5.1,5.2l0,0
		h36.8l-26,26c-2,2-2,5.3,0,7.3s5.3,2,7.3,0l26-26v36.8c0,2.8,2.3,5.2,5.2,5.1c2.8,0,5.1-2.3,5.1-5.1v-36.7l26,26c2,2,5.3,2,7.3,0
		s2-5.3,0-7.3l-26-26h36.8c2.8,0,5.2-2.3,5.1-5.2C727.5,602.8,725.2,600.4,722.4,600.3L722.4,600.3z"/>
</g>
<g id="Layer_2">
	<path class="st13" d="M128.9,66.6c-2.9,0.7-5.9,1.9-8.9,2.1c-21.4,1.2-42.7,1.8-64.1,3.4c-7.9,0.6-16.1,2.5-21.4,10.2
		C67,96.7,146.3,97.5,176,83.1c-7.3-3.7-13.6-7-20.9-10.7c2.2-1.4,4-3.5,5.8-3.6c8.5-0.3,21.4,10.6,21.2,19
		c-0.4,15.1-0.5,30.6-3.7,45.3c-5.4,24.5-21.3,39.7-47.2,40.7c-19.7,0.8-39.6-0.1-59.4-1.3c-16.3-1-27.7-10.8-35.2-24.7
		c-11.2-21-13.6-43.5-8.9-66.6c0.8-3.8,5.2-8.3,9-9.6c9.9-3.4,20.2-6.7,30.6-7.3c20.1-1.1,40.3-0.3,60.5-0.3
		C128.1,65,128.5,65.8,128.9,66.6z"/>
	<path class="st14" d="M134.8,87.8c-8,0.5-17.9,1.2-30.1,2c5.7-7.9,12-12.5,19-12c13.7,1.1,17.4-9.3,20.4-17.5
		c7.3-19.9,22.1-34.4,33.5-51.3c1.4-2.1,8.1-3.4,9.7-2.1c2.4,2.1,3.7,7.1,3.1,10.4c-0.7,3.7-3.9,7.1-6.4,10.3
		c-7.4,9.5-14.6,19.2-22.6,28.1c-6.4,7-14.2,12.7-20.7,19.6C138,78.1,137.2,82.5,134.8,87.8z"/>
	<path class="st15" d="M31.3,216c-2.3-6.5,1.4-6.6,5.7-6.6c22.6,0.1,45.2,0,67.8,0c21.7,0,43.4,0,65.2,0c4.4,0,8.5-0.1,6.3,6.6
		C128,216,79.9,216,31.3,216z"/>
	<path class="st16" d="M138.5,185.1c4.5,6.8,8.1,12.4,12.4,18.9c-32,0-62.8,0-95,0c4.5-6.7,8.3-12.4,12.5-18.7
		c4,5.8,7.5,10.8,11.8,16.9c4-5.7,7.6-10.8,11.8-16.7c3.8,5.3,7.3,10.2,11.4,15.8c3.9-5.5,7.4-10.5,11.3-16
		c3.9,5.7,7.5,11,11.7,16.9C130.6,196.3,134.3,191,138.5,185.1z"/>
	<path class="st17" d="M47.7,0.1C57-0.5,61.4,3.5,58.5,12.2c-3.5,10.3-2.1,19.3,3.7,29.5c-10.5-9.5-12.3-17.2-7.8-28.4
		C57,7,56.3,5.7,47.7,0.1z"/>
	<path class="st17" d="M44.3,49.5c-5.3-5.2-10.7-11.9-7-22.2c2.7-7.4-2.6-9.7-8.8-11.2C37,12.3,41.1,16,41.5,26
		C41.9,34,43.3,42,44.3,49.5z"/>
</g>
</svg>
