<svg id="Layer_1" data-name="Layer 1" xmlns="http://www.w3.org/2000/svg" viewBox="0 0 1378.73 1256.53"><title>cooking</title><rect x="50.83" y="61.22" width="96.09" height="284.27" rx="12.98" ry="12.98" style="fill:#ffbd61"/><path d="M119.52,442.41V417.23h-20v25.18a19.42,19.42,0,1,0,20,0Z" transform="translate(-10.63 -71.73)" style="fill:#e35959"/><path d="M119.52,107.77V133h-20V107.77a19.42,19.42,0,1,1,20,0Z" transform="translate(-10.63 -71.73)" style="fill:#e35959"/><path d="M157.55,405V145.19A12.24,12.24,0,0,0,145.32,133H109.51V417.23h35.81A12.24,12.24,0,0,0,157.55,405Z" transform="translate(-10.63 -71.73)" style="fill:#e6a64e"/><path d="M687,150.41a18.55,18.55,0,1,0-24.73,17.47v46h12.37v-46A18.54,18.54,0,0,0,687,150.41Z" transform="translate(-10.63 -71.73)" style="fill:#a8dff7"/><path d="M797.88,335.13H539V302.3A129.43,129.43,0,0,1,668.45,172.87h0A129.43,129.43,0,0,1,797.88,302.3Z" transform="translate(-10.63 -71.73)" style="fill:#bce5f7"/><path d="M824.26,354.92H512.64a9.89,9.89,0,0,1-9.89-9.89h0a9.89,9.89,0,0,1,9.89-9.89H824.26a9.89,9.89,0,0,1,9.89,9.89h0A9.89,9.89,0,0,1,824.26,354.92Z" transform="translate(-10.63 -71.73)" style="fill:#29abe2"/><path d="M834.15,345h0a9.89,9.89,0,0,0-9.89-9.89H668.45v19.79H824.26A9.89,9.89,0,0,0,834.15,345Z" transform="translate(-10.63 -71.73)" style="fill:#119bd6"/><path d="M797.88,302.3A129.43,129.43,0,0,0,668.45,172.87h0V335.13H797.88Z" transform="translate(-10.63 -71.73)" style="fill:#a8dff7"/><path d="M1270,345.63h-56.58a12.33,12.33,0,0,1-12.33-12.33V146.76a62.65,62.65,0,0,1,62.65-62.65H1270Z" transform="translate(-10.63 -71.73)" style="fill:#a8dff7"/><path d="M1259.89,447.84h-21.44a10.14,10.14,0,0,1-10.14-10.14V345.63H1270V437.7A10.14,10.14,0,0,1,1259.89,447.84Z" transform="translate(-10.63 -71.73)" style="fill:#e35959"/><path d="M1219.25,332.84V153A68.93,68.93,0,0,1,1270,86.53V84.1h0A68.92,68.92,0,0,0,1201.12,153V332.84a12.79,12.79,0,0,0,12.79,12.79H1232A12.79,12.79,0,0,1,1219.25,332.84Z" transform="translate(-10.63 -71.73)" style="fill:#bce5f7"/><path d="M1270,436.69V345.63h-20.86V447.84h9.7A11.15,11.15,0,0,0,1270,436.69Z" transform="translate(-10.63 -71.73)" style="fill:#d15252"/><rect x="90.54" y="608.63" width="16.67" height="156.59" style="fill:#ffbd61"/><path d="M52.34,564.19v70.53a57.17,57.17,0,0,0,57.17,57.17h0a57.17,57.17,0,0,0,57.17-57.17V564.19Zm36.88,91a6.73,6.73,0,1,1-13.47,0V584.08a6.73,6.73,0,1,1,13.47,0Zm27,0a6.73,6.73,0,1,1-13.47,0V584.08a6.73,6.73,0,1,1,13.47,0Zm27,0a6.73,6.73,0,1,1-13.47,0V584.08a6.73,6.73,0,1,1,13.47,0Z" transform="translate(-10.63 -71.73)" style="fill:#e6a64e"/><rect x="98.87" y="608.63" width="8.33" height="156.59" style="fill:#e6a64e"/><rect x="81.19" y="757.66" width="35.36" height="108.71" rx="7.29" ry="7.29" style="fill:#e35959"/><path d="M127.19,931.91V835.59a6.19,6.19,0,0,0-6.19-6.19H109.51V938.11H121A6.19,6.19,0,0,0,127.19,931.91Z" transform="translate(-10.63 -71.73)" style="fill:#d15252"/><path d="M1171.11,797.26l-5.41-5.91-5.41,5.91c-1.57,1.71-38.39,42.37-38.39,77.24,0,32.86,16.38,52.47,43.81,52.47s43.81-19.61,43.81-52.47C1209.51,839.62,1172.68,799,1171.11,797.26Zm-34.55,77.24c0-11.79,5.85-27,16.93-44.12,1.64-2.53,3.28-4.92,4.87-7.15v88.32C1140.57,907.75,1136.57,889.82,1136.57,874.5ZM1173,911.56V823.23c1.59,2.23,3.24,4.62,4.87,7.15,11.07,17.07,16.93,32.33,16.93,44.12C1194.84,889.82,1190.83,907.75,1173,911.56Z" transform="translate(-10.63 -71.73)" style="fill:#d15252"/><path d="M1366.29,577.34h-197.1a69,69,0,0,0-67.86,56.74l-19,105.69A33.18,33.18,0,0,0,1115,778.83h251.32a23.07,23.07,0,0,0,23.07-23.07V600.41A23.07,23.07,0,0,0,1366.29,577.34Zm-5.92,49.28a20.54,20.54,0,0,1-20.54,20.54H1197.37a20.54,20.54,0,0,1-20.54-20.54h0a20.54,20.54,0,0,1,20.54-20.54h142.46a20.54,20.54,0,0,1,20.54,20.54Z" transform="translate(-10.63 -71.73)" style="fill:#6f92b5"/><path d="M1115,778.83h251.32a23.07,23.07,0,0,0,23.07-23.07V691.89H1090.93l-8.61,47.88A33.18,33.18,0,0,0,1115,778.83Z" transform="translate(-10.63 -71.73)" style="fill:#6788a8"/><rect x="1126.85" y="707.09" width="56.43" height="29.03" style="fill:#e35959"/><circle cx="1122.16" cy="582.88" r="20.5" style="fill:#ffbd61"/><path d="M203.55,1216.69H189.71v-19.07h13.84A65.52,65.52,0,0,0,269,1132.18v-4.3H189.71v-19.07h98.35v23.37A84.61,84.61,0,0,1,203.55,1216.69Z" transform="translate(-10.63 -71.73)" style="fill:#6f92b5"/><path d="M136.12,1276.38H93.47a82.83,82.83,0,0,1-82.83-82.83V1089.74H219v103.81A82.83,82.83,0,0,1,136.12,1276.38Z" transform="translate(-10.63 -71.73)" style="fill:#6f92b5"/><path d="M219,1193.55V1089.74H114.79v186.64h21.33A82.83,82.83,0,0,0,219,1193.55Z" transform="translate(-10.63 -71.73)" style="fill:#6788a8"/><rect x="36.22" y="1201.57" width="135.87" height="15.86" rx="7.33" ry="7.33" style="fill:#6788a8"/><circle cx="670.55" cy="1117.72" r="138.81" style="fill:#bce5f7"/><path d="M820,1189.45a138.81,138.81,0,0,0-138.81-138.81v277.63A138.81,138.81,0,0,0,820,1189.45Z" transform="translate(-10.63 -71.73)" style="fill:#a8dff7"/><circle cx="670.55" cy="1117.72" r="71.67" style="fill:#d4f3ff"/><path d="M752.85,1189.45a71.67,71.67,0,0,0-71.67-71.67v143.33A71.67,71.67,0,0,0,752.85,1189.45Z" transform="translate(-10.63 -71.73)" style="fill:#c3ebfa"/><path d="M602,935.36h0a14.05,14.05,0,0,1-14-14.49l7.35-240.5h13.38l7.35,240.5A14.05,14.05,0,0,1,602,935.36Z" transform="translate(-10.63 -71.73)" style="fill:#29abe2"/><path d="M616.07,920.87l-7.35-240.5H602v255A14.05,14.05,0,0,0,616.07,920.87Z" transform="translate(-10.63 -71.73)" style="fill:#119bd6"/><path d="M655.86,644.25c0,38.62-24.1,59.79-53.83,59.79s-53.83-21.17-53.83-59.79,24.1-80.06,53.83-80.06S655.86,605.63,655.86,644.25Z" transform="translate(-10.63 -71.73)" style="fill:#bce5f7"/><path d="M655.86,644.25c0-38.62-24.1-80.06-53.83-80.06h0V704h0C631.76,704,655.86,682.87,655.86,644.25Z" transform="translate(-10.63 -71.73)" style="fill:#a8dff7"/><path d="M739.37,935.36h0a14.05,14.05,0,0,1-14-14.49l7.35-240.5h13.38l7.35,240.5A14.05,14.05,0,0,1,739.37,935.36Z" transform="translate(-10.63 -71.73)" style="fill:#29abe2"/><path d="M753.42,920.87l-7.35-240.5h-6.69v255A14,14,0,0,0,753.42,920.87Z" transform="translate(-10.63 -71.73)" style="fill:#119bd6"/><path d="M767.28,585.62v70.76a8.23,8.23,0,0,1-8.23,8.23h0a8.23,8.23,0,0,1-8.23-8.23V575.64a11.45,11.45,0,0,0-11.45-11.45h0a11.45,11.45,0,0,0-11.45,11.45v80.74a8.23,8.23,0,0,1-8.23,8.23h0a8.23,8.23,0,0,1-8.23-8.23V585.62A21.43,21.43,0,0,0,690,564.19h0v96.57A43.28,43.28,0,0,0,733.32,704h12.1a43.28,43.28,0,0,0,43.28-43.28V564.19h0A21.43,21.43,0,0,0,767.28,585.62Z" transform="translate(-10.63 -71.73)" style="fill:#bce5f7"/><path d="M788.7,660.76V564.19a21.43,21.43,0,0,0-21.43,21.43v70.76a8.23,8.23,0,1,1-16.45,0V575.64a11.45,11.45,0,0,0-11.45-11.45V704h6.05A43.28,43.28,0,0,0,788.7,660.76Z" transform="translate(-10.63 -71.73)" style="fill:#a8dff7"/><path d="M1289.35,1060.74H1237.5a55,55,0,0,0-55,55v69.88L1172,1167.34a24.2,24.2,0,0,0-33.06-8.86h0a24.2,24.2,0,0,0-8.86,33.06l52.45,90.85v17.51a18.25,18.25,0,0,0,18.25,18.25h125.32a18.25,18.25,0,0,0,18.25-18.25V1115.73A55,55,0,0,0,1289.35,1060.74Z" transform="translate(-10.63 -71.73)" style="fill:#d15252"/><path d="M1344.34,1299.91V1115.73a55,55,0,0,0-55-55H1265v257.43h61A18.25,18.25,0,0,0,1344.34,1299.91Z" transform="translate(-10.63 -71.73)" style="fill:#e35959"/><path d="M1314.28,1192.35H1277.5l26-26a5.16,5.16,0,1,0-7.3-7.3l-26,26v-36.78a5.16,5.16,0,0,0-10.32,0V1185l-26-26a5.16,5.16,0,1,0-7.3,7.3l26,26H1215.8a5.16,5.16,0,1,0,0,10.32h36.78l-26,26a5.16,5.16,0,1,0,7.3,7.3l26-26v36.78a5.16,5.16,0,0,0,10.32,0V1210l26,26a5.16,5.16,0,1,0,7.3-7.3l-26-26h36.78a5.16,5.16,0,0,0,0-10.32Z" transform="translate(-10.63 -71.73)" style="fill:#ffbd61"/></svg>