<svg id="Layer_1" data-name="Layer 1" xmlns="http://www.w3.org/2000/svg" viewBox="0 0 2400 2243.11"><title>hike</title><polygon points="789.75 1913.57 1560.84 577.99 2331.94 1913.57 789.75 1913.57" style="fill:#2f736a"/><polygon points="1560.84 1913.57 1560.84 577.99 2331.94 1913.57 1560.84 1913.57" style="fill:#367f76"/><path d="M1396.32,1091.7a43.61,43.61,0,0,0,9.1-1,52.73,52.73,0,0,0,95.29,23.77,78.75,78.75,0,0,0,120.26,0,52.73,52.73,0,0,0,95.29-23.77,43.43,43.43,0,0,0,41.92-14L1560.84,734.88,1363.5,1076.7A43.32,43.32,0,0,0,1396.32,1091.7Z" transform="translate(0 -156.89)" style="fill:#dcddde"/><path d="M1560.84,734.88V1142.4a78.6,78.6,0,0,0,60.13-27.9,52.73,52.73,0,0,0,95.29-23.77,43.43,43.43,0,0,0,41.92-14Z" transform="translate(0 -156.89)" style="fill:#e6e7e8"/><polygon points="398.05 1913.57 1077.14 737.36 1756.22 1913.57 398.05 1913.57" style="fill:#2f736a"/><polygon points="1077.14 1913.57 1077.14 737.36 1756.22 1913.57 1077.14 1913.57" style="fill:#367f76"/><path d="M932.24,1208.49a38.38,38.38,0,0,0,8-.85,46.44,46.44,0,0,0,83.92,20.93,69.35,69.35,0,0,0,105.91,0,46.44,46.44,0,0,0,83.92-20.93,38.23,38.23,0,0,0,36.92-12.36l-173.8-301-173.8,301A38.15,38.15,0,0,0,932.24,1208.49Z" transform="translate(0 -156.89)" style="fill:#dcddde"/><path d="M1077.14,894.25v358.89a69.23,69.23,0,0,0,53-24.57,46.44,46.44,0,0,0,83.92-20.93,38.23,38.23,0,0,0,36.92-12.36Z" transform="translate(0 -156.89)" style="fill:#e6e7e8"/><polygon points="62.99 1913.57 638.47 916.81 1213.95 1913.57 62.99 1913.57" style="fill:#2f736a"/><polygon points="638.47 1913.57 638.47 916.81 1213.95 1913.57 638.47 1913.57" style="fill:#367f76"/><path d="M515.68,1340a32.49,32.49,0,0,0,6.79-.72A39.36,39.36,0,0,0,593.59,1357a58.77,58.77,0,0,0,89.75,0,39.36,39.36,0,0,0,71.12-17.74,32.4,32.4,0,0,0,31.29-10.48L638.47,1073.7,491.18,1328.8A32.33,32.33,0,0,0,515.68,1340Z" transform="translate(0 -156.89)" style="fill:#dcddde"/><path d="M638.47,1073.7v304.14A58.66,58.66,0,0,0,683.34,1357a39.36,39.36,0,0,0,71.12-17.74,32.4,32.4,0,0,0,31.29-10.48Z" transform="translate(0 -156.89)" style="fill:#e6e7e8"/><path d="M2330.47,2189.23c-147.2,147.2-579.16,147.2-726.36,0-50.55-50.55,46.1-277.13,96.65-327.68,82.77-82.77,450.29-82.77,533.06,0C2284.37,1912.1,2381,2138.68,2330.47,2189.23Z" transform="translate(0 -156.89)" style="fill:#99cb4f"/><path d="M2007,1800.34a911.12,911.12,0,0,0-92.4.66l-249.89,432.82c22.21,12.33,47,22.93,73.66,31.79Z" transform="translate(0 -156.89)" style="fill:#8dc63f"/><path d="M1700.76,1861.55c-8.22,8.22-17.66,21.1-27.48,37.11l-12.23,21.18c-45.7,83.76-92.37,220.07-60.83,264.72l214.24-371.08C1763.82,1823.81,1722.48,1839.83,1700.76,1861.55Z" transform="translate(0 -156.89)" style="fill:#8dc63f"/><path d="M2327.24,2047.22l-124.88,216.31c52-18,96.61-42.78,128.12-74.3C2353.09,2166.62,2346.23,2108.77,2327.24,2047.22Z" transform="translate(0 -156.89)" style="fill:#8dc63f"/><path d="M2289.62,1951.45c-15.55-32.65-32.09-61-46.35-79.1l-246.39,426.76a808,808,0,0,0,97.31-9.18Z" transform="translate(0 -156.89)" style="fill:#8dc63f"/><path d="M2175.63,1828.56c-23.29-8.33-50.78-14.87-80.69-19.62l-275.6,477.36a775,775,0,0,0,85.64,11Z" transform="translate(0 -156.89)" style="fill:#8dc63f"/><path d="M1689.91,2197c-184.15,184.15-724.53,184.15-908.68,0C718,2133.73,838.9,1850.28,902.14,1787c103.55-103.54,563.32-103.54,666.86,0C1632.24,1850.28,1753.15,2133.73,1689.91,2197Z" transform="translate(0 -156.89)" style="fill:#99cb4f"/><path d="M1215.52,1709.56c-32.38.57-64.53,2.51-95.37,5.82L822.36,2231.16a432.15,432.15,0,0,0,69.47,39Z" transform="translate(0 -156.89)" style="fill:#8dc63f"/><path d="M902.14,1787c-56,56-157.17,284.56-135.76,380.14l250.59-434C966.21,1745.94,925.28,1763.9,902.14,1787Z" transform="translate(0 -156.89)" style="fill:#8dc63f"/><path d="M1393.84,1721c-27.56-4.33-56.73-7.45-86.61-9.36L968.36,2298.59a797.27,797.27,0,0,0,80.73,19.54Z" transform="translate(0 -156.89)" style="fill:#8dc63f"/><path d="M1707.69,2138.33c.2-33.87-8.6-76.56-22.34-120.69l-157.56,272.91c49.81-17.08,94.21-39.08,130.12-66Z" transform="translate(0 -156.89)" style="fill:#8dc63f"/><path d="M1648.5,1920.54c-14-31.31-29-60.39-43.38-84.23L1319,2331.79a967.46,967.46,0,0,0,99.52-13Z" transform="translate(0 -156.89)" style="fill:#8dc63f"/><path d="M1549.64,1771.46c-19.1-12.69-44.17-23.44-73.4-32.23L1135,2330.29c29.44,2.83,59.34,4.41,89.29,4.72Z" transform="translate(0 -156.89)" style="fill:#8dc63f"/><path d="M888,2193.34c-168.46,168.46-662.8,168.46-831.25,0-57.85-57.85,52.75-317.15,110.61-375,94.72-94.72,515.32-94.72,610,0C835.28,1876.18,945.89,2135.48,888,2193.34Z" transform="translate(0 -156.89)" style="fill:#8dc63f"/><path d="M383.48,1751.14,105.74,2232.2a431.78,431.78,0,0,0,71.11,36.21L477.7,1747.3C446,1747.15,414.14,1748.42,383.48,1751.14Zm520.66,379.43-54.68,94.71A281.52,281.52,0,0,0,888,2193.34C900.71,2180.67,905.3,2158.33,904.13,2130.58ZM167.39,1818.33C114.32,1871.4,16.86,2094,45.8,2175.08l235.7-408.25C230.88,1778.64,189.92,1795.8,167.39,1818.33Zm400.66-66.57-313,542.07a793.43,793.43,0,0,0,82.58,16.33l315.05-545.69A755.29,755.29,0,0,0,568.05,1751.76Zm209.38,66.57c-11.14-11.14-26.78-21-45.87-29.48L425.74,2318.56c30.57,1.47,61.4,1.49,92,.06L794.56,1839.1A170.35,170.35,0,0,0,777.43,1818.33Zm63.31,101.73L616.31,2308.78a749.12,749.12,0,0,0,105.95-24.14l156.51-271.08A848.56,848.56,0,0,0,840.74,1920.06Z" transform="translate(0 -156.89)" style="fill:#99cb4f"/><path d="M2400,2308V1984.63c-60,0-60,43-120,43s-60-43-120-43-60,43-120,43-60-43-120-43-60,43-120,43-60-43-120-43-60,43-120,43-60-43-120-43-60,43-120,43-60-43-120-43-60,43-120,43-60-43-120-43-60,43-120,43-60-43-120-43-60,43-120,43-60-43-120-43-60,43-120,43-60-43-120-43-60,43-120,43-60-43-120-43V2308Z" transform="translate(0 -156.89)" style="fill:#8ed8f8"/><path d="M2400,2400V2076.66c-60,0-60,43-120,43s-60-43-120-43-60,43-120,43-60-43-120-43-60,43-120,43-60-43-120-43-60,43-120,43-60-43-120-43-60,43-120,43-60-43-120-43-60,43-120,43-60-43-120-43-60,43-120,43-60-43-120-43-60,43-120,43-60-43-120-43-60,43-120,43-60-43-120-43-60,43-120,43-60-43-120-43V2400Z" transform="translate(0 -156.89)" style="fill:#abe1fa"/><path d="M2400,2400V2176.66c-60,0-60,43-120,43s-60-43-120-43-60,43-120,43-60-43-120-43-60,43-120,43-60-43-120-43-60,43-120,43-60-43-120-43-60,43-120,43-60-43-120-43-60,43-120,43-60-43-120-43-60,43-120,43-60-43-120-43-60,43-120,43-60-43-120-43-60,43-120,43-60-43-120-43-60,43-120,43-60-43-120-43V2400Z" transform="translate(0 -156.89)" style="fill:#8ed8f8"/><path d="M2400,2400V2276.66c-60,0-60,43-120,43s-60-43-120-43-60,43-120,43-60-43-120-43-60,43-120,43-60-43-120-43-60,43-120,43-60-43-120-43-60,43-120,43-60-43-120-43-60,43-120,43-60-43-120-43-60,43-120,43-60-43-120-43-60,43-120,43-60-43-120-43-60,43-120,43-60-43-120-43-60,43-120,43-60-43-120-43V2400Z" transform="translate(0 -156.89)" style="fill:#abe1fa"/><path d="M505.83,528.25a104.77,104.77,0,0,0-40.74,8.19,95,95,0,0,0-177.24,47.67c0,.7,0,1.4,0,2.09a77.17,77.17,0,0,0,17.83,152.25H505.83a105.1,105.1,0,1,0,0-210.2Z" transform="translate(0 -156.89)" style="fill:#bfbfbf"/><path d="M2003.49,204.74a128,128,0,0,0-49.77,10A116.1,116.1,0,0,0,1737.18,273c0,.85,0,1.71,0,2.56a94.28,94.28,0,0,0,21.78,186h244.5a128.4,128.4,0,0,0,0-256.81Z" transform="translate(0 -156.89)" style="fill:#bfbfbf"/><path d="M252.39,1810.94c0,6.63-12.06,12-26.94,12s-26.94-5.37-26.94-12l8.78-101.53c0-6.63,3.28-12,18.16-12s17.18,5.37,17.18,12Z" transform="translate(0 -156.89)" style="fill:#977348"/><path d="M225.45,1642c-4.69,0-80.08,46.19-80.08,85.2,0,11.63,8.88,21.07,19.83,21.07a18.92,18.92,0,0,0,11.13-3.63c2.77,8.1,10.05,13.89,18.63,13.89a19.09,19.09,0,0,0,13.06-5.23,19.3,19.3,0,0,0,34.86,0,19.09,19.09,0,0,0,13.05,5.23c8.58,0,15.86-5.8,18.63-13.89a18.92,18.92,0,0,0,11.13,3.63c11,0,19.84-9.44,19.84-21.07C305.53,1688.16,230.46,1642,225.45,1642Z" transform="translate(0 -156.89)" style="fill:#39b54a"/><path d="M225.45,1609.38c-9.88,0-62.31,34.54-62.31,66.71,0,11.63,8.88,21.07,19.84,21.07a19,19,0,0,0,11.59-4,19.57,19.57,0,0,0,16.72,9.77,19.22,19.22,0,0,0,14.16-6.33,19.22,19.22,0,0,0,14.16,6.33,19.56,19.56,0,0,0,16.72-9.77,19,19,0,0,0,11.59,4c11,0,19.83-9.43,19.83-21.07C287.76,1643.92,235.34,1609.38,225.45,1609.38Z" transform="translate(0 -156.89)" style="fill:#6dc067"/><path d="M224.63,1571.57c-7.09,0-46.39,30.94-46.39,52.84,0,11.63,8.88,21.07,19.84,21.07a18.84,18.84,0,0,0,10.22-3,20.43,20.43,0,0,0,33.21-.74,19,19,0,0,0,11.32,3.78c11,0,19.84-9.44,19.84-21.07C272.66,1602.51,230.85,1571.57,224.63,1571.57Z" transform="translate(0 -156.89)" style="fill:#39b54a"/><path d="M984.17,1838.17c0,6.63-12.06,12-26.94,12s-26.94-5.37-26.94-12l8.78-101.53c0-6.63,3.28-12,18.16-12s17.18,5.37,17.18,12Z" transform="translate(0 -156.89)" style="fill:#977348"/><path d="M957.23,1669.2c-4.69,0-80.08,46.19-80.08,85.2,0,11.63,8.88,21.07,19.83,21.07a18.92,18.92,0,0,0,11.13-3.63c2.77,8.1,10.05,13.89,18.63,13.89a19.09,19.09,0,0,0,13.06-5.23,19.3,19.3,0,0,0,34.86,0,19.09,19.09,0,0,0,13.05,5.23c8.58,0,15.86-5.8,18.63-13.89a18.92,18.92,0,0,0,11.13,3.63c11,0,19.84-9.44,19.84-21.07C1037.31,1715.39,962.23,1669.2,957.23,1669.2Z" transform="translate(0 -156.89)" style="fill:#39b54a"/><path d="M957.23,1636.6c-9.88,0-62.31,34.54-62.31,66.71,0,11.63,8.88,21.07,19.83,21.07a19,19,0,0,0,11.59-4,19.57,19.57,0,0,0,16.72,9.77,19.22,19.22,0,0,0,14.16-6.33,19.22,19.22,0,0,0,14.16,6.33,19.56,19.56,0,0,0,16.72-9.77,19,19,0,0,0,11.59,4c11,0,19.83-9.43,19.83-21.07C1019.54,1671.14,967.11,1636.6,957.23,1636.6Z" transform="translate(0 -156.89)" style="fill:#6dc067"/><path d="M956.4,1598.79c-7.09,0-46.39,30.94-46.39,52.84,0,11.63,8.88,21.07,19.84,21.07a18.84,18.84,0,0,0,10.22-3,20.43,20.43,0,0,0,33.21-.74,19,19,0,0,0,11.32,3.78c11,0,19.84-9.44,19.84-21.07C1004.44,1629.73,962.62,1598.79,956.4,1598.79Z" transform="translate(0 -156.89)" style="fill:#39b54a"/><path d="M633.56,1861c0,6.63-12.06,12-26.94,12s-26.94-5.37-26.94-12l8.78-101.53c0-6.63,3.28-12,18.16-12s17.18,5.37,17.18,12Z" transform="translate(0 -156.89)" style="fill:#977348"/><path d="M606.62,1692c-4.69,0-80.08,46.19-80.08,85.2,0,11.63,8.88,21.07,19.83,21.07a18.92,18.92,0,0,0,11.13-3.63c2.77,8.1,10.05,13.89,18.63,13.89a19.09,19.09,0,0,0,13.06-5.23,19.3,19.3,0,0,0,34.86,0,19.09,19.09,0,0,0,13.05,5.23c8.58,0,15.86-5.8,18.63-13.89a18.92,18.92,0,0,0,11.13,3.63c11,0,19.84-9.44,19.84-21.07C686.7,1738.2,611.62,1692,606.62,1692Z" transform="translate(0 -156.89)" style="fill:#39b54a"/><path d="M606.62,1659.41c-9.88,0-62.31,34.54-62.31,66.71,0,11.63,8.88,21.07,19.83,21.07a19,19,0,0,0,11.59-4,19.57,19.57,0,0,0,16.72,9.77,19.22,19.22,0,0,0,14.16-6.33,19.22,19.22,0,0,0,14.16,6.33,19.56,19.56,0,0,0,16.72-9.77,19,19,0,0,0,11.59,4c11,0,19.83-9.43,19.83-21.07C668.93,1694,616.5,1659.41,606.62,1659.41Z" transform="translate(0 -156.89)" style="fill:#6dc067"/><path d="M605.8,1621.6c-7.09,0-46.39,30.94-46.39,52.84,0,11.63,8.88,21.07,19.84,21.07a18.84,18.84,0,0,0,10.22-3,20.43,20.43,0,0,0,33.21-.74,19,19,0,0,0,11.32,3.78c11,0,19.84-9.44,19.84-21.07C653.83,1652.54,612,1621.6,605.8,1621.6Z" transform="translate(0 -156.89)" style="fill:#39b54a"/><path d="M1322.54,1823.24c0,6.63-12.06,12-26.94,12s-26.94-5.37-26.94-12l8.78-101.53c0-6.63,3.28-12,18.16-12s17.18,5.37,17.18,12Z" transform="translate(0 -156.89)" style="fill:#977348"/><path d="M1295.6,1654.27c-4.69,0-80.08,46.19-80.08,85.2,0,11.63,8.88,21.07,19.83,21.07a18.92,18.92,0,0,0,11.13-3.63c2.77,8.1,10.05,13.89,18.63,13.89a19.09,19.09,0,0,0,13.06-5.23,19.3,19.3,0,0,0,34.86,0,19.09,19.09,0,0,0,13.05,5.23c8.58,0,15.86-5.8,18.63-13.89a18.92,18.92,0,0,0,11.13,3.63c11,0,19.84-9.44,19.84-21.07C1375.68,1700.46,1300.6,1654.27,1295.6,1654.27Z" transform="translate(0 -156.89)" style="fill:#39b54a"/><path d="M1295.6,1621.68c-9.88,0-62.31,34.54-62.31,66.71,0,11.63,8.88,21.07,19.84,21.07a19,19,0,0,0,11.59-4,19.57,19.57,0,0,0,16.72,9.77,19.22,19.22,0,0,0,14.16-6.33,19.22,19.22,0,0,0,14.16,6.33,19.56,19.56,0,0,0,16.72-9.77,19,19,0,0,0,11.59,4c11,0,19.83-9.43,19.83-21.07C1357.91,1656.22,1305.48,1621.68,1295.6,1621.68Z" transform="translate(0 -156.89)" style="fill:#6dc067"/><path d="M1294.78,1583.87c-7.1,0-46.39,30.94-46.39,52.84,0,11.63,8.88,21.07,19.84,21.07a18.85,18.85,0,0,0,10.22-3,20.43,20.43,0,0,0,33.21-.74,19,19,0,0,0,11.32,3.78c11,0,19.84-9.44,19.84-21.07C1342.81,1614.81,1301,1583.87,1294.78,1583.87Z" transform="translate(0 -156.89)" style="fill:#39b54a"/><path d="M2202.57,1931.38c0,6.63-12.06,12-26.94,12s-26.94-5.37-26.94-12l8.78-101.53c0-6.63,3.28-12,18.16-12s17.18,5.37,17.18,12Z" transform="translate(0 -156.89)" style="fill:#977348"/><path d="M2175.63,1762.41c-4.69,0-80.08,46.19-80.08,85.2,0,11.63,8.88,21.07,19.83,21.07a18.92,18.92,0,0,0,11.13-3.63c2.77,8.1,10.05,13.89,18.63,13.89a19.09,19.09,0,0,0,13.06-5.23,19.3,19.3,0,0,0,34.86,0,19.09,19.09,0,0,0,13.05,5.23c8.58,0,15.86-5.8,18.63-13.89a18.92,18.92,0,0,0,11.13,3.63c11,0,19.83-9.44,19.83-21.07C2255.71,1808.6,2180.64,1762.41,2175.63,1762.41Z" transform="translate(0 -156.89)" style="fill:#39b54a"/><path d="M2175.63,1729.81c-9.88,0-62.31,34.54-62.31,66.71,0,11.63,8.88,21.07,19.84,21.07a19,19,0,0,0,11.59-4,19.57,19.57,0,0,0,16.72,9.77,19.22,19.22,0,0,0,14.16-6.33,19.22,19.22,0,0,0,14.16,6.33,19.56,19.56,0,0,0,16.72-9.77,19,19,0,0,0,11.59,4c11,0,19.84-9.43,19.84-21.07C2237.94,1764.35,2185.52,1729.81,2175.63,1729.81Z" transform="translate(0 -156.89)" style="fill:#6dc067"/><path d="M2174.81,1692c-7.1,0-46.39,30.94-46.39,52.84,0,11.63,8.88,21.07,19.84,21.07a18.85,18.85,0,0,0,10.22-3,20.43,20.43,0,0,0,33.21-.74,19,19,0,0,0,11.32,3.78c11,0,19.84-9.44,19.84-21.07C2222.84,1722.95,2181,1692,2174.81,1692Z" transform="translate(0 -156.89)" style="fill:#39b54a"/><path d="M1809.21,1913.16c0,6.63-12.06,12-26.94,12s-26.94-5.37-26.94-12l8.78-101.53c0-6.63,3.28-12,18.16-12s17.18,5.37,17.18,12Z" transform="translate(0 -156.89)" style="fill:#977348"/><path d="M1782.27,1744.19c-4.69,0-80.08,46.19-80.08,85.2,0,11.63,8.88,21.07,19.83,21.07a18.92,18.92,0,0,0,11.13-3.63c2.77,8.1,10.05,13.89,18.63,13.89a19.09,19.09,0,0,0,13.06-5.23,19.3,19.3,0,0,0,34.86,0,19.09,19.09,0,0,0,13.05,5.23c8.58,0,15.86-5.8,18.63-13.89a18.92,18.92,0,0,0,11.13,3.63c11,0,19.83-9.44,19.83-21.07C1862.35,1790.38,1787.28,1744.19,1782.27,1744.19Z" transform="translate(0 -156.89)" style="fill:#39b54a"/><path d="M1782.27,1711.59c-9.88,0-62.31,34.54-62.31,66.71,0,11.63,8.88,21.07,19.84,21.07a19,19,0,0,0,11.59-4,19.57,19.57,0,0,0,16.72,9.77,19.22,19.22,0,0,0,14.16-6.33,19.22,19.22,0,0,0,14.16,6.33,19.56,19.56,0,0,0,16.72-9.77,19,19,0,0,0,11.59,4c11,0,19.84-9.43,19.84-21.07C1844.58,1746.13,1792.16,1711.59,1782.27,1711.59Z" transform="translate(0 -156.89)" style="fill:#6dc067"/><path d="M1781.45,1673.79c-7.1,0-46.39,30.94-46.39,52.84,0,11.63,8.88,21.07,19.84,21.07a18.85,18.85,0,0,0,10.22-3,20.43,20.43,0,0,0,33.21-.74,19,19,0,0,0,11.32,3.78c11,0,19.84-9.44,19.84-21.07C1829.48,1704.73,1787.66,1673.79,1781.45,1673.79Z" transform="translate(0 -156.89)" style="fill:#39b54a"/><path d="M422.57,1764.29c0,6.63-12.06,12-26.94,12s-26.94-5.37-26.94-12l8.78-101.53c0-6.63,3.28-12,18.16-12s17.18,5.37,17.18,12Z" transform="translate(0 -156.89)" style="fill:#977348"/><path d="M395.63,1595.32c-4.69,0-80.08,46.19-80.08,85.2,0,11.63,8.88,21.07,19.83,21.07a18.92,18.92,0,0,0,11.13-3.63c2.77,8.1,10.05,13.89,18.63,13.89a19.09,19.09,0,0,0,13.06-5.23,19.3,19.3,0,0,0,34.86,0,19.09,19.09,0,0,0,13.05,5.23c8.58,0,15.86-5.8,18.63-13.89a18.92,18.92,0,0,0,11.13,3.63c11,0,19.84-9.44,19.84-21.07C475.71,1641.51,400.64,1595.32,395.63,1595.32Z" transform="translate(0 -156.89)" style="fill:#8dc63f"/><path d="M395.63,1562.73c-9.88,0-62.31,34.54-62.31,66.71,0,11.63,8.88,21.07,19.83,21.07a19,19,0,0,0,11.59-4,19.57,19.57,0,0,0,16.72,9.77,19.22,19.22,0,0,0,14.16-6.33,19.22,19.22,0,0,0,14.16,6.33,19.56,19.56,0,0,0,16.72-9.77,19,19,0,0,0,11.59,4c11,0,19.83-9.43,19.83-21.07C457.94,1597.27,405.52,1562.73,395.63,1562.73Z" transform="translate(0 -156.89)" style="fill:#a3cf62"/><path d="M394.81,1524.92c-7.09,0-46.39,30.94-46.39,52.84,0,11.63,8.88,21.07,19.84,21.07a18.84,18.84,0,0,0,10.22-3,20.43,20.43,0,0,0,33.21-.74,19,19,0,0,0,11.32,3.78c11,0,19.84-9.44,19.84-21.07C442.84,1555.86,401,1524.92,394.81,1524.92Z" transform="translate(0 -156.89)" style="fill:#8dc63f"/><path d="M1144.32,1738.62c0,6.63-12.06,12-26.94,12s-26.94-5.37-26.94-12l8.78-101.53c0-6.63,3.28-12,18.16-12s17.18,5.37,17.18,12Z" transform="translate(0 -156.89)" style="fill:#977348"/><path d="M1117.38,1569.65c-4.69,0-80.08,46.19-80.08,85.2,0,11.63,8.88,21.07,19.83,21.07a18.92,18.92,0,0,0,11.13-3.63c2.77,8.1,10.05,13.89,18.63,13.89a19.09,19.09,0,0,0,13.06-5.23,19.3,19.3,0,0,0,34.86,0,19.09,19.09,0,0,0,13.05,5.23c8.58,0,15.86-5.8,18.63-13.89a18.92,18.92,0,0,0,11.13,3.63c11,0,19.84-9.44,19.84-21.07C1197.46,1615.84,1122.39,1569.65,1117.38,1569.65Z" transform="translate(0 -156.89)" style="fill:#8dc63f"/><path d="M1117.38,1537.05c-9.88,0-62.31,34.54-62.31,66.71,0,11.63,8.88,21.07,19.83,21.07a19,19,0,0,0,11.59-4,19.57,19.57,0,0,0,16.72,9.77,19.22,19.22,0,0,0,14.16-6.33,19.22,19.22,0,0,0,14.16,6.33,19.56,19.56,0,0,0,16.72-9.77,19,19,0,0,0,11.59,4c11,0,19.84-9.43,19.84-21.07C1179.69,1571.59,1127.27,1537.05,1117.38,1537.05Z" transform="translate(0 -156.89)" style="fill:#a3cf62"/><path d="M1116.56,1499.25c-7.09,0-46.39,30.94-46.39,52.84,0,11.63,8.88,21.07,19.84,21.07a18.84,18.84,0,0,0,10.22-3,20.43,20.43,0,0,0,33.21-.74,19,19,0,0,0,11.32,3.78c11,0,19.84-9.44,19.84-21.07C1164.6,1530.18,1122.78,1499.25,1116.56,1499.25Z" transform="translate(0 -156.89)" style="fill:#8dc63f"/><path d="M1536.76,1775.24c0,6.63-12.06,12-26.94,12s-26.94-5.37-26.94-12l8.78-101.53c0-6.63,3.28-12,18.16-12s17.18,5.37,17.18,12Z" transform="translate(0 -156.89)" style="fill:#977348"/><path d="M1509.82,1606.28c-4.69,0-80.08,46.19-80.08,85.2,0,11.63,8.88,21.07,19.83,21.07a18.92,18.92,0,0,0,11.13-3.63c2.77,8.1,10.05,13.89,18.63,13.89a19.09,19.09,0,0,0,13.06-5.23,19.3,19.3,0,0,0,34.86,0,19.09,19.09,0,0,0,13.05,5.23c8.58,0,15.86-5.8,18.63-13.89a18.92,18.92,0,0,0,11.13,3.63c11,0,19.84-9.44,19.84-21.07C1589.9,1652.46,1514.82,1606.28,1509.82,1606.28Z" transform="translate(0 -156.89)" style="fill:#8dc63f"/><path d="M1509.82,1573.68c-9.88,0-62.31,34.54-62.31,66.71,0,11.63,8.88,21.07,19.83,21.07a19,19,0,0,0,11.59-4,19.57,19.57,0,0,0,16.72,9.77,19.22,19.22,0,0,0,14.16-6.33,19.22,19.22,0,0,0,14.16,6.33,19.56,19.56,0,0,0,16.72-9.77,19,19,0,0,0,11.59,4c11,0,19.84-9.43,19.84-21.07C1572.13,1608.22,1519.7,1573.68,1509.82,1573.68Z" transform="translate(0 -156.89)" style="fill:#a3cf62"/><path d="M1509,1535.87c-7.09,0-46.39,30.94-46.39,52.84,0,11.63,8.88,21.07,19.83,21.07a18.84,18.84,0,0,0,10.22-3,20.43,20.43,0,0,0,33.21-.74,19,19,0,0,0,11.32,3.78c11,0,19.84-9.44,19.84-21.07C1557,1566.81,1515.21,1535.87,1509,1535.87Z" transform="translate(0 -156.89)" style="fill:#8dc63f"/><path d="M1994.23,1831.31c0,6.63-12.06,12-26.94,12s-26.94-5.37-26.94-12l8.78-101.53c0-6.63,3.28-12,18.16-12s17.18,5.37,17.18,12Z" transform="translate(0 -156.89)" style="fill:#977348"/><path d="M1967.29,1662.34c-4.69,0-80.08,46.19-80.08,85.2,0,11.63,8.88,21.07,19.83,21.07a18.92,18.92,0,0,0,11.13-3.63c2.77,8.1,10.05,13.89,18.63,13.89a19.09,19.09,0,0,0,13.06-5.23,19.3,19.3,0,0,0,34.86,0,19.09,19.09,0,0,0,13.05,5.23c8.58,0,15.86-5.8,18.63-13.89a18.92,18.92,0,0,0,11.13,3.63c11,0,19.84-9.44,19.84-21.07C2047.37,1708.53,1972.3,1662.34,1967.29,1662.34Z" transform="translate(0 -156.89)" style="fill:#8dc63f"/><path d="M1967.29,1629.75c-9.88,0-62.31,34.54-62.31,66.71,0,11.63,8.88,21.07,19.83,21.07a19,19,0,0,0,11.59-4,19.57,19.57,0,0,0,16.72,9.77,19.22,19.22,0,0,0,14.16-6.33,19.22,19.22,0,0,0,14.16,6.33,19.56,19.56,0,0,0,16.72-9.77,19,19,0,0,0,11.59,4c11,0,19.84-9.43,19.84-21.07C2029.6,1664.29,1977.18,1629.75,1967.29,1629.75Z" transform="translate(0 -156.89)" style="fill:#a3cf62"/><path d="M1966.47,1591.94c-7.09,0-46.39,30.94-46.39,52.84,0,11.63,8.88,21.07,19.83,21.07a18.84,18.84,0,0,0,10.22-3,20.43,20.43,0,0,0,33.21-.74,19,19,0,0,0,11.32,3.78c11,0,19.84-9.44,19.84-21.07C2014.5,1622.88,1972.69,1591.94,1966.47,1591.94Z" transform="translate(0 -156.89)" style="fill:#8dc63f"/></svg>