<?xml version="1.0" encoding="utf-8"?>
<!-- Generator: Adobe Illustrator 21.1.0, SVG Export Plug-In . SVG Version: 6.00 Build 0)  -->
<svg version="1.1" id="Layer_1" xmlns="http://www.w3.org/2000/svg" xmlns:xlink="http://www.w3.org/1999/xlink" x="0px" y="0px"
	 viewBox="0 0 216 216" style="enable-background:new 0 0 216 216;" xml:space="preserve">
<style type="text/css">
	.st0{fill:#2F736A;}
	.st1{fill:#367F76;}
	.st2{fill:#DCDDDE;}
	.st3{fill:#E6E7E8;}
	.st4{fill:#99CB4F;}
	.st5{fill:#8DC63F;}
	.st6{fill:#8ED8F8;}
	.st7{fill:#ABE1FA;}
	.st8{fill:#BFBFBF;}
	.st9{fill:#977348;}
	.st10{fill:#39B54A;}
	.st11{fill:#6DC067;}
	.st12{fill:#A3CF62;}
</style>
<title>hike</title>
<polygon class="st0" points="71.1,179.3 140.5,59.1 209.9,179.3 "/>
<polygon class="st1" points="140.5,179.3 140.5,59.1 209.9,179.3 "/>
<path class="st2" d="M125.7,91.2c0.3,0,0.5,0,0.8-0.1c0.3,2.6,2.7,4.4,5.3,4.1c1.3-0.2,2.5-0.9,3.3-2c2.5,3,7,3.4,10,0.8
	c0.3-0.3,0.6-0.5,0.8-0.8c1.5,2.1,4.5,2.6,6.6,1.1c1.1-0.8,1.8-1.9,2-3.3c1.4,0.3,2.8-0.2,3.8-1.3l-17.8-30.8l-17.8,30.8
	C123.5,90.7,124.5,91.2,125.7,91.2z"/>
<path class="st3" d="M140.5,59.1v36.7c2.1,0,4.1-0.9,5.4-2.5c1.5,2.1,4.5,2.6,6.6,1.1c1.1-0.8,1.8-1.9,2-3.3
	c1.4,0.3,2.8-0.2,3.8-1.3L140.5,59.1z"/>
<polygon class="st0" points="35.8,179.3 96.9,73.4 158.1,179.3 "/>
<polygon class="st1" points="96.9,179.3 96.9,73.4 158.1,179.3 "/>
<path class="st2" d="M83.9,101.7c0.2,0,0.5,0,0.7-0.1c0.3,2.3,2.4,3.9,4.7,3.6c1.2-0.1,2.2-0.8,2.9-1.7c2.2,2.6,6.2,3,8.8,0.7
	c0.3-0.2,0.5-0.5,0.7-0.7c1.3,1.9,3.9,2.3,5.8,1c1-0.7,1.6-1.7,1.7-2.9c1.2,0.3,2.5-0.2,3.3-1.1L96.9,73.4l-15.6,27.1
	C82,101.3,82.9,101.7,83.9,101.7z"/>
<path class="st3" d="M96.9,73.4v32.3c1.8,0,3.6-0.8,4.8-2.2c1.3,1.9,3.9,2.3,5.8,1c1-0.7,1.6-1.7,1.7-2.9c1.2,0.3,2.5-0.2,3.3-1.1
	L96.9,73.4z"/>
<polygon class="st0" points="5.7,179.3 57.5,89.6 109.3,179.3 "/>
<polygon class="st1" points="57.5,179.3 57.5,89.6 109.3,179.3 "/>
<path class="st2" d="M46.4,113.5c0.2,0,0.4,0,0.6-0.1c0.3,1.9,2,3.3,4,3.1c1-0.1,1.9-0.7,2.4-1.5c1.9,2.2,5.2,2.5,7.5,0.6
	c0.2-0.2,0.4-0.4,0.6-0.6c1.1,1.6,3.3,2,4.9,0.8c0.8-0.6,1.3-1.5,1.5-2.4c1,0.2,2.1-0.1,2.8-0.9l-13.3-23l-13.3,23
	C44.8,113.2,45.6,113.5,46.4,113.5z"/>
<path class="st3" d="M57.5,89.6v27.4c1.6,0,3-0.7,4-1.9c1.1,1.6,3.3,2,4.9,0.8c0.8-0.6,1.3-1.5,1.5-2.4c1,0.2,2.1-0.1,2.8-0.9
	L57.5,89.6z"/>
<path class="st4" d="M209.7,190c-13.2,13.2-52.1,13.2-65.4,0c-4.5-4.5,4.1-24.9,8.7-29.5c7.4-7.4,40.5-7.4,48,0
	C205.6,165,214.3,185.4,209.7,190z"/>
<path class="st5" d="M180.6,155c-2.8-0.1-5.5-0.1-8.3,0.1l-22.5,39c2,1.1,4.2,2.1,6.6,2.9L180.6,155z"/>
<path class="st5" d="M153.1,160.5c-0.7,0.7-1.6,1.9-2.5,3.3l-1.1,1.9c-4.1,7.5-8.3,19.8-5.5,23.8l19.3-33.4
	C158.7,157.1,155,158.5,153.1,160.5z"/>
<path class="st5" d="M209.5,177.2l-11.2,19.5c4.7-1.6,8.7-3.9,11.5-6.7C211.8,187.9,211.2,182.7,209.5,177.2z"/>
<path class="st5" d="M206.1,168.6c-1.4-2.9-2.9-5.5-4.2-7.1l-22.2,38.4c2.9-0.1,5.9-0.4,8.8-0.8L206.1,168.6z"/>
<path class="st5" d="M195.8,157.5c-2.1-0.7-4.6-1.3-7.3-1.8l-24.8,43c2.5,0.5,5.1,0.8,7.7,1L195.8,157.5z"/>
<path class="st4" d="M152.1,190.7c-16.6,16.6-65.2,16.6-81.8,0c-5.7-5.7,5.2-31.2,10.9-36.9c9.3-9.3,50.7-9.3,60,0
	C146.9,159.4,157.8,185,152.1,190.7z"/>
<path class="st5" d="M109.4,146.8c-2.9,0.1-5.8,0.2-8.6,0.5L74,193.7c2,1.4,4.1,2.5,6.3,3.5L109.4,146.8z"/>
<path class="st5" d="M81.2,153.8c-5,5-14.1,25.6-12.2,34.2l22.6-39.1C87,150.1,83.3,151.7,81.2,153.8z"/>
<path class="st5" d="M125.4,147.8c-2.5-0.4-5.1-0.7-7.8-0.8l-30.5,52.8c2.4,0.7,4.8,1.3,7.3,1.8L125.4,147.8z"/>
<path class="st5" d="M153.7,185.4c0-3-0.8-6.9-2-10.9l-14.2,24.6c4.5-1.5,8.5-3.5,11.7-5.9L153.7,185.4z"/>
<path class="st5" d="M148.4,165.8c-1.3-2.8-2.6-5.4-3.9-7.6l-25.8,44.6c3-0.2,6-0.6,9-1.2L148.4,165.8z"/>
<path class="st5" d="M139.5,152.4c-1.7-1.1-4-2.1-6.6-2.9l-30.7,53.2c2.6,0.3,5.3,0.4,8,0.4L139.5,152.4z"/>
<path class="st5" d="M79.9,190.3c-15.2,15.2-59.7,15.2-74.8,0c-5.2-5.2,4.7-28.5,10-33.8c8.5-8.5,46.4-8.5,54.9,0
	C75.2,161.8,85.1,185.1,79.9,190.3z"/>
<path class="st4" d="M34.5,150.5l-25,43.3c2,1.3,4.2,2.4,6.4,3.3L43,150.2C40.1,150.2,37.3,150.3,34.5,150.5z M81.4,184.7l-4.9,8.5
	c1.2-0.9,2.4-1.8,3.5-2.9C81.1,189.2,81.5,187.2,81.4,184.7L81.4,184.7z M15.1,156.6c-4.8,4.8-13.5,24.8-10.9,32.1l21.2-36.7
	C20.8,153,17.1,154.5,15.1,156.6z M51.1,150.6L23,199.4c2.4,0.6,4.9,1.1,7.4,1.5l28.4-49.1C56.2,151.2,53.7,150.8,51.1,150.6z
	 M70,156.6c-1-1-2.4-1.9-4.1-2.7l-27.5,47.7c2.8,0.1,5.5,0.1,8.3,0l24.9-43.2C71,157.8,70.5,157.2,70,156.6z M75.7,165.7l-20.2,35
	c3.2-0.5,6.4-1.2,9.5-2.2l14.1-24.4C78.1,171.3,77,168.5,75.7,165.7L75.7,165.7z"/>
<path class="st6" d="M216,200.6v-29.1c-5.4,0-5.4,3.9-10.8,3.9c-5.4,0-5.4-3.9-10.8-3.9c-5.4,0-5.4,3.9-10.8,3.9
	c-5.4,0-5.4-3.9-10.8-3.9c-5.4,0-5.4,3.9-10.8,3.9s-5.4-3.9-10.8-3.9c-5.4,0-5.4,3.9-10.8,3.9c-5.4,0-5.4-3.9-10.8-3.9
	c-5.4,0-5.4,3.9-10.8,3.9c-5.4,0-5.4-3.9-10.8-3.9s-5.4,3.9-10.8,3.9c-5.4,0-5.4-3.9-10.8-3.9s-5.4,3.9-10.8,3.9s-5.4-3.9-10.8-3.9
	c-5.4,0-5.4,3.9-10.8,3.9s-5.4-3.9-10.8-3.9s-5.4,3.9-10.8,3.9s-5.4-3.9-10.8-3.9s-5.4,3.9-10.8,3.9s-5.4-3.9-10.8-3.9v29.1H216z"/>
<path class="st7" d="M216,208.9v-29.1c-5.4,0-5.4,3.9-10.8,3.9c-5.4,0-5.4-3.9-10.8-3.9c-5.4,0-5.4,3.9-10.8,3.9
	c-5.4,0-5.4-3.9-10.8-3.9c-5.4,0-5.4,3.9-10.8,3.9s-5.4-3.9-10.8-3.9c-5.4,0-5.4,3.9-10.8,3.9c-5.4,0-5.4-3.9-10.8-3.9
	c-5.4,0-5.4,3.9-10.8,3.9c-5.4,0-5.4-3.9-10.8-3.9s-5.4,3.9-10.8,3.9c-5.4,0-5.4-3.9-10.8-3.9s-5.4,3.9-10.8,3.9s-5.4-3.9-10.8-3.9
	c-5.4,0-5.4,3.9-10.8,3.9s-5.4-3.9-10.8-3.9s-5.4,3.9-10.8,3.9s-5.4-3.9-10.8-3.9s-5.4,3.9-10.8,3.9s-5.4-3.9-10.8-3.9v29.1H216z"/>
<path class="st6" d="M216,208.9v-20.1c-5.4,0-5.4,3.9-10.8,3.9c-5.4,0-5.4-3.9-10.8-3.9c-5.4,0-5.4,3.9-10.8,3.9
	c-5.4,0-5.4-3.9-10.8-3.9c-5.4,0-5.4,3.9-10.8,3.9s-5.4-3.9-10.8-3.9c-5.4,0-5.4,3.9-10.8,3.9c-5.4,0-5.4-3.9-10.8-3.9
	c-5.4,0-5.4,3.9-10.8,3.9c-5.4,0-5.4-3.9-10.8-3.9s-5.4,3.9-10.8,3.9c-5.4,0-5.4-3.9-10.8-3.9s-5.4,3.9-10.8,3.9s-5.4-3.9-10.8-3.9
	c-5.4,0-5.4,3.9-10.8,3.9s-5.4-3.9-10.8-3.9s-5.4,3.9-10.8,3.9s-5.4-3.9-10.8-3.9s-5.4,3.9-10.8,3.9s-5.4-3.9-10.8-3.9v20.1H216z"/>
<path class="st7" d="M216,208.9v-11.1c-5.4,0-5.4,3.9-10.8,3.9c-5.4,0-5.4-3.9-10.8-3.9c-5.4,0-5.4,3.9-10.8,3.9
	c-5.4,0-5.4-3.9-10.8-3.9c-5.4,0-5.4,3.9-10.8,3.9s-5.4-3.9-10.8-3.9c-5.4,0-5.4,3.9-10.8,3.9c-5.4,0-5.4-3.9-10.8-3.9
	c-5.4,0-5.4,3.9-10.8,3.9c-5.4,0-5.4-3.9-10.8-3.9s-5.4,3.9-10.8,3.9c-5.4,0-5.4-3.9-10.8-3.9s-5.4,3.9-10.8,3.9s-5.4-3.9-10.8-3.9
	c-5.4,0-5.4,3.9-10.8,3.9s-5.4-3.9-10.8-3.9s-5.4,3.9-10.8,3.9s-5.4-3.9-10.8-3.9s-5.4,3.9-10.8,3.9s-5.4-3.9-10.8-3.9v11.1H216z"/>
<path class="st8" d="M45.5,40.5c-1.3,0-2.5,0.2-3.7,0.7c-2.4-4.1-7.6-5.5-11.7-3.1c-2.6,1.5-4.3,4.4-4.3,7.4c0,0.1,0,0.1,0,0.2
	c-3.7,0.9-6,4.6-5.2,8.4c0.7,3.1,3.5,5.3,6.8,5.3h18c5.2,0,9.5-4.2,9.5-9.5C55,44.7,50.7,40.5,45.5,40.5z"/>
<path class="st8" d="M180.3,11.3c-1.5,0-3.1,0.3-4.5,0.9c-2.9-5-9.3-6.7-14.3-3.8c-3.2,1.9-5.2,5.3-5.2,9c0,0.1,0,0.2,0,0.2
	c-4.6,1.1-7.4,5.7-6.3,10.2c0.9,3.8,4.3,6.5,8.3,6.5h22c6.4,0,11.6-5.2,11.6-11.6S186.7,11.4,180.3,11.3L180.3,11.3z"/>
<path class="st9" d="M22.7,155.9c0,0.6-1.1,1.1-2.4,1.1c-1.3,0-2.4-0.5-2.4-1.1l0.8-9.1c0-0.6,0.3-1.1,1.6-1.1
	c1.3,0,1.5,0.5,1.5,1.1L22.7,155.9z"/>
<path class="st10" d="M20.3,140.7c-0.4,0-7.2,4.2-7.2,7.7c0,1,0.8,1.9,1.8,1.9c0.4,0,0.7-0.1,1-0.3c0.2,0.7,0.9,1.3,1.7,1.3
	c0.4,0,0.9-0.2,1.2-0.5c0.4,0.9,1.4,1.2,2.3,0.8c0.4-0.2,0.7-0.5,0.8-0.8c0.3,0.3,0.7,0.5,1.2,0.5c0.8,0,1.4-0.5,1.7-1.3
	c0.3,0.2,0.6,0.3,1,0.3c1,0,1.8-0.8,1.8-1.9C27.5,144.9,20.7,140.7,20.3,140.7z"/>
<path class="st11" d="M20.3,137.8c-0.9,0-5.6,3.1-5.6,6c0,1,0.8,1.9,1.8,1.9c0.4,0,0.7-0.1,1-0.4c0.3,0.5,0.9,0.9,1.5,0.9
	c0.5,0,0.9-0.2,1.3-0.6c0.3,0.4,0.8,0.6,1.3,0.6c0.6,0,1.2-0.3,1.5-0.9c0.3,0.2,0.7,0.4,1,0.4c1,0,1.8-0.8,1.8-1.9
	C25.9,140.9,21.2,137.8,20.3,137.8z"/>
<path class="st10" d="M20.2,134.4c-0.6,0-4.2,2.8-4.2,4.8c0,1,0.8,1.9,1.8,1.9c0.3,0,0.6-0.1,0.9-0.3c0.6,0.8,1.8,1,2.6,0.4
	c0.2-0.1,0.3-0.3,0.4-0.4c0.3,0.2,0.7,0.3,1,0.3c1,0,1.8-0.8,1.8-1.9C24.5,137.1,20.8,134.4,20.2,134.4z"/>
<path class="st9" d="M88.6,158.4c0,0.6-1.1,1.1-2.4,1.1c-1.3,0-2.4-0.5-2.4-1.1l0.8-9.1c0-0.6,0.3-1.1,1.6-1.1s1.5,0.5,1.5,1.1
	L88.6,158.4z"/>
<path class="st10" d="M86.2,143.2c-0.4,0-7.2,4.2-7.2,7.7c0,1,0.8,1.9,1.8,1.9c0.4,0,0.7-0.1,1-0.3c0.2,0.7,0.9,1.3,1.7,1.3
	c0.4,0,0.9-0.2,1.2-0.5c0.4,0.9,1.4,1.2,2.3,0.8c0.4-0.2,0.7-0.5,0.8-0.8c0.3,0.3,0.7,0.5,1.2,0.5c0.8,0,1.4-0.5,1.7-1.3
	c0.3,0.2,0.6,0.3,1,0.3c1,0,1.8-0.8,1.8-1.9C93.4,147.3,86.6,143.2,86.2,143.2z"/>
<path class="st11" d="M86.2,140.2c-0.9,0-5.6,3.1-5.6,6c0,1,0.8,1.9,1.8,1.9c0.4,0,0.7-0.1,1-0.4c0.3,0.5,0.9,0.9,1.5,0.9
	c0.5,0,0.9-0.2,1.3-0.6c0.3,0.4,0.8,0.6,1.3,0.6c0.6,0,1.2-0.3,1.5-0.9c0.3,0.2,0.7,0.4,1,0.4c1,0,1.8-0.8,1.8-1.9
	C91.8,143.3,87,140.2,86.2,140.2z"/>
<path class="st10" d="M86.1,136.8c-0.6,0-4.2,2.8-4.2,4.8c0,1,0.8,1.9,1.8,1.9c0.3,0,0.6-0.1,0.9-0.3c0.6,0.8,1.8,1,2.6,0.4
	c0.2-0.1,0.3-0.3,0.4-0.4c0.3,0.2,0.7,0.3,1,0.3c1,0,1.8-0.8,1.8-1.9C90.4,139.6,86.6,136.8,86.1,136.8z"/>
<path class="st9" d="M57,160.4c0,0.6-1.1,1.1-2.4,1.1c-1.3,0-2.4-0.5-2.4-1.1l0.8-9.1c0-0.6,0.3-1.1,1.6-1.1s1.5,0.5,1.5,1.1
	L57,160.4z"/>
<path class="st10" d="M54.6,145.2c-0.4,0-7.2,4.2-7.2,7.7c0,1,0.8,1.9,1.8,1.9c0.4,0,0.7-0.1,1-0.3c0.2,0.7,0.9,1.3,1.7,1.3
	c0.4,0,0.9-0.2,1.2-0.5c0.4,0.9,1.4,1.2,2.3,0.8c0.4-0.2,0.7-0.5,0.8-0.8c0.3,0.3,0.7,0.5,1.2,0.5c0.8,0,1.4-0.5,1.7-1.3
	c0.3,0.2,0.6,0.3,1,0.3c1,0,1.8-0.8,1.8-1.9C61.8,149.4,55,145.2,54.6,145.2z"/>
<path class="st11" d="M54.6,142.3c-0.9,0-5.6,3.1-5.6,6c0,1,0.8,1.9,1.8,1.9c0.4,0,0.7-0.1,1-0.4c0.3,0.5,0.9,0.9,1.5,0.9
	c0.5,0,0.9-0.2,1.3-0.6c0.3,0.4,0.8,0.6,1.3,0.6c0.6,0,1.2-0.3,1.5-0.9c0.3,0.2,0.7,0.4,1,0.4c1,0,1.8-0.8,1.8-1.9
	C60.2,145.4,55.5,142.3,54.6,142.3z"/>
<path class="st10" d="M54.5,138.9c-0.6,0-4.2,2.8-4.2,4.8c0,1,0.8,1.9,1.8,1.9c0.3,0,0.6-0.1,0.9-0.3c0.6,0.8,1.8,1,2.6,0.4
	c0.2-0.1,0.3-0.3,0.4-0.4c0.3,0.2,0.7,0.3,1,0.3c1,0,1.8-0.8,1.8-1.9C58.8,141.7,55.1,138.9,54.5,138.9z"/>
<path class="st9" d="M119,157c0,0.6-1.1,1.1-2.4,1.1c-1.3,0-2.4-0.5-2.4-1.1l0.8-9.1c0-0.6,0.3-1.1,1.6-1.1s1.5,0.5,1.5,1.1L119,157
	z"/>
<path class="st10" d="M116.6,141.8c-0.4,0-7.2,4.2-7.2,7.7c0,1,0.8,1.9,1.8,1.9c0.4,0,0.7-0.1,1-0.3c0.2,0.7,0.9,1.3,1.7,1.3
	c0.4,0,0.9-0.2,1.2-0.5c0.4,0.9,1.4,1.2,2.3,0.8c0.4-0.2,0.7-0.5,0.8-0.8c0.3,0.3,0.7,0.5,1.2,0.5c0.8,0,1.4-0.5,1.7-1.3
	c0.3,0.2,0.6,0.3,1,0.3c1,0,1.8-0.8,1.8-1.9C123.8,146,117.1,141.8,116.6,141.8z"/>
<path class="st11" d="M116.6,138.9c-0.9,0-5.6,3.1-5.6,6c0,1,0.8,1.9,1.8,1.9c0.4,0,0.7-0.1,1-0.4c0.3,0.5,0.9,0.9,1.5,0.9
	c0.5,0,0.9-0.2,1.3-0.6c0.3,0.4,0.8,0.6,1.3,0.6c0.6,0,1.2-0.3,1.5-0.9c0.3,0.2,0.7,0.4,1,0.4c1,0,1.8-0.8,1.8-1.9
	C122.2,142,117.5,138.9,116.6,138.9z"/>
<path class="st10" d="M116.5,135.5c-0.6,0-4.2,2.8-4.2,4.8c0,1,0.8,1.9,1.8,1.9c0.3,0,0.6-0.1,0.9-0.3c0.6,0.8,1.8,1,2.6,0.4
	c0.2-0.1,0.3-0.3,0.4-0.4c0.3,0.2,0.7,0.3,1,0.3c1,0,1.8-0.8,1.8-1.9C120.9,138.3,117.1,135.5,116.5,135.5z"/>
<path class="st9" d="M198.2,166.7c0,0.6-1.1,1.1-2.4,1.1s-2.4-0.5-2.4-1.1l0.8-9.1c0-0.6,0.3-1.1,1.6-1.1s1.5,0.5,1.5,1.1
	L198.2,166.7z"/>
<path class="st10" d="M195.8,151.5c-0.4,0-7.2,4.2-7.2,7.7c0,1,0.8,1.9,1.8,1.9c0.4,0,0.7-0.1,1-0.3c0.2,0.7,0.9,1.3,1.7,1.3
	c0.4,0,0.9-0.2,1.2-0.5c0.4,0.9,1.4,1.2,2.3,0.8c0.4-0.2,0.7-0.5,0.8-0.8c0.3,0.3,0.7,0.5,1.2,0.5c0.8,0,1.4-0.5,1.7-1.3
	c0.3,0.2,0.6,0.3,1,0.3c1,0,1.8-0.8,1.8-1.9C203,155.7,196.3,151.5,195.8,151.5z"/>
<path class="st11" d="M195.8,148.6c-0.9,0-5.6,3.1-5.6,6c0,1,0.8,1.9,1.8,1.9c0.4,0,0.7-0.1,1-0.4c0.3,0.5,0.9,0.9,1.5,0.9
	c0.5,0,0.9-0.2,1.3-0.6c0.3,0.4,0.8,0.6,1.3,0.6c0.6,0,1.2-0.3,1.5-0.9c0.3,0.2,0.7,0.4,1,0.4c1,0,1.8-0.8,1.8-1.9
	C201.4,151.7,196.7,148.6,195.8,148.6z"/>
<path class="st10" d="M195.7,145.2c-0.6,0-4.2,2.8-4.2,4.8c0,1,0.8,1.9,1.8,1.9c0.3,0,0.6-0.1,0.9-0.3c0.6,0.8,1.8,1,2.6,0.4
	c0.2-0.1,0.3-0.3,0.4-0.4c0.3,0.2,0.7,0.3,1,0.3c1,0,1.8-0.8,1.8-1.9C200.1,148,196.3,145.2,195.7,145.2z"/>
<path class="st9" d="M162.8,165.1c0,0.6-1.1,1.1-2.4,1.1s-2.4-0.5-2.4-1.1l0.8-9.1c0-0.6,0.3-1.1,1.6-1.1s1.5,0.5,1.5,1.1
	L162.8,165.1z"/>
<path class="st10" d="M160.4,149.9c-0.4,0-7.2,4.2-7.2,7.7c0,1,0.8,1.9,1.8,1.9c0.4,0,0.7-0.1,1-0.3c0.2,0.7,0.9,1.3,1.7,1.3
	c0.4,0,0.9-0.2,1.2-0.5c0.4,0.9,1.4,1.2,2.3,0.8c0.4-0.2,0.7-0.5,0.8-0.8c0.3,0.3,0.7,0.5,1.2,0.5c0.8,0,1.4-0.5,1.7-1.3
	c0.3,0.2,0.6,0.3,1,0.3c1,0,1.8-0.8,1.8-1.9C167.6,154.1,160.9,149.9,160.4,149.9z"/>
<path class="st11" d="M160.4,147c-0.9,0-5.6,3.1-5.6,6c0,1,0.8,1.9,1.8,1.9c0.4,0,0.7-0.1,1-0.4c0.3,0.5,0.9,0.9,1.5,0.9
	c0.5,0,0.9-0.2,1.3-0.6c0.3,0.4,0.8,0.6,1.3,0.6c0.6,0,1.2-0.3,1.5-0.9c0.3,0.2,0.7,0.4,1,0.4c1,0,1.8-0.8,1.8-1.9
	C166,150.1,161.3,147,160.4,147z"/>
<path class="st10" d="M160.3,143.6c-0.6,0-4.2,2.8-4.2,4.8c0,1,0.8,1.9,1.8,1.9c0.3,0,0.6-0.1,0.9-0.3c0.6,0.8,1.8,1,2.6,0.4
	c0.2-0.1,0.3-0.3,0.4-0.4c0.3,0.2,0.7,0.3,1,0.3c1,0,1.8-0.8,1.8-1.9C164.7,146.3,160.9,143.6,160.3,143.6z"/>
<path class="st9" d="M38,151.7c0,0.6-1.1,1.1-2.4,1.1s-2.4-0.5-2.4-1.1l0.8-9.1c0-0.6,0.3-1.1,1.6-1.1s1.5,0.5,1.5,1.1L38,151.7z"/>
<path class="st5" d="M35.6,136.5c-0.4,0-7.2,4.2-7.2,7.7c0,1,0.8,1.9,1.8,1.9c0.4,0,0.7-0.1,1-0.3c0.2,0.7,0.9,1.3,1.7,1.3
	c0.4,0,0.9-0.2,1.2-0.5c0.4,0.9,1.4,1.2,2.3,0.8c0.4-0.2,0.7-0.5,0.8-0.8c0.3,0.3,0.7,0.5,1.2,0.5c0.8,0,1.4-0.5,1.7-1.3
	c0.3,0.2,0.6,0.3,1,0.3c1,0,1.8-0.8,1.8-1.9C42.8,140.7,36.1,136.5,35.6,136.5z"/>
<path class="st12" d="M35.6,133.6c-0.9,0-5.6,3.1-5.6,6c0,1,0.8,1.9,1.8,1.9c0.4,0,0.7-0.1,1-0.4c0.3,0.5,0.9,0.9,1.5,0.9
	c0.5,0,0.9-0.2,1.3-0.6c0.3,0.4,0.8,0.6,1.3,0.6c0.6,0,1.2-0.3,1.5-0.9c0.3,0.2,0.7,0.4,1,0.4c1,0,1.8-0.8,1.8-1.9
	C41.2,136.7,36.5,133.6,35.6,133.6z"/>
<path class="st5" d="M35.5,130.2c-0.6,0-4.2,2.8-4.2,4.8c0,1,0.8,1.9,1.8,1.9c0.3,0,0.6-0.1,0.9-0.3c0.6,0.8,1.8,1,2.6,0.4
	c0.2-0.1,0.3-0.3,0.4-0.4c0.3,0.2,0.7,0.3,1,0.3c1,0,1.8-0.8,1.8-1.9C39.9,133,36.1,130.2,35.5,130.2z"/>
<path class="st9" d="M103,149.4c0,0.6-1.1,1.1-2.4,1.1s-2.4-0.5-2.4-1.1l0.8-9.1c0-0.6,0.3-1.1,1.6-1.1c1.3,0,1.5,0.5,1.5,1.1
	L103,149.4z"/>
<path class="st5" d="M100.6,134.2c-0.4,0-7.2,4.2-7.2,7.7c0,1,0.8,1.9,1.8,1.9c0.4,0,0.7-0.1,1-0.3c0.2,0.7,0.9,1.3,1.7,1.3
	c0.4,0,0.9-0.2,1.2-0.5c0.4,0.9,1.4,1.2,2.3,0.8c0.4-0.2,0.7-0.5,0.8-0.8c0.3,0.3,0.7,0.5,1.2,0.5c0.8,0,1.4-0.5,1.7-1.3
	c0.3,0.2,0.6,0.3,1,0.3c1,0,1.8-0.8,1.8-1.9C107.8,138.3,101,134.2,100.6,134.2z"/>
<path class="st12" d="M100.6,131.3c-0.9,0-5.6,3.1-5.6,6c0,1,0.8,1.9,1.8,1.9c0.4,0,0.7-0.1,1-0.4c0.3,0.5,0.9,0.9,1.5,0.9
	c0.5,0,0.9-0.2,1.3-0.6c0.3,0.4,0.8,0.6,1.3,0.6c0.6,0,1.2-0.3,1.5-0.9c0.3,0.2,0.7,0.4,1,0.4c1,0,1.8-0.8,1.8-1.9
	C106.2,134.4,101.5,131.3,100.6,131.3z"/>
<path class="st5" d="M100.5,127.9c-0.6,0-4.2,2.8-4.2,4.8c0,1,0.8,1.9,1.8,1.9c0.3,0,0.6-0.1,0.9-0.3c0.6,0.8,1.8,1,2.6,0.4
	c0.2-0.1,0.3-0.3,0.4-0.4c0.3,0.2,0.7,0.3,1,0.3c1,0,1.8-0.8,1.8-1.9C104.8,130.6,101.1,127.9,100.5,127.9z"/>
<path class="st9" d="M138.3,152.7c0,0.6-1.1,1.1-2.4,1.1s-2.4-0.5-2.4-1.1l0.8-9.1c0-0.6,0.3-1.1,1.6-1.1s1.5,0.5,1.5,1.1
	L138.3,152.7z"/>
<path class="st5" d="M135.9,137.5c-0.4,0-7.2,4.2-7.2,7.7c0,1,0.8,1.9,1.8,1.9c0.4,0,0.7-0.1,1-0.3c0.2,0.7,0.9,1.3,1.7,1.3
	c0.4,0,0.9-0.2,1.2-0.5c0.4,0.9,1.4,1.2,2.3,0.8c0.4-0.2,0.7-0.5,0.8-0.8c0.3,0.3,0.7,0.5,1.2,0.5c0.8,0,1.4-0.5,1.7-1.3
	c0.3,0.2,0.6,0.3,1,0.3c1,0,1.8-0.8,1.8-1.9C143.1,141.6,136.3,137.5,135.9,137.5z"/>
<path class="st12" d="M135.9,134.6c-0.9,0-5.6,3.1-5.6,6c0,1,0.8,1.9,1.8,1.9c0.4,0,0.7-0.1,1-0.4c0.3,0.5,0.9,0.9,1.5,0.9
	c0.5,0,0.9-0.2,1.3-0.6c0.3,0.4,0.8,0.6,1.3,0.6c0.6,0,1.2-0.3,1.5-0.9c0.3,0.2,0.7,0.4,1,0.4c1,0,1.8-0.8,1.8-1.9
	C141.5,137.7,136.8,134.6,135.9,134.6z"/>
<path class="st5" d="M135.8,131.2c-0.6,0-4.2,2.8-4.2,4.8c0,1,0.8,1.9,1.8,1.9c0.3,0,0.6-0.1,0.9-0.3c0.6,0.8,1.8,1,2.6,0.4
	c0.2-0.1,0.3-0.3,0.4-0.4c0.3,0.2,0.7,0.3,1,0.3c1,0,1.8-0.8,1.8-1.9C140.1,133.9,136.4,131.2,135.8,131.2z"/>
<path class="st9" d="M179.5,157.7c0,0.6-1.1,1.1-2.4,1.1s-2.4-0.5-2.4-1.1l0.8-9.1c0-0.6,0.3-1.1,1.6-1.1c1.3,0,1.5,0.5,1.5,1.1
	L179.5,157.7z"/>
<path class="st5" d="M177.1,142.5c-0.4,0-7.2,4.2-7.2,7.7c0,1,0.8,1.9,1.8,1.9c0.4,0,0.7-0.1,1-0.3c0.2,0.7,0.9,1.3,1.7,1.3
	c0.4,0,0.9-0.2,1.2-0.5c0.4,0.9,1.4,1.2,2.3,0.8c0.4-0.2,0.7-0.5,0.8-0.8c0.3,0.3,0.7,0.5,1.2,0.5c0.8,0,1.4-0.5,1.7-1.3
	c0.3,0.2,0.6,0.3,1,0.3c1,0,1.8-0.8,1.8-1.9C184.3,146.7,177.5,142.5,177.1,142.5z"/>
<path class="st12" d="M177.1,139.6c-0.9,0-5.6,3.1-5.6,6c0,1,0.8,1.9,1.8,1.9c0.4,0,0.7-0.1,1-0.4c0.3,0.5,0.9,0.9,1.5,0.9
	c0.5,0,0.9-0.2,1.3-0.6c0.3,0.4,0.8,0.6,1.3,0.6c0.6,0,1.2-0.3,1.5-0.9c0.3,0.2,0.7,0.4,1,0.4c1,0,1.8-0.8,1.8-1.9
	C182.7,142.7,177.9,139.6,177.1,139.6z"/>
<path class="st5" d="M177,136.2c-0.6,0-4.2,2.8-4.2,4.8c0,1,0.8,1.9,1.8,1.9c0.3,0,0.6-0.1,0.9-0.3c0.6,0.8,1.8,1,2.6,0.4
	c0.2-0.1,0.3-0.3,0.4-0.4c0.3,0.2,0.7,0.3,1,0.3c1,0,1.8-0.8,1.8-1.9C181.3,139,177.5,136.2,177,136.2z"/>
</svg>
