<svg id="Layer_1" data-name="Layer 1" xmlns="http://www.w3.org/2000/svg" viewBox="0 0 1379.3 1080.89"><title>photography</title><g id="_Group_" data-name="&lt;Group&gt;"><g id="_Group_2" data-name="&lt;Group&gt;"><path id="_Path_" data-name="&lt;Path&gt;" d="M1305.35,320.73H990.49L953.9,195.39c-9.81-33.6-35.83-56-65-56H511.1c-29.17,0-55.19,22.43-65,56L409.51,320.73H94.65A84.3,84.3,0,0,0,10.35,405v730.91a84.31,84.31,0,0,0,84.31,84.31H1305.35a84.31,84.31,0,0,0,84.31-84.31V405A84.3,84.3,0,0,0,1305.35,320.73Z" transform="translate(-10.35 -139.36)" style="fill:#e65643"/><circle id="_Path_2" data-name="&lt;Path&gt;" cx="689.65" cy="631.12" r="412.56" style="fill:#b2d2d2"/><circle id="_Path_3" data-name="&lt;Path&gt;" cx="689.65" cy="631.12" r="346.74" style="fill:#123a5c"/><circle id="_Path_4" data-name="&lt;Path&gt;" cx="689.65" cy="631.12" r="110.38" style="fill:#66a8b2"/><rect id="_Rectangle_" data-name="&lt;Rectangle&gt;" x="73.85" y="247.75" width="149.31" height="80.4" style="fill:#212121"/><rect id="_Rectangle_2" data-name="&lt;Rectangle&gt;" x="520.98" y="162.36" width="337.34" height="12.32" style="fill:#123a5c"/><rect id="_Rectangle_3" data-name="&lt;Rectangle&gt;" x="596.9" y="45.87" width="185.5" height="71.67" style="fill:#b2d2d2"/><circle id="_Path_5" data-name="&lt;Path&gt;" cx="1210.16" cy="287.95" r="39.82" style="fill:#b2d2d2"/></g></g></svg>