<svg id="_1" data-name="1" xmlns="http://www.w3.org/2000/svg" viewBox="0 0 1381.73 1005.76"><title>sketching</title><path d="M1258.32,569.87c-4.07.08-6.27-1.24-9.94-2-6.42-1.34-13.24-1.14-19.68-2.4-7.81-1.53-13.85-3.66-22-3.61-7.89.05-14.67-.6-22,2.5-4.36,1.83-8.45,3.46-12.92,5-6.26,2.09-8.71,4.59-13.63,8.67-8.92,7.4-9.69,13-4.41,23.5,3.78,7.51,2.48,16.25,2.45,24.5,0,3.46-1.08,8,1.41,10.62,3.08,3.3,7.74,2.84,11.73,3.86,7.07,1.82,10.49,8.85,11,15.59.19,2.83-3.26,10-1.79,11.72,1.19,1.41,4.42-.18,5.87.2,2.23.59,3.6,2.75,5.86,3.67,3.9,1.58,8.18,2.37,12.12,4,.85.34,3.73,1.88,4.41,2.05,1.95.5,3.73-.09,5.61.3,4.06.85,5.84,6.54,3.66,10.28s-9.92,6.58-13.73,7.91c-9.27,3.24-14.89,10.06-20.15,18-3.5,5.31-8,13.68-7.91,20.06a47.53,47.53,0,0,0,0,6c.55,3.71-.09,1.81,2,4s4.91,2.63,6.11,5.87c.76,2,.17,3.92,1.36,6.16s2.69,2.63,4.11,4.4c4.24,5.28,5.76,5.73,12.51,5.58,5.09-.11,5.16.56,8.32,3.9,3.87,4.09,8.47,5.49,11.72,10.13s4.06,5.48,4,11.54c0,6.32,0,12.65,0,19,0,13.11-.86,26.56,0,39.63.3,4.9,3,9.27,4,14,1.42,6.72,5.87,6.32,11.62,7.82a70.82,70.82,0,0,0,7-18c1.83-7,.27-9-.64-15.85-.84-6.33,1.78-12,2.15-18.12.28-4.76,0-9.66,0-14.44,0-9.55-1.34-20.2-.1-29.61.66-5,2.15-8.88,2.11-14,0-5.36,0-10.72,0-16.08,0-8.34.27-16.21,1.89-24.11.64-3.11,2.7-6.48,6.12-6.09,4.76.54,5.88,8.28,6.06,12.16.38,7.94-2.86,21.31,1.92,27.65,7.52,10,16.21-.1,16.07-9.57-.06-3.84-1.16-8.1,1.87-10.61,4.51-3.74,7.5-1,10.1,2.51,4,5.31,4.11,8,4.07,14.56s0,13.4,0,20.1q0,53.64,0,107.29c0,4.08-.4,8.4-.1,12.46s1.94,7.81,2.21,11.93c.54,8.06-.1,16.4-.1,24.51,0,17.63,1.89,36.46-1.57,53.73-1.7,8.51-1.32,17.55-2.94,26.19-1.25,6.69-2,13.25-3.07,20-1.33,8.06-.3,16-2,24-1.86,8.8-.45,19-.45,28,0,8,0,16.07,0,24.11s-1.77,16-2,24.08c-.19,6.73-2.09,12.65-2.05,19.51a142,142,0,0,1-1.57,22.13c-1.35,9.24-1.25,20.42,3.52,28.5,6,10.11,14.78-3.6,17.59-10,9.52-21.52,10.78-47,12.41-70.26.52-7.39,3-14.67,4.12-21.94,1.26-8.1,1.92-16.16,3.56-24.15,3.48-16.9-2.52-35.29.89-52.21,5.64-27.91-.45-57.87-.45-86.05,0-15.4-2-30.26-2-45.65,0-13.47-1.26-27.57-.1-41,.65-7.57,2.14-14.4,2.11-22.13,0-5.94-.47-12.06.45-17.9.65-4.15,1.69-7.37,1.61-11.72-.07-3.42-.52-6.79.39-10.12a40.3,40.3,0,0,0,1.56-11.88c0-4-.26-8.06,0-12,.23-4.25,1.82-7.66,2-12,.11-2.6,1-3.63,1.61-6,.53-2.1-.1-4,.34-6,.7-3.15,2.54-6.88,5.67-7.82a43,43,0,0,0,2.45,7.81c1.28,3.37,1.21,6.78,2.35,10a22,22,0,0,0,5.11,6.6c3.65,2.4,4.2,1.06,6.56-2.55,4-6.18,6-10.74,6-18.08,0-3.38-.74-4.92-1.55-8-.85-3.26-.42-6.66-.45-10a33.77,33.77,0,0,1,.45-7.57,2.83,2.83,0,0,0,1.66-2.35c.45-1.94-.54-4.15-.21-6.12.88-5.12,1.89-12.14,8.12-12.12,6.79,0,7.42,8.33,14.13.13a18.2,18.2,0,0,0,4-8q-.1-2.06-.21-4.12c.41-1.69,2.31-2.08,2.37-3.8.07-2.11-3.25-6.47-4.32-8.22-1.24-2-3.11-3.36-4.5-5.37-2.86-4.16-1.46-11.42-1.46-16.58,0-5.38,1.43-13,.1-18.14-1.53-5.89-8.5-5.95-11.67-10.32-3.82-5.26.22-13.18-2.76-17.79-3.64-5.65-15-2-19.88-5.82-4.29-3.34-1.66-10.41,2.1-14.12a48.29,48.29,0,0,1,6.46-5.57c2.82-1.63,6.3-.65,9.42-2.8-1-9.71-12.52-11.08-19.88-13.68a33.55,33.55,0,0,0-12-1.95c-1.77,0-4.31-.5-6-.15-3.3.68-4.72,3.61-8,4.31-4.55,1-7.89-1.56-12-2.26-2-.33-4.06.54-6,.21-3-.51-4.85-2.18-8-2.2a11.54,11.54,0,0,0-6.12,1.55,7,7,0,0,0-2.34,2.16,5.52,5.52,0,0,1-3.63.34C1277.46,557,1261.76,569.81,1258.32,569.87Z" transform="translate(-9.14 -197.12)" style="fill:#9e1f63"/><path d="M1023.8,201.28c-3,0-3.56-2.73-6-3.67-1.89-.72-4-.48-6-.37-4.08.22-8,2.33-9.62,6.49-1.34,3.54,1.15,8.47-.26,11.72-1.76,4-8.36,1-12.16,1.76-7.77,1.51-10.12,9.4-10,16.14.05,3.88.5,8.22,0,12.07s-3.17,7.18-6,10c-3.32,3.32-6.24,2.78-5.66,7.91.42,3.68,3.18,6.4,3.65,10,.55,4.25.41,8.62-2,12.07-2.67,3.89-5.67,7.78-8.61,11.48-4.16,5.23-5.58,15.39-2.05,21.14,2,3.28,5.24,4.81,4.69,9.47-.61,5.25-4.22,8.33-4.14,14,.12,8.68,0,17.37,0,26,0,3.76-.75,8.35-.1,12,.47,2.65,2.11,12.27,4.51,13.77,8.11,5,9.72-18,9.63-21.78-.08-3.49.16-9,4.6-4.6,2.22,2.17,3.29,9.46,3.46,12.61.21,3.89-.67,8.08-.15,11.92.68,5,2.15,8.95,2.11,14.13-.08,9.2,1,18.94,0,28.07-.52,4.86-2.11,9-2,14.07.05,4.14,0,8.29,0,12.43a48.6,48.6,0,0,1-1.56,13.58c-1.18,4.53.86,9.74-.35,14.13-1.12,4.05-4.84,8.31-5.66,12.37-1,4.94-.45,10.47-.45,15.59v71.22c0,7,0,14,0,21,0,1.58-1,6.54.3,7.71,3,2.82,6.54-1.06,7.32-3.66,1.58-5.27,1.57-10.78,2.86-16.07s4.72-10.56,5.66-16c.85-4.94-.11-11-.1-16,0-2.81-.13-5.66,0-8.46.12-4.29,1.87-7.44,2.1-11.58.29-5.28,0-10.74,0-16-.08-6.24,2.11-11.55,2-18,0-3,1.08-4.27,1.55-6.47.55-2.58.29-4.9.4-7.57.19-4.51,3.89-12.49,9.77-11.92,2.61,8.68-1.42,19.06.19,27.91.9,4.95,2.15,8.74,2.11,13.93-.06,8,0,16.1,0,24.15,0,12.86,0,25.72,0,38.59,0,7.59-1.66,14.28-2.11,21.71s-2,14.55-1.89,21.94c.11,11.78.76,23.93,0,35.68-.28,4.47-2.1,7.82-2,12.43s0,9.36,0,14c0,9-2,16.64-2,25.61s0,17.67,0,26.5c0,17.28-1,34.87,0,52.11.24,4.43,2,7.78,2,12.38,0,5.06-.16,14.73,6,15.85,9.73,1.77,8.07-16.36,8.07-22.22q0-13,0-26.06c0-9.64,2-18.42,2-28.06a114.79,114.79,0,0,1,3.56-26.1c2.46-10.34.45-23.5.45-34.07,0-4.13.16-8.3,0-12.43-.15-5.55-2.09-9.94-2-15.65,0-4.16,0-8.31,0-12.47,0-6.16-1.39-11-2.11-17a267.77,267.77,0,0,1-1.89-32.72c0-4.81,0-9.61,0-14.42,0-5.68,1.51-9.65,2.11-15.1.39-3.57-.58-6.94.34-10.47a42,42,0,0,0,1.56-12c0-4.32-1-9.87-.1-14.07,1-4.47,2.2-7.25,2.12-12-.08-4,1.44-6.25,2.1-10,.7-4-.63-8,.35-12,.68-2.78,2.69-8.15,5.46-9.68,2.12-1.16,4.08.22,6.21-.23,1.46-.31,2.29-1.37,3.51-1.92,1.1,3.61.4,8,.41,11.83a45.18,45.18,0,0,0,1.57,12c.93,3.75.3,7.92,3.91,10.61,1.77,1.32,2.1,1.58,4.54,1.5,4.09-.13,2.91-.4,4.5-3.53,3.26-6.37,1.52-15.24,1.52-22.41q0-6.11,0-12.23c0-3.61-.79-8.18.4-11.58.32-.91,2.55-3.58,3.11-4.51.32-.53,2.8-5.61,2.85-5.65,8.72-5.43,9.69,22.34,9.68,25.75-.06,16.7,0,33.4,0,50.1,0,27.18-3.51,56.75,4,82.67,1.23,4.25,3.37,9.21,4.11,13.54.59,3.45-1.71,9.12.25,12.21,3.68,5.8,5.47-3.62,5.71-6.1.27-2.83-.5-5.8-.15-8.62.53-4.21,2-7.66,2.15-12,.48-11.89,2-23.13,2-35.19,0-11.3,1.65-24-.45-35-1.86-9.81-1.56-19.49-1.56-29.63,0-10.58,2-23.23.1-33.57-1-5.3-2.13-8.89-2.11-14.59,0-4.68,0-9.35,0-14,0-3.86.55-8.16,0-12-.58-4.39-2.08-7-2.05-12,0-6.36-.41-12.08,1.51-18,2.56-7.92,3.19-10,10.08-14.53,4.56-3,10.68-7.17,14-11.48A150.1,150.1,0,0,0,1120,375.66a12.4,12.4,0,0,0,2.06-6c.42-3.68,1.42-6.48,2.05-10.07,1.39-7.92-.95-14.29-6.12-20-4.92-5.47-5.66-12-10-17.59-3.33-4.25-6.21-9.81-12-10.51-2.22-.27-6.22,1.05-8.21.19-3.11-1.35-1.88-5-1.86-8.16,0-6.68,0-13.36,0-20,0-5.78.66-11.55-1.51-16.53-2.28-5.22-4.17-10.37-6.51-15.65-.84-1.9-1.52-4-2.45-5.91-1.41-2.84-4.15-5-5.17-8-1.11-3.3.69-7-.3-10.16-.54-1.73-2.94-4.62-4.06-5.92-2.05-2.38-2.68-2.94-6.11-4.06a33.83,33.83,0,0,1-7.91-3.42c-3.49-2-5-4.1-7.57-7.1C1042.62,204.74,1026.91,201.26,1023.8,201.28Z" transform="translate(-9.14 -197.12)" style="fill:#00aeef"/><path d="M114.17,272.71c-3.47-7.1-5.42-11.19-12.47-15.54-3-1.87-6.15-3.25-9.09-5-4.66-2.7-6.54-4.65-8.46-9.58-3.45-8.86-14.78-7.14-22.09-3.5a43.26,43.26,0,0,0-5.57,3.55c-1.27.87-2.59,1.5-4,2.39A36.71,36.71,0,0,0,42,254.63c-4.83,6.77-2.61,15.66-10,20.08s-16.37,5.1-20.08,14c-1.73,4.18-2,7.52-2,12,0,1.78-.52,4.41-.1,6.12s1.77,2,2.21,3.8a38.76,38.76,0,0,1,0,12.23c-1,3.94-3.38,7.17-2.21,12,.44,1.82,1.77,2,2.21,3.8s-.09,4.35-.1,6.12c0,4,.55,8.2-.45,12-1.75,6.72-3.67,18.66-1.16,25.61.57,1.57,4.21,8.55,5.56,8.74,4.66.67,3.9-9.93,4.5-12.35,1.06-4.24,1-7.6,1.52-12,.42-3.54,3.38-8.91,8.22-5.66,2.3,1.55,3.57,7.15,3.9,9.67.5,3.85,0,8.18,0,12.07v30.62a200.5,200.5,0,0,1-3.56,37.12c-1.8,9.82-.45,20.91-.45,30.91v31.62c0,7.46-2.25,20.24,1.42,26.55,6.4,11,11-5.85,12.17-10.51,2.13-8.33-1.14-17.65.34-26.06.78-4.43,2.14-7.28,2.11-12,0-4,0-8,0-12,0-9.26-1.9-21.12.45-30.11,3.83-14.73-3.94-36.91,6.07-49.71,1.24-1.59,4.18-5.09,5.91-6,3.4-1.81,8.13.52,11.73-.3,2.51-.57,5.58-2.9,7.91-4.11,4.37-2.28,7.23-3.91,8.06,2,1.44,10.28-2.16,20.14-2,30.15s0,20,0,30c0,6.43-1.59,11.72-2.11,17.94-.61,7.21.1,14.85.1,22.1s.07,14.41,0,21.61c-.08,9.06,2.1,17.5,2,26.6-.08,6.89,1.81,12.78,2.05,19.5.23,6.33,0,12.74,0,19.08v33.63c0,9.42-1.26,19.67,2,28,1,2.57-1.38,3.07,1.9,4.21,1.79.62,3.55-.42,4.69-1.6,2.75-2.84,1.44-8.85,1.42-12.62,0-4.74,1.33-7.59,2.11-12,.65-3.68-.1-8.26-.1-12V520.8c0-11-.42-22.09,0-33.08.2-5.86,1.25-13.3,3.5-18.73,2-4.82,4.3-9.05,4.61-14.33.5-8.45,0-17.13,0-25.61q0-6,0-12c0-2,.15-4,0-6-.15-2.78-2.41-5.55-2.3-8.06.41-9.16,16.29-1,18.83,1.89,6.66,7.52,5.47,16.83,5.47,26.21a181.22,181.22,0,0,1-3.52,34.57c-2.9,15.31-2.28,30.08-2.45,45.7-.07,6.32-2.12,12-2,18.42.05,4.79,0,9.6,0,14.39,0,10-1.42,21.36,0,31.26.37,2.63-.78,3.07,1.89,4.15,2,.81,4.68-.44,5.81-2,1.63-2.31,3.21-9.29,3.91-12.17.51-2.1-.11-4.12.34-6.12.42-1.83,1.79-2,2.22-3.8s-.54-4.16-.21-6.12c.51-3,2-4.91,2.15-8,.22-4-.37-8.05-.09-12,.38-5.37,2.08-9.95,2-15.58-.09-12.81,3.36-23.65,5.57-36.12.72-4.06.47-8.18.45-12.32,0-6.11,1.43-10.78,2.11-16.69,1.12-9.8-1-18.4,3.91-27.61,2.39-4.46,9-8.91,13.92-10,1.67-.38,10.67-.79,11.82.41,2.08,2.18-1.61,10.7-1.69,13.68-.29,11.18-.11,22.44,0,33.63.06,6.94-1.76,13.18-2,20-.14,3.35.22,6.74.09,10.09-.18,4.88-1.72,9.25-2.15,14.08-.87,9.75-.34,20.57.06,30.41.2,5,1.94,9.15,2,14.13.1,4.68-.06,9.36,0,14,.06,4.48-1.81,7.71-2,12-.21,4,0,8,0,12v82.18c0,5.87-.73,12.27,0,18.09.62,5.28,5.44,8.87,9.62,3.56,3-3.76,4.51-13,4.45-17.63-.1-7.36,0-14.74,0-22.11V627c0-8.64-1.5-18.63-.1-27.12.62-3.76,2-6.65,2.15-10.57.15-3.75,0-7.57,0-11.33V522.81c0-8.08-1.55-17.78-.1-25.66.66-3.6,2-6.28,2.15-10.08.13-3.28,0-6.63,0-9.92v-20q0-19,0-38.08c0-6-.18-10.77,2.45-16,2.82-5.65,6.68-9.4,13.29-7.71.67,6.91,2.36,12.56,2.3,19.84a32.92,32.92,0,0,0,1.56,9.92c.83,3.18.29,6.4.89,9.58.88,4.66,4.4,10,9.12,4,1.64-2.08,2.4-7.06,2.51-9.62.17-4,1.24-6.25,2.05-10,1.31-6.09-2.18-10.38-2.1-16,0-3.1.63-7,.1-10-.66-3.77-2.15-6-2.1-10,0-3.34,0-6.68,0-10q0-2,0-4.06c.25-1.87,1.34-3.1,1.6-4.41a95.57,95.57,0,0,0,2.45-19.6c0-5.73,1-12.52-.45-18-.93-3.57-.86-6.4-1.45-10-.57-3.44-2.83-6.68-3.66-10-1.42-5.69.71-11-2.46-16-3.73-5.94-8.31-5.82-14.13-9.53-4.67-3-9-4.72-13.88-7-7.29-3.33-12-9.1-20.09-11.12-6.19-1.55-13.62-.36-20-.45-3.85-.05-4.8.68-8,2.05-1.5.65-5.87,2.22-7.69,2.34C130.46,267.63,114.3,272.17,114.17,272.71Z" transform="translate(-9.14 -197.12)" style="fill:#f9ed32"/><path d="M567.7,221.53l-.34-1.62c-3.6-.56-6.32-2.18-10-2.44-5.67-.41-12.24-.92-17.29,1.91-4.5,2.52-8.42,7-12.41,10.16-2.48,2-5.78,3.35-7.73,5.91-1.59,2.08-2.49,5.83-3.87,8.22-4.48,7.79-11.41,6.82-18.43,9.93-7.87,3.49-13.16,7.71-16.14,16-1.21,3.39-2.74,6.65-4,10-1.38,3.69-1.3,6.33-1.9,10a9.19,9.19,0,0,1-1.68,4c-.48,2,.05,4.18-.73,6.06-1.05,2.53-3.57,2.74-5.29,4.41a55.84,55.84,0,0,0-4.5,5.57,23.36,23.36,0,0,0-3.55,20.08c2.58,8.2,13.52,2.65,14.12-3.95,3.83,3,2.1,20.53,1.07,25.45-1.73,8.24-2.48,16.6-5.57,24.55-1.82,4.69-4.66,16.53-.59,20.63,5.69,5.74,12.08-2.54,13.11-8,4.11,3.83,1.51,20.15,1.51,25.51V540.22c0,25.4-.07,50.81,0,76.21,0,8.48-2.58,15.87-3.9,24-.71,4.37-2.13,7.25-2.11,11.93A84.84,84.84,0,0,0,480,673c2.09,8.57,1,16.77,1.47,25.57.19,3.89,1.41,9.51,6,10.25,6.83,1.1,8-11.1,9.57-15.76,3-8.9,2.5-17.19,2.51-26.51a84.48,84.48,0,0,1,1.57-16.07c1-5.28,2.51-10.7,2.44-16-.06-4.41-.58-9.29.45-13.59,1.33-5.58,1.29-10.1,1.51-16s2.11-11.06,2-17c-.07-6.7,0-13.41,0-20.11a102.11,102.11,0,0,1,1.56-18.9c1.34-7.44-1-15.46.89-22.72,2.24-8.44,1.56-17.46,1.56-26.42,0-8,1.55-17.94-.45-25.61-1.1-4.22-1.85-7.42-1.6-12,.27-5,2.78-8.36,1.6-13.58-.76-3.38-3.52-5.89.3-9.05,3.52-2.91,7-1.63,9.65,1.1,6.25,6.42,4.52,17.14,4.52,25.55,0,4.48,0,9,0,13.44-.05,7,1.48,13.3,2,20.13.53,7,2,13.33,2,20.55,0,4,0,8,.05,12,.08,5.64-1.82,10.5-2.15,16-1.81,29.8.1,60.36.1,90.25v79.83c0,5.57.14,11.16,0,16.73-.11,6.29-2.14,11.82-2,18.14.08,5.71-1.53,9.64-2.12,15.1s.15,11.41.11,16.93.94,10.37,2,15.63c1,4.86,2.61,5.65,8,6,6.52.43,6.56-1.56,8-7.51,1.32-5.36,3.69-11.2,4.06-16.58.75-10.71-1.48-21.93-.15-32.57.42-3.34,1.84-6.15,2.21-9.52.34-3.13-.52-6.34-.21-9.47.77-7.66,4.08-14.79,4.16-22.51.16-14.89,0-29.79,0-44.68,0-5.72,0-11.44,0-17.15a148.39,148.39,0,0,1,1.6-20.41c.5-4-.13-8.29.89-12.15a40.09,40.09,0,0,0,1.56-11.82c0-5.6,1-9,2.11-14.14,2.2-10.09-1.27-20.59-3.66-30-.77-3,0-5.62-.34-8.62-.4-3.36-1.86-6.17-2.22-9.57-.54-5.17.1-10.82.1-16q0-6.77,0-13.54c0-2.1-.19-4.35,0-6.45.21-3.09,1.63-5.06,2.15-8,1.3-7.42-.1-16.48-.1-24.05,0-3.76-.75-8.35-.1-12,.39-2.23,1.82-3.79,2.21-6,.43-2.44-.1-5.52-.1-8a41.71,41.71,0,0,0-1.56-12c-1.08-4-.8-8.31,2.07-11.62s7.18-3.25,9.21,1.51c1,2.43-.06,5,.19,7.55.39,3.89,2,7.13,2.16,11.07.55,11.26-1.25,22.26,2,33.12.89,3,2.72,8.45,5.9,10.16,6.31,3.4,9.14-9.5,10.67-13.27,1.79-4.39,4.53-9.55,3.56-14.47-.9-4.53-3.54-6.35-.64-10.57s12.11-12.51,14.67-3.56c1.24,4.34-.1,11.11-.1,15.63q0,8.49,0,17c0,16.12-4.21,31.57-4,47.61.13,10.1-2.23,19.69-2.06,29.76.12,7.38-1.73,13.73-2,20.9-.24,6.45,0,13,0,19.44.06,8.33-2.15,15.94-2,24.16.12,6.17-1.82,11.47-2.05,17.54-.18,4.72-.23,9.71,0,14.44.29,5.77,2.12,11.05,3.56,16.56,1.18,4.5,1.4,12.37,8.62,9.73,8.3-3,5.91-23,5.91-29.7,0-6.21-.63-12.76-.1-18.94.79-9.24,3.72-18.45,4.22-27.71.4-7.29,1.8-14.3,1.94-21.56.14-7.07.17-13.12,2-20,3-11.66,3.71-22.58,4-34.62.11-4.39,1.81-7.72,2-12,.21-4,0-8,0-12s-.07-8,0-12c.11-5.61,2.06-10.37,2-16.08-.11-8.56.27-16.26,4-24.11,1.71-3.58,3.58-6.4,8.06-6,2.92.27,2.71-.5,4.11,1.84,1.09,1.82-.14,8.43-.14,10.76,0,8-1.54,17.74-.1,25.56.6,3.26,3.18,7.25,6.61,7.61,4.83.5,6-5.18,7.07-9.61,2-7.91,1.34-16,2.41-24.1.69-5.23,4.27-20.36,12.66-12.61,4.16,3.84,1.42,19.48,1.42,24.79,0,11.42.66,22.7-1.57,33.87-1.27,6.39-.92,13.14-2,19.64-1,6.11-.46,12.42-.45,18.59,0,5.35,0,10.69,0,16,.09,6.29-2.18,11.66-2.1,17.95.13,10.47-2,20.29-2,30.65a118.45,118.45,0,0,0,.44,12.5c.78,7.29.15,16,2,23,.82,3.09,1.47,4.67,1.55,8s-.64,7.05,0,10.22c.47,2.51,1.59,3.47,2.15,5.76.79,3.21-.67,6.68.3,10,2.95-.63,4.7-7.13,6.11-9.87,2.74-5.33,2.75-8.79,3.4-14.52.33-2.92,1.78-5.15,2.22-8,.39-2.51-.21-5.42-.15-8,.08-3.46,1-5.78,1.6-9.08.72-4.21.23-8.29.89-12.52,1.7-10.84,1.56-21.49,1.56-32.58,0-15.19-2.21-32.17.45-47.09A238.41,238.41,0,0,0,690,489.57c0-11.45,2-22,2-33.52,0-8.4,2.12-15.56,2-24.05-.11-8.32,7.58-13.38,8.06-22.05.44-7.95,0-16.08,0-24.05,0-4-.06-8,0-12,.07-4.76-1.83-7.29-2-12-.26-10.12-13.38-11.42-15.63-20.48-.91-3.68-.42-7.73-.45-11.58,0-5.18,1.78-9.11,2.05-14,.22-4-.11-8-.05-12,.07-5-1.41-5.83-3.56-10-3.77-7.39-3.83-15.58-11-21.7-2.26-1.94-6.54-2.79-9.14-4.85-1-.79-1.66-2.45-2.76-3.07-2.34-1.32-5.2-.92-7.76-2.34-3.57-2-5.25-5.2-8.31-7.62-3.73-2.95-9.26-2.93-13.63-4.07s-9.38,1.15-12.57-2.31c-3.54-3.83-5.56-11.53-8-16.22C604.66,222.53,576.87,221.64,567.7,221.53Z" transform="translate(-9.14 -197.12)" style="fill:#8dc63f"/><path d="M291.75,558.55c-2.12,2.84-3.44,1.2-6,1.89s-4.06,2.29-6.45,3.63c-3,1.7-4.86,2-7.57,4.4s-5.07,5.17-7.57,7.66c-4.67,4.65-8.16,9.69-12.46,14.58-3.39,3.85-7.09,6.54-8.12,11.92-.35,1.82.21,4.06.14,5.92-.11,3.21-1.07,5.49-1.6,8.57-1,5.73-.43,11.72-.45,17.53s.16,8.9,2.55,14.09a17.22,17.22,0,0,1,1.06,12c-3.08,10.11-12.57,21.43-5.21,32.16,4.86,7.08,14.63,5.83,21.19,10.44a39.83,39.83,0,0,1,14,19.53c2.66,8.68,6.58,16.93,6.51,26.06,0,4,.56,8.21-.45,12-.6,2.28-1.35,3.48-1.61,5.91-.31,2.84.35,5.36-.39,8.22-.88,3.41-2.93,6.65-3.67,9.81-.46,2,.61,4.24.21,6.23-.37,1.84-1.61,2.29-2.17,4.24-2.36,8.32-1.95,17.28-1.95,26.11,0,11.19-.12,22.38,0,33.57.06,6.17-1.55,11.59-2,17.64-.4,5.41-2.27,9.4-3.56,14.49-2.46,9.72-.45,22.45-.45,32.52,0,16.42.07,32.84,0,49.26,0,6.15,1.07,10.68,2.11,16.53.34,1.93-.52,4-.21,6,.45,2.73,2.09,5.09,2.61,7.86,1.67-.42,4-7.52,5-9.76a130.56,130.56,0,0,0,5-14.13c3.12-9.82,0-20.44,2-30.61s1.6-20.46,1.56-31.07c0-10,2.93-18.87,4-28.51,1-8.73,4.07-17.09,4-26.06-.06-8.17-1.51-18-.1-26.06,1.46-8.32,4.1-15.3,4.11-24.05,0-9.35,0-18.71,0-28.06a50.76,50.76,0,0,1,1.51-13.58c1.11-4.4,2.55-7.9,2.49-12.47-.12-9.31-.07-16,4.53-24,5.8-10.06,11.61.74,11.51,8-.13,9.35.07,18.7,0,28.05,0,3.46-1,7.43,2.41,9.62,1,.66,4.72,1,5.76.55,2.4-1.1,1.15-1.52,2.34-3.66,1.66-3,3-5,3.56-8.36,1-5.47-1.64-11.21,1.42-16.28,1-1.72,4.38-6,6.5-6.16,3.13-.25,5.61,5.65,6.17,8.15.89,3.93-.1,9.56-.1,13.59,0,6.66.26,13.38,0,20-.26,8-2.27,16.33-3.62,24.21-1.26,7.33-2.81,14.64-4,21.94-2.36,14.39-4.49,28.7-6.89,43-1.3,7.72-3.67,15.22-3.56,23.15.09,6.81-2.09,12.41-2,19,.07,5.86,0,11.73,0,17.59,0,5.54-1.15,12.6.35,17.88,7.5.1,10.32-20.26,11.63-25.9,1-4.39,4.4-7.78,5.66-12s.46-9.65.41-14,1.52-7.77,2-12a128,128,0,0,1,2.44-13.58c2.07-9.17,5.27-19,5.62-28.55.07-1.85-.58-4.29-.15-6.07s1.77-2,2.21-3.8c.91-3.78-.88-8.29-.21-12.13.39-2.23,1.85-3.78,2.22-6,.33-2-.71-3.68.29-5.62,1.67-3.26,6.21-5.64,9.68-4.1,8.49,3.79,6.49,17.24,4,23.74-3.95,10.14-2.09,23.15-2,34,.05,7.62-2,14.46-2,22,.06,9.51-2,18.56-2,28.16.1,20,.17,40.06-.05,60.07-.1,8.89,2,17.58,3.6,26.26,1,5.28-.14,10.62.9,15.83,1.28,6.39,1.2,12,1.51,18.69.15,3.15.94,4.55,1.6,7.36.81,3.43-.11,6.77.85,10.13,1,3.63,5.11,10.16,9.71,7.8s4.28-15.73,5.36-19.88c4.45-17.12,4.57-33.89,4.57-51.56V937.92c0-9.29,1.31-19.6-.45-28.75-1.42-7.36-3.62-13.78-3.55-21.36.11-11.87.38-23.54-1.57-35.08-2.15-12.71-4.44-25.16-4.45-38.13q0-29.79,0-59.59c0-8.7-1.27-17.69,2.5-25.6,1.88-3.95,6.43-19.24,11.57-12.67,5.37,6.87.49,19.88,1.87,27.75.89,5.08,4.49,9.58,5.72,14.52.27,1.09-.19,5,.68,5.71,3,2.34,5.36-1.36,5.87-3.71,1.56-7.12-.14-16.74-.14-24.09,0-8.78-2-15.28-2-24.05,0-8,0-16,0-24.05,0-8.84,2.45-14.94,7.57-22.15,4.22-5.94,2.4-14.65,2.45-21.94.06-8.7-3.09-15.53-7.46-22.6-1-1.55-2-1.37-2.66-3.36s.52-4.21.2-6.11a38.4,38.4,0,0,0-4.57-12c-4.06-6.61-11.12-12.32-17.49-16.55-10.54-7-23-10.76-32.17-19.49-10-9.54-23.35-16-37.73-11.74C316,553.43,292.09,558.1,291.75,558.55Z" transform="translate(-9.14 -197.12)" style="fill:#f7941d"/><path d="M818.7,520.41c-.9,4.3-4.48,4.05-8,4-5.57-.08-10.35-.49-15.47,1.87-12.73,5.87-24.74,16.1-24.59,30.7.06,6.23,2.28,19.19-1.42,24.1-2.29,3-7.43,4.22-10.66,6-1.09.59-3.39,2.76-4.41,3.11-2.42.85-4.73-.12-7.13.81-3.17,1.22-5.88,5.48-8.91,7.16s-7.11,2.72-10,4c-3.35,1.44-7.9,2.65-10.16,6-1.35,2-1.19,2-1.47,4.5q.13,2.08.16,4.17a2.83,2.83,0,0,1-1.66,2.35c-1.41,6.53-1.39,15.41,2,21.11,4.31,7.23,9.31,13.23,7.68,22.54-1.55,8.85-6.7,17.2-8.22,26.06-1.63,9.49.1,21.16,2.61,30.17.83,3,2.91,11.31,7.67,10.2,2.36-.55,2.83-8.25,3.41-10.76,1.84-7.85-4.1-22.16,6.41-23.64s8.07,11,8.07,18c0,6.21.3,12.49,0,18.69-.27,6.72-3.26,12.42-4.16,18.94-1.4,10.19.1,21.7.1,32,0,11.56-.29,23.16,0,34.72.11,4.38,1.79,7.69,2,11.93.28,4.64,0,9.42,0,14.07,0,3-1,9.93,2.46,11.77,4.14,2.23,6.85-6.94,8.11-9.77,7.18-16.12,1.49-35.35,3.36-52.55.53-4.89,2.13-8.52,2.11-13.58a44.17,44.17,0,0,1,1.57-12c2-8.2,1.61-16.77,6.41-23.61,2-2.8,6-7.79,10.17-6.63,3.68,1,5.66,7.34,8.41,9.86,1.48,1.36,2.55.26,4.11,2.2s1.34,4,1.45,6.12c.34,6.25-.84,10.74-2.11,16.53-1.15,5.23-1.91,10.38-3.45,15.7-1.39,4.8-2.58,8.81-2.5,13.86.1,6.1-1.33,10.62-2.12,16.5-.52,3.9.47,7.65-.34,11.62a85.14,85.14,0,0,0-1.5,14.63c-.24,6-2.1,11.14-2.05,17.35.08,9,1.13,18.87-.45,27.74-2.83,15.86-1.46,32.33-1.55,48.46,0,8.13,1.88,15.62,2,23.65.07,3.48-.43,7.06-.15,10.52s1.8,6.1,2.22,9.42-.22,6.65.34,10.09c.63,3.88,1.67,6.36,1.56,10.51s.91,6.68,1.56,10.56-.39,7.9.35,11.58c.36,1.78,3.56,10.38,5.61,9.76,1.57-.47,2.09-4.61,2.4-5.74a138.58,138.58,0,0,0,4.18-20.15c1.08-9.54,4.13-18.87,3.94-28.44-.16-8.23.08-15.55-1.55-23.62-1.68-8.29-.45-17.71-.45-26.15V907.4c0-18.37-1.9-38.26,1.51-56.3,5.1-27,6.51-54.23,6.51-82.13,0-2,0-4,0-6,0-3.08,1-4.17,1.56-6.47a65.3,65.3,0,0,0,2.39-13.58c.2-4.9,2.09-8.86,2.06-14s-.3-10.74,0-16c.17-3.42,2.13-11.34,6-12.21,5.72-1.29,6.11,8.3,6.06,12.21-.06,4.26-1,10-.1,14.13,1.19,5.4,4.49,6.88,9.83,5.61.51-4.7,2.58-7.34,3.91-11.72,1.18-3.89.18-7,1.92-10.51,1.08-2.19,0-2.59,2.34-3.67.95-.43,5.42-.14,6.31.44,3,2,3.9,8.52,3.85,11.74-.3,21.5,0,43,0,64.53V885.2c0,4.16,0,8.31,0,12.47,0,6.63-1.63,10,6,9.61,5.78-.32,7.14-2.59,8.5-8a131.75,131.75,0,0,0,3.63-17.69c.63-5.94-.1-12.46-.1-18.44,0-4,0-8,0-12.07-.07-5.28,1.63-9.53,2.15-14.63s.09-10.79-.06-15.89c-.18-6.18-2.33-11.76-2.09-18,.21-5.4,1.85-10.2,2-15.6s-.41-10.73,0-16c.3-4.32,2.1-7.56,2-12-.05-4,.07-8,0-12-.12-9.52,2.93-16.57,12.07-20.15,4.18-1.64,5.37-.39,6-5.86.41-3.51-1.32-8.46.35-11.67,1.12-2.16,4.88-5.3,7.22-4.11,2.72,1.39,2.22,9.33,2.85,11.73,5.32,20.41-4.33,44.87,6.07,64.18,1.85,3.43,3.32,7.46,7.06,4.15,2.19-1.94,4-9.42,4.57-12.22.87-4.22-.1-9.83-.1-14.13,0-5.22.64-10.88,0-16-.49-4.27-2.57-7.8-3.6-11.92-1-3.84-.46-8.06-.45-12,0-4.45-.29-7.89,1.46-12,2.44-5.72,5.41-12.08,4.65-18.52-.9-7.56-3.25-13.85-8.61-19.11-4.2-4.12-9.48-8.25-13-12.91-2.52-3.29-3.29-6.14-4.45-9.58-1.41-4.18-3.95-7.58-4.11-12.07-.36-9.71-5.62-15.59-13.54-20.54-6.56-4.09-14.13-6.69-14.51-15.54-.21-4.86,1.13-6.63,3.55-10.46a31.36,31.36,0,0,0,5-11.59c.87-3.79,3.13-6.24,3.61-10a55.68,55.68,0,0,0,0-12.12c-.62-5.31-2-3.73-5.61-6.42s-4.25-7.68-7-11.17a36.1,36.1,0,0,0-6-6c-2.76-2-6.47-1.32-9.18-2.84-5.8-3.27-6.3-14-12.32-15.75-1.85-.53-3.81.34-5.77-.24C829,511.5,818.82,521,818.7,520.41Z" transform="translate(-9.14 -197.12)" style="fill:#be1e2d"/></svg>