<svg id="Violin" xmlns="http://www.w3.org/2000/svg" viewBox="0 0 394.71 403.48"><title>violin</title><path id="Body" d="M103.34,409.83C55.87,364.06,27.55,328,79.09,284.23c26.32-24.27,48.36-38.8,48.36-38.8s6.56,33.34,53.52-1S186.08,199,186.08,199l27-28.75S257.5,118.91,323,182s15.78,109.4,15.78,109.4l-27.75,28s-12.65-41.41-45.22,6.77,1,53.52,1,53.52-13.72,22.56-37,49.74C188.3,481.76,150.4,455.21,103.34,409.83Z" transform="translate(-51.41 -54.75)" style="fill:#ff9800"/><path id="StringMount" d="M166.36,371.13l-5.91,6.13c-6.67-.95-12.27,4.41-18.83,9.91S109.84,416,109.84,416l-6.5-6.2-6.45-6.28s22.46-26.06,27.7-32.81,10.4-12.54,9.21-19.18l5.91-6.13Z" transform="translate(-51.41 -54.75)" style="fill:#5d4037"/><polygon id="FingerBoard" points="178.85 196.79 303.2 73.82 323.83 93.71 209.68 227.17 178.85 196.79" style="fill:#5d4037"/><path id="ChinRest" d="M78.61,284.64s60.92,48.43.94,100.9C53.42,353.95,32.54,324.21,78.61,284.64Z" transform="translate(-51.41 -54.75)" style="fill:#5d4037"/><path id="FHoleR" d="M250.1,318.23l-38.17,41.53a8.89,8.89,0,1,1-12.46-1.58l38.12-39.95a8.88,8.88,0,1,1,12.51,0Z" transform="translate(-51.41 -54.75)" style="fill:#0e0b2c"/><g id="FHoleL"><path d="M192.08,259.82,150.55,298a8.89,8.89,0,1,0,1.58,12.46l39.95-38.12a8.88,8.88,0,1,0,0-12.51Z" transform="translate(-51.41 -54.75)" style="fill:#0e0b2c"/></g><path id="PegBox" d="M411.53,106.37l-36.29,42.09-10.31-9.94-10.31-9.94,40.74-37.8S387,57.5,421.64,65.94l12.14-11.19,12.35,11.9L435.38,79.19C445.09,113.47,411.53,106.37,411.53,106.37Z" transform="translate(-51.41 -54.75)" style="fill:#c16729"/><g id="Pegs"><path id="A" d="M419.13,125.44a3.28,3.28,0,0,1-4.64.08l-10.64-10.26,4.29-5L419,120.8A3.28,3.28,0,0,1,419.13,125.44Z" transform="translate(-51.41 -54.75)" style="fill:#5f4037"/><path id="E" d="M405.44,141.4a3.28,3.28,0,0,1-4.64.08l-10.64-10.26,4.29-5,10.9,10.51A3.28,3.28,0,0,1,405.44,141.4Z" transform="translate(-51.41 -54.75)" style="fill:#5f4037"/><path id="D" d="M368.9,90.48a3.28,3.28,0,0,0,.08,4.64l10.64,10.26,4.82-4.47-10.9-10.51A3.28,3.28,0,0,0,368.9,90.48Z" transform="translate(-51.41 -54.75)" style="fill:#5f4037"/><path id="G" d="M353.5,104.79a3.28,3.28,0,0,0,.08,4.64l10.63,10.25L369,115.2l-10.89-10.5A3.28,3.28,0,0,0,353.5,104.79Z" transform="translate(-51.41 -54.75)" style="fill:#5f4037"/></g></svg>