<?xml version="1.0" encoding="utf-8"?>
<!-- Generator: Adobe Illustrator 21.1.0, SVG Export Plug-In . SVG Version: 6.00 Build 0)  -->
<svg version="1.1" id="Violin" xmlns="http://www.w3.org/2000/svg" xmlns:xlink="http://www.w3.org/1999/xlink" x="0px" y="0px"
	 viewBox="0 0 216 216" style="enable-background:new 0 0 216 216;" xml:space="preserve">
<style type="text/css">
	.st0{opacity:0.4;fill:#D1D3D4;enable-background:new    ;}
	.st1{fill:#FF9800;}
	.st2{fill:#5D4037;}
	.st3{fill:#0E0B2C;}
	.st4{fill:#C16729;}
	.st5{fill:#5F4037;}
</style>
<title>violin2</title>
<path id="Shadow" class="st0" d="M216,191.6c0,8-48.4,14.5-108,14.5S0,199.6,0,191.6c0-8,48.3-14.5,108-14.5S216,183.6,216,191.6z"
	/>
<path id="Body" class="st1" d="M55.5,163.2C35,143.5,22.8,127.9,45,109c11.4-10.5,20.9-16.7,20.9-16.7s2.8,14.4,23.1-0.4
	s2.2-19.6,2.2-19.6l11.7-12.4c0,0,19.2-22.2,47.5,5.1s6.8,47.2,6.8,47.2l-12,12.1c0,0-5.5-17.9-19.5,2.9s0.4,23.1,0.4,23.1
	s-5.9,9.7-16,21.5C92.2,194.3,75.8,182.8,55.5,163.2z"/>
<path id="StringMount" class="st2" d="M82.7,146.5l-2.6,2.6c-2.9-0.4-5.3,1.9-8.1,4.3c-2.8,2.4-13.7,12.4-13.7,12.4l-2.8-2.7
	l-2.8-2.7c0,0,9.7-11.2,12-14.2c2.3-2.9,4.5-5.4,4-8.3l2.6-2.6L82.7,146.5z"/>
<polygon id="FingerBoard" class="st2" points="110.3,94.9 164,41.8 172.9,50.4 123.6,108 "/>
<path id="ChinRest" class="st2" d="M44.8,109.2c0,0,26.3,20.9,0.4,43.6C33.9,139.1,24.9,126.3,44.8,109.2z"/>
<path id="FHoleR" class="st3" d="M118.8,123.7l-16.5,17.9c1.3,1.7,1,4.1-0.7,5.4c-1.7,1.3-4.1,1-5.4-0.7c-1.3-1.7-1-4.1,0.7-5.4
	c0,0,0,0,0,0l16.5-17.2c-1.5-1.5-1.5-3.9,0-5.4c1.5-1.5,3.9-1.5,5.4,0C120.3,119.7,120.3,122.2,118.8,123.7
	C118.8,123.7,118.8,123.7,118.8,123.7z"/>
<g id="FHoleL">
	<path class="st3" d="M93.8,98.5L75.9,115c-1.7-1.3-4.1-1-5.4,0.7c-1.3,1.7-1,4.1,0.7,5.4c1.7,1.3,4.1,1,5.4-0.7c0,0,0,0,0,0
		l17.2-16.5c1.5,1.5,3.9,1.5,5.4,0c1.5-1.5,1.5-3.9,0-5.4C97.7,97,95.3,97,93.8,98.5C93.8,98.5,93.8,98.5,93.8,98.5L93.8,98.5z"/>
</g>
<path id="PegBox" class="st4" d="M188.5,32.2l-15.7,18.2l-4.5-4.3l-4.5-4.3l17.6-16.3c0,0-3.6-14.4,11.3-10.7l5.2-4.8l5.3,5.1
	l-4.6,5.4C203,35.3,188.5,32.2,188.5,32.2z"/>
<g id="Pegs">
	<path id="A" class="st5" d="M191.8,40.5c-0.5,0.6-1.4,0.6-2,0c0,0,0,0,0,0l-4.6-4.4l1.9-2.2l4.7,4.6
		C192.3,39,192.3,39.9,191.8,40.5C191.8,40.5,191.8,40.5,191.8,40.5z"/>
	<path id="E" class="st5" d="M185.9,47.4c-0.5,0.6-1.4,0.6-2,0c0,0,0,0,0,0l-4.6-4.4l1.9-2.2l4.7,4.5
		C186.4,45.9,186.4,46.8,185.9,47.4C185.9,47.3,185.9,47.4,185.9,47.4z"/>
	<path id="D" class="st5" d="M170.1,25.4c-0.5,0.6-0.5,1.5,0,2c0,0,0,0,0,0l4.6,4.4l2.1-1.9l-4.7-4.5
		C171.6,24.8,170.7,24.8,170.1,25.4C170.1,25.4,170.1,25.4,170.1,25.4z"/>
	<path id="G" class="st5" d="M163.5,31.6c-0.5,0.6-0.5,1.5,0,2c0,0,0,0,0,0l4.6,4.4l2.1-1.9l-4.7-4.5C164.9,31,164,31,163.5,31.6z"
		/>
</g>
</svg>
