<svg id="Violin" xmlns="http://www.w3.org/2000/svg" viewBox="0 0 500.37 454.25"><title>violin2</title><path id="Shadow" d="M506.18,475.47C506.18,494,394.17,509,256,509S5.82,494,5.82,475.47s112-33.53,250.17-33.53S506.18,457,506.18,475.47Z" transform="translate(-5.82 -54.75)" style="fill:#d1d3d4;opacity:0.4000000059604645;isolation:isolate"/><path id="Body" d="M134.34,409.83C86.87,364.06,58.55,328,110.09,284.23c26.32-24.27,48.36-38.8,48.36-38.8s6.56,33.34,53.52-1S217.08,199,217.08,199l27-28.75S288.5,118.91,354,182s15.78,109.4,15.78,109.4l-27.75,28s-12.65-41.41-45.22,6.77,1,53.52,1,53.52-13.72,22.56-37,49.74C219.3,481.76,181.4,455.21,134.34,409.83Z" transform="translate(-5.82 -54.75)" style="fill:#ff9800"/><path id="StringMount" d="M197.36,371.13l-5.91,6.13c-6.67-.95-12.27,4.41-18.83,9.91S140.84,416,140.84,416l-6.5-6.2-6.45-6.28s22.46-26.06,27.7-32.81,10.4-12.54,9.21-19.18l5.91-6.13Z" transform="translate(-5.82 -54.75)" style="fill:#5d4037"/><polygon id="FingerBoard" points="255.44 196.79 379.8 73.82 400.42 93.71 286.28 227.17 255.44 196.79" style="fill:#5d4037"/><path id="ChinRest" d="M109.61,284.64s60.92,48.43.94,100.9C84.42,353.95,63.54,324.21,109.61,284.64Z" transform="translate(-5.82 -54.75)" style="fill:#5d4037"/><path id="FHoleR" d="M281.1,318.23l-38.17,41.53a8.89,8.89,0,1,1-12.46-1.58l38.12-39.95a8.88,8.88,0,1,1,12.51,0Z" transform="translate(-5.82 -54.75)" style="fill:#0e0b2c"/><g id="FHoleL"><path d="M223.08,259.82,181.55,298a8.89,8.89,0,1,0,1.58,12.46l39.95-38.12a8.88,8.88,0,1,0,0-12.51Z" transform="translate(-5.82 -54.75)" style="fill:#0e0b2c"/></g><path id="PegBox" d="M442.53,106.37l-36.29,42.09-10.31-9.94-10.31-9.94,40.74-37.8S418,57.5,452.64,65.94l12.14-11.19,12.35,11.9L466.38,79.19C476.09,113.47,442.53,106.37,442.53,106.37Z" transform="translate(-5.82 -54.75)" style="fill:#c16729"/><g id="Pegs"><path id="A" d="M450.13,125.44a3.28,3.28,0,0,1-4.64.08l-10.64-10.26,4.29-5L450,120.8A3.28,3.28,0,0,1,450.13,125.44Z" transform="translate(-5.82 -54.75)" style="fill:#5f4037"/><path id="E" d="M436.44,141.4a3.28,3.28,0,0,1-4.64.08l-10.64-10.26,4.29-5,10.9,10.51A3.28,3.28,0,0,1,436.44,141.4Z" transform="translate(-5.82 -54.75)" style="fill:#5f4037"/><path id="D" d="M399.9,90.48a3.28,3.28,0,0,0,.08,4.64l10.64,10.26,4.82-4.47-10.9-10.51A3.28,3.28,0,0,0,399.9,90.48Z" transform="translate(-5.82 -54.75)" style="fill:#5f4037"/><path id="G" d="M384.5,104.79a3.28,3.28,0,0,0,.08,4.64l10.63,10.25L400,115.2l-10.89-10.5A3.28,3.28,0,0,0,384.5,104.79Z" transform="translate(-5.82 -54.75)" style="fill:#5f4037"/></g></svg>