<?xml version="1.0" encoding="utf-8"?>
<!-- Generator: Adobe Illustrator 23.0.6, SVG Export Plug-In . SVG Version: 6.00 Build 0)  -->
<svg version="1.1" id="Layer_1" xmlns="http://www.w3.org/2000/svg" xmlns:xlink="http://www.w3.org/1999/xlink" x="0px" y="0px"
	 viewBox="0 0 1637.2 676.4" style="enable-background:new 0 0 1637.2 676.4;" xml:space="preserve">
<style type="text/css">
	.st0{fill:url(#SVGID_1_);stroke:#F9F9F9;stroke-miterlimit:10;}
	.st1{fill:#F7F7F7;}
</style>
<g>
	
		<linearGradient id="SVGID_1_" gradientUnits="userSpaceOnUse" x1="0" y1="452.2" x2="1637.2" y2="452.2" gradientTransform="matrix(1 0 0 1 0 -114)">
		<stop  offset="0" style="stop-color:#638DED"/>
		<stop  offset="1" style="stop-color:#9FBBF8"/>
	</linearGradient>
	<rect class="st0" width="1637.2" height="676.4"/>
</g>
<g id="Layer_1_1_">
	<g>
		<path class="st1" d="M1016.7,436.1H620.5c-2.8,0-5-2.2-5-5V209c0-10.1,8.2-18.3,18.3-18.3h369.6c10.1,0,18.3,8.2,18.3,18.3v222.1
			C1021.7,433.9,1019.5,436.1,1016.7,436.1z M625.5,426.1h386.2V209c0-4.6-3.7-8.3-8.3-8.3H633.8c-4.6,0-8.3,3.7-8.3,8.3V426.1z"/>
		<path class="st1" d="M1028.8,485.7H605.5c-9.3,0-16.9-7.6-16.9-16.9v-37.6c0-2.8,2.2-5,5-5h450c2.8,0,5,2.2,5,5v34.6
			C1048.6,476.8,1039.7,485.7,1028.8,485.7z M598.6,436.2v32.6c0,3.8,3.1,6.9,6.9,6.9h423.3c5.4,0,9.8-4.4,9.8-9.9v-29.6H598.6z"/>
		<g>
			<path class="st1" d="M994.4,454.1c-1.1,0-1.9,0.8-1.9,1.9s0.8,1.9,1.9,1.9s1.9-0.8,1.9-1.9C996.3,454.9,995.5,454.1,994.4,454.1z
				"/>
			<path class="st1" d="M970.8,454.1c-1.1,0-1.9,0.8-1.9,1.9s0.8,1.9,1.9,1.9s1.9-0.8,1.9-1.9C972.7,454.9,971.9,454.1,970.8,454.1z
				"/>
			<circle class="st1" cx="1016" cy="456" r="1.9"/>
			<path class="st1" d="M593.6,431.2v37.6c0,6.5,5.3,11.9,11.9,11.9h423.3c8.2,0,14.8-6.7,14.8-14.9v-34.6H593.6z M761.3,460.9
				H615.4c-2.8,0-5-2.2-5-5s2.2-5,5-5h145.9c2.8,0,5,2.2,5,5S764.1,460.9,761.3,460.9z M970.8,464.1c-4.4,0-8.1-3.7-8.1-8.1
				c0-4.5,3.6-8.1,8.1-8.1c4.5,0,8.1,3.6,8.1,8.1S975.3,464.1,970.8,464.1z M994.4,464.1c-4.4,0-8.1-3.7-8.1-8.1
				c0-4.5,3.6-8.1,8.1-8.1c4.5,0,8.1,3.6,8.1,8.1S998.9,464.1,994.4,464.1z M1016,464.1c-4.4,0-8.1-3.7-8.1-8.1
				c0-4.5,3.6-8.1,8.1-8.1s8.1,3.6,8.1,8.1S1020.5,464.1,1016,464.1z"/>
		</g>
		<g>
			<path class="st1" d="M1003.4,195.7H633.8c-7.3,0-13.3,6-13.3,13.3v222.1h396.2V209C1016.7,201.7,1010.7,195.7,1003.4,195.7z
				 M819.9,235.9c0-4.5,3.7-8.2,8.2-8.2h137.2c4.6,0,8.2,3.6,8.2,8.2v64.6c0,4.6-3.6,8.2-8.2,8.2H828.1c-4.6,0-8.2-3.6-8.2-8.2
				V235.9z M822.5,326.2h146c2.8,0,5,2.2,5,5s-2.2,5-5,5h-146c-2.8,0-5-2.2-5-5S819.7,326.2,822.5,326.2z M750.7,250.2
				c-1.9-2-1.9-5.1,0.1-7.1c2-1.9,5.1-1.9,7.1,0.1l30.3,31.3c1.9,1.9,1.9,5,0,7l-30.9,31.7c-1,1-2.3,1.5-3.6,1.5
				c-1.3,0-2.5-0.5-3.5-1.4c-2-1.9-2-5.1-0.1-7.1l27.5-28.2L750.7,250.2z M703.6,322l33.5-91c1-2.6,3.8-3.9,6.4-3
				c2.6,1,3.9,3.8,3,6.4l-33.5,91c-0.7,2-2.7,3.3-4.7,3.3c-0.6,0-1.2-0.1-1.7-0.3C704,327.4,702.7,324.6,703.6,322z M659,274.5
				l30.2-31.3c1.9-2,5.1-2,7.1-0.1c2,1.9,2,5.1,0.1,7.1L669.6,278l27.4,28.2c1.9,2,1.9,5.1-0.1,7.1c-1,0.9-2.2,1.4-3.5,1.4
				c-1.3,0-2.6-0.5-3.6-1.5L659,281.5C657.1,279.5,657.1,276.5,659,274.5z M660.3,351h87.8c2.8,0,5,2.2,5,5s-2.2,5-5,5h-87.8
				c-2.8,0-5-2.2-5-5S657.5,351,660.3,351z M660.3,375.7h123.5c2.8,0,5,2.2,5,5s-2.2,5-5,5H660.3c-2.8,0-5-2.2-5-5
				S657.5,375.7,660.3,375.7z M970.2,410.5H660.3c-2.8,0-5-2.2-5-5s2.2-5,5-5h309.9c2.8,0,5,2.2,5,5S973,410.5,970.2,410.5z
				 M970.2,385.7H803.9c-2.8,0-5-2.2-5-5s2.2-5,5-5h166.3c2.8,0,5,2.2,5,5S973,385.7,970.2,385.7z M970.2,361H768.7
				c-2.8,0-5-2.2-5-5s2.2-5,5-5h201.5c2.8,0,5,2.2,5,5S973,361,970.2,361z"/>
			<rect x="829.9" y="237.7" class="st1" width="133.6" height="61"/>
		</g>
	</g>
</g>
</svg>
