<svg xmlns="http://www.w3.org/2000/svg" xmlns:xlink="http://www.w3.org/1999/xlink" viewBox="0 0 867 746"><defs><radialGradient id="radial-gradient" cx="444.19" cy="678.5" r="437.57" gradientTransform="translate(30.69 558.66) scale(0.9 0.18)" gradientUnits="userSpaceOnUse"><stop offset="0" stop-opacity="0.5"/><stop offset="0.57" stop-color="#919191" stop-opacity="0.78"/><stop offset="1" stop-color="#fff"/></radialGradient><filter id="luminosity-invert" filterUnits="userSpaceOnUse" color-interpolation-filters="sRGB"><feColorMatrix values="-1 0 0 0 1 0 -1 0 0 1 0 0 -1 0 1 0 0 0 1 0"/></filter><mask id="mask" x="0" y="570" width="848" height="176" maskUnits="userSpaceOnUse"><g style="filter:url(#luminosity-invert)"><g transform="translate(-8 -23)"><ellipse cx="429" cy="682" rx="421" ry="78" style="fill:url(#radial-gradient)"/></g></g></mask><linearGradient id="linear-gradient" x1="19.52" y1="548.33" x2="835.24" y2="769.5" gradientUnits="userSpaceOnUse"><stop offset="0" stop-color="#898989" stop-opacity="0.5"/><stop offset="0.54" stop-color="#3a3a3a" stop-opacity="0.73"/><stop offset="1" stop-opacity="0.9"/></linearGradient><linearGradient id="linear-gradient-2" x1="314.53" y1="261.28" x2="587.55" y2="534.3" gradientTransform="matrix(1, -0.03, 0.03, 1, -11.89, 14.26)" gradientUnits="userSpaceOnUse"><stop offset="0.05" stop-color="#fff"/><stop offset="0.21" stop-color="#d3cbd2"/><stop offset="0.42" stop-color="#9b8899"/><stop offset="0.61" stop-color="#6e526b"/><stop offset="0.78" stop-color="#4e2c4a"/><stop offset="0.92" stop-color="#3a1536"/><stop offset="1" stop-color="#330c2f"/></linearGradient></defs><title>coming-soon</title><g id="Shadow"><g style="mask:url(#mask)"><ellipse cx="424" cy="658" rx="424" ry="88" style="fill:url(#linear-gradient)"/></g></g><g id="Egg"><path d="M448.65,602.91c-42.07,0-88.36-19.4-127-53.22-37-32.34-62-73.8-66.86-110.9l0-.12,0-.12c-6.36-29.17-3.09-63.77,9.46-100.06,11.39-33,29.9-66.4,53.54-96.72,19.32-24.79,40.91-45.92,62.42-61.1,22.05-15.56,43-24.08,60.63-24.66,35.86.32,76.06,23.26,113.22,64.6,26.31,29.27,49.3,66.07,64.73,103.63,16.15,39.31,23.09,76.38,20.05,107.2-3.88,41.9-25.71,83.09-61.47,116C542.14,579.82,496.82,600,453,602.84,451.62,602.89,450.13,602.91,448.65,602.91Z" transform="translate(-8 -23)" style="fill:url(#linear-gradient-2)"/><path d="M440.82,159c35,.34,74.38,22.92,110.95,63.6,26.08,29,48.88,65.51,64.19,102.77,16,38.86,22.83,75.43,19.84,105.8-1.92,20.73-8.35,41.36-19.12,61.32a202.49,202.49,0,0,1-41.39,52.74,215.26,215.26,0,0,1-57,37.82,187.79,187.79,0,0,1-65.44,16.79c-1.4,0-2.83.07-4.24.07-41.35,0-86.93-19.13-125-52.47-36.42-31.87-61-72.64-65.86-109l0-.25-.05-.24c-6.24-28.63-3-62.67,9.36-98.44,11.29-32.65,29.64-65.79,53.07-95.86,19.15-24.56,40.51-45.48,61.78-60.49,21.54-15.2,41.92-23.53,58.94-24.11m-.07-6C358.62,155.63,226,320.95,251.81,439.18c10.38,78.41,105,166.73,196.85,166.73q2.27,0,4.53-.07c93.18-6,180.4-85.8,188.58-174.11,10.58-107.39-100.52-277.9-201-278.72Z" transform="translate(-8 -23)" style="fill:#330c29"/><g style="opacity:0.38"><path d="M296,383c15-83,49-142,121-176" transform="translate(-8 -23)" style="fill:none;stroke:#fff;stroke-linecap:round;stroke-linejoin:round;stroke-width:30px"/></g></g><g id="Nest"><g id="Layer_4" data-name="Layer 4"><path d="M214.92,422.86c4.69,30.59,22.23,58.26,45.5,78.25,11.92,10.25,26.16,18.84,35.57,31.69,9.15,12.5,13.14,27.56,17,42.31,2.93,11.2,20.3,6.45,17.36-4.79-3.89-14.87-8.12-30-16.46-43.13-9.08-14.26-22.42-23.94-35.38-34.37-23.75-19.12-41.53-44.16-46.23-74.75-.74-4.81-6.78-7.47-11.07-6.29-5.14,1.41-7,6.25-6.29,11.07Z" transform="translate(-8 -23)" style="fill:#42210b"/><path d="M664.44,402.72c2.25,27-12.25,51.18-27.65,72.11-16.19,22-35,42.21-48.23,66.24-5.61,10.15,9.93,19.24,15.54,9.08,13.85-25.06,33.68-46,50.32-69.11,16.27-22.63,30.42-49.61,28-78.33-.4-4.84-3.85-9-9-9-4.56,0-9.41,4.13-9,9Z" transform="translate(-8 -23)" style="fill:#42210b"/><path d="M672.14,440c7.33,23.45-13.21,45.11-28.49,60.15-17.58,17.31-36.83,33.91-45.94,57.5-1.75,4.54,1.93,9.87,6.29,11.07,5.08,1.4,9.31-1.73,11.07-6.29,9-23.32,31.79-39.17,48.42-56.75,17.53-18.54,34.32-43.9,26-70.47-3.45-11-20.83-6.31-17.36,4.79Z" transform="translate(-8 -23)" style="fill:#42210b"/><path d="M704.06,429.66c0,16.52-15.87,28.8-27.17,38.66-13.81,12-26.33,24.84-37,39.75-2.84,3.95-.69,10,3.23,12.31,4.53,2.65,9.47.73,12.31-3.23,11.26-15.66,25.33-28,39.6-40.83,13.6-12.2,27.09-27.3,27.08-46.66,0-11.58-18-11.6-18,0Z" transform="translate(-8 -23)" style="fill:#42210b"/><path d="M148.6,463.23c14.65,27.58,34.36,51.58,56.81,73.15,11.33,10.89,22.7,21.71,32.42,34.11a233.1,233.1,0,0,1,23.71,37.65,318.74,318.74,0,0,1,18.34,44.57c3.64,10.94,21,6.25,17.36-4.79-9.41-28.23-21.67-55.76-39-80-18.84-26.33-44.48-46-65.15-70.65a248.73,248.73,0,0,1-28.9-43.08c-5.44-10.23-21-1.15-15.54,9.08Z" transform="translate(-8 -23)" style="fill:#42210b"/><path d="M126.25,561.68c17.62-3.9,35.88-2.2,53.39,1.43,18.09,3.75,35.91,9.1,53.41,15C250,583.75,266.7,590.16,283,597.45c16.5,7.37,32.49,15.91,49.42,22.27,19.65,7.37,40.38,10.81,61.24,7.69,4.81-.72,7.46-6.79,6.29-11.07-1.42-5.15-6.24-7-11.07-6.29-35.89,5.36-68.77-15.86-100.17-29.65-33.41-14.67-68.5-27.23-104.28-34.65-20.8-4.31-42.07-6.07-63-1.43-11.3,2.51-6.52,19.86,4.79,17.36Z" transform="translate(-8 -23)" style="fill:#42210b"/><path d="M620.19,584.84c-37-15.11-76.77-21.27-116.12-26.76-20.51-2.86-41.13-6.14-61.88-6.47-21.29-.34-41.24,3.78-61.35,10.47s-42,14.49-63.44,8.4c-11.16-3.17-15.93,14.19-4.79,17.36,40.56,11.54,77.48-16,117.26-18,20.49-1,40.93,1.69,61.18,4.48s40.28,5.6,60.24,9.51c21.86,4.29,43.47,10,64.12,18.39,4.5,1.84,9.89-2,11.07-6.29,1.42-5.16-1.77-9.23-6.29-11.07Z" transform="translate(-8 -23)" style="fill:#42210b"/><path d="M207.85,506.37c13.5,17.23,33.93,27.49,54.09,34.82,22.51,8.18,46.14,12.35,69.47,17.46s47,11.05,67.62,23.61c20,12.18,36.19,29.22,54.49,43.62,21,16.53,44.21,28.94,71.06,32.11,4.83.57,9-4.55,9-9,0-5.34-4.15-8.43-9-9-46.73-5.52-75.25-46.34-112.08-70.5-39.9-26.17-88.76-28.07-133.29-41.54C257.46,521.39,235,512,220.58,493.65c-3-3.83-9.58-3.14-12.73,0-3.78,3.78-3,8.89,0,12.73Z" transform="translate(-8 -23)" style="fill:#42210b"/><path d="M675.56,596c.85,17.34-22.92,25.35-36.06,29.2-20.41,6-41.5,10.13-62.51,13.38a603.27,603.27,0,0,1-64.31,6.1c-21.18,1-41.79,2.83-62.16,9.07-20.63,6.32-42.61,16-64.6,11.59-11.31-2.28-16.15,15.06-4.79,17.36,22.31,4.51,43.63-1.8,64.75-8.6,10.31-3.32,20.65-6.59,31.34-8.44,11.38-2,23-2.4,34.51-2.93a657.24,657.24,0,0,0,70-6.78c22.4-3.46,45.17-7.74,66.78-14.69,20.16-6.48,46.22-20.41,45-45.24-.56-11.53-18.57-11.6-18,0Z" transform="translate(-8 -23)" style="fill:#42210b"/><path d="M739.13,551c-13.74-18-39.4-15.25-59.22-12.08-24.62,3.94-48.25,12-71.11,21.77s-44.74,21.21-66.55,32.85q-18,9.59-35.71,19.59c-10.63,6-21,12.65-32,18-26.46,12.94-54.79,2.5-80.27-7.72-4.51-1.81-9.89,2-11.07,6.29-1.41,5.13,1.76,9.25,6.29,11.07,22.76,9.13,47,17.55,71.84,13.47,12.14-2,23.1-7.66,33.64-13.75,11.06-6.39,22.15-12.73,33.34-18.92,42.23-23.35,85.67-47.88,132.63-60.26,12.06-3.18,24.55-5.88,37-6.59,7.09-.4,20.69-1.15,25.64,5.34,2.94,3.86,7.75,5.9,12.31,3.23,3.8-2.22,6.2-8.43,3.23-12.31Z" transform="translate(-8 -23)" style="fill:#42210b"/><path d="M181.91,610.19c14.52,16,35,25.2,55.42,31.1,23.08,6.67,47.05,9.1,70.85,11.66,24.1,2.59,48.49,5.31,71.48,13.41s42.45,23.21,63.79,34.59c24.12,12.87,51.74,20.85,79,14.92C533.8,713.4,529,696,517.7,698.51c-47.41,10.3-85.48-30.07-125.92-46.7-44-18.1-93-14.34-138.71-25-21.31-5-43.36-12.72-58.44-29.32-7.81-8.59-20.51,4.17-12.73,12.73Z" transform="translate(-8 -23)" style="fill:#42210b"/><path d="M103,493.07c36.78,12.83,63,41.85,82.51,74.47,21.32,35.61,38.32,74.18,70.17,102.06a152.06,152.06,0,0,0,57.63,32c11.14,3.25,15.9-14.12,4.79-17.36-37.1-10.81-64.93-37.9-85.08-70-22.19-35.31-38.31-74.48-68.92-103.82a155,155,0,0,0-56.3-34.76c-11-3.82-15.67,13.56-4.79,17.36Z" transform="translate(-8 -23)" style="fill:#42210b"/><path d="M576.16,692.18a591.42,591.42,0,0,0-102.3-63c-17.66-8.52-36.23-16-55.7-19a111.47,111.47,0,0,0-58.57,6.07c-19.43,7.49-40.23,19.4-61.78,14.5-11.28-2.57-16.09,14.78-4.79,17.36,19.91,4.53,39.28-1.22,57.62-8.86,17.88-7.45,34.87-13.81,54.58-12.55,18.74,1.19,37.1,7.69,54,15.48a544.45,544.45,0,0,1,52.41,28,591.73,591.73,0,0,1,55.4,37.62c3.86,3,10.08.6,12.31-3.23,2.71-4.63.64-9.35-3.23-12.31Z" transform="translate(-8 -23)" style="fill:#42210b"/><path d="M326.47,670.31l-4.46-8L309.7,674.66c14.81,9.74,30.18,19.33,47.54,23.76,20.36,5.2,40.86,1.92,61.3-.81a614.65,614.65,0,0,1,123-4.06c20.83,1.42,42.37,4.19,61.46,13.14,4.4,2.06,9.7,1.23,12.31-3.23,2.28-3.9,1.19-10.24-3.23-12.31-35.71-16.72-77.85-17.23-116.57-16.91q-31,.25-61.86,3.56c-20.1,2.16-40.57,7-60.87,5.18-20.1-1.76-37.55-13.06-54-23.86-7.78-5.12-16.53,4.8-12.31,12.31l4.46,8c5.67,10.11,21.22,1,15.54-9.08Z" transform="translate(-8 -23)" style="fill:#42210b"/><path d="M165.81,415.48l-5.18-5.36c-6.67-6.91-16.58.41-15,8.76,3.09,16.77,15.42,30,28.43,40.13,14.34,11.17,30.57,19.39,45.68,29.39,14.28,9.45,25.9,21.08,34.3,36.07,8,14.3,12.89,30,17.66,45.6,3.38,11,20.76,6.34,17.36-4.79-4.92-16.08-10.08-32.22-18-47.13a117.92,117.92,0,0,0-34-39.48c-14.39-10.79-30.62-18.77-45.43-28.93-12.59-8.63-25.79-19.9-28.69-35.64l-15,8.76,5.18,5.36c8.06,8.35,20.78-4.38,12.73-12.73Z" transform="translate(-8 -23)" style="fill:#603813"/><path d="M749,446.52c1.49,10.21-8.69,20.87-15.65,26.9-8.45,7.32-18.43,12.71-27.89,18.57A539.21,539.21,0,0,0,638,541.57c-8.8,7.56,4,20.25,12.73,12.73a547.92,547.92,0,0,1,72-51.79c21.36-13.05,47.75-32.24,43.6-60.77-.7-4.81-6.8-7.46-11.07-6.29-5.17,1.42-7,6.24-6.29,11.07Z" transform="translate(-8 -23)" style="fill:#603813"/><path d="M632.72,445.74c8.08,8.84,6.12,23.93,6.14,34.93q0,23.36-1.62,46.68C635.42,553,631,579.8,649.48,600.81c7.68,8.71,20.37-4.07,12.73-12.73s-9.27-20.09-9.07-31.32c.24-13.79,2.12-27.55,2.84-41.32q1.2-22.83.78-45.7c-.25-13.51-1.83-26.36-11.3-36.73-7.83-8.57-20.53,4.19-12.73,12.73Z" transform="translate(-8 -23)" style="fill:#603813"/><path d="M745.31,549.71c5.65-.34,10.23-4,10.21-10,0-5.64-4-9.31-8.78-11.53-8.63-4-18.3-4.47-27.66-3.68-21.84,1.83-43.68,5.67-65.4,8.62-21.54,2.93-43.18,6.07-64,12.34-20.19,6.07-39.15,15.44-58.94,22.63-21.27,7.74-44.57,13.15-67.11,8.13-11.29-2.51-16.11,14.84-4.79,17.36,38.63,8.6,74.65-7.19,109.71-21.4a286.41,286.41,0,0,1,55.15-16.31c19.5-3.66,39.24-6,58.9-8.64,10.81-1.46,21.62-3.11,32.46-4.33a91.36,91.36,0,0,1,14.59-.66,27.42,27.42,0,0,1,5.28.74,22.7,22.7,0,0,1,2.87.84c1.48.58,1.81,2,1,0l-1.23-4.54,0,.84,1.23-4.54-.39.56,7.77-4.46-.83.05c-11.51.7-11.59,18.7,0,18Z" transform="translate(-8 -23)" style="fill:#603813"/><path d="M638.82,650.3c-31.85-12.95-67.71-8.75-101.18-7.67-34.19,1.11-69.38.79-101.79-11.52-14.93-5.67-28.89-14.26-39-26.82-3-3.8-9.56-3.17-12.73,0-3.75,3.75-3,8.92,0,12.73,19.64,24.53,52.65,36,82.74,40.62,37.1,5.64,74.07,1.92,111.33,1.61,19-.16,38,1.17,55.79,8.4,4.5,1.83,9.89-2,11.07-6.29,1.41-5.15-1.76-9.23-6.29-11.07Z" transform="translate(-8 -23)" style="fill:#603813"/><path d="M262.05,549.56c35.19,5.74,69.56,16.8,100.69,34.31C395,602,423.36,626.26,458,640.12c19.34,7.73,40.24,12,61.12,10.94,11.52-.61,11.6-18.62,0-18-36.3,1.93-69.06-14.16-98.71-33.47-15.41-10-30.37-20.78-46.32-30a305.49,305.49,0,0,0-48.47-22.29,328.29,328.29,0,0,0-58.81-15.14c-4.79-.78-9.69,1.25-11.07,6.29-1.18,4.3,1.46,10.28,6.29,11.07Z" transform="translate(-8 -23)" style="fill:#603813"/><path d="M720.6,584.21c-10.21-15.19-28.81-20-46-21.93-19.07-2.08-38.85-.25-57.54,3.81a179.72,179.72,0,0,0-52.57,20.27c-16.72,9.82-29.77,22.86-42.74,37.06-14.32,15.67-31.16,29.83-53.59,29.42-11.59-.21-11.59,17.79,0,18,19.2.35,37-7.82,51.5-20,14.16-11.95,24.67-27.58,39.28-39.07,27.59-21.7,64.06-32,98.82-32.23,9.39-.06,18.77.48,27.9,2.81,7,1.8,15.18,4.64,19.43,11,6.43,9.57,22,.57,15.54-9.08Z" transform="translate(-8 -23)" style="fill:#603813"/><path d="M229.15,608.75l1.21,1.31,1.23,4.54c.09,1.31-3.46,3.43-2.34,4.26a8.17,8.17,0,0,0,2.14,0c2,.06,4,.23,5.94.41,3.77.35,7.51.92,11.22,1.64a156.55,156.55,0,0,1,22.75,6.31C286,632.5,299.8,639.92,313.08,648c26.21,16,50.42,35.18,78.09,48.74,16.37,8,33.57,14.12,51.62,16.9,4.8.74,9.68-1.22,11.07-6.29,1.17-4.26-1.45-10.33-6.29-11.07-72.63-11.17-120.41-77-191.73-92.21-9.53-2-21.37-4.78-31.08-2.7-5,1.08-9.42,4.31-10.8,9.42s1,11.31,6.1,13.47c4.47,1.9,9.64,1.34,12.31-3.23,2.21-3.78,1.27-10.4-3.23-12.31Z" transform="translate(-8 -23)" style="fill:#603813"/><path d="M601.3,671c-34.54-13.6-72.75-14.22-109.27-11-19,1.68-37.91,4.38-56.77,7.25-19.07,2.9-38.26,6.17-56.54,12.52-18.61,6.46-38.87,19.77-59.33,15.51-11.3-2.35-16.14,15-4.79,17.36,19.39,4,37.17-2.7,54.84-10a257.77,257.77,0,0,1,55-15.48c36.82-6.42,74.72-12,112.18-10.53,20.51.79,40.74,4.22,59.89,11.76,4.52,1.78,9.88-2,11.07-6.29,1.4-5.11-1.75-9.28-6.29-11.07Z" transform="translate(-8 -23)" style="fill:#603813"/><path d="M141.65,598.22c38.05-9.27,77.1-16.89,116.41-12.51,17.19,1.91,34.62,6.37,50,14.51,16.91,9,31.45,21.93,45.79,34.45,17.36,15.16,34.11,31,50.86,46.81,8.42,8,21.17-4.75,12.73-12.73-15.35-14.5-30.7-29-46.51-43-15.21-13.45-30.72-27.48-48.21-37.94-34-20.32-75.89-23.87-114.53-20.08-24.09,2.37-47.78,7.39-71.28,13.11-11.25,2.74-6.49,20.1,4.79,17.36Z" transform="translate(-8 -23)" style="fill:#603813"/><path d="M134.52,484.56c14.74,1.24,14.56,22,16.26,32.59,2.64,16.52,5.11,33.08,8,49.56,4.81,27.86,14.15,55.49,36.76,73.94A89.85,89.85,0,0,0,237.14,660c4.79.82,9.69-1.27,11.07-6.29,1.19-4.33-1.47-10.25-6.29-11.07-25.87-4.43-46.86-21.76-56.78-46-5.88-14.35-8.31-29.86-10.74-45.08-2.72-17-5.39-34-8.15-51-1.38-8.52-3.54-16.83-9.4-23.46s-13.77-9.86-22.34-10.58c-4.85-.41-9,4.43-9,9,0,5.21,4.14,8.59,9,9Z" transform="translate(-8 -23)" style="fill:#603813"/><path d="M251,602.38c15.68,20,35.06,36.72,56.39,50.46,9.77,6.29,18.8-9.28,9.08-15.54a213.52,213.52,0,0,1-52.74-47.65c-3-3.83-9.58-3.15-12.73,0-3.78,3.78-3,8.89,0,12.73Z" transform="translate(-8 -23)" style="fill:#603813"/><path d="M101.55,530.28c11.58,0,11.6-18,0-18s-11.6,18,0,18Z" transform="translate(-8 -23)" style="fill:#603813"/><path d="M681.77,610.8c-11-10.53-27.14-12.92-41.83-11.81-15.81,1.2-31.43,4.78-47.17,6.67-31.66,3.79-63.81,5-95.55,1.53a263.34,263.34,0,0,1-50.8-10.73c-11.07-3.51-15.81,13.86-4.79,17.36,58.89,18.66,122.19,15.31,182.35,5.37,13.67-2.26,33.73-6.46,45.06,4.35,8.38,8,21.13-4.71,12.73-12.73Z" transform="translate(-8 -23)" style="fill:#603813"/><path d="M674.5,419c16.78,32.66,16.87,70.32,6.18,104.9-5.18,16.76-12.47,33.65-24.28,46.85a80.29,80.29,0,0,1-41.73,24.78c-11.27,2.65-6.5,20,4.79,17.36,30.7-7.22,54.64-29.17,68.08-57.26,13.7-28.62,21.1-61.45,17.94-93.2A145.51,145.51,0,0,0,690,409.91c-5.3-10.31-20.83-1.21-15.54,9.08Z" transform="translate(-8 -23)" style="fill:#603813"/><path d="M526.17,597.19c-2.15-9.36-10.78-15.28-18-20.71a173.41,173.41,0,0,0-22.22-14,272.13,272.13,0,0,0-52.7-20.92c-39.19-11.36-80-15.71-120.38-20.2-24.11-2.68-48.22-5.4-72.11-9.67-4.78-.85-9.7,1.3-11.07,6.29-1.2,4.35,1.48,10.21,6.29,11.07,40.23,7.18,81,10.1,121.48,15.61,36.3,4.94,73.37,12,106.92,27.22A197.06,197.06,0,0,1,490,585.71c3.54,2.29,7,4.69,10.35,7.29,3,2.32,7.57,5.1,8.46,9,2.59,11.29,19.95,6.51,17.36-4.79Z" transform="translate(-8 -23)" style="fill:#603813"/><path d="M114.9,515.38c1.88-4.22,15-3.71,19.09-3.9a154.49,154.49,0,0,1,28.39,1.2,202.24,202.24,0,0,1,53.79,15.65c34.37,15.22,63.87,38.36,93.78,60.7,17.39,13,35.1,25.55,54.08,36.13,10.13,5.65,19.22-9.89,9.08-15.54-35.81-20-66.62-47.15-100.44-70.07C239,516.72,201.31,499.3,160.61,494.46a157.53,157.53,0,0,0-33.78-.47c-9.52.92-23,2.21-27.48,12.3-2,4.44-1.29,9.67,3.23,12.31,3.84,2.25,10.32,1.23,12.31-3.23Z" transform="translate(-8 -23)" style="fill:#754c24"/><path d="M190.5,443.42c11.36,10.57,25.23,22.21,29.77,37.66,3.57,12.13-.19,24.67-5,35.93-10.72,25.32-29.43,52-20.46,80.81,5.41,17.38,19,31,34.94,39.22,10.29,5.29,19.4-10.24,9.08-15.54-12.41-6.38-23.61-16.49-27.24-30.43-3.14-12,.86-24.66,5.58-35.75,10.62-25,29.08-51.35,20.2-79.75-5.75-18.38-20.49-32.14-34.18-44.87-8.48-7.88-21.23,4.82-12.73,12.73Z" transform="translate(-8 -23)" style="fill:#754c24"/><path d="M132.82,583.14c56.27-5.29,112.86-1.81,169,3,54.43,4.69,108.15,12.4,159.57,31.61,28.16,10.52,55.3,23.51,82.4,36.48,4.38,2.1,9.72,1.21,12.31-3.23,2.3-3.93,1.17-10.21-3.23-12.31C503.3,615,453.37,592.19,399.21,581.1c-27.69-5.67-55.82-9.08-83.94-11.73-28.28-2.66-56.64-4.86-85-6.06-32.48-1.38-65-1.22-97.43,1.82-4.84.46-9,3.81-9,9,0,4.51,4.13,9.46,9,9Z" transform="translate(-8 -23)" style="fill:#754c24"/><path d="M670.47,623.37c7.88-11.57-3.94-22.08-12.74-28.15a166.29,166.29,0,0,0-28.34-15.35c-21.74-9.43-44.66-16.11-67.66-21.68-48.32-11.7-98.21-17-147.89-14.35-28.69,1.52-57.2,5.22-85.67,8.93-4.82.63-9,3.69-9,9,0,4.38,4.15,9.63,9,9,46.36-6,92.79-11.6,139.62-8.81a516,516,0,0,1,130.74,25.37,238.27,238.27,0,0,1,32,12.81,156.48,156.48,0,0,1,14.7,8.32c2.21,1.42,4.47,2.86,6.53,4.49.75.59,1.39,1.33,2.14,1.91,2.42,1.88-.38,1.56,1.08-.58-6.54,9.6,9.05,18.61,15.54,9.08Z" transform="translate(-8 -23)" style="fill:#754c24"/><path d="M209.35,427.61c14.72.73,26.72,10.54,35.26,21.89,11,14.55,18.9,31.33,25.44,48.25,12.23,31.64,21,64.87,39.12,93.89a157.86,157.86,0,0,0,39.19,42.86c3.89,2.92,10.06.62,12.31-3.23,2.69-4.61.67-9.38-3.23-12.31-59.26-44.58-56.63-127.22-100.35-182.54-11.87-15-28.25-25.84-47.74-26.8-11.58-.57-11.55,17.43,0,18Z" transform="translate(-8 -23)" style="fill:#754c24"/><path d="M735.11,461.52c-35.06-20.65-78.53-6.51-113.9,5.63-18.8,6.45-37.42,13.88-54.91,23.36-16.91,9.17-31.4,20.94-46.06,33.26C505,536.59,485.67,549,464.71,546.09c-4.81-.66-9.66,1.16-11.07,6.29-1.15,4.2,1.44,10.4,6.29,11.07,19.58,2.69,38.73-2.67,55.21-13.38,15.7-10.2,28.58-24.06,44.19-34.4s32.48-18.34,49.83-25c18.54-7.15,37.69-13.72,57.08-18.15s41.92-5.94,59.8,4.59c10,5.89,19.07-9.66,9.08-15.54Z" transform="translate(-8 -23)" style="fill:#754c24"/><path d="M776.89,531.6c-47.26-17.78-98.07-29.68-148.85-25.91-23.66,1.76-47.12,6.6-69,15.8a152.48,152.48,0,0,0-28.44,15.34c-9.83,6.86-18.55,15.2-28.49,21.91-20.78,14.06-47.35,17.52-71.42,11-11.19-3.05-16,14.31-4.79,17.36,22.38,6.11,47.13,5,68.62-3.89s36.91-27,57.09-38.22c41-22.76,91.64-25.71,137.15-18.72,28.56,4.39,56.38,12.58,83.38,22.74,4.55,1.71,9.87-1.9,11.07-6.29,1.39-5.05-1.72-9.35-6.29-11.07Z" transform="translate(-8 -23)" style="fill:#754c24"/><path d="M666.18,402.54c12.84,19,4.11,40.73-7.27,58.11-13.55,20.69-29.73,39.89-44.75,59.53C586.73,556,560,595,519.41,617c-22.39,12.14-47.55,18.66-73.07,17.37-11.58-.58-11.55,17.42,0,18,50.54,2.55,97.27-22.66,131.35-58.48,17.26-18.15,32-38.54,47.22-58.41l25.71-33.62c8.09-10.58,16.52-21,23.82-32.16,14.79-22.61,23.69-52,7.27-76.28-6.45-9.55-22.05-.55-15.54,9.08Z" transform="translate(-8 -23)" style="fill:#754c24"/><path d="M670.68,649.59c-23.72-12.69-50.5-17.42-76.84-21.3a818.73,818.73,0,0,0-254.45,2.1c-31.39,5.18-62.52,12.47-94.51,12.24-11.59-.08-11.6,17.92,0,18,28.41.21,56.38-5.26,84.22-10.26a806.4,806.4,0,0,1,249.13-6.23c28,3.67,58.09,7.48,83.37,21,10.21,5.46,19.31-10.07,9.08-15.54Z" transform="translate(-8 -23)" style="fill:#754c24"/><path d="M298.76,681.74c2.86-4.53,11.41-4.66,16.4-4.62,9.26.08,18.46,2.26,27.39,4.54,20,5.1,39.27,12.57,59.25,17.66a332.5,332.5,0,0,0,121,7.71,322.92,322.92,0,0,0,66.25-14.81c10.9-3.73,6.22-21.12-4.79-17.36a315.52,315.52,0,0,1-121.8,15.86,302.84,302.84,0,0,1-61-10.09C381,675,361,667.2,340.19,662.6c-17.92-4-45.27-8.47-57,10.06-6.2,9.82,9.37,18.86,15.54,9.08Z" transform="translate(-8 -23)" style="fill:#754c24"/><path d="M735,522.62c-9.49,33-36.31,58.13-61.72,79.61-25.72,21.75-53.59,41.1-83.79,56.11a308.6,308.6,0,0,1-56.33,21.4c-11.16,3-6.43,20.41,4.79,17.36,36-9.79,69.92-26,101-46.57,30.12-19.93,59.94-43.32,83.51-70.83,13.2-15.41,24.29-32.65,29.94-52.29,3.21-11.15-14.15-15.91-17.36-4.79Z" transform="translate(-8 -23)" style="fill:#754c24"/><path d="M139.85,457.72c32,13.39,57.26,38.06,77.41,65.71,20.67,28.37,37.13,59.54,59.15,87a212.19,212.19,0,0,0,45.83,42.81c9.6,6.54,18.61-9,9.08-15.54-60-40.94-81-115.83-133.93-163.76a183.79,183.79,0,0,0-52.75-33.54c-4.49-1.88-9.9,2-11.07,6.29-1.43,5.19,1.78,9.18,6.29,11.07Z" transform="translate(-8 -23)" style="fill:#8c6239"/><path d="M780.36,496c-8.58-9.79-24.41-9.54-36.17-7.91-15.31,2.12-30,8.4-43.69,15.42s-26.75,15.15-40.3,22.41q-21.82,11.69-44.42,21.82c-17.4,7.82-35.13,14.9-53.06,21.41-4.57,1.66-7.65,6.12-6.29,11.07,1.21,4.41,6.48,8,11.07,6.29a791.28,791.28,0,0,0,88.38-38.05c13.09-6.65,25.86-13.84,38.6-21.13,12.45-7.11,25.1-13.93,38.83-18.25,6.73-2.12,13.49-3.74,20.57-3.83,5-.07,10.95.28,13.75,3.48,7.65,8.73,20.34-4,12.73-12.73Z" transform="translate(-8 -23)" style="fill:#8c6239"/><path d="M652.7,427.19,654,427H649.2c.08,0-1.22-1.09-1.1-1.37-.3.69,1,3.67,1.18,4.55a64.22,64.22,0,0,1,1.19,6.78,102.85,102.85,0,0,1,.39,16.7c-.5,10.57-2.2,21-3.86,31.47-3.21,20.24-7,40.45-13.15,60-10.69,34.08-29.72,65.06-58.37,86.9a154.76,154.76,0,0,1-54.33,26.45c-11.19,3-6.44,20.33,4.79,17.36,39.59-10.47,74-35,97.65-68.34,26.49-37.28,35.6-82.93,42.27-127.28,2.05-13.68,4-27.58,2.79-41.43-1.08-12.42-3.73-32.05-20.73-28.93-4.78.88-7.49,6.68-6.29,11.07,1.38,5,6.27,7.17,11.07,6.29Z" transform="translate(-8 -23)" style="fill:#8c6239"/><path d="M674.24,618.69c-75.61-30.81-163.34-34-241.87-12.72A338.46,338.46,0,0,0,369,630.09c-10.35,5.2-1.25,20.73,9.08,15.54,69.37-34.82,152.73-43.15,228.5-28.26A340.19,340.19,0,0,1,669.46,636c4.5,1.84,9.89-2,11.07-6.29,1.42-5.15-1.77-9.23-6.29-11.07Z" transform="translate(-8 -23)" style="fill:#8c6239"/><path d="M252.79,652.7c31.43-14.05,68.89-9.36,100.8.36,35.21,10.73,67.76,28.44,102.66,40,20.4,6.77,41.56,11.3,63.1,12,11.59.37,11.57-17.63,0-18-38.09-1.21-73.43-16.26-108-31s-69.9-28.69-108-29.87c-20.51-.64-40.88,2.57-59.67,11-4.44,2-5.49,8.44-3.23,12.31,2.67,4.57,7.86,5.22,12.31,3.23Z" transform="translate(-8 -23)" style="fill:#8c6239"/><path d="M456.36,637.86c-15.05,30.91-56.52,32.91-86.39,34.07A534.24,534.24,0,0,1,254.67,664c-4.78-.86-9.7,1.3-11.07,6.29-1.2,4.36,1.48,10.21,6.29,11.07a559.22,559.22,0,0,0,97.93,9c30,.06,62.74-.25,90.65-12.63,14.06-6.23,26.64-16.79,33.45-30.77,5.05-10.37-10.47-19.51-15.54-9.08Z" transform="translate(-8 -23)" style="fill:#8c6239"/><path d="M128.2,496.49l-.93-.44,3.23,3.23-.39-.83.91,6.94.14-.94-2.31,4,.67-.78-4,2.31c3.37-1.34,9.2.61,12.66,1.45a80.11,80.11,0,0,1,12.73,4.18,89.27,89.27,0,0,1,23,14.53c15.11,13.12,25,30.34,34.44,47.71,4.2,7.71,8.11,15.78,13.22,22.94a188.64,188.64,0,0,0,13.52,16.54c9.84,10.9,20.73,22.37,33.4,30,19.84,12,45.82,14.42,68.44,15.18,11.59.39,11.57-17.61,0-18a183.73,183.73,0,0,1-35.43-4.14c-8.75-2-17.91-4.6-25.49-9.58-12.76-8.38-24.31-21.24-34.24-33.16-11.13-13.37-18.75-31.59-28.22-47.08-11.19-18.3-25.34-34.6-44-45.56a96.8,96.8,0,0,0-32.13-12.07c-6.23-1.08-14.32-2.92-19.78,1.31-6,4.61-5.72,14.43,1.42,17.83,4.39,2.08,9.71,1.22,12.31-3.23,2.29-3.92,1.18-10.22-3.23-12.31Z" transform="translate(-8 -23)" style="fill:#8c6239"/><path d="M109,545.57c32.1,19.74,68.59,31.23,105.86,35.85,19.83,2.46,39.6,2.28,59.51,1.17s40.12-2.23,59.94,1.44a151.23,151.23,0,0,1,56.63,22.43c9.67,6.44,18.69-9.15,9.08-15.54-32.31-21.5-70.86-28.72-109.14-27.18-20.39.82-40.64,2.54-61.05,1.13a260.66,260.66,0,0,1-55.43-10A231.89,231.89,0,0,1,118.07,530c-9.89-6.08-18.95,9.48-9.08,15.54Z" transform="translate(-8 -23)" style="fill:#8c6239"/><path d="M227.58,454.48c19.5,3.59,37.16,11.92,53.51,23,17.24,11.66,32.39,26,48.65,38.94a273,273,0,0,0,108.63,52,312.37,312.37,0,0,0,70.1,8c11.58,0,11.6-18,0-18-39.79,0-80.05-7.86-116.34-24.42a240.07,240.07,0,0,1-49.66-30.29c-16.42-13-31.81-27.38-49-39.47-18.35-12.91-38.95-23-61.12-27.08-4.78-.88-9.7,1.31-11.07,6.29-1.2,4.37,1.48,10.19,6.29,11.07Z" transform="translate(-8 -23)" style="fill:#8c6239"/><path d="M706.92,547.28c-32-20.3-72.63-24.17-109.59-20.63-41.67,4-81.44,17-121.88,27-23.17,5.72-46.6,10.26-70.5,11.27-11.54.49-11.6,18.49,0,18,41.33-1.74,81-13.41,120.71-23.91,38.07-10.06,77.14-18.62,116.73-14.36,19.46,2.1,38.84,7.62,55.45,18.15,9.81,6.22,18.85-9.35,9.08-15.54Z" transform="translate(-8 -23)" style="fill:#8c6239"/><path d="M384.24,606.37c11.58,0,11.6-18,0-18s-11.6,18,0,18Z" transform="translate(-8 -23)" style="fill:#8c6239"/><path d="M198.4,422.78c11.58,0,11.6-18,0-18s-11.6,18,0,18Z" transform="translate(-8 -23)" style="fill:#8c6239"/><path d="M269,428.55l.64-.57-6.36,2.64c-2.25.17-4.78-5-2.74.07q.66,1.64,1.29,3.29,1.41,3.7,2.7,7.44c1.81,5.25,3.45,10.55,5,15.88,3,10.35,5.64,20.81,8.44,31.21,5.7,21.16,12.38,42.11,23.07,61.34,5.63,10.13,21.18,1.06,15.54-9.08-12.24-22-18.43-46.37-24.84-70.55-3.14-11.84-6.36-23.68-10.44-35.24-2-5.7-3.81-13.51-8-18-4.72-5.11-11.85-5.77-17.06-1.13-8.67,7.72,4.1,20.42,12.73,12.73Z" transform="translate(-8 -23)" style="fill:#603813"/><path d="M608.31,432.93c-1.77,22.77-3.07,45.63-5.39,68.35-1.88,18.44-7.67,36.79-23.72,47.63-9.55,6.45-.55,22,9.08,15.54,19.16-12.93,28.6-33,31.69-55.39,3.46-25.15,4.37-50.82,6.33-76.13.38-4.85-4.41-9-9-9-5.18,0-8.62,4.13-9,9Z" transform="translate(-8 -23)" style="fill:#603813"/><path d="M552.87,459.11c3,29.61-27.07,51.71-46.48,69.29-21.1,19.11-43.59,42.4-41.73,73.13,1,17,8.53,32.35,20.13,44.6,8,8.43,20.7-4.32,12.73-12.73-8.58-9.06-14.51-20.7-14.93-33.34-.43-12.82,4.83-24.32,12.52-34.34,17.84-23.28,43.7-38.86,61.25-62.52,9.38-12.64,16.11-28.07,14.52-44.09-.48-4.84-3.79-9-9-9-4.49,0-9.48,4.13-9,9Z" transform="translate(-8 -23)" style="fill:#603813"/><path d="M308.12,462.86c-1.31,3.51-2.89,2.46,0,2.23a20.24,20.24,0,0,1,5,.33,78,78,0,0,1,13.7,3.74A87.24,87.24,0,0,1,350,482c13.6,10.37,24,24.11,32.2,39,10.2,18.55,17.64,38.52,28.58,56.67,9.93,16.47,22.67,30.62,38.74,41.29,18.29,12.14,40.28,18.88,62.29,17.54,11.51-.7,11.59-18.7,0-18-19.93,1.21-38.78-5-55.08-16.37s-27.67-27.5-36.78-45c-9.95-19.1-17.55-39.54-29.6-57.49-10.49-15.62-23.89-29.47-40.14-39.13-13.63-8.11-50.92-25.14-59.41-2.4-1.7,4.55,1.89,9.86,6.29,11.07,5,1.38,9.37-1.71,11.07-6.29Z" transform="translate(-8 -23)" style="fill:#603813"/><path d="M511.85,488.54c-16.83,23-40.49,40.18-64.13,55.52-24.82,16.11-50,31.75-66.82,56.81A107.22,107.22,0,0,0,364,643.12c-.78,4.79,1.24,9.69,6.29,11.07,4.29,1.18,10.29-1.46,11.07-6.29a95.06,95.06,0,0,1,20.08-44.77c11.43-14.08,26.12-24.54,41.19-34.37,31.17-20.34,62.45-40.67,84.77-71.14,2.87-3.92.66-10-3.23-12.31-4.56-2.67-9.43-.7-12.31,3.23Z" transform="translate(-8 -23)" style="fill:#603813"/><path d="M465.55,510.24c-5.4-6.11-13.64-7.76-21.4-8.5a210.89,210.89,0,0,0-26.06-.53c-17.72.51-35.4,3.16-51.7,10.35-14.81,6.53-26.86,17.39-33.72,32.17-6.17,13.3-8.45,29.13-17.32,41.06-10.53,14.17-30.91,10.51-45.48,6-11.09-3.43-15.83,13.94-4.79,17.36,15,4.65,32.3,7.1,47.27,1s22.71-20.33,28.08-34.93c4.92-13.39,8.24-27.67,19.31-37.56S386.61,522.4,401,520.47a196.87,196.87,0,0,1,30.28-1.3c6,.12,17.11-1.26,21.58,3.79,7.69,8.69,20.38-4.08,12.73-12.73Z" transform="translate(-8 -23)" style="fill:#603813"/><path d="M330,484.58l.74-.7-4,2.31c-1.78.67-1.9-.83-.3,2.17a32.39,32.39,0,0,1,2.55,6.26,49.44,49.44,0,0,1,1.75,14.52c-.1,10.9-2.24,21.64-3.23,32.47-2.12,23.19,1.2,46.53,11.94,67.35,5.31,10.3,20.85,1.2,15.54-9.08-12.45-24.15-10.48-49.73-7.38-75.78,1.44-12.08,2.15-24.92-2-36.59-2.11-5.92-4.94-12.41-10.24-16.13-5.7-4-12.83-4.48-18.12.48-8.48,7.93,4.27,20.64,12.73,12.73Z" transform="translate(-8 -23)" style="fill:#8c6239"/><path d="M470.79,488.18c6,7.52,5.54,17.93,4.57,26.93-1.31,12.21-3.76,24.4-6.26,36.41a575.73,575.73,0,0,1-21,74.78c-3.87,10.94,13.51,15.65,17.36,4.79A574,574,0,0,0,488,548.83c4.67-24.07,12.32-52.36-4.44-73.38-3-3.8-9.56-3.17-12.73,0-3.76,3.76-3,8.92,0,12.73Z" transform="translate(-8 -23)" style="fill:#8c6239"/><path d="M384,486.84c10,29.08,34.45,49.52,57.27,68.69,21.68,18.22,48.22,38.74,54.39,68,2.39,11.33,19.75,6.53,17.36-4.79-6.38-30.21-31.31-52.54-53.86-71.6C437.69,529,411,509.78,401.4,482.06c-3.76-10.88-21.15-6.21-17.36,4.79Z" transform="translate(-8 -23)" style="fill:#8c6239"/><path d="M588.4,451.12c-26.62,25.93-61.73,40.95-93.46,59.41-17,9.86-33.1,20.94-47.72,34.05S420,572.26,408.11,587.67c-13.09,17-24.84,35-36.51,53.07-6.31,9.75,9.26,18.79,15.54,9.08,20.46-31.61,41.35-63.22,69-89.07,27.87-26,62.12-42,94.84-60.86,17.85-10.26,35.3-21.63,50.1-36,8.31-8.1-4.42-20.82-12.73-12.73Z" transform="translate(-8 -23)" style="fill:#8c6239"/><path d="M304.39,435.84c-2,12.85-13.95,21.75-21.56,31.48-11,14.09-13.76,29.74-11.22,47.24,4.91,33.9,19.83,67.22,38,96,6.16,9.78,21.74.75,15.54-9.08-17.08-27.1-31.06-58.08-35.88-90-1.09-7.2-1.2-14.57,1-21.56,1.87-5.9,5.93-10.86,9.93-15.45,8.71-10,19.41-20.13,21.57-33.85.76-4.8-1.23-9.68-6.29-11.07-4.28-1.18-10.31,1.46-11.07,6.29Z" transform="translate(-8 -23)" style="fill:#8c6239"/></g></g><g id="Crack"><polyline points="263 292 329 346 387 297 420 333 463 289 504 356 568 323 624.2 345.03" style="fill:none;stroke:#330c29;stroke-miterlimit:10;stroke-width:2px"/></g><g id="ChatBox"><path d="M646.5,161.5,618,225l73.5-63.5H851.13a21.37,21.37,0,0,0,21.37-21.37V46.87A21.37,21.37,0,0,0,851.13,25.5H646.87A21.37,21.37,0,0,0,625.5,46.87v93.26a21.37,21.37,0,0,0,21,21.37" transform="translate(-8 -23)" style="fill:none;stroke:#42210b;stroke-linecap:round;stroke-linejoin:round;stroke-width:5px"/><text transform="translate(660.6 54.27)" style="font-size:48px;fill:#754c24;font-family:HelveticaNeue-Light, Helvetica Neue">Coming <tspan x="24" y="57.6">soon!</tspan></text></g></svg>