<?xml version="1.0" encoding="utf-8"?>
<!-- Generator: Adobe Illustrator 21.1.0, SVG Export Plug-In . SVG Version: 6.00 Build 0)  -->
<svg version="1.1" id="Layer_1" xmlns="http://www.w3.org/2000/svg" xmlns:xlink="http://www.w3.org/1999/xlink" x="0px" y="0px"
	 viewBox="0 0 1637.2 676.4" style="enable-background:new 0 0 1637.2 676.4;" xml:space="preserve">
<style type="text/css">
	.st0{fill:url(#SVGID_1_);}
	.st1{display:none;}
	.st2{display:inline;fill:#FFFFFF;}
	.st3{display:inline;fill:#F4F4F4;}
	.st4{display:inline;}
	.st5{display:inline;fill:#B8B69D;}
	.st6{display:inline;fill:#E5E3C6;}
	.st7{display:inline;fill:#FA2B2B;}
	.st8{fill:#F7F7F7;}
</style>
<g id="Layer_2">
	
		<linearGradient id="SVGID_1_" gradientUnits="userSpaceOnUse" x1="0" y1="-62.2" x2="1637.2" y2="-62.2" gradientTransform="matrix(1 0 0 -1 0 276)">
		<stop  offset="0" style="stop-color:#DA4453"/>
		<stop  offset="1" style="stop-color:#E47C87"/>
	</linearGradient>
	<rect class="st0" width="1637.2" height="676.4"/>
</g>
<g id="Layer_1_1_" class="st1">
	<path class="st2" d="M959.7,122.3c5.5-3.1,13.1-2.5,17.7,2.1c2.5,2.6,3.9,5.9,5.7,9.1c2,3.5,2.5,7.6,1.4,11.4
		c-1.1,1.9-2.1,4.1-3.9,5.6c-3.3,2.3-7.2,3.5-10.7,5.5c-3.9,2.4-8.2,4.2-12.3,6.1c-5.1,2.9-10.5,5.1-15.7,7.9
		c-3.3,2.1-6.8,3.5-10.3,5.1c-0.7,0.3-1.4,0.7-2.1,1.1c-0.7,0.3-1.4,0.5-2.1,0.9c-0.3,0.3-0.7,0.7-1,0.9c-5.5,2.5-11.1,4.9-16.1,8.2
		c17.4,28.3,34.8,56.7,52.1,85.1c-0.4-0.1-1.3-0.1-1.7-0.1c-4.5-6.7-8.5-13.7-12.7-20.5c-13.1-21.3-26-42.6-39.2-63.7
		c-6.5,2.5-12.5,6-18.7,9.1c15.5,25.3,31.1,50.5,46.5,75.9c-1-0.1-2-0.2-3-0.3c-13.7-22.4-27.4-44.8-41.1-67.3
		c-1.5-2.5-3-5.1-4.8-7.4c-6.2,3.9-13.2,6.1-19.4,9.9c-3.9,2.1-8.1,3.8-12,5.9c-4.8,2.7-10.1,4.6-14.8,7.4
		c-4.3,2.5-9.1,4.2-13.5,6.6c-4.7,2.7-9.9,4.6-14.5,7.3c-4.3,2.5-9.1,4.1-13.5,6.5c-4.3,2.5-8.9,4.3-13.3,6.7
		c-5.5,3.1-11.5,5.2-16.9,8.5c-7.7,3.7-15.2,7.5-22.9,11.2c-4.7,2.5-9.4,5.2-14.5,7.1c-1.4,0-2.7,0-4.1-0.1
		c12.5-6.7,25.3-12.6,37.9-19c68.3-33.9,136.6-67.9,204.9-101.8c3.5-1.9,7.7-3.1,10-6.7c2.3-3.4,2.1-8,0.1-11.5
		c-2.4-4.3-4.3-9.5-9.3-11.4c-3.7-1.7-7.9-0.9-11.3,1C863,172.8,765.4,221.2,668,269.7c-3.9,1.9-7.7,4.7-12.3,4
		c0.3-0.3,0.8-0.9,1-1.3c6.8-2.7,13-6.5,19.6-9.5c0.3-0.1,1-0.5,1.3-0.7c2.3-1.1,4.6-2,6.8-3.3c4.7-2.7,9.9-4.6,14.5-7.4
		c0.9-0.5,1.8-0.9,2.7-1.3c0.7-0.3,1.3-0.6,2-0.9c3.1-1.5,6.4-2.7,9.3-4.6c4-2.3,8.3-4,12.4-6.1c4.4-2.5,9.1-4.3,13.6-6.7
		c4.8-2.8,9.9-5,14.9-7.3c0.3-0.2,0.7-0.7,1-0.9c4.8-2.1,9.6-4.3,14.1-7c13.6-6.2,26.7-13.4,40.3-19.7c11.1-6,22.6-11,33.7-16.9
		c17.2-8.3,34.2-17,51.3-25.4c6.3-3.4,12.9-6.1,19.1-9.5C928.8,137.7,944.2,129.9,959.7,122.3z"/>
	<path class="st3" d="M960.5,124.3c3.4-1.9,7.6-2.7,11.3-1c5,1.9,6.9,7.1,9.3,11.4c2,3.5,2.2,8.1-0.1,11.5c-2.3,3.5-6.5,4.8-10,6.7
		c-68.3,33.9-136.6,67.9-204.9,101.8c-12.6,6.5-25.4,12.4-37.9,19c1.3,0.1,2.7,0.1,4.1,0.1c66.5,0.1,132.9,0,199.4,0
		c0.6-0.8,1.2-1.7,1.8-2.5c1,0.1,2,0.2,3,0.3c-15.5-25.3-31.1-50.5-46.5-75.9c6.2-3.1,12.1-6.7,18.7-9.1
		c13.2,21.2,26.1,42.5,39.2,63.7c4.3,6.8,8.3,13.9,12.7,20.5c0.4,0.1,1.3,0.1,1.7,0.1c1.4,0.1,2.8,0,4.1,0.2
		c0.9,0.5,1.1,1.7,1.6,2.5c19.1,0.1,38.1-0.1,57.2,0.1c7,2.1,14.1,6.1,17.8,12.7c2.3,4.1,4.7,8.5,4.9,13.3c0,34,0,68,0,102
		c0.1,3.4-1.9,6.3-3.7,9.1c-0.7-0.5-1.4-0.9-2.1-1.3c2.7-2.3,3.9-5.7,3.8-9.1c-0.1-17.3,0-34.6-0.1-51.9c-8.5-0.1-17.1-0.1-25.7,0.1
		c-0.1,6,0.1,11.9,0,17.9c0,4.5-2.8,8.7-6.6,11.1c-3.2,1.7-6.9,1.1-10.3,1.1c-126,0-252,0-378,0c-4.3,0.1-7.6-3.2-9.6-6.7
		c-1.3-2-1.5-4.5-1.5-6.9c0-5.5,0.2-11.1-0.1-16.7c-8.3-0.1-16.5-0.1-24.8,0c-0.1,17.5,0,35.1-0.1,52.6c-0.1,3.2,1.3,6.3,3.7,8.4
		c-0.7,0.4-1.4,0.9-2.1,1.3c-1.7-2.7-3.8-5.7-3.7-9.1c0-34,0-68,0-102c0.2-4.8,2.6-9.2,4.9-13.3c3.7-6.5,10.7-10.5,17.7-12.6
		c15.3-0.1,30.5,0.1,45.8-0.1c4.6,0.7,8.4-2.1,12.3-4C765.4,221.2,863,172.8,960.5,124.3 M608,276.6c-6,2.2-11.6,6.2-14.7,11.9
		c-2.1,3.9-4.1,8.1-4.1,12.6c0.1,15.1,0,30.3,0.1,45.3c7.1,0,14.2,0,21.3,0c1.8-0.1,3.5,0.2,5.3,0.6c0.5,4.5,0.3,8.9,0.3,13.4
		c0,1.6,0,3.2,0,4.9c-0.1,2.8,0.6,5.9,2.9,7.8c1.6,2.1,4.1,3.8,6.9,3.6c127.8-0.1,255.6,0,383.3,0c2.5,0.1,4.6-1.7,6.1-3.5
		c2.3-1.9,2.9-5,2.9-7.8c-0.1-1.6-0.1-3.2-0.1-4.9c-0.3-4.1-0.1-8.3-0.1-12.5c0.6-0.5,1.2-0.9,1.8-1.5c8.7-0.1,17.4,0,26.1-0.1
		c0.1-15.1-0.1-30.2,0.1-45.3c0.1-4.4-1.8-8.5-3.8-12.3c-3.5-6.7-10.3-11.3-17.5-13.1c-27.6-0.1-55.1,0-82.7-0.1
		c-108.4,0-216.8,0-325.3,0C613.8,275.8,610.7,275.3,608,276.6z"/>
	<path class="st3" d="M608,276.6c2.7-1.3,5.7-0.7,8.6-0.8c108.4,0,216.8,0,325.3,0c27.5,0.1,55.1-0.1,82.7,0.1
		c7.2,1.8,14,6.4,17.5,13.1c2,3.8,3.9,7.9,3.8,12.3c-0.1,15.1,0,30.2-0.1,45.3c-8.7,0.1-17.4-0.1-26.1,0.1c0.1-9.8,0-19.6,0.1-29.3
		c0.1-5.3-1-11.2-4.9-15.1c-1.7-1.7-4.1-2.3-6.4-2.3c-127.1,0-254.2,0-381.3,0c-2.5-0.1-5,0.7-6.7,2.7c-3.4,3.5-4.6,8.6-4.6,13.4
		c-0.1,10.4,0.1,20.8-0.1,31.3c-1.7-0.4-3.5-0.7-5.3-0.6c-7.1,0.1-14.2,0-21.3,0c-0.1-15.1,0.1-30.3-0.1-45.3
		c-0.1-4.5,1.9-8.7,4.1-12.6C596.4,282.8,602,278.8,608,276.6z"/>
	<path class="st2" d="M620.6,302.4c1.7-1.9,4.2-2.7,6.7-2.7c127.1,0,254.2,0,381.3,0c2.3,0,4.7,0.6,6.4,2.3c4,3.9,5.1,9.7,4.9,15.1
		c-0.1,9.8,0.1,19.6-0.1,29.3c-0.5,0.5-1.2,1-1.8,1.5c-0.3-10.5-0.1-21.1-0.1-31.5c0-4.6-0.9-9.7-4.4-12.9c-1.3-1.3-3.1-1.7-4.9-1.7
		c-127.1,0-254.2,0-381.3,0c-2.8-0.2-5.3,1.5-6.7,3.9c-2.3,3.6-2.6,7.9-2.6,12.1c0.1,14.2,0,28.5,0,42.7c-0.4,0-1.3,0-1.7,0
		c-0.1-4.5,0.1-8.9-0.3-13.4c0.1-10.4,0-20.8,0.1-31.3C616,311,617.2,305.9,620.6,302.4z"/>
	<path class="st3" d="M620.5,305.6c1.4-2.3,3.9-4.1,6.7-3.9c127.1,0,254.2,0,381.3,0c1.8,0,3.6,0.4,4.9,1.7
		c3.5,3.3,4.4,8.3,4.4,12.9c0.1,10.5-0.2,21.1,0.1,31.5c0.1,4.1-0.1,8.3,0.1,12.5c-1,0-2.1,0-3.1,0c-0.1-1.2-0.1-2.5-0.5-3.6
		c-1-2.4-4.5-2.9-6.4-1.4c-1.6,1.1-1.3,3.3-1.5,5c-1.4,0-2.7,0-4.1,0c-0.1-10.7-0.1-21.3,0-32c0.1-4.3-0.9-8.9-3.9-12.1
		c-1.5-1.7-3.8-2.5-6.1-2.5c-115.3-0.1-230.6,0-346-0.1c-3.6,0.1-7.8-0.7-10.7,1.9c-3.4,3-4.6,7.7-4.6,12.1c0,10.9,0.1,21.8,0,32.7
		c-0.5,0-1.4,0-1.9,0c-0.3,0-1.1,0-1.5,0c-3.3,0-6.7,0-10,0c0-14.3,0-28.5,0-42.7C617.9,313.6,618.2,309.2,620.5,305.6z"/>
	<path class="st2" d="M635.9,315.7c2.9-2.6,7.1-1.8,10.7-1.9c115.3,0.1,230.7,0,346,0.1c2.3,0,4.5,0.9,6.1,2.5
		c3.1,3.2,3.9,7.8,3.9,12.1c0,10.7-0.1,21.3,0,32c-0.5,0-1.5,0-2.1,0c0.1-10.7,0-21.3,0.1-32c0.1-4.3-1-9.3-4.9-11.8
		c-3.3-1.5-7-0.7-10.5-0.8c-112.6,0-225.3,0-337.9,0c-3.5,0.2-7.9-0.9-10.7,2c-3.2,3.4-3.5,8.3-3.4,12.7c0.1,10,0,20,0.1,30
		c-0.5,0-1.5,0-2.1,0c0.1-10.9,0-21.8,0-32.7C631.3,323.4,632.5,318.6,635.9,315.7z"/>
	<path class="st3" d="M636.6,317.8c2.7-2.9,7.1-1.8,10.7-2c112.6,0,225.3,0,337.9,0c3.5,0.2,7.2-0.7,10.5,0.8
		c3.9,2.5,4.9,7.5,4.9,11.8c-0.1,10.7,0,21.3-0.1,32c-0.3,0-1,0-1.3,0h-0.9c-0.1,4.2-0.1,8.4,0,12.6h-0.2c0-4.2,0-8.4,0.1-12.6h-0.8
		c-2.8,0-5.6,0-8.3-0.1c-0.3-2.1-0.5-4.7-2.7-5.5c-1.5-0.3-3.5-0.5-4.7,0.7c-1.3,1.2-1.3,3.2-1.5,4.8c-1.5,0-2.9,0-4.3,0
		c-0.3-1.6,0.1-3.5-1.2-4.7c-1.3-1.4-3.4-1.3-5.1-0.8c-1.9,1.1-2,3.5-2.2,5.5c-2.8,0-5.7,0-8.5,0c-0.3,0-1.1,0-1.4,0
		c-2.8,0-5.6,0-8.5,0c-0.2-1.6,0.3-3.6-1-4.9c-1.5-1.7-4.4-1.9-6-0.3c-1.5,1.3-1.1,3.4-1.3,5.1c-1.7,0-3.5,0-5.3,0
		c-0.1-2.1,0.2-4.9-1.9-6.1c-1.7-0.5-3.9-0.7-5.1,0.7c-1.6,1.4-0.9,3.6-1,5.5c-1.5,0-3,0-4.5,0c-0.2-1.7,0.3-3.9-1.3-5.1
		c-1.9-2.1-5.7-1.2-6.7,1.4c-0.3,1.2-0.3,2.5-0.3,3.7c-2.6,0-5.3,0-7.9,0.1c-0.4,0-1.3,0-1.7,0c-2.5-0.1-5.1-0.1-7.5-0.1
		c-0.3-2.1-0.5-4.6-2.7-5.5c-1.5-0.3-3.5-0.5-4.7,0.7c-1.3,1.2-1.3,3.1-1.5,4.8c-1.4,0-2.9,0-4.3,0c-0.3-1.6,0.1-3.5-1.2-4.7
		c-1.3-1.4-3.5-1.3-5.1-0.7c-1.9,1.1-2,3.5-2.1,5.5c-3.1,0-6.3,0-9.4,0c-0.3,0-1.1,0-1.4,0c-2.5,0-5,0-7.5,0
		c-0.2-1.7,0.3-3.9-1.3-5.2c-1.5-1.5-4.2-1.5-5.7,0.1c-1.5,1.3-1.1,3.4-1.3,5.1c-1.7,0-3.5,0-5.3,0c-0.1-2.1,0.2-4.9-1.9-6.1
		c-1.7-0.5-3.9-0.7-5.1,0.7c-1.6,1.4-0.9,3.6-0.9,5.4c-1.5,0-3,0-4.5,0c-0.1-1.9,0.2-4.2-1.6-5.4c-2-1.8-5.5-0.7-6.4,1.7
		c-0.3,1.2-0.3,2.5-0.3,3.7c-3.2,0-6.3,0-9.5,0.1c-0.4,0-1.2,0-1.7,0c-2.4-0.1-4.8-0.1-7.2-0.1c-0.5-1.6-0.4-3.5-1.7-4.7
		c-1.2-1.4-3.4-1.3-5-0.7c-1.9,1.1-2,3.5-2.2,5.5c-1.5,0-2.9,0-4.3,0c-0.1-1.2-0.1-2.5-0.5-3.7c-1.3-3-6.3-3-7.5,0.1
		c-0.3,1.2-0.3,2.4-0.5,3.6c-2.5,0-5,0-7.5,0c-0.3,0-1.1,0-1.4,0c-3.1,0-6.3,0-9.5,0c-0.2-1.7,0.2-3.9-1.3-5.1
		c-1.5-1.5-4.1-1.5-5.7-0.1c-1.6,1.3-1.1,3.5-1.3,5.2c-1.9,0-3.9,0-5.8,0.1c0.3-1.5,1-3.1,0-4.5c-0.9-2.2-3.9-2.5-5.8-1.6
		c-2.1,1.3-2,3.9-2.1,6c-1.3,0-2.7,0-4,0c-0.1-1.7,0.2-3.9-1.3-5.1c-1.5-1.6-4.1-1.5-5.7-0.1c-1.7,1.2-1,3.5-1.3,5.2
		c-2.6,0-5.2,0-7.8,0c-0.3,0-1.1,0-1.5,0c-3.2,0-6.5,0-9.7,0c-0.2-1.9,0.1-4.3-1.9-5.3c-1.7-0.9-4.5-0.8-5.6,1.1
		c-0.8,1.2-0.7,2.8-0.9,4.2c-1.5,0-2.9,0-4.4,0c-0.1-2-0.1-4.5-2.1-5.5c-1.7-0.5-3.8-0.6-5.1,0.8c-1.3,1.2-0.9,3.1-1.2,4.7
		c-2.5,0-4.9,0-7.5,0.1H682c-0.1,4.2-0.1,8.4,0,12.6l0,0c-0.1-4.2-0.1-8.4,0-12.6h-0.8c-3.1,0-6.1,0-9.1,0c-0.1-1.7,0.3-3.8-1.3-5.1
		c-1.5-1.6-4.1-1.6-5.7-0.2c-1.7,1.2-1.1,3.5-1.3,5.3c-1.9,0-3.7,0-5.6,0c0.1-1.5,0.7-3.3-0.4-4.7c-1.4-2.6-6-2.5-7.1,0.3
		c-0.9,1.3-0.1,3,0,4.5c-1.7,0-3.3,0-5.1,0c0.3-1.6,0.9-3.5-0.5-4.8c-1.7-2.3-5.4-1.9-6.8,0.4c-0.6,1.4-0.7,2.9-0.9,4.3
		c-1.4,0-2.8,0-4.3,0.1c-0.1-10,0-20-0.1-30C633.1,326,633.4,321.2,636.6,317.8 M771.2,329c4.5,0.3,9,0,13.5,0.1
		c0.1,1.3-0.3,2.8,0.7,3.9c1,1.5,2.9,1.4,4.5,1.5c20.5-0.1,40.9,0,61.4-0.1c2.9,0.3,4.5-2.7,3.9-5.3c4.3-0.1,8.5,0.1,12.8-0.1
		c1.9,0.1,2.5-2.7,1.1-3.7c-2.3-0.5-4.8-0.3-7.1-0.3c-28,0-56,0-84,0c-2.5,0-4.9-0.2-7.3,0.1C768.5,325.7,769.1,329.2,771.2,329z"/>
	<path class="st2" d="M771.2,329c-2.1,0.2-2.7-3.3-0.6-3.7c2.4-0.3,4.9-0.1,7.3-0.1c28,0,56,0,84,0c2.4,0.1,4.8-0.3,7.1,0.3
		c1.5,1,0.9,3.7-1.1,3.7c-4.3,0.2-8.5,0-12.8,0.1c-23.5-0.1-47-0.1-70.5,0C780.2,329,775.7,329.2,771.2,329z"/>
	<path class="st2" d="M784.7,329.2c23.5-0.1,47-0.1,70.5,0c0.6,2.5-1,5.5-3.9,5.3c-20.5,0.1-40.9,0-61.4,0.1c-1.6,0-3.5,0-4.5-1.5
		C784.4,332,784.8,330.4,784.7,329.2z"/>
	<path class="st3" d="M589.3,348.4c8.3,0,16.5-0.1,24.8,0c0.2,5.5,0.1,11.1,0.1,16.7c0,2.3,0.1,4.8,1.5,6.9c2.1,3.4,5.3,6.7,9.6,6.7
		c126,0.1,252,0,378,0c3.5-0.1,7.2,0.5,10.3-1.1c3.8-2.3,6.6-6.5,6.6-11.1c0.1-6-0.1-11.9,0-17.9c8.5-0.2,17.1-0.1,25.7-0.1
		c0.1,17.3,0,34.6,0.1,51.9c0.1,3.4-1.1,6.9-3.8,9.1c-3.4-0.7-6.9-0.3-10.3-0.4c-142.8,0-285.8,0-428.6,0c-3.4,0-6.9-0.3-10.3,0.4
		c-2.4-2.1-3.8-5.2-3.7-8.4C589.4,383.5,589.2,366,589.3,348.4z"/>
	<path class="st4" d="M650.9,356c1.2-2.7,5.7-2.9,7.1-0.3c1,1.4,0.5,3.1,0.4,4.7c-0.8,0-1.7,0-2.5,0.1c-0.4,0-1.2,0-1.7,0
		c-1.1,0-2.3,0-3.4,0C650.8,359,650,357.4,650.9,356z"/>
	<path class="st4" d="M745.2,354.4c1.9-0.9,4.9-0.6,5.8,1.6c0.9,1.4,0.2,3,0,4.5h-1.3c-0.4,0-1.3,0-1.7,0c-1.7,0-3.3-0.1-4.9-0.1
		C743.2,358.2,743.1,355.6,745.2,354.4z"/>
	<path class="st4" d="M837.2,355c1.3-1.4,3.5-1.3,5.1-0.7c2.1,1.3,1.9,4,1.9,6.1c-1,0-2,0-3,0.1h-0.9c-0.1,4.2-0.1,8.4-0.1,12.6
		h-0.1c0-4.2,0-8.4,0.1-12.6h-0.8c-1.1,0-2.1,0-3.2,0C836.3,358.6,835.6,356.4,837.2,355z"/>
	<path class="st4" d="M928.5,355c1.3-1.4,3.5-1.3,5.1-0.7c2.1,1.3,1.9,4,1.9,6.1c-0.6,0-1.7,0-2.3,0c-0.3,0-1.1,0-1.4,0
		c-1.5,0-2.9,0-4.3,0C927.6,358.6,926.9,356.4,928.5,355z"/>
	<path class="st4" d="M638.5,356c1.4-2.3,5.2-2.7,6.8-0.4c1.5,1.3,0.8,3.2,0.5,4.8c-0.7,0-2.1,0-2.9,0c-0.3,0-1.1,0-1.5,0
		c-1.3,0-2.7-0.1-4-0.1C637.8,359,638,357.4,638.5,356z"/>
	<path class="st4" d="M665.4,355.2c1.6-1.4,4.3-1.4,5.7,0.2c1.5,1.3,1.1,3.3,1.3,5.1c-0.7,0-2,0.1-2.7,0.1c-0.4,0-1.2,0-1.7,0
		c-1.3,0-2.6-0.1-3.9-0.1C664.3,358.6,663.7,356.4,665.4,355.2z"/>
	<path class="st4" d="M691.9,355.7c1.3-1.4,3.4-1.3,5.1-0.8c2,1.1,2.1,3.5,2.1,5.5c-1.1,0-2.1,0-3.1,0c-0.3,0-1.1,0-1.4,0
		c-1.3,0-2.5,0-3.8,0C691,358.8,690.6,356.9,691.9,355.7z"/>
	<path class="st4" d="M704.4,356.2c1.1-1.9,3.8-1.9,5.6-1.1c2,1.1,1.7,3.4,1.9,5.3c-0.8,0-1.7,0-2.5,0c-0.3,0-1.1,0-1.5,0
		c-1.5,0-3,0-4.5,0C703.7,359,703.6,357.4,704.4,356.2z"/>
	<path class="st4" d="M732,355.2c1.6-1.4,4.2-1.5,5.7,0.1c1.6,1.3,1.2,3.3,1.3,5.1c-1,0-2.1,0-3.1,0.1c-0.4,0-1.3,0-1.7,0
		c-1.2,0-2.3-0.1-3.5-0.1C731,358.7,730.4,356.4,732,355.2z"/>
	<path class="st4" d="M758.1,355.2c1.5-1.5,4.2-1.5,5.7,0.1c1.5,1.3,1.1,3.4,1.3,5.1c-0.5,0-1.3,0-1.8,0h-0.9c0,4.2-0.1,8.4,0,12.6
		h-0.1c0-4.2,0-8.4,0.1-12.6h-0.9c-1.5,0-3.1,0-4.7,0C757,358.6,756.5,356.4,758.1,355.2z"/>
	<path class="st4" d="M783.9,356.8c1.2-3,6.3-3,7.5-0.1c0.3,1.2,0.3,2.4,0.5,3.7c-1.5,0-2.9,0-4.5,0c-0.3,0-1.1,0-1.4,0
		c-0.9,0-1.7,0-2.5,0C783.5,359.2,783.5,358,783.9,356.8z"/>
	<path class="st4" d="M798.3,355c1.6-0.5,3.7-0.7,5,0.7c1.3,1.2,1.3,3.1,1.7,4.7c-1.3,0-2.7,0-4.1,0.1c-0.3,0-1.1,0-1.4,0
		c-1.1,0-2.3,0-3.4,0C796.3,358.4,796.4,356,798.3,355z"/>
	<path class="st4" d="M823.7,356.7c0.9-2.5,4.4-3.5,6.4-1.7c1.8,1.2,1.5,3.5,1.6,5.4c-1.4,0-2.8,0.1-4.1,0.1c-0.4,0-1.3,0-1.7,0
		c-0.9,0-1.7-0.1-2.5-0.1C823.5,359.2,823.5,357.9,823.7,356.7z"/>
	<path class="st4" d="M850.8,355.3c1.5-1.5,4.1-1.5,5.7-0.1c1.6,1.3,1.1,3.5,1.3,5.2c-1.3,0-2.5,0-3.9,0c-0.3,0-1.1,0-1.4,0
		c-1,0-2.1,0-3.1,0C849.7,358.7,849.3,356.5,850.8,355.3z"/>
	<path class="st4" d="M878.3,355c1.7-0.5,3.8-0.7,5.1,0.7c1.3,1.2,0.9,3.1,1.2,4.7c-1.4,0-2.8,0-4.3,0c-0.3,0-1.1,0-1.4,0
		c-0.7,0-2.1,0-2.7,0C876.3,358.4,876.3,356.1,878.3,355z"/>
	<path class="st4" d="M890.3,355.6c1.2-1.3,3.1-1.1,4.7-0.7c2.1,0.9,2.4,3.5,2.7,5.5c-1.5,0-3,0.1-4.5,0.1c-0.4,0-1.2,0-1.6,0
		c-0.7,0-2.1-0.1-2.8-0.1C889.1,358.8,889,356.8,890.3,355.6z"/>
	<path class="st4" d="M915.1,356.7c0.9-2.6,4.7-3.5,6.7-1.4c1.6,1.2,1.1,3.4,1.3,5.1c-0.9,0-1.7,0-2.5,0.1h-0.9c0,4.2,0,8.4,0,12.6
		h-0.1c0-4.2-0.1-8.4,0-12.6h-0.8c-1.3,0-2.7-0.1-3.9-0.1C914.9,359.2,914.9,357.9,915.1,356.7z"/>
	<path class="st4" d="M942.1,355.3c1.6-1.7,4.5-1.5,6,0.3c1.2,1.3,0.8,3.3,1,4.9c-1.3,0-2.5,0-3.7,0c-0.3,0-1.1,0-1.4,0
		c-1.1,0-2.1,0-3.1,0C941,358.7,940.5,356.5,942.1,355.3z"/>
	<path class="st4" d="M969.7,354.9c1.7-0.5,3.8-0.6,5.1,0.8c1.3,1.2,0.9,3.1,1.2,4.7c-1.3,0-2.6,0-3.9,0.1c-0.4,0-1.2,0-1.7,0
		c-0.7,0-2.1-0.1-2.8-0.1C967.6,358.4,967.7,356,969.7,354.9z"/>
	<path class="st4" d="M981.7,355.6c1.2-1.3,3.1-1.1,4.7-0.7c2.1,0.9,2.4,3.5,2.7,5.5c-1.1,0-2.3,0-3.5,0.1c-0.4,0-1.2,0-1.7,0
		c-1.3,0-2.5-0.1-3.8-0.1C980.5,358.8,980.4,356.8,981.7,355.6z"/>
	<path class="st4" d="M1008.2,355.4c1.9-1.5,5.4-1,6.4,1.4c0.3,1.2,0.3,2.4,0.5,3.6c-1.1,0-2.1,0-3.3,0c-0.3,0-1.1,0-1.4,0
		c-1.3,0-2.5,0-3.8,0C1006.9,358.7,1006.6,356.6,1008.2,355.4z"/>
	<path class="st2" d="M616.3,360.4c0.4,0,1.3,0,1.7,0c3.3,0,6.7,0,10,0c0,1.6,0,3.2,0,4.8c-3.9,0-7.8,0-11.7,0
		C616.3,363.6,616.3,362,616.3,360.4z"/>
	<path class="st5" d="M628,360.4c0.3,0,1.1,0,1.5,0c0,1.6,0,3.2,0,4.8c0,2.6,0,5.3,0,7.9c-0.3,0-1.1,0-1.5,0c0-2.6,0-5.2,0-7.9
		C628,363.6,628,362,628,360.4z"/>
	<path class="st2" d="M629.4,360.4c0.5,0,1.4,0,1.9,0s1.5,0,2.1,0c1.4,0,2.8,0,4.3-0.1c1.3,0,2.7,0,4,0.1c0,1.6,0,3.2,0,4.8
		c-4.1,0-8.1,0.1-12.1,0C629.4,363.6,629.4,362,629.4,360.4z"/>
	<path class="st5" d="M641.6,360.4c0.3,0,1.1,0,1.5,0c0,1.6,0,3.2,0,4.8c0,2.6,0,5.3,0.1,7.9c-0.4,0-1.1,0-1.5,0
		c0-2.6,0.1-5.3,0-7.9C641.6,363.6,641.6,362,641.6,360.4z"/>
	<path class="st2" d="M643,360.4c0.7,0,2.1,0,2.9,0c1.7,0,3.3,0,5.1,0c1.1,0,2.3,0,3.4,0c-0.1,1.6-0.1,3.2-0.1,4.7
		c-3.7,0.1-7.5,0.1-11.2,0C643,363.6,643,362,643,360.4z"/>
	<path class="st6" d="M654.3,360.4c0.4,0,1.3,0,1.7,0c0,1.6,0.1,3.2,0.1,4.8c4,0.1,7.9,0.1,11.9,0c0-1.6,0-3.2,0.1-4.7
		c0.4,0,1.3,0,1.7,0c0.1,1.6,0.1,3.1,0.1,4.7c3.9,0.1,7.7,0.1,11.5,0c0.1-1.6,0.1-3.2,0.1-4.8h0.8c-0.1,4.2-0.1,8.4,0,12.6
		c-13.1,0.1-26.1,0-39.2,0c0-2.6-0.1-5.3-0.1-7.9c3.7,0.1,7.5,0.1,11.2,0C654.2,363.6,654.2,362,654.3,360.4z"/>
	<path class="st2" d="M656,360.4c0.8,0,1.7,0,2.5-0.1c1.9,0,3.7,0,5.6,0c1.3,0,2.6,0,3.9,0.1c0,1.6,0,3.2-0.1,4.7
		c-4,0.1-7.9,0.1-11.9,0C656,363.6,656,362,656,360.4z"/>
	<path class="st2" d="M669.6,360.4c0.7,0,2-0.1,2.7-0.1c3.1,0,6.1,0,9.1,0c-0.1,1.6-0.1,3.2-0.1,4.8c-3.9,0.1-7.7,0.1-11.5,0
		C669.7,363.6,669.7,362,669.6,360.4z"/>
	<path class="st6" d="M682.4,360.5h0.8c0,1.6,0.1,3.2,0.1,4.8c3.7,0.1,7.5,0.1,11.2,0c0,2.6,0,5.3,0,7.9c-4.1,0-8.1,0-12.1,0
		C682.4,368.9,682.4,364.7,682.4,360.5z"/>
	<path class="st2" d="M683.3,360.4c2.5-0.1,4.9-0.1,7.5-0.1c1.3,0,2.5,0,3.8,0c0,1.6,0,3.2,0,4.8c-3.7,0.1-7.5,0.1-11.2,0
		C683.3,363.6,683.3,362,683.3,360.4z"/>
	<path class="st5" d="M694.6,360.4c0.3,0,1.1,0,1.4,0c0,1.6,0,3.2,0,4.8c0,2.6,0,5.2,0,7.9c-0.3,0-1.1,0-1.4,0c0-2.6,0-5.3,0-7.9
		C694.6,363.6,694.6,362,694.6,360.4z"/>
	<path class="st2" d="M696,360.4c1.1,0,2.1,0,3.1,0c1.5,0,2.9,0,4.4,0s3,0,4.5,0c0,1.6,0,3.2,0,4.8c-4,0-8,0-12,0
		C696,363.6,696,362,696,360.4z"/>
	<path class="st5" d="M708,360.4c0.3,0,1.1,0,1.5,0c0,1.6,0,3.2,0,4.8c0,2.6,0,5.3,0,7.9c-0.3,0-1.1,0-1.4,0c0-2.6,0-5.2,0-7.9
		C708,363.6,708,362,708,360.4z"/>
	<path class="st2" d="M709.4,360.4c0.8,0,1.7,0,2.5,0c3.2,0,6.5,0,9.7,0c0,1.6,0,3.2,0,4.8c-4.1,0-8.1,0-12.1,0
		C709.4,363.6,709.4,362,709.4,360.4z"/>
	<path class="st5" d="M721.6,360.4c0.3,0,1.1,0,1.5,0c0,1.6,0,3.2,0,4.8c0,2.6,0,5.2,0.1,7.9c-0.4,0-1.1,0-1.5,0c0-2.6,0-5.3,0-7.9
		C721.6,363.6,721.6,362,721.6,360.4z"/>
	<path class="st2" d="M723,360.4c2.6,0,5.2,0,7.8,0c1.2,0,2.3,0,3.5,0.1c-0.1,1.6-0.1,3.1-0.1,4.7c-3.7,0.1-7.5,0.1-11.2,0.1
		C723,363.6,723,362,723,360.4z"/>
	<path class="st6" d="M734.3,360.4c0.4,0,1.3,0,1.7,0c0,1.6,0,3.2,0.1,4.8c4,0.1,7.9,0.1,11.9,0c0-1.6,0-3.2,0.1-4.8
		c0.4,0,1.3,0,1.7,0c0,1.6,0,3.1,0.1,4.7c3.9,0.1,7.7,0.1,11.5,0c0.1-1.6,0.1-3.2,0.1-4.8h0.9c-0.1,4.2-0.1,8.4-0.1,12.6
		c-13.1,0.1-26.1,0-39.2,0c0-2.6-0.1-5.3-0.1-7.9c3.7,0.1,7.5,0.1,11.2-0.1C734.2,363.6,734.2,362,734.3,360.4z"/>
	<path class="st2" d="M736,360.4c1,0,2.1-0.1,3.1-0.1c1.3,0,2.7,0,4,0c1.7,0,3.3,0.1,4.9,0.1c0,1.6-0.1,3.2-0.1,4.8
		c-4,0.1-7.9,0.1-11.9,0C736,363.6,736,362,736,360.4z"/>
	<path class="st2" d="M749.7,360.5h1.3c1.9,0,3.9,0,5.8-0.1c1.5,0,3.1,0,4.7,0c-0.1,1.6-0.1,3.2-0.1,4.8c-3.9,0.1-7.7,0.1-11.5,0
		C749.7,363.6,749.7,362,749.7,360.5z"/>
	<path class="st6" d="M762.4,360.4h0.9c0,1.6,0,3.2,0.1,4.8c3.7,0.1,7.5,0.1,11.2,0c0,2.6,0,5.2,0,7.9c-4.1,0-8.1,0-12.2,0
		C762.4,368.8,762.4,364.6,762.4,360.4z"/>
	<path class="st2" d="M763.3,360.4c0.5,0,1.3,0,1.8,0c3.1,0,6.3,0,9.5,0c0,1.6,0,3.2,0,4.8c-3.7,0.1-7.5,0.1-11.2,0
		C763.3,363.6,763.3,362,763.3,360.4z"/>
	<path class="st5" d="M774.5,360.4c0.3,0,1.1,0,1.4,0c0,1.6,0,3.2,0,4.8c0,2.6,0,5.2,0,7.9c-0.3,0-1.1,0-1.4,0c0-2.6,0-5.3,0-7.9
		C774.5,363.6,774.5,362,774.5,360.4z"/>
	<path class="st2" d="M775.9,360.4c2.5,0,5,0,7.5,0c0.9,0,1.7,0,2.5,0c0,1.6,0,3.2,0,4.8c-3.3,0-6.7,0-10,0
		C775.9,363.6,775.9,362,775.9,360.4z"/>
	<path class="st5" d="M785.9,360.4c0.3,0,1.1,0,1.4,0c0,1.6,0,3.2,0,4.8c0,2.6,0,5.3,0,7.9c-0.3,0-1.1,0-1.4,0c0-2.6,0-5.3,0-7.9
		C785.9,363.6,785.9,362,785.9,360.4z"/>
	<path class="st2" d="M787.4,360.4c1.5,0,2.9,0,4.5,0c1.5,0,2.9,0,4.3,0c1.1,0,2.3,0,3.4,0c0,1.6,0,3.2,0,4.8c-4.1,0-8.1,0-12.1,0
		C787.4,363.6,787.4,362,787.4,360.4z"/>
	<path class="st5" d="M799.5,360.4c0.3,0,1.1,0,1.4,0c0,1.6,0,3.2,0,4.8c0,2.6,0,5.2,0,7.9c-0.3,0-1.1,0-1.5,0c0-2.6,0-5.3,0-7.9
		C799.5,363.6,799.5,362,799.5,360.4z"/>
	<path class="st2" d="M800.9,360.4c1.3,0,2.7,0,4.1-0.1c2.4,0,4.8,0.1,7.2,0.1c-0.1,1.6-0.1,3.1-0.1,4.7c-3.7,0.1-7.5,0.1-11.2,0
		C800.9,363.6,800.9,362,800.9,360.4z"/>
	<path class="st6" d="M812.3,360.5c0.4,0,1.3,0,1.7,0c0,1.6,0.1,3.2,0.1,4.7c4,0.1,7.9,0.1,11.9,0c0-1.6,0-3.2,0.1-4.8
		c0.4,0,1.2,0,1.7,0c0.1,1.6,0.1,3.2,0.1,4.7c3.9,0.1,7.7,0.1,11.5,0c0.1-1.6,0.1-3.2,0.1-4.8h0.8c-0.1,4.2-0.1,8.4-0.1,12.6
		c-13.1,0.1-26.1,0-39.2,0c0-2.6-0.1-5.3,0-7.9c3.7,0.1,7.5,0.1,11.2,0C812.2,363.6,812.2,362,812.3,360.5z"/>
	<path class="st2" d="M813.9,360.5c3.2-0.1,6.3-0.1,9.5-0.1c0.8,0,1.7,0,2.5,0.1c0,1.6-0.1,3.2-0.1,4.8c-4,0.1-7.9,0.1-11.9,0
		C813.9,363.6,813.9,362.1,813.9,360.5z"/>
	<path class="st2" d="M827.6,360.4c1.4,0,2.8-0.1,4.1-0.1c1.5,0,2.9,0,4.5,0c1.1,0,2.1,0,3.2,0c-0.1,1.6-0.1,3.2-0.1,4.8
		c-3.9,0.1-7.7,0.1-11.5,0C827.7,363.6,827.6,362,827.6,360.4z"/>
	<path class="st6" d="M840.3,360.4h0.9c0,1.6,0.1,3.2,0.1,4.8c3.7,0.1,7.5,0.1,11.2,0c0,2.6,0,5.3,0,7.9c-4.1,0-8.1,0-12.2,0
		C840.3,368.8,840.3,364.7,840.3,360.4z"/>
	<path class="st2" d="M841.3,360.4c1,0,2-0.1,3-0.1c1.7,0,3.5,0,5.3,0c1,0,2,0,3.1,0c0,1.6,0,3.2,0,4.8c-3.7,0.1-7.5,0.1-11.2,0
		C841.3,363.6,841.3,362,841.3,360.4z"/>
	<path class="st5" d="M852.5,360.4c0.3,0,1.1,0,1.4,0c0,1.6,0,3.2,0,4.8c0,2.6,0,5.2,0,7.9c-0.3,0-1.1,0-1.4,0c0-2.6,0-5.3,0-7.9
		C852.5,363.6,852.5,362,852.5,360.4z"/>
	<path class="st2" d="M853.9,360.4c1.3,0,2.5,0,3.9,0c2.5,0,5,0,7.5,0c0,1.6,0,3.2,0,4.8c-3.8,0-7.5,0-11.3,0
		C853.9,363.6,853.9,362,853.9,360.4z"/>
	<path class="st5" d="M865.3,360.4c0.3,0,1.1,0,1.4,0c0,1.6,0,3.2,0,4.8c0,2.6,0,5.2,0,7.9c-0.3,0-1.1,0-1.4,0c0-2.6,0-5.3,0-7.9
		C865.3,363.6,865.3,362,865.3,360.4z"/>
	<path class="st2" d="M866.7,360.4c3.1,0,6.3,0,9.4,0c0.7,0,2.1,0,2.7,0c0,1.6,0,3.2,0,4.8c-4.1,0-8.1,0-12.1,0
		C866.7,363.6,866.7,362,866.7,360.4z"/>
	<path class="st5" d="M878.9,360.4c0.3,0,1.1,0,1.4,0c0,1.6,0,3.2,0,4.8c0,2.6,0,5.2,0.1,7.9c-0.3,0-1.1,0-1.5,0c0-2.6,0-5.3,0-7.9
		C878.9,363.6,878.9,362,878.9,360.4z"/>
	<path class="st2" d="M880.3,360.4c1.4,0,2.8,0,4.3,0c1.4,0,2.9,0,4.3,0c0.7,0,2.1,0.1,2.8,0.1c-0.1,1.6-0.1,3.2-0.2,4.7
		c-3.7,0.1-7.5,0.1-11.2,0C880.3,363.6,880.3,362,880.3,360.4z"/>
	<path class="st6" d="M891.6,360.4c0.4,0,1.2,0,1.6,0c0,1.6,0,3.2,0.1,4.8c3.9,0.1,7.9,0.1,11.9,0c0-1.6,0-3.2,0.1-4.7
		c0.4,0,1.2,0,1.7,0c0.1,1.6,0.1,3.1,0.1,4.7c3.9,0.1,7.7,0.1,11.5,0c0.1-1.6,0.1-3.2,0.1-4.8h0.8c-0.1,4.2,0,8.4,0,12.6
		c-13.1,0.1-26.1,0-39.2,0c0-2.6-0.1-5.3-0.1-7.9c3.7,0.1,7.5,0.1,11.2,0C891.5,363.6,891.6,362,891.6,360.4z"/>
	<path class="st2" d="M893.3,360.4c1.5,0,3-0.1,4.5-0.1c2.5,0,5.1,0.1,7.5,0.1c0,1.6-0.1,3.2-0.1,4.7c-4,0.1-7.9,0.1-11.9,0
		C893.3,363.6,893.3,362,893.3,360.4z"/>
	<path class="st2" d="M906.9,360.5c2.6-0.1,5.3-0.1,7.9-0.1c1.3,0,2.6,0,3.9,0.1c-0.1,1.6-0.1,3.2-0.1,4.8c-3.9,0.1-7.7,0.1-11.5,0
		C907,363.6,906.9,362,906.9,360.5z"/>
	<path class="st6" d="M919.7,360.4h0.9c0,1.6,0.1,3.2,0.1,4.8c3.7,0.1,7.5,0.1,11.2,0c0,2.6,0,5.3,0,7.9c-4.1,0-8.1,0-12.2,0
		C919.7,368.8,919.7,364.7,919.7,360.4z"/>
	<path class="st2" d="M920.6,360.4c0.8,0,1.7,0,2.5-0.1c1.5,0,2.9,0,4.5,0c1.5,0,2.9,0,4.3,0c0,1.6,0,3.2,0,4.8
		c-3.7,0.1-7.5,0.1-11.2,0C920.6,363.6,920.6,362,920.6,360.4z"/>
	<path class="st5" d="M931.9,360.4c0.3,0,1.1,0,1.4,0c0,1.6,0,3.2,0,4.8c0,2.6,0,5.2,0,7.9c-0.3,0-1.1,0-1.4,0c0-2.6,0-5.3,0-7.9
		C931.9,363.6,931.9,362,931.9,360.4z"/>
	<path class="st2" d="M933.3,360.4c0.6,0,1.7,0,2.3,0c1.7,0,3.5,0,5.3,0c1.1,0,2.1,0,3.1,0c0,1.6,0,3.2,0,4.8c-3.5,0-7.1,0-10.7,0
		C933.3,363.6,933.3,362,933.3,360.4z"/>
	<path class="st5" d="M943.9,360.4c0.3,0,1.1,0,1.4,0c0,1.6,0,3.2,0,4.8c0,2.6,0,5.3,0,7.9c-0.3,0-1.1,0-1.4,0c0-2.6,0-5.2,0-7.9
		C943.9,363.6,943.9,362,943.9,360.4z"/>
	<path class="st2" d="M945.4,360.4c1.3,0,2.5,0,3.7,0c2.8,0,5.6,0,8.5,0c0,1.6,0,3.2,0,4.8c-4.1,0-8.1,0-12.1,0
		C945.4,363.6,945.4,362,945.4,360.4z"/>
	<path class="st5" d="M957.5,360.4c0.3,0,1.1,0,1.4,0c0,1.6,0,3.2,0,4.8c0,2.6,0,5.2,0,7.9c-0.3,0-1.1,0-1.5,0c0-2.6,0-5.3,0-7.9
		C957.5,363.6,957.5,362,957.5,360.4z"/>
	<path class="st2" d="M958.9,360.4c2.8,0,5.7,0,8.5,0c0.7,0,2.1,0.1,2.8,0.1c-0.1,1.6-0.1,3.2-0.2,4.7c-3.7,0.1-7.5,0.1-11.1,0
		C958.9,363.6,958.9,362,958.9,360.4z"/>
	<path class="st6" d="M970.3,360.4c0.4,0,1.2,0,1.7,0c0,1.6,0,3.2,0.1,4.8c4,0.1,7.9,0.1,11.9,0c0-1.6,0-3.2,0.1-4.8
		c0.4,0,1.2,0,1.7,0c0.1,1.6,0.1,3.2,0.1,4.7c3.8,0.1,7.7,0.1,11.5,0c0.1-1.6,0.1-3.2,0.1-4.8h0.8c-0.1,4.2-0.1,8.4-0.1,12.6
		c-13.1,0.1-26.1,0-39.2,0c0-2.6-0.1-5.3,0-7.9c3.7,0.1,7.5,0.1,11.1,0C970.1,363.6,970.2,362,970.3,360.4z"/>
	<path class="st2" d="M971.9,360.4c1.3,0,2.6-0.1,3.9-0.1c1.4,0,2.9,0,4.3,0c1.3,0,2.5,0.1,3.8,0.1c0,1.6-0.1,3.2-0.1,4.8
		c-4,0.1-7.9,0.1-11.9,0C971.9,363.6,971.9,362,971.9,360.4z"/>
	<path class="st2" d="M985.6,360.4c1.1,0,2.3-0.1,3.5-0.1c2.8,0,5.5,0,8.3,0.1c-0.1,1.6-0.1,3.2-0.1,4.8c-3.9,0.1-7.7,0.1-11.5,0
		C985.6,363.6,985.6,362,985.6,360.4z"/>
	<path class="st6" d="M998.4,360.5h0.9c0,1.6,0.1,3.2,0.1,4.8c3.7,0.1,7.5,0.1,11.2,0c0,2.6,0,5.3,0,7.9c-4.1,0-8.1,0-12.1-0.1
		C998.3,368.9,998.3,364.7,998.4,360.5z"/>
	<path class="st2" d="M999.2,360.4c0.3,0,1,0,1.3,0c0.5,0,1.5,0,2.1,0c1.3,0,2.7,0,4.1,0c1.3,0,2.5,0,3.8,0c0,1.6,0,3.2,0,4.8
		c-3.7,0.1-7.5,0.1-11.2,0C999.2,363.6,999.2,362,999.2,360.4z"/>
	<path class="st5" d="M1010.5,360.4c0.3,0,1.1,0,1.4,0c0,1.6,0,3.2,0,4.8c0,2.6,0,5.3,0,7.9c-0.3,0-1.1,0-1.4,0c0-2.6,0-5.3,0-7.9
		C1010.5,363.6,1010.5,362,1010.5,360.4z"/>
	<path class="st2" d="M1011.9,360.4c1.1,0,2.1,0,3.3,0c1,0,2,0,3.1,0c0,1.6,0,3.2,0.1,4.9c-2.1,0-4.3,0-6.3,0
		C1011.9,363.6,1011.9,362,1011.9,360.4z"/>
	<path class="st6" d="M616.2,365.3c3.9,0,7.8,0,11.7,0c0,2.6,0,5.2,0,7.9c-2.9,0-5.9,0.1-8.9,0C616.8,371.2,616.2,368.1,616.2,365.3
		z"/>
	<path class="st6" d="M629.4,365.2c4.1,0.1,8.1,0.1,12.1,0c0,2.6,0,5.2,0,7.9c-4.1,0-8.1,0-12.1,0
		C629.4,370.5,629.4,367.8,629.4,365.2z"/>
	<path class="st6" d="M696,365.2c4,0,8,0,12,0c0,2.6,0,5.2,0,7.9c-4,0-8,0-12,0C696,370.5,696,367.8,696,365.2z"/>
	<path class="st6" d="M709.4,365.2c4.1,0.1,8.1,0.1,12.1,0c0,2.6,0,5.2,0,7.9c-4.1,0-8.1,0-12.1,0
		C709.4,370.5,709.4,367.8,709.4,365.2z"/>
	<path class="st6" d="M775.9,365.2c3.3,0,6.7,0,10,0c0,2.6,0,5.2,0,7.9c-3.3,0-6.7,0-10,0C775.9,370.5,775.9,367.9,775.9,365.2z"/>
	<path class="st6" d="M787.4,365.2c4.1,0.1,8.1,0.1,12.1,0c0,2.6,0,5.2,0,7.9c-4.1,0-8.1,0-12.1,0
		C787.4,370.5,787.4,367.8,787.4,365.2z"/>
	<path class="st6" d="M853.9,365.2c3.8,0,7.5,0,11.3,0c0,2.6,0,5.2,0,7.9c-3.8,0-7.5,0-11.3,0C853.9,370.5,853.9,367.9,853.9,365.2z
		"/>
	<path class="st6" d="M866.7,365.2c4.1,0,8.1,0,12.1,0c0,2.6,0,5.2,0,7.9c-4.1,0-8.1,0-12.1,0C866.7,370.5,866.7,367.8,866.7,365.2z
		"/>
	<path class="st6" d="M933.3,365.2c3.5,0,7.1,0,10.7,0c0,2.6,0,5.2,0,7.9c-3.5,0-7.1,0-10.7,0C933.3,370.5,933.3,367.8,933.3,365.2z
		"/>
	<path class="st6" d="M945.4,365.2c4.1,0.1,8.1,0.1,12.1,0c0,2.6,0,5.2,0,7.9c-4.1,0-8.1,0-12.1,0
		C945.4,370.5,945.4,367.8,945.4,365.2z"/>
	<path class="st6" d="M1011.9,365.2c2.1,0,4.2,0,6.3,0c0.1,2.8-0.6,5.9-2.9,7.8c-1.2,0.1-2.3,0-3.5,0
		C1011.9,370.5,1011.9,367.9,1011.9,365.2z"/>
	<path class="st7" d="M619.1,373.1c2.9,0.1,5.9,0,8.9,0c0.3,0,1.1,0,1.5,0c4.1,0,8.1,0,12.1,0c0.4,0,1.1,0,1.5,0
		c13.1-0.1,26.1,0,39.2,0h0.2c4.1,0,8.1,0.1,12.1,0c0.3,0,1.1,0,1.4,0c4,0,8,0,12,0c0.3,0,1.1,0,1.4,0c4.1,0,8.1,0,12.1,0
		c0.3,0,1.1,0,1.5,0c13.1-0.1,26.1,0,39.2,0h0.1c4.1,0,8.1,0.1,12.2,0c0.3,0,1.1,0,1.4,0c3.3,0,6.7,0,10,0c0.3,0,1.1,0,1.4,0
		c4.1,0,8.1,0,12.1,0c0.3,0,1.1,0,1.5,0c13.1-0.1,26.1,0,39.2,0h0.1c4.1,0,8.1,0.1,12.2,0c0.3,0,1.1,0,1.4,0c3.8,0,7.5,0,11.3,0
		c0.3,0,1.1,0,1.4,0c4.1,0,8.1,0,12.1,0c0.3,0,1.1,0,1.5,0c13.1-0.1,26.1,0,39.2,0h0.1c4.1,0,8.1,0.1,12.2,0c0.3,0,1.1,0,1.4,0
		c3.5,0,7.1,0,10.7,0c0.3,0,1.1,0,1.4,0c4.1,0,8.1,0,12.1,0c0.3,0,1.1,0,1.5,0c13.1-0.1,26.1,0,39.2,0h0.2c4.1,0.1,8.1,0,12.1,0.1
		c0.3,0,1.1,0,1.4,0c1.1,0,2.3,0,3.5,0c-1.5,1.9-3.5,3.6-6.1,3.5c-127.8,0.1-255.6,0-383.3,0C623.2,376.9,620.7,375.2,619.1,373.1z"
		/>
	<path class="st2" d="M593,409.5c3.4-0.7,6.8-0.4,10.3-0.4c142.9,0,285.8,0,428.6,0c3.4,0,6.9-0.3,10.3,0.4c0.7,0.4,1.4,0.9,2.1,1.3
		c-1.3,3.1-4.3,4.9-6.8,7c-4.1,2.4-8.8,4.1-13.6,3.9c-6.6,0-13.3,0-19.9,0c-0.5,0-1.4,0-1.9,0c-26.8,0-53.7,0-80.5,0
		c-0.5,0-1.4,0-1.9,0c-68.1,0-136.3,0-204.5,0c-0.5,0-1.4,0-1.9,0c-26.8,0-53.7,0-80.5,0c-0.5,0-1.4,0-1.9,0c-6.4,0-12.9,0-19.3,0
		c-6.2,0.3-12.5-2-17.1-6.2c-1.6-1.3-3.1-2.7-3.9-4.7C591.6,410.3,592.3,409.9,593,409.5 M593.2,411.1c4.8,4.8,11.1,8.5,18.1,8.6
		c137.3,0,274.6,0,412,0c7.1,0,13.7-3.7,18.7-8.7C892.4,411.1,742.8,411.1,593.2,411.1z"/>
	<path class="st3" d="M593.2,411.1c149.6-0.1,299.2,0,448.7,0c-4.9,4.9-11.5,8.7-18.7,8.7c-137.3,0-274.6,0-412,0
		C604.4,419.5,598,415.9,593.2,411.1z"/>
	<path class="st2" d="M631.2,421.7c0.5,0,1.4,0,1.9,0c0.7,3.2,1.6,6.5,4.1,8.7c2.5,2.4,6,3.4,9.4,3.3c18-0.1,36,0,54,0
		c3.8,0.1,7.7-1.6,10-4.7c1.7-2.1,2.3-4.8,2.9-7.3c0.5,0,1.4,0,1.9,0c-0.2,6.7-5.3,12.9-12,13.8c-4.7,0.5-9.4,0.1-14.1,0.2
		c0.1,32.2,0,64.5,0.1,96.7c0.3,6.9-5.1,13.5-11.9,14.5c-3.9,0.4-8.3,0.5-11.9-1.5c-4.7-2.5-7.7-7.7-7.6-13
		c0.1-32.2-0.1-64.5,0.1-96.7c-4.9-0.1-9.9,0.3-14.8-0.2C636.5,434.6,631.4,428.4,631.2,421.7 M660,435.7c-0.2,31.3,0,62.7-0.1,94
		c0,2.7-0.1,5.7,1.1,8.2c1.8,3.9,5.8,6.7,10.1,7.1c3.6,0.3,7.5,0.1,10.7-2c3.7-2.4,5.7-6.9,5.5-11.2c-0.1-32,0.1-64-0.1-96
		C678.2,435.7,669.1,435.7,660,435.7z"/>
	<path class="st3" d="M633.1,421.7c26.8,0,53.7,0,80.5,0c-0.6,2.5-1.1,5.3-2.9,7.3c-2.3,3.1-6.2,4.7-10,4.7c-18,0-36,0-54,0
		c-3.4,0.1-6.9-0.9-9.4-3.3C634.6,428.3,633.8,424.9,633.1,421.7z"/>
	<path class="st2" d="M919.9,421.7c0.5,0,1.4,0,1.9,0c0.7,3.3,1.7,6.9,4.5,9.1c2.5,2.2,5.9,3.1,9.1,2.9c18-0.1,36,0,54,0
		c3.7,0.1,7.3-1.5,9.7-4.3c1.9-2.1,2.5-5,3.2-7.7c0.5,0,1.4,0,1.9,0c0.1,7-5.8,13.5-12.7,14c-4.7,0.1-9.4,0-14.1,0
		c0.1,32.2,0,64.5,0.1,96.7c0.2,5.2-2.7,10.3-7.2,12.8c-3.7,2.1-8.1,2.1-12.2,1.7c-6.8-1-12.2-7.5-11.9-14.4
		c0-32.3-0.1-64.5,0.1-96.7c-4.5-0.1-8.9,0.1-13.4,0C925.6,435.2,919.8,428.7,919.9,421.7 M948,435.8c-0.1,30.9,0,61.7-0.1,92.5
		c0,2.3-0.1,4.5,0.3,6.7c0.9,5.1,5.3,9.3,10.4,9.9c3.7,0.3,7.6,0.3,10.8-1.7c3.7-2.2,6-6.5,5.9-10.9c-0.1-32.2,0.1-64.4-0.1-96.6
		C966.1,435.7,957.1,435.7,948,435.8z"/>
	<path class="st3" d="M921.7,421.7c26.8,0,53.7,0,80.5,0c-0.6,2.7-1.3,5.5-3.2,7.7c-2.3,2.9-6.1,4.4-9.7,4.3c-18,0-36,0-54,0
		c-3.3,0.1-6.6-0.7-9.1-2.9C923.4,428.6,922.3,425.1,921.7,421.7z"/>
	<path class="st3" d="M660,435.7c9.1,0,18.1-0.1,27.2,0c0.1,32,0,64,0.1,96c0.2,4.3-1.7,8.9-5.5,11.2c-3.1,2.2-7,2.3-10.7,2
		c-4.3-0.3-8.3-3.1-10.1-7.1c-1.3-2.5-1.1-5.4-1.1-8.2C660,498.5,659.8,467.1,660,435.7z"/>
	<path class="st3" d="M948,435.8c9.1-0.1,18.1-0.1,27.2,0c0.1,32.2,0,64.4,0.1,96.6c0.1,4.3-2.1,8.7-5.9,10.9c-3.2,2-7.2,2-10.8,1.7
		c-5.1-0.6-9.5-4.8-10.4-9.9c-0.3-2.2-0.3-4.5-0.3-6.7C948,497.5,947.9,466.6,948,435.8z"/>
</g>
<g>
	<path class="st8" d="M719.6,375.1c-0.3,3.1-2.6,3.4-4.9,4.1c-3.3,1-6.4,2.6-9.6,3.9c-8.9,3.5-17.7,7.1-26.7,10.5
		c-5,1.9-10.7-0.6-13.2-5.3c-2.1-3.9-4.2-7.7-6.3-11.5c-0.3-0.6-0.8-1.1-1.5-2.2c-0.3,1.1-0.5,1.7-0.5,2.2
		c-0.5,5.1,0.1,10.1,1.1,15.1c0.8,3.9,1.8,8-0.2,12c-0.2,0.4,0.4,1.6,1,2c0.7,0.5,1.7,0.6,2.6,0.7c6.6,0.7,13.2,1.2,19.8,2.1
		c4.4,0.6,8.7,1.8,13.1,2.6c5.4,1.1,10.8,2,16.2,3.2c4.6,1,9.1,2.7,11,7.4c1.2,2.8,1.5,6.1,1.5,9.2c-0.1,9.5-0.4,19.1-0.8,28.6
		c-0.3,6.9-0.7,13.7-1.1,20.6c-0.5,7.4-0.9,26.6-0.7,27.7c0.3,1.3,0.5,2.6,0.9,3.9c0.2,0.8,0.5,1.6,1.1,2.2
		c3.4,3.4,7.8,4.5,12.4,5.5c2.9,0.6,5.8,1.6,8.7,2.5c0.6,0.2,1.2,0.6,1.7,1c1.9,1.4,1.9,2.5-0.4,3.5c-7,3-14.4,4-22,3.2
		c-1.7-0.2-11.5,0.4-13.4,0.3c-2.2-0.1-4.5-0.1-6.7-0.2c-1.7-0.1-2.6-0.9-2.5-2.8c0.1-4-2.6-46.7-2.6-51.4c0-7.2-0.1-14.5-0.5-21.7
		c0-10.6-11.6-10-13.7-9.8c-1.4,0.2-1.3,1.3-1.3,2c-0.1,13.7,0,27.3,0,41c0,13.7,0,27.4,0,41c0,1.7-0.8,1.9-2.7,1.8
		c-2.8-0.3-5.6-0.3-8.4,0c-2,0.2-2.4-0.4-2.4-2c0.1-6.2,0-12.5,0-18.7c0-1.8-0.2-2.6-6.4-0.8c-9,2.7-18.6,1.9-27.5-0.9
		c-0.4-0.1-0.6,0-1.4,0.1c0,0.7,0,1.4,0,2.1c0,6.1,0,12.2,0,18.3c0,2-0.9,2.1-3.9,1.7c-2.3-0.3-4.6-0.2-6.9,0.1
		c-1.8,0.3-2.4-0.4-2.4-1.7c0-2.8-1.3-80.9-1.3-81.9s-1-2-2-2l-6.2,0c-1.5,0-2.7-1.2-2.8-2.7c-0.1-3.3,1-3.3,5-3.3c0,0-1,0-2-1
		s0,0-1-1c-0.7-0.7-1-2-1-4s0,1,0-5c0-1.1-0.4-10.3-0.4-11.4c0.5-12.6,0.8-25.3,1.5-37.9c0.7-11.8,1.6-23.6,2.7-35.3
		c0.8-8.2,1.9-16.4,4.9-24.3c2.3-6,5.9-11.1,10.4-15.6c4.8-4.8,25.6-19.8,27.7-25.7c1.4-3.8,3-7.6,5.1-11c3.7-6.2,9.3-10,16.6-9.8
		c3.6,0.1,7,2.2,10.6,3.5c1.5,0.5,2.9,1.1,4.4,1.6c3.4,1.1,4.9,3.9,6.3,6.8c1.3,2.8,1.3,5.1-1.3,7.2c-0.6,0.5-0.9,1.5-1.1,2.4
		c-0.8,3.1-1.3,6.2-2.2,9.2c-0.3,1-1.2,2-2.1,2.7c-1.3,1-1.9,2.2-2,3.9c-0.1,2.5-0.5,5-0.8,7.4c-0.2,1.7-1.1,2.1-2.4,1.2
		c-1.9-1.2-2.7-0.2-3.5,1.3c-0.9,1.7-1.8,3.5-2.9,5.1c-1.4,2.2-2.4,2.3-4.2,0.4c-2.3-2.3-4.4-4.7-6.7-7c-0.7-0.7-1.5-2-2.8-0.7
		c-3,3-4,6-1.9,16.1c2.2,7.7,3.6,15.6,5.3,23.4c1.4,6.1,2.9,12.1,4.3,18.2c0,0.1,0.2,0.2,0.4,0.4c1.8-2.7,3.4-5.5,5.3-8.2
		c3.6-5,7.2-10,10.9-14.9c0.4-0.6,1.7-1.2,2.1-0.9c2.5,1.5,4.7-0.5,7.1-0.5c1.4,0,2.9-0.8,4.4-1.1c2.9-0.7,5.5-0.2,8,1.5
		c2.9,2,6.1,3.6,8.9,5.6c2.4,1.8,4.8,3.8,4.5,7.3c-0.1,1.3,0,2.6,0,4.2c2.8,0,5.5,0,8.2,0c1.2,0,2.4-0.2,3.5,0
		c4.2,0.7,6.5-1.6,7.6-5.2c0.9-2.8,1.6-5.7,2-8.6c0.5-3.5,0.8-7,0.9-10.6c0-1.4,0.4-3,0.4-4.5c0-0.7,0.5-1.3,1.2-1.4
		c1.5-0.2,2.5-0.2,4.2-0.6c5.3-1.2,12.2-15.1,12.3-17.4c0-1.3,1-1.2,1.8-1.2c15.6,0,31.2,0,46.8,0c1.5,0,2.4-0.5,3.3-1.6
		c14.9-17.8,29.9-35.6,44.9-53.4c11.9-14.2,23.8-28.4,35.7-42.5c1.5-1.8,2.8-3.6,4.4-5.3c1.4-1.5,0.9-2.2-0.5-3.2
		c-7.1-4.7-14.1-9.5-21.2-14.4c-18.7-12.8-37.4-25.6-56-38.3c-5.5-3.7-10.9-7.5-16.4-11.2c-0.5-0.4-1-0.8-1.7-1.3
		c1.3-2,2.5-3.9,3.8-5.6c0.3-0.3,1.6-0.3,2.1,0.1c6.9,4.6,13.8,9.4,20.7,14.1c16.2,11.1,32.4,22.1,48.6,33.2
		c15.9,10.8,31.7,21.7,47.6,32.5c17.2,11.8,34.5,23.5,51.7,35.3c19,12.9,37.9,25.9,56.9,38.8c10.6,7.2,21.2,14.5,31.9,21.7
		c1.2,0.8,3.7,4.4,3.8,5.9c-0.1,5-0.1,10-0.1,15c0,18.5,0,37.1,0,55.6c0,5.9-44.1,29-49.8,34.7c-2.9,2.9-5.2,6.1-6.6,9.9
		c-0.3,0.9-0.4,1.9-0.5,2.9c-0.9,11.4-1.8,22.9-2.7,34.3c-1,12.9-1.8,25.8-2.8,38.7c-0.5,6.3-1,12.6-1.6,18.8
		c-0.1,0.7-0.7,1.3-1.2,2.3c0.2,0.4,0.6,1.2,0.9,2.1c1,3-0.3,6.4-2.9,8.1c-2.8,1.8-6.7,1.5-9.1-0.7c-2.2-2-3.1-5.9-1.5-8.5
		c1.1-1.8-0.3-3.1-0.4-4.6c-0.3-6.2-0.9-12.4-1.3-18.6c-0.7-9.1-1.5-18.2-2.2-27.2c-0.5-6.9-1-13.8-1.5-20.6
		c-0.7-8.8-1.2-17.6-2.1-26.3c-0.4-3.7-2.8-6.6-5.3-9.2c-6-6.6-29.5-33.8-52.7-33.8c-22.7,0-45.4,0-68.1,0
		c-19.7,0-45.2,26.1-50.4,30.5c-6.5,5.5-9.4,12.3-9.6,20.8c-0.3,10-1.5,20-2.2,30c-0.4,5.6-0.7,11.1-1.2,16.7
		c-0.8,10.3-1.6,20.7-2.4,31c-0.2,2.2-0.2,4.5-0.5,6.7c-0.2,1.2-0.7,2.3-1.2,4c1.1,1.9,1.6,4.5,0.2,7.1c-1.8,3.5-5.8,5.1-9.2,3.6
		c-3.8-1.7-5.6-5.5-4.1-9.4c0.5-1.4,0.4-2.4,0.1-3.7c-0.5-2.4-0.6-4.9-0.8-7.4c-0.9-11.8-1.8-23.7-2.7-35.5
		c-1-13.9-2.1-27.8-3.1-41.6c-0.2-2.9-0.4-5.8-0.6-8.6c-0.4-4-2.7-7.1-5.2-10c-5.3-6.1-43-28.1-47.1-28.1c-1.5,0-1.8-0.6-1.7-2
		c0.1-1.8,0.1-3.6,0-5.4C722,376,722.5,376.2,719.6,375.1z M1057.1,302.9c0.1-0.2,0.1-0.4,0.2-0.5c-0.5-0.4-1-0.8-1.5-1.1
		c-10.9-7.4-21.8-14.9-32.7-22.3c-13.3-9.1-26.7-18.2-40-27.3c-12.7-8.6-25.4-17.3-38.1-25.9c-11.3-7.7-22.6-15.5-33.9-23.2
		c-1.1-0.7-1.6-0.6-2.4,0.3c-1.8,2.3-3.8,4.5-5.7,6.8c-6.9,8.2-13.8,16.4-20.7,24.6c-11.3,13.4-22.5,26.9-33.8,40.3
		c-7.6,9-15.1,18-22.7,27c-0.3,0.3-0.4,0.8-0.7,1.4C902.7,302.9,979.9,302.9,1057.1,302.9z M633.4,474c0,6.2,0,12.4,0,18.5
		c0,1.4,0.2,2.3,3.4,1.6c9.1-1.9,18.5-2.1,27.6-0.2c3.5,0.7,4.4,0.5,4.4-1.2c0-12.5,0-25,0-37.5c0-1.3-0.5-1.7-1.8-1.7
		c-10.5,0-21,0.1-31.6,0c-1.6,0-2,0.5-2,2.1C633.4,461.8,633.4,467.9,633.4,474z M706.6,341.7c-1.4,0.7-2.7,3.1-2.6,4.3
		c0.1,1,0.1,2.1-0.3,2.9c-1.7,3.2-3.6,6.3-5.4,9.4c-1.8,3.2-3.7,6.4-5.5,9.7c0.9,0.1,1.5-0.1,2-0.4c5.5-2.6,11-5.2,16.5-7.8
		c1.2-0.6,1.9-0.5,2.4,0.9c0.2,0.6,1,1.4,1.4,1.3c2.4-0.1,4.7,0.2,6.6,2.5c0.2-1.2,0.3-1.6,0.3-2.1c-0.5-3.3-0.6-6.7-0.2-10
		c0.4-3.1,0.4-5.9-2.3-7.2c-0.6-0.3-1.5-0.6-1.9-0.3c-0.5,0.3-0.9,1.2-0.8,1.8c0.3,1.7,0.8,3.4,1.4,5.1c0.3,1,0.9,1.9-0.3,2.5
		c-1.2,0.6-1.6-0.5-2.2-1.3c-1.1-1.8-2.3-3.6-3.6-5.3C710.4,345.6,708.5,343.8,706.6,341.7z"/>
</g>
</svg>
