<?xml version="1.0" encoding="utf-8"?>
<!-- Generator: Adobe Illustrator 21.1.0, SVG Export Plug-In . SVG Version: 6.00 Build 0)  -->
<svg version="1.1" id="Layer_1" xmlns="http://www.w3.org/2000/svg" xmlns:xlink="http://www.w3.org/1999/xlink" x="0px" y="0px"
	 viewBox="0 0 1637.2 676.4" style="enable-background:new 0 0 1637.2 676.4;" xml:space="preserve">
<style type="text/css">
	.st0{fill:url(#SVGID_1_);stroke:#F9F9F9;stroke-miterlimit:10;}
	.st1{fill:#F9F9F9;stroke:#F9F9F9;stroke-width:10;stroke-linecap:round;stroke-linejoin:round;stroke-miterlimit:2.6131;}
	.st2{fill:none;stroke:#130B7A;stroke-width:10;stroke-linecap:round;stroke-linejoin:round;stroke-miterlimit:2.6131;}
</style>
<g id="Layer_2">
	
		<linearGradient id="SVGID_1_" gradientUnits="userSpaceOnUse" x1="0" y1="339.8" x2="1637.2" y2="339.8" gradientTransform="matrix(1 0 0 -1 0 678)">
		<stop  offset="0" style="stop-color:#638DED"/>
		<stop  offset="1" style="stop-color:#9FBBF8"/>
	</linearGradient>
	<rect class="st0" width="1637.2" height="676.4"/>
</g>
<g id="Layer_1_1_">
	<g>
		<path class="st1" d="M620.5,431.1h396.2V209c0-7.3-6-13.3-13.3-13.3H633.8c-7.3,0-13.3,6-13.3,13.3V431.1z"/>
		<path class="st2" d="M828.1,232.7h137.2c1.8,0,3.2,1.4,3.2,3.2v64.6c0,1.8-1.4,3.2-3.2,3.2H828.1c-1.8,0-3.2-1.4-3.2-3.2v-64.6
			C824.9,234.2,826.3,232.7,828.1,232.7z"/>
		<path class="st1" d="M1028.8,480.7c8.2,0,14.8-6.7,14.8-14.9v-34.6h-450v37.6c0,6.5,5.3,11.9,11.9,11.9H1028.8"/>
		<line class="st2" x1="615.4" y1="455.9" x2="761.3" y2="455.9"/>
		<path class="st2" d="M970.8,459.1c1.7,0,3.1-1.4,3.1-3.1s-1.4-3.1-3.1-3.1s-3.1,1.4-3.1,3.1C967.7,457.6,969.1,459.1,970.8,459.1"
			/>
		<path class="st2" d="M994.4,459.1c1.7,0,3.1-1.4,3.1-3.1s-1.4-3.1-3.1-3.1c-1.7,0-3.1,1.4-3.1,3.1
			C991.3,457.6,992.7,459.1,994.4,459.1"/>
		<path class="st2" d="M1016,459.1c1.7,0,3.1-1.4,3.1-3.1s-1.4-3.1-3.1-3.1c-1.7,0-3.1,1.4-3.1,3.1
			C1012.9,457.6,1014.3,459.1,1016,459.1"/>
		<line class="st2" x1="822.5" y1="331.2" x2="968.5" y2="331.2"/>
		<g>
			<line class="st2" x1="970.2" y1="356" x2="768.7" y2="356"/>
			<line class="st2" x1="748.1" y1="356" x2="660.3" y2="356"/>
		</g>
		<g>
			<line class="st2" x1="660.3" y1="380.7" x2="783.8" y2="380.7"/>
			<line class="st2" x1="803.9" y1="380.7" x2="970.2" y2="380.7"/>
		</g>
		<line class="st2" x1="660.3" y1="405.5" x2="970.2" y2="405.5"/>
		<g>
			<polyline class="st2" points="692.8,246.7 662.6,278 693.4,309.7 			"/>
			<polyline class="st2" points="754.3,246.7 784.6,278 753.7,309.7 			"/>
			<line class="st2" x1="741.8" y1="232.7" x2="708.3" y2="323.7"/>
		</g>
	</g>
</g>
</svg>
