<?xml version="1.0" encoding="utf-8"?>
<!-- Generator: Adobe Illustrator 21.1.0, SVG Export Plug-In . SVG Version: 6.00 Build 0)  -->
<svg version="1.1" id="Layer_1" xmlns="http://www.w3.org/2000/svg" xmlns:xlink="http://www.w3.org/1999/xlink" x="0px" y="0px"
	 viewBox="0 0 1637.2 676.4" style="enable-background:new 0 0 1637.2 676.4;" xml:space="preserve">
<style type="text/css">
	.st0{fill:url(#SVGID_1_);stroke:#000000;stroke-miterlimit:10;}
	.st1{fill:#F7F7F7;}
	.st2{fill:none;}
</style>
<g id="Layer_2">
	
		<linearGradient id="SVGID_1_" gradientUnits="userSpaceOnUse" x1="0" y1="339.3" x2="1637.2" y2="339.3" gradientTransform="matrix(1 0 0 -1 0 678)">
		<stop  offset="0" style="stop-color:#FFFFFF"/>
		<stop  offset="1" style="stop-color:#000000"/>
	</linearGradient>
	<rect y="1" class="st0" width="1637.2" height="675.4"/>
</g>
<g id="Layer_1_1_">
	<g>
		<path class="st1" d="M727.9,389c5.9,8.8,8.8,17.7,11.8,26.5l32.4,11.8v21.5H1069l-0.1-0.1L923.6,251c0,0-17.2-23.4-34.4,0
			l-89.9,122.4l-33.1-45c0,0-17.2-23.4-34.4,0l-8.6,11.7l19.5,19.5L727.9,389z"/>
		<ellipse class="st1" cx="690.2" cy="224.3" rx="35.6" ry="35.8"/>
		<path class="st1" d="M1092.9,138.2H619.5c-5.2,0-9.5,4.3-9.5,9.5v195.1c1-0.3,2-0.7,2.9-1l11.8-32.4h4.2V157.2h454.4v304.4l0,0
			H758.9l-19.2,7c-1.4,4.1-2.8,8.2-4.4,12.1h357.6c5.2,0,9.5-4.3,9.5-9.5V147.7C1102.3,142.4,1098.1,138.2,1092.9,138.2z"/>
	</g>
	<g>
		<path class="st2" d="M639.5,391.3c-27.9,0-50.8,22.8-50.8,50.8c0,27.9,22.8,50.8,50.8,50.8s50.8-22.8,50.8-50.8
			C690.3,414.2,667.4,391.3,639.5,391.3z M639.5,467.5c-14,0-25.4-11.4-25.4-25.4s11.4-25.4,25.4-25.4s25.4,11.4,25.4,25.4
			S653.5,467.5,639.5,467.5z"/>
		<circle class="st1" cx="639.5" cy="442.1" r="25.4"/>
		<path class="st1" d="M753.7,454.8v-25.4l-27.9-10.2c-2.5-7.6-5.1-15.2-10.2-22.8l12.7-25.4l-17.8-17.8L685.2,366
			c-7.6-5.1-15.2-7.6-22.8-10.2l-10.2-27.9h-25.4l-10.2,27.9c-7.6,2.5-15.2,5.1-22.8,10.2l-25.4-12.7L550.7,371l12.7,27.9
			c-5.1,7.6-7.6,15.2-10.2,22.8l-27.9,7.6v25.4l27.9,10.2c2.5,7.6,5.1,15.2,10.2,22.8l-12.7,25.4l17.8,17.8l27.9-12.7
			c7.6,5.1,15.2,7.6,22.8,10.2l7.6,27.9h25.4l10.2-27.9c7.6-2.5,15.2-5.1,22.8-10.2l25.4,12.7l17.8-17.8l-12.7-27.9
			c5.1-5.1,7.6-12.7,10.2-20.3L753.7,454.8z M639.5,492.8c-27.9,0-50.8-22.8-50.8-50.8c0-27.9,22.8-50.8,50.8-50.8
			s50.8,22.8,50.8,50.8S667.4,492.8,639.5,492.8z"/>
	</g>
</g>
</svg>
