<?xml version="1.0" encoding="utf-8"?>
<!-- Generator: Adobe Illustrator 21.1.0, SVG Export Plug-In . SVG Version: 6.00 Build 0)  -->
<svg version="1.1" id="Error404" xmlns="http://www.w3.org/2000/svg" xmlns:xlink="http://www.w3.org/1999/xlink" x="0px" y="0px"
	 viewBox="0 0 636.5 358" style="enable-background:new 0 0 636.5 358;" xml:space="preserve">
<style type="text/css">
	.st0{fill:#FBB233;}
	.st1{fill:#F6A416;}
	.st2{fill:#565657;}
	.st3{fill:#DD5852;}
	.st4{fill:#F0625B;}
	.st5{fill:#19191A;}
	.st6{fill:#DABF86;}
	.st7{fill:#EFD49C;}
	.st8{fill:#D4D5D6;}
	.st9{fill:none;}
	.st10{fill:#434A54;}
	.st11{font-family:'HelveticaNeue-Bold';}
	.st12{font-size:152px;}
	.st13{letter-spacing:6;}
</style>
<g id="Head">
	<polygon id="HeadLighter" class="st0" points="49.6,164.2 271.7,36 259.5,51.4 288.7,44.7 284.7,57.3 61.9,185.1 	"/>
	<polygon id="HeadDarker" class="st1" points="73.7,205.2 296.6,77.4 278.4,75.4 296.6,56.5 284.7,57.3 61.9,185.1 	"/>
	<polygon id="EraserTie" class="st2" points="49.6,164.2 45.2,166.8 69.4,207.7 73.7,205.2 	"/>
	<path id="EraserDarker" class="st3" d="M27.6,203.3l-7-11.9c0,0-3.8-7.5,2.8-11.4s21.8-13.2,21.8-13.2l11.7,19.7L27.6,203.3z"/>
	<path id="EraserLighter" class="st4" d="M27.6,203.3l8.9,14.6c0,0,5,6.4,12.7,1.9s20.2-12.1,20.2-12.1l-12.5-21.2L27.6,203.3z"/>
</g>
<g id="Tip">
	<path id="TipDarker_2_" class="st1" d="M331.9,71.5l7.7,15.7l205.6,118.4c0,0-4.3-6.9,3.5-8.8c0,0-2.7-7.7,6.3-7
		c0,0-3.1-2.7-1.5-6.5l-201.2-116l4.3,8.7L331.9,71.5z"/>
	<path id="TipLighter_2_" class="st0" d="M344.5,42.9l19.1,21.8l-11.3,2.5l201.3,116.1c0,0,2.4-4.3,6.8-2.3c0,0-5.9-7.1,3.4-8.6
		c0,0-3.7-7.7,5.7-8L362.9,45.1L344.5,42.9z"/>
	<path id="Graphite_2_" class="st5" d="M617.1,219.8l-23.7-4.7c0,0-2.1-8.9,8-13.5L617.1,219.8z"/>
	<path id="SharpedDarker_2_" class="st6" d="M545.2,205.6l48.2,9.5c0,0-0.7-5.2,1.3-7.8l-41.2-24c0,0-2.1,3.6,1.5,6.5
		c0,0-8.7-1.7-6.3,7C548.7,196.9,541.2,198.7,545.2,205.6z"/>
	<path id="SharpedLighter_2_" class="st7" d="M569.4,164.5l31.9,37.2c0,0-5.4,2.2-6.6,5.7l-41.2-24c0,0,2-4,6.8-2.3
		c0,0-5.9-7.1,3.4-8.6C563.7,172.6,559.5,165.1,569.4,164.5z"/>
</g>
<g id="Shadow">
	<path id="Right" class="st8" d="M97,231.5c0,0.6-16.4,1.5-38.2,1.5s-39.4-1.1-39.4-1.7s17.6-1.2,39.4-1.2S97,230.9,97,231.5z"/>
	<path id="Left" class="st8" d="M616.2,231.5c0,0.6-16.4,1.5-38.2,1.5c-21.7,0-39.4-1.1-39.4-1.7s17.6-1.2,39.4-1.2
		C599.8,230.1,616.2,230.9,616.2,231.5z"/>
</g>
<g id="_x34_04">
	<g>
		<rect x="161.7" y="188.4" class="st9" width="307.9" height="117.7"/>
		<text transform="matrix(1 0 0 1 180.1796 296.9065)" class="st10 st11 st12 st13">404</text>
	</g>
</g>
</svg>
