<?xml version="1.0" encoding="utf-8"?>
<!-- Generator: Adobe Illustrator 21.1.0, SVG Export Plug-In . SVG Version: 6.00 Build 0)  -->
<svg version="1.1" id="svg2" xmlns="http://www.w3.org/2000/svg" xmlns:xlink="http://www.w3.org/1999/xlink" x="0px" y="0px"
	 viewBox="0 0 366 426.4" style="enable-background:new 0 0 366 426.4;" xml:space="preserve" width="41" height="45">
<style type="text/css">
	.st0{fill:#22264B;}
	.st1{fill:#B56969;}
	.st2{fill:#E6CF8B;}
	.st3{font-family:'Helvetica-Light';}
	.st4{font-size:59.976px;}
	.st5{font-size:215.0731px;}
</style>
<title>favicon</title>
<g id="Layer_1">
	<g id="g3136">
		<g id="g3132">
			<path id="path99" d="M79,400.1c-17.8,0-32.3-14.4-32.4-32.2v-0.1V58.6c0-17.8,14.4-32.3,32.2-32.4h0.1H287
				c17.8,0,32.3,14.4,32.4,32.2c0,0.1,0,0.1,0,0.2v309.1c0,17.8-14.4,32.3-32.2,32.4c-0.1,0-0.1,0-0.2,0l0,0H79L79,400.1z"/>
			<path id="path101" class="st0" d="M82.7,32.1h200.6c17.2,0,31.2,14,31.2,31.2v0.1V363c0.1,17.2-13.8,31.2-31,31.3h-0.1H82.7
				c-17.2,0-31.2-14-31.2-31.2V363V63.4c-0.1-17.2,13.8-31.2,31-31.3C82.6,32.1,82.7,32.1,82.7,32.1z"/>
		</g>
		<g id="g3128">
			<path id="path113" d="M48.1,379.2c-17.6-3.1-29.3-19.8-26.2-37.4v-0.1L75.5,37.3C78.5,19.8,95.2,8,112.7,11c0.1,0,0.2,0,0.3,0.1
				l204.9,36.1c17.6,3.1,29.4,19.8,26.3,37.4v0.1l-53.7,304.4c-3,17.6-19.7,29.3-37.3,26.3c-0.1,0-0.1,0-0.2,0l0,0L48.1,379.2z"/>
			<path id="path115" class="st1" d="M115.7,17.5l197.6,34.8c16.9,3,28.2,19.1,25.3,36c0,0.1,0,0.1,0,0.2l-52,294.9
				c-2.9,16.9-19,28.3-35.9,25.5c-0.1,0-0.1,0-0.2,0L52.8,374.1c-17-3-28.3-19.2-25.3-36.2l0,0L79.5,43
				C82.5,25.9,98.7,14.5,115.7,17.5L115.7,17.5z"/>
		</g>
		<g id="g3119">
			<path id="path127" d="M21.3,353.2C4.6,347.1-4.1,328.6,2,311.9c0,0,0,0,0-0.1l0,0L107.7,21.3C113.8,4.6,132.3-4.1,149,1.9h0.1
				l195.6,71.2c16.7,6,25.4,24.5,19.4,41.2c0,0.1,0,0.1-0.1,0.2L258.4,405.1c-6,16.8-24.5,25.4-41.3,19.4c-0.1,0-0.1,0-0.2-0.1
				L21.3,353.2z"/>
			<path id="path129" class="st2" d="M150.7,8.7l188.5,68.6c16.1,5.9,24.5,23.7,18.6,39.9c0,0.1,0,0.1-0.1,0.2L255.3,398.9
				c-5.8,16.2-23.7,24.6-39.9,18.8h-0.1L26.8,349c-16.2-5.9-24.5-23.7-18.6-39.9c0-0.1,0-0.1,0.1-0.2L110.7,27.5
				C116.5,11.3,134.4,2.9,150.7,8.7L150.7,8.7L150.7,8.7z"/>
		</g>
	</g>
</g>
<text transform="matrix(0.9404 0.3401 -0.3401 0.9404 117.3184 60.6387)" class="st3 st4">wildcard</text>
<text transform="matrix(0.9404 0.3401 -0.3401 0.9404 99.2913 259.0647)" class="st3 st5">a</text>
</svg>
