<?xml version="1.0" encoding="utf-8"?>
<!-- Generator: Adobe Illustrator 21.1.0, SVG Export Plug-In . SVG Version: 6.00 Build 0)  -->
<svg version="1.1" id="Layer_1" xmlns="http://www.w3.org/2000/svg" xmlns:xlink="http://www.w3.org/1999/xlink" x="0px" y="0px"
	 viewBox="0 0 1637.2 676.4" style="enable-background:new 0 0 1637.2 676.4;" xml:space="preserve">
<style type="text/css">
	.st0{fill:url(#SVGID_1_);}
	.st1{fill:#F9F9F9;}
	.st2{font-family:'HelveticaNeue-Light';}
	.st3{font-size:37.0183px;}
	.st4{letter-spacing:-4;}
	.st5{fill:#48475D;}
	.st6{font-size:74.0367px;}
	.st7{letter-spacing:-1;}
	.st8{fill:#43435B;}
	.st9{fill:none;stroke:#F9F9F9;stroke-width:4;stroke-linecap:round;stroke-linejoin:round;}
</style>
<title>thumb</title>
<g id="Layer_2">
	
		<linearGradient id="SVGID_1_" gradientUnits="userSpaceOnUse" x1="0" y1="339.8" x2="1637.2" y2="339.8" gradientTransform="matrix(1 0 0 -1 0 678)">
		<stop  offset="0" style="stop-color:#EC8D40"/>
		<stop  offset="1" style="stop-color:#F9BE93"/>
	</linearGradient>
	<rect class="st0" width="1637.2" height="676.4"/>
</g>
<g id="Layer_3">
	<text transform="matrix(1 0 0 1 575.5396 509.2725)" class="st1 st2 st3">“Let</text>
	<text transform="matrix(1 0 0 1 639.2886 509.2725)" class="st1 st2 st3 st4">’</text>
	<text transform="matrix(1 0 0 1 645.4731 509.2725)" class="st1 st2 st3">s go to work with a smile!”</text>
	<text transform="matrix(1 0 0 1 628.2749 418.4189)" class="st5 st2 st6 st7">W</text>
	<text transform="matrix(1 0 0 1 694.0903 418.4189)" class="st5 st2 st6">orkHappy</text>
	<path class="st8" d="M892.4,251.9c3.6-1.4,21.2-8.8,22.2-24.7c0.6-10.3,0.6-20.7,0-31c0-0.5-0.5-0.9-1-0.9h-19.8
		c-0.5,0-0.9-0.4-1-0.9c0,0,0,0,0-0.1c0.2-4.6-0.7-24.7-29.5-28.5H781c0,0-27.6-0.8-30.7,28.1c0,0.5-0.4,0.9-0.9,0.9l-18.9,0.5
		c-0.5,0-0.9,0.4-0.9,1v30.8c0,0.1,0,0.1,0,0.2c0.2,1,2.4,12.3,19.1,22.3c0.4,0.2,0.6,0.8,0.4,1.2c-1.4,3.5-2,7.3-1.8,11
		c0,0.5-0.4,1-0.9,1c0,0-0.1,0-0.1,0c-2.1-0.1-7.6-1.3-15.1-10c-0.3-0.4-0.9-0.4-1.3-0.1c-0.2,0.2-0.3,0.4-0.3,0.7l-1,75.6
		c0,0.5,0.4,1,0.9,1c0,0,0,0,0,0h184.2c0.5,0,1-0.4,1-1v-72.7c0-0.5-0.4-1-1-1c-0.2,0-0.4,0.1-0.6,0.2c-5.8,4.5-12.5,7.8-19.6,9.7
		c-0.5,0.1-1-0.2-1.2-0.7c0-0.1,0-0.1,0-0.2l-0.5-11.4C891.8,252.5,892,252.1,892.4,251.9z M766.4,279.3c0,2.5-2,4.5-4.5,4.5
		c-2.5,0-4.5-2-4.5-4.5l0,0v-21.1c0-2.5,2-4.5,4.5-4.5c2.5,0,4.5,2,4.5,4.5V279.3z M865.3,265c0,1-0.8,1.8-1.8,1.8h-87.9
		c-1,0-1.8-0.8-1.8-1.8v-9.5c0-1,0.8-1.8,1.8-1.8h87.9c1,0,1.8,0.8,1.8,1.8V265z M882.1,279.3c0,2.5-2,4.5-4.5,4.5
		c-2.5,0-4.5-2-4.5-4.5l0,0v-21.1c0-2.5,2-4.5,4.5-4.5c2.5,0,4.5,2,4.5,4.5V279.3z M882.6,194.9H761.2c-0.6,0-1-0.5-1-1
		c0-0.1,0-0.1,0-0.2c3.6-21.4,24.4-20.1,24.4-20.1h75.7c21.8,3.1,23.4,16.5,23.4,20.3C883.6,194.4,883.2,194.9,882.6,194.9
		L882.6,194.9z"/>
	<path id="_" class="st9" d="M785.3,292.8c0,0,34.6,41.5,74,0"/>
</g>
</svg>
