<?xml version="1.0" encoding="utf-8"?>
<!-- Generator: Adobe Illustrator 23.0.6, SVG Export Plug-In . SVG Version: 6.00 Build 0)  -->
<svg version="1.1" id="Layer_1" xmlns="http://www.w3.org/2000/svg" xmlns:xlink="http://www.w3.org/1999/xlink" x="0px" y="0px"
	 viewBox="0 0 1638.2 677.4" style="enable-background:new 0 0 1638.2 677.4;" xml:space="preserve">
<style type="text/css">
	.st0{fill:url(#SVGID_1_);stroke:#303C42;stroke-linecap:round;stroke-linejoin:round;}
	.st1{display:none;}
	.st2{display:inline;fill:#00612E;}
	.st3{display:inline;fill:#45BC92;}
	.st4{display:inline;fill:none;stroke:#F6D8BE;stroke-width:11;stroke-miterlimit:10;}
	.st5{fill:#F7F7F7;}
	.st6{fill:none;stroke:#F7F7F7;stroke-width:25;stroke-linecap:round;stroke-linejoin:round;stroke-miterlimit:10;}
</style>
<title>thumb</title>
<g>
	
		<linearGradient id="SVGID_1_" gradientUnits="userSpaceOnUse" x1="0" y1="-576.2" x2="1637.2" y2="-576.2" gradientTransform="matrix(1 0 0 -1 0.5 -237.5)">
		<stop  offset="0" style="stop-color:#E9573F;stop-opacity:0.9"/>
		<stop  offset="1" style="stop-color:#FC8851;stop-opacity:0.7"/>
	</linearGradient>
	<rect x="0.5" y="0.5" class="st0" width="1637.2" height="676.4"/>
</g>
<g id="Layer_2-2" class="st1">
	<path class="st2" d="M644.1,361.3c-12.5-0.1-25-0.3-37.5-0.5v-48.9l83.2-0.6h3.9c-3.5,16.4-4.6,33.2-3,49.9"/>
	<path class="st2" d="M846,501.5c73.9-1.5,139.3-54.1,153.2-126.6c1-5.4-0.2-4.9,5.9-4.9h44.6C1037.9,475,946.3,552.3,846,551"/>
	<path class="st2" d="M846,188.9v-48.7c44.1,0.4,84.4,12.8,120,38.8c47.9,35,75.4,81.7,83.9,141c-1.5,0-44.6-0.3-50.1-0.3
		c-10.4-62.1-62.4-116.2-124.5-127.2C865.8,190.8,856,190.1,846,188.9z"/>
	<path class="st3" d="M846,550.9c-108.9-2-197.7-81.4-204.7-189.6c0.9-0.1,42.7,0,49.4-0.2c6.6,76.4,84.8,140.8,155.3,140.4V550.9z"
		/>
	<path class="st3" d="M846,188.9c-120.6,0.9-152.3,111.4-152.3,122.4c-15.9,0-34,0.3-50.7,0.3c10.4-54.7,27.3-76.8,50.3-104.7
		c55.5-57.4,107.3-65.6,152.6-66.7C846,141.7,846,187.9,846,188.9"/>
	<path class="st3" d="M1095.4,320.3c-31.4-0.2-93.8-0.6-95.6-0.6c3.4,18.7,1.5,38.1,0.3,49.9c1.5,0.1,2.6,0.2,3.8,0.2
		c16.3,0,32.6,0.1,49,0c14.2-0.1,28.3-0.3,42.5-0.5V320.3z"/>
	<circle class="st4" cx="845.7" cy="344.5" r="151.3"/>
	
		<rect x="589.3" y="319" transform="matrix(0.7071 -0.7071 0.7071 0.7071 -60.1378 527.4348)" class="st2" width="34.6" height="34.6"/>
	
		<rect x="1078.1" y="327.5" transform="matrix(0.7071 -0.7071 0.7071 0.7071 77.0268 875.5523)" class="st3" width="34.6" height="34.6"/>
</g>
<path class="st5" d="M826.9,322.2c-2.7,8.9-5.4,17.5-8.1,26.2l0.6,0.3c2.5-3.5,4.8-7.2,7.5-10.6c3.3-4.2,6.9-8.2,10.6-12.1
	c1.5-1.4,3.3-2.6,5.2-3.4c3.1-1.6,6.9-0.4,8.5,2.7c0.7,1.4,0.9,3.1,0.5,4.6c-1.9,6.5-4,12.9-6,19.3c-0.7,1.9-1.2,3.8-1.6,5.7
	c-0.1,1.1,0.2,2.8,0.9,3.3c1.1,0.5,2.4,0.4,3.5-0.2c2.2-1.4,4.1-3.1,5.8-5c4.7-5.6,9-11.7,13.9-17.1c3-3.3,4-7.1,5.1-11.1
	c3.2-11.7,7.1-23.2,13.7-33.5c2.5-3.7,5.4-7.1,8.6-10.2c2.2-2.2,3.8-1.8,4.1,1.4c0.5,4.4,0.4,8.8-0.4,13.2
	c-2.6,11.3-9,20.7-16.6,29.2c-2.6,3-4.5,6.5-5.3,10.4c-0.9,4.2-2.2,8.4-2.9,12.8c0.4-0.5,0.8-1.1,1.2-1.7c4.6-7.4,9.6-14.4,16.3-20
	c3-2.5,6.3-4.5,10.5-4.4c6,0.1,9.2,5.2,6,10.3c-1.7,2.8-4.5,4.9-7.1,7.1c-1.6,1.2-3.3,2.2-5.1,3.1c-1.6,0.9-3.3,1.7-5.5,2.8
	c1.4,3.4,3,6.7,4.8,9.9c2.5,4.1,5.9,4.6,9.5,1.5c3.4-2.9,6.5-6.2,9.4-9.6c3.7-4.3,7.2-8.7,10.4-13.3c1.2-1.7,1.6-4,2.3-6.1
	c1.6-4.9,2.9-5.8,8.9-5.4c-1.6,4.7-3.1,9.2-4.6,13.8c-1.8,5.2-3.5,10.3-5.3,15.5c-0.5,1-0.7,2.1-0.8,3.2c0.1,1.4,0.2,3.3,1.1,3.9
	s3,0.2,3.9-0.5c3.2-2.6,6.3-5.6,9-8.7c6-7.3,11.7-14.8,15.5-23.6c1.6-3.7,4.7-3.6,8.4-3.9c-0.9,2.9-1.8,5.5-2.6,8.1
	c-2.4,7-4.8,13.9-7.1,20.9c-0.6,1.4-0.9,2.8-1,4.3c0,1.2,0.5,3,1.4,3.5s2.7,0.1,3.8-0.5c1.5-0.8,2.8-1.9,3.9-3.2
	c6.1-7.9,12-15.8,18-23.7c0.3-0.5,0.8-0.9,1.4-0.9c-0.3,1.2-0.7,2.4-1.2,3.5c-5.5,9.4-11.9,18.1-20,25.4c-1.3,1.2-2.8,2.2-4.4,3
	c-2.3,1.2-4.7,1.6-7,0c-2.2-1.4-3.2-4.1-2.5-6.6c1.1-4.8,2.6-9.5,4-14.3c0.5-1.5,0.9-3,1-4.6c-2.7,3.7-5.2,7.5-8.1,11
	c-3.3,4-6.8,7.8-10.4,11.4c-1.5,1.3-3.1,2.4-4.9,3.3c-5.7,2.6-10.1-0.5-9-6.7c0.8-4.6,2.5-9,3.8-13.4c0.3-0.9,0.5-1.9,0.5-2.9
	c-3.5,4.4-6.8,9-10.5,13.2c-2.6,3.1-5.6,5.8-8.9,8.2c-4.7,3.3-8.5,2.6-11.9-2c-2.1-3-3.9-6.2-5.5-9.5c-1.3-2.4-0.7-4,2-5
	c2.8-1.1,5.4-2.5,7.9-4.1c2-1.3,3.8-2.9,5.3-4.7c2-2.5,2-5.7,0.5-7.4c-1.6-1.9-4.9-2.3-7.7-0.5c-2.1,1.3-4,2.9-5.7,4.7
	c-6.6,7.2-12.4,15.2-16,24.2c-1.9,4.6-4.7,6.1-9.7,6.2c2.4-8.6,4.7-17,7-25.4c-0.1-0.1-0.3-0.1-0.4-0.2c-2.2,2.9-4.4,6-6.8,8.8
	c-3.7,4.4-7.5,8.7-11.4,12.9c-1.4,1.3-2.9,2.3-4.6,3.2c-2.4,1.5-5.4,1.2-7.5-0.6c-2.2-1.7-3.1-4.6-2.3-7.2c1.9-6.5,4-12.9,6-19.3
	c0.6-1.8,1.2-3.6,1.6-5.4c0.2-0.9,0-2.5-0.5-2.8c-1-0.5-2.2-0.6-3.2-0.1c-2,1.2-3.9,2.8-5.5,4.5c-7.6,8.4-14.4,17.5-18.9,28
	c-1.6,3.8-4.9,3-8.7,3.8c2.5-8.5,4.9-16.4,7.3-24.2c-0.2-0.1-0.3-0.2-0.5-0.3c-1.3,1.5-2.5,3.1-3.8,4.6C803.2,352,796.2,361,787,368
	c-0.9,0.9-1.5,2.1-1.7,3.3c-2.5,8.3-6.3,15.9-13.2,21.5c-2.4,1.9-5.3,3.3-8.3,5.1c-1.5-4.6-1.2-9.6,0.9-13.9
	c2.7-6,7.2-10.4,12.3-14.3c2.3-1.6,4-4.1,4.5-6.9c1.5-7.1,3.7-14,5.6-21c0.3-0.9,0.3-1.8,0.1-2.7c-1.1,1.9-2.3,3.8-3.7,5.5
	c-3.9,4.6-7.8,9.2-12.1,13.5c-1.5,1.6-3.8,2.5-5.9,3.3c-2.5,1-5.3,1.4-7.6-0.7s-2.3-4.8-1.6-7.5c0.7-3,1.7-5.9,2.6-8.8
	c0.5-1.4,0.8-2.8,0.8-4.3c-0.6,0.8-1.2,1.6-1.8,2.3c-3.5,4-6.9,8.2-10.7,12c-3.4,3.1-7.6,5.2-12.1,6c-4,0.8-7.8,2.4-11.8,2.8
	c-2.8,0.3-5.9-0.5-8.7-1.4c-2.3-0.8-4-2.7-3.4-5.6c0.6-2.6,2.6-3.6,5-3.9c1.3-0.1,2.5,0,3.1,0c-0.3,2.3-1.2,4.5-0.6,6.2
	c1,2.7,3.9,3.2,6.6,2.9c2-0.2,4-0.7,5.9-1.6c4.9-2.7,5.6-8.1,1.5-11.9c-2.9-2.8-6.3-5.2-9.4-7.8c-5.8-4.9-5.4-10.6,0.8-14.9
	c4.2-2.8,9.3-4.1,14.4-3.7c3.9,0.2,6.3,1.9,6.5,4.5c0.2,2.4-2.1,4.8-5.5,5.7l-1.7,0.3c-0.1-0.2-0.3-0.4-0.2-0.5
	c1.2-1.9,2.5-3.8,0.9-6s-4-2.3-6.5-1.9c-3,0.5-5.3,1.9-6.2,4.8c-0.9,2.7,0.8,4.6,2.6,6.2c2.5,2.3,5.3,4.2,7.9,6.4s5.3,4.7,5.2,8.3
	c-0.1,2.7-1.6,5.3-2.7,8.7c2.7-1.8,5.5-3,7.4-5.1c4.7-5.2,9.1-10.7,13.3-16.4c1.9-2.6,3.5-5.5,4.6-8.5c2-5.3,2.5-5.8,8.6-5.3
	c-2.8,9.2-5.7,18.4-8.5,27.5c-0.5,1.5-0.9,3-1,4.6c-0.2,3,1.8,4.5,4.6,3.2c1.7-0.8,3.3-1.9,4.6-3.2c8.1-7.8,13.9-17.3,18.9-27.3
	c2.5-5,3.1-5.4,8.7-5c-4.4,14-8.9,28-13.3,42c0.3,0.2,0.6,0.4,1,0.5c2.1-1.9,4.3-3.7,6.2-5.8c6.7-7.6,13.1-15.5,19.9-23
	c2.5-2.9,4.3-6.4,5.2-10.1C819.5,323,821.9,322,826.9,322.2z M880.3,323.5c10.8-5.3,18.6-29.2,12.3-37.7
	C885.5,297.5,883.6,310.5,880.3,323.5L880.3,323.5z M780.1,369.8c-10.1,6-15.5,15.7-11.8,23C774.5,390.4,780.2,379.5,780.1,369.8z"
	/>
<g>
	<path class="st5" d="M1191.5,329c-0.4,11.2-4.6,20.3-13.4,27c-1.2,0.9-2.4,1.7-3.3,2.8c-2.8,3.4-4.1,7.3-3.4,11.8
		c0.8,5.1-0.2,9.9-3.3,14c-5.1,6.9-12.8,9.9-20.9,8.1c-4.4-1-8-3.4-10.9-6.8c-2.3-2.6-3.6-5.7-4.2-9.1c-0.4-2.3,1-4.3,3.3-4.7
		c2.1-0.4,4.2,1,4.7,3.2c0.7,3.2,2.2,5.8,4.8,7.7c3.9,2.8,8,3,12.2,0.8c4.6-2.3,7-7.3,6.2-12.4c-0.7-4.4-0.3-8.6,1.8-12.6
		c1.5-2.8,3.4-5.3,5.8-7.5c1.2-1,2.4-2,3.6-3.1c6.6-5.8,9.4-13.1,8.5-21.7c-0.7-6.9-3.8-12.4-8.9-17c-7-6.3-18.4-8.1-27.3-3.5
		c-9.4,4.9-14.3,12.8-14.5,23.5c0,1.2,0.2,2.4,0.3,3.5c0.4,2.6-0.9,4.6-3.4,5.1c-2.3,0.4-4.3-1.2-4.7-3.8c-1.7-12,2-22.2,10.8-30.4
		c2.9-2.6,6.3-4.6,9.9-6c9.2-3.6,18.3-3.2,27.2,1c1.9,0.9,3.7,2.2,5.4,3.4C1187.1,309.2,1191.1,318.3,1191.5,329z"/>
	<path class="st5" d="M1149.9,340.6c5-0.2,8.6,1.7,10.2,6.6c1.2,3.5,0,7.7-3,9.8c-3.9,2.8-7.9,2.6-12-0.1c-1,1.1-2,2.1-3,3.2
		c-1.7,1.8-4.1,2-5.8,0.4c-1.8-1.6-1.9-3.9-0.1-5.8c2.1-2.3,3.9-4.7,4.9-7.6c1.1-3.2,0.7-6.5,0.2-9.8c-0.3-2-0.7-4-1-6
		c-0.6-5.2,0.9-9.7,4.2-13.7c7.3-9,22.1-8.3,28.5,2.1c3.2,5.2,3.7,11,1.1,16.8c-0.6,1.4-1.4,2.7-2.3,4c-1.4,2-4,2.4-5.8,0.9
		c-1.9-1.4-2.1-3.9-0.6-5.9c2.8-3.7,3.1-7.7,0.8-11.4c-2.5-4-7.6-5.6-11.9-3.9c-4.4,1.8-6.9,6.4-6,11
		C1149,334.3,1149.4,337.4,1149.9,340.6z"/>
</g>
<g>
	<g id="Layer_1-2">
		<path class="st5" d="M517,310c14.1,0,27.6,5.5,37.5,15.5l10.8,10.8l-10.8,10.8c-20.7,20.7-54.3,20.7-75,0l0,0l-10.8-10.8
			l10.8-10.8C489.4,315.6,502.9,310,517,310 M517,304.4c-15.5,0-30.4,6.2-41.4,17.1l-14.8,14.8l14.8,14.7c22.9,22.9,60,22.9,82.9,0
			l14.7-14.7l-14.7-14.8C547.5,310.5,532.6,304.4,517,304.4z"/>
		<path class="st5" d="M517,319.5c-1.7,0-3.3,0.3-4.9,0.8c4.2,2,6,7,4,11.2s-7,6-11.2,4c-1.7-0.8-3.1-2.2-4-4
			c-0.5,1.6-0.7,3.2-0.7,4.8c0,9.3,7.6,16.9,16.9,16.9c9.3,0,16.9-7.6,16.9-16.9C533.9,327,526.3,319.5,517,319.5z"/>
	</g>
</g>
<path class="st6" d="M625.9,355.6l-23-23l23-22.9l-23,22.9c0,0,38.7,0.2,51.6,0.1c12,0,21.4-0.2,32-35.9
	c2.5-8.3,21.2-128.9,163.9-128.9s167.8,141.1,167.8,141.1"/>
<path class="st6" d="M1068.5,319.6l23,23l-23,22.9l23-22.9c0,0-38.7-0.2-51.6-0.1c-12,0-21.4,0.2-32,35.9
	c-2.5,8.3-21.2,128.9-163.9,128.9S676.1,366.1,676.1,366.1"/>
</svg>
