<?xml version="1.0" encoding="utf-8"?>
<!-- Generator: Adobe Illustrator 21.1.0, SVG Export Plug-In . SVG Version: 6.00 Build 0)  -->
<svg version="1.1" xmlns="http://www.w3.org/2000/svg" xmlns:xlink="http://www.w3.org/1999/xlink" x="0px" y="0px"
	 viewBox="0 0 1637.2 676.4" style="enable-background:new 0 0 1637.2 676.4;" xml:space="preserve">
<style type="text/css">
	.st0{fill:url(#SVGID_1_);}
	.st1{fill:url(#SVGID_2_);}
	.st2{fill:#606060;}
	.st3{fill:#BABABA;}
	.st4{fill:#F4F4F4;}
	.st5{fill:#C14528;}
	.st6{fill:#E64F30;}
	.st7{fill:#9F3923;}
	.st8{fill:#FFFFFF;}
	.st9{fill:#C8462C;}
	.st10{fill:#C8442B;}
	.st11{fill:#BA4029;}
</style>
<g id="Layer_2_1_">
	
		<linearGradient id="SVGID_1_" gradientUnits="userSpaceOnUse" x1="2.441406e-05" y1="-62.36" x2="1637.2" y2="-62.36" gradientTransform="matrix(1 0 0 -1 0 275.84)">
		<stop  offset="0" style="stop-color:#8CC152"/>
		<stop  offset="1" style="stop-color:#B5DC8C"/>
	</linearGradient>
	<rect x="0" y="0" class="st0" width="1637.2" height="676.4"/>
	
		<linearGradient id="SVGID_2_" gradientUnits="userSpaceOnUse" x1="-0.1" y1="-464.36" x2="1637.3" y2="-464.36" gradientTransform="matrix(1 0 0 -1 0 -126.16)">
		<stop  offset="0" style="stop-color:#884A9D"/>
		<stop  offset="1" style="stop-color:#AD7CB6"/>
	</linearGradient>
	<rect x="-0.1" y="0" class="st1" width="1637.4" height="676.4"/>
</g>
<g id="Layer_1">
	<title>publish3</title>
	<g id="Paper">
		<polygon id="Fold" class="st2" points="862.8,151 862.8,220.7 934.2,220.7 		"/>
		<polygon id="FoldShadow" class="st3" points="812.5,151 862.8,151 862.8,220.7 		"/>
		<path class="st4" d="M863.2,220.7c0.7,1,1.1,2.3,1.1,3.6c0,3.6-2.9,6.6-6.6,6.6h-75.4c-3.6,0-6.6-3-6.6-6.6c0-3.6,3-6.6,6.6-6.6
			h75.4c1.5,0,2.8,0.5,3.9,1.3l-49-67.9H706.8v334.8h227.3V220.7H863.2z M899.6,412.4H742.2c-3.6,0-6.6-2.9-6.6-6.6s3-6.6,6.6-6.6
			h157.3c3.6,0,6.6,2.9,6.6,6.6S903.2,412.4,899.6,412.4z M899.6,379.5H742.2c-3.6,0-6.6-2.9-6.6-6.6s3-6.6,6.6-6.6h157.3
			c3.6,0,6.6,2.9,6.6,6.6S903.2,379.5,899.6,379.5z M899.6,344.3H742.2c-3.6,0-6.6-3-6.6-6.6s3-6.6,6.6-6.6h157.3
			c3.6,0,6.6,3,6.6,6.6S903.2,344.3,899.6,344.3z M899.6,310.3H742.2c-3.6,0-6.6-3-6.6-6.6s3-6.6,6.6-6.6h157.3c3.6,0,6.6,3,6.6,6.6
			S903.2,310.3,899.6,310.3z M899.6,275.2H742.2c-3.6,0-6.6-3-6.6-6.6s3-6.6,6.6-6.6h157.3c3.6,0,6.6,3,6.6,6.6
			S903.2,275.2,899.6,275.2z"/>
	</g>
	<g id="Stamp">
		<path class="st5" d="M925.8,508.6c-4.9-1.6-9.5-3.1-14.1-4.8c-2.5-1.1-5.3-0.4-7.1,1.7c-3.4,3-6.9,5.8-11,9
			c-0.8-4.6-2.7-14.5-2.7-14.5c-1.3,6.6-2.9,14.5-4.4,21.4c-4.4-3.7-8.3-7.3-12.5-10.5c-1.1-0.7-2.4-1-3.6-0.7c-5,1.4-10,3.1-15.7,5
			c1-5.8,1.8-11,2.9-16.3c1.6-8.1,3.6-16.2,5-24.4c0.2-1.2-2-3.4-3.5-4.2c-4.4-2.2-7.8-4.9-9.1-9.4c1.7,4.2,4.9,7.5,9.1,9.3
			c3.3,1.7,6.3,4,8.8,6.8c4.8,4.9,9.6,8.2,17,7c5.4-0.6,10.8-0.6,16.2,0c5.4,0.3,10.6-1.6,14.5-5.4c1.8-1.5,3.6-3,5.5-4.4
			c-1.2,1.8-0.8,4.1,0,9.3C922.8,490.6,925.8,507,925.8,508.6z"/>
		<path class="st6" d="M858.2,511.3c0,0,11.7-4.4,15.1-3.7c3.4,0.7,11.9,9.1,11.9,9.1l6-30.5c-1.3-0.1-2.7,0-4,0.2
			c-2.3,0.5-4.6,0.6-6.9,0.4c-1.9-0.3-3.8-1-5.5-1.9c-2.1-1.2-4-2.7-5.6-4.4c-1.2-1.4-2.5-2.6-4.1-3.5L858.2,511.3z"/>
		<path class="st6" d="M922.9,504.8l-4.7-25.4c-0.4,0.3-0.9,0.7-1.6,1.3c-1,0.9-2,1.7-3.1,2.4c-1.8,1.3-3.9,2.3-6.1,2.9
			c-1.3,0.4-2.6,0.6-4,0.5c-2.3,0-3.6-0.2-6.4-0.3l-3.3,13.8l1.6,9.9c0,0,9-9.3,12.6-9.8C911.6,499.8,922.9,504.8,922.9,504.8z"/>
		<path class="st7" d="M892.3,506.3l5.4-22.7c-1.2-0.1-2.4-0.2-3.6-0.2l-3,16.6L892.3,506.3z"/>
		<path class="st8" d="M937.8,439.2c-0.4,0.7-0.8,1.5-1.1,2.2c-2.6,5.4-4.3,11.1-5.2,17c-0.1,0.4-0.2,0.9-0.4,1.3l-0.1,0.3
			c-1.6,2.4-3.5,4.4-5.9,6.1c-3.6,3-8.4,4.8-11.6,8.2c-4.1,4.4-8.6,5.3-14.1,4.7c-5.1-0.6-10.3-0.6-15.4,0.1c-5,0.8-7.9-1.7-11-4.4
			c-2.7-2.3-5.1-5.3-8.2-6.6c-6.6-3-10.6-7.1-11.2-15c-0.3-4.3-3-8.3-4.7-12.5c-0.6-1.5-1.2-3.1-1.6-4.4c0.1-1.3,0.3-2.6,0.8-3.9
			l0,0c0.5-0.8,0.9-1.6,1.3-2.5c0.2-0.4,0.4-0.8,0.6-1.2c2.4-5,3.9-10.3,4.4-15.8c0.1-1,0.4-2,0.8-2.9v-0.1c1.4-2,3.2-3.7,5.3-4.8
			c3.8-2.6,8.1-4.6,11.3-7.8c3.9-4.4,9.9-6.3,15.6-5c4.6,0.8,9.2,0.7,13.7-0.2c3.4-1,7.1,0.1,9.5,2.7c4.1,4.7,9.3,8.4,15,10.8
			c5.2,2.2,5.4,6.9,6.7,11.2c1.3,4.9,2.9,9.8,5,14.4c1.4,2.4,1.6,5.4,0.4,7.9V439.2z"/>
		<path class="st9" d="M943.4,434.4c-0.2-2.2-0.9-4.3-1.9-6.3c-2-4-3.4-8.2-4.3-12.6c-1.2-6.5-3.5-11.4-9.7-14.7
			c-4.6-2.8-8.9-6-12.9-9.6c-4-3.7-9.6-5.2-15-3.9c-3.7,0.9-7.6,0.9-11.4,0.1c-6.9-1.9-14.3,0.5-18.8,5.9c-3,3.2-7.3,5.2-11,7.6
			c-4.2,2.6-7.6,5.6-8.5,11c-0.7,4-0.8,8.6-2.9,11.8c-4.9,7.7-5.5,14.8-0.5,22.7c1.9,3.5,3.1,7.3,3.3,11.3c0.1,1.1,0.3,2.3,0.6,3.3
			c1.7,4.2,4.9,7.5,9.1,9.3c3.3,1.7,6.3,4,8.8,6.8c4.8,4.9,9.6,8.2,17,7c5.4-0.6,10.8-0.6,16.2,0c5.4,0.3,10.6-1.6,14.5-5.4
			c1.8-1.5,3.6-3,5.5-4.4c0.9-1.4,2.9-2.5,6.3-4.2l0,0l0.3-0.2c4.4-2.2,7.8-5.4,8.2-10.4l0,0c0.5-5.8,2.2-11.4,5.1-16.4
			c0.2-0.4,0.4-0.7,0.6-1.1l0,0C943.2,439.7,943.7,437,943.4,434.4z M937.8,439.2c-0.4,0.7-0.8,1.5-1.1,2.2
			c-2.6,5.4-4.3,11.1-5.2,17c-0.1,0.4-0.2,0.9-0.4,1.3l-0.1,0.3c-1.6,2.4-3.5,4.4-5.9,6.1c-3.6,3-8.4,4.8-11.6,8.2
			c-4.1,4.4-8.6,5.3-14.1,4.7c-5.1-0.6-10.3-0.6-15.4,0.1c-5,0.8-7.9-1.7-11-4.4c-2.7-2.3-5.1-5.3-8.2-6.6c-6.6-3-10.6-7.1-11.2-15
			c-0.3-4.3-3-8.3-4.7-12.5c-0.6-1.5-1.2-3.1-1.6-4.4c0.1-1.3,0.3-2.6,0.8-3.9l0,0c0.5-0.8,0.9-1.6,1.3-2.5c0.2-0.4,0.4-0.8,0.6-1.2
			c2.4-5,3.9-10.3,4.4-15.8c0.1-1,0.4-2,0.8-2.9v-0.1c1.4-2,3.2-3.7,5.3-4.8c3.8-2.6,8.1-4.6,11.3-7.8c3.9-4.4,9.9-6.3,15.6-5
			c4.6,0.8,9.2,0.7,13.7-0.2c3.4-1,7.1,0.1,9.5,2.7c4.1,4.7,9.3,8.4,15,10.8c5.2,2.2,5.4,6.9,6.7,11.2c1.3,4.9,2.9,9.8,5,14.4
			c1.4,2.4,1.6,5.4,0.4,7.9V439.2z"/>
		<path class="st10" d="M893.4,400.8c17.1-1.4,35.1,15.1,34.7,35.3c-0.7,19.2-16.8,34.3-36.1,33.6c-18.7-0.7-33.6-16-33.6-34.7
			C858.3,416.3,875.8,399.4,893.4,400.8z"/>
		<path class="st11" d="M861.4,471.7c2.6,1.3,5,2.9,7.1,4.8c4.8,4.9,9.6,8.2,17,7c5.4-0.6,10.8-0.6,16.2,0
			c5.4,0.3,10.6-1.6,14.5-5.4c1.8-1.5,5.5-4.4,5.5-4.4c-0.9,1-1.3,2.4-1,3.8c0,0-2.9,2.2-4.6,3.8c-3.8,3.8-9.1,5.7-14.5,5.4
			c-5.4-0.6-10.8-0.6-16.2,0c-7.5,1.2-12.3-2.2-17-7c-1.7-1.7-3.5-3.1-5.6-4.4C863.1,474,862.5,472.6,861.4,471.7z"/>
	</g>
</g>
</svg>
