<?xml version="1.0" encoding="utf-8"?>
<!-- Generator: Adobe Illustrator 21.1.0, SVG Export Plug-In . SVG Version: 6.00 Build 0)  -->
<svg version="1.1" id="Layer_1" xmlns="http://www.w3.org/2000/svg" xmlns:xlink="http://www.w3.org/1999/xlink" x="0px" y="0px"
	 viewBox="0 0 1637.2 676.4" style="enable-background:new 0 0 1637.2 676.4;" xml:space="preserve">
<style type="text/css">
	.st0{fill:url(#SVGID_1_);}
	.st1{fill:#F7F7F7;}
</style>
<title>thumb</title>
<g id="Layer_2">
	
		<linearGradient id="SVGID_1_" gradientUnits="userSpaceOnUse" x1="0" y1="740.2" x2="1637.2" y2="740.2" gradientTransform="matrix(1 0 0 1 0 -402)">
		<stop  offset="0" style="stop-color:#4C19C0"/>
		<stop  offset="1" style="stop-color:#4C19C0;stop-opacity:0.8"/>
	</linearGradient>
	<rect class="st0" width="1637.2" height="676.4"/>
</g>
<g id="Layer_1_1_">
	<path class="st1" d="M807.3,456.7c-95.7,8.8-195.5-5.1-209.4-79.9c-6.8-36.9,10-76,32.3-100.3v-13c-40.1,35.2-61.9,79.7-49.4,132.4
		c16,67.5,101.6,105.7,232.3,93c51.7-5,119.4-21.6,166.4-47.5v-36.7C936.7,430.2,866.1,451.2,807.3,456.7z M1059.4,262.7
		c-22.7-110.8-237.9-117.9-376.6-33.4v9.3c138.5-71.2,335.1-70.8,353,31.3c6,33.8-13,69-47,89.2v26.5
		C1029.6,370.6,1071.6,322.1,1059.4,262.7L1059.4,262.7z"/>
	<path class="st1" d="M971.7,246.6h-25.1v111.7c0,13.1,6.3,24.5,25.1,26.3V246.6z"/>
	<path class="st1" d="M672.9,287.4h-25.1v73c0,13.1,6.3,24.5,25.2,26.3L672.9,287.4z"/>
	<rect x="647.8" y="250" class="st1" width="25.1" height="23.8"/>
	<path class="st1" d="M823.2,385.5c-20.3,0-28.9-14.1-28.9-28v-97h24.9v26.8h18.7v20.1h-18.7V356c0,5.7,2.7,8.8,8.6,8.8h10.1v20.7
		H823.2"/>
	<path class="st1" d="M869,344.2c0,12.7,8,22.1,22,22.1c11,0,16.5-3.1,22.8-9.4l15.4,14.6c-9.8,9.7-20.2,15.6-38.4,15.6
		c-23.8,0-46.6-13-46.6-50.9c0-32.4,19.9-50.7,46.1-50.7c26.6,0,41.8,21.4,41.8,49.5v9L869,344.2 M889.2,306.3
		c-8.5,0-15,4.4-17.8,10.3c-1.6,3.4-2.4,7-2.4,10.7h38.3C906.8,316.6,902,306.3,889.2,306.3L889.2,306.3z"/>
	<path class="st1" d="M740.5,307.5c7.3,0,10.3,3.6,10.3,9.5v68.8h24.9v-68.9c0-14-7.4-29.4-29.3-29.4H695v98.3h24.9v-78.2
		L740.5,307.5L740.5,307.5z"/>
	<path class="st1" d="M998.7,266.5c-5.5,0-10-4.5-10-10s4.5-10,10-10s10,4.5,10,10C1008.7,262.1,1004.2,266.5,998.7,266.5z
		 M998.7,248.2c-4.6,0-8.3,3.8-8.3,8.3c0,4.6,3.8,8.3,8.3,8.3c4.6,0,8.2-3.7,8.3-8.3C1007,252,1003.3,248.3,998.7,248.2L998.7,248.2
		z M1003.1,262.5h-1.9c-0.2,0-0.3-0.1-0.4-0.2l-2.5-4.3c-0.1-0.1-0.2-0.2-0.3-0.2h-1.2v4.3c0,0.2-0.2,0.4-0.4,0.5l0,0h-1.7
		c-0.2,0-0.4-0.2-0.4-0.5v-10.8c0-0.6,0.2-0.9,0.8-1s2.2-0.1,3.1-0.1c3.1,0,4.9,0.9,4.9,3.8v0.2c0.1,1.5-0.8,2.8-2.2,3.2l2.6,4.5
		c0,0.1,0.1,0.2,0.1,0.3C1003.6,262.3,1003.4,262.5,1003.1,262.5C1003.2,262.6,1003.2,262.6,1003.1,262.5z M1000.7,254
		c0-1.2-0.8-1.6-2.3-1.6h-1.6v3.4l1.6,0.1c1.6,0,2.3-0.5,2.3-1.7V254z"/>
</g>
</svg>
